G04 #@! TF.GenerationSoftware,KiCad,Pcbnew,9.0.2*
G04 #@! TF.CreationDate,2025-10-25T21:31:50-05:00*
G04 #@! TF.ProjectId,telescope_driver,74656c65-7363-46f7-9065-5f6472697665,rev?*
G04 #@! TF.SameCoordinates,Original*
G04 #@! TF.FileFunction,Soldermask,Top*
G04 #@! TF.FilePolarity,Negative*
%FSLAX46Y46*%
G04 Gerber Fmt 4.6, Leading zero omitted, Abs format (unit mm)*
G04 Created by KiCad (PCBNEW 9.0.2) date 2025-10-25 21:31:50*
%MOMM*%
%LPD*%
G01*
G04 APERTURE LIST*
G04 Aperture macros list*
%AMRoundRect*
0 Rectangle with rounded corners*
0 $1 Rounding radius*
0 $2 $3 $4 $5 $6 $7 $8 $9 X,Y pos of 4 corners*
0 Add a 4 corners polygon primitive as box body*
4,1,4,$2,$3,$4,$5,$6,$7,$8,$9,$2,$3,0*
0 Add four circle primitives for the rounded corners*
1,1,$1+$1,$2,$3*
1,1,$1+$1,$4,$5*
1,1,$1+$1,$6,$7*
1,1,$1+$1,$8,$9*
0 Add four rect primitives between the rounded corners*
20,1,$1+$1,$2,$3,$4,$5,0*
20,1,$1+$1,$4,$5,$6,$7,0*
20,1,$1+$1,$6,$7,$8,$9,0*
20,1,$1+$1,$8,$9,$2,$3,0*%
G04 Aperture macros list end*
%ADD10RoundRect,0.312500X0.587500X-0.437500X0.587500X0.437500X-0.587500X0.437500X-0.587500X-0.437500X0*%
%ADD11O,1.800000X1.500000*%
%ADD12RoundRect,0.102000X0.228600X-0.508000X0.228600X0.508000X-0.228600X0.508000X-0.228600X-0.508000X0*%
%ADD13RoundRect,0.102000X2.476350X-1.575500X2.476350X1.575500X-2.476350X1.575500X-2.476350X-1.575500X0*%
%ADD14C,2.700000*%
%ADD15RoundRect,0.237500X-0.380070X0.044194X0.044194X-0.380070X0.380070X-0.044194X-0.044194X0.380070X0*%
%ADD16R,2.000000X2.000000*%
%ADD17C,2.000000*%
%ADD18RoundRect,0.155000X-0.212500X-0.155000X0.212500X-0.155000X0.212500X0.155000X-0.212500X0.155000X0*%
%ADD19RoundRect,0.250000X-0.412500X-0.650000X0.412500X-0.650000X0.412500X0.650000X-0.412500X0.650000X0*%
%ADD20RoundRect,0.250001X0.872499X1.044999X-0.872499X1.044999X-0.872499X-1.044999X0.872499X-1.044999X0*%
%ADD21RoundRect,0.250000X-0.650000X0.412500X-0.650000X-0.412500X0.650000X-0.412500X0.650000X0.412500X0*%
%ADD22RoundRect,0.155000X0.155000X-0.212500X0.155000X0.212500X-0.155000X0.212500X-0.155000X-0.212500X0*%
%ADD23RoundRect,0.100000X0.224506X-0.083085X-0.083085X0.224506X-0.224506X0.083085X0.083085X-0.224506X0*%
%ADD24RoundRect,0.250001X0.462499X0.624999X-0.462499X0.624999X-0.462499X-0.624999X0.462499X-0.624999X0*%
%ADD25RoundRect,0.250000X0.412500X0.650000X-0.412500X0.650000X-0.412500X-0.650000X0.412500X-0.650000X0*%
%ADD26RoundRect,0.250001X-0.624999X0.462499X-0.624999X-0.462499X0.624999X-0.462499X0.624999X0.462499X0*%
%ADD27RoundRect,0.102000X-1.225000X-1.225000X1.225000X-1.225000X1.225000X1.225000X-1.225000X1.225000X0*%
%ADD28C,2.654000*%
%ADD29RoundRect,0.250000X-0.625000X0.400000X-0.625000X-0.400000X0.625000X-0.400000X0.625000X0.400000X0*%
%ADD30RoundRect,0.312500X-0.587500X0.437500X-0.587500X-0.437500X0.587500X-0.437500X0.587500X0.437500X0*%
%ADD31RoundRect,0.250000X-0.400000X-0.625000X0.400000X-0.625000X0.400000X0.625000X-0.400000X0.625000X0*%
%ADD32RoundRect,0.062500X0.062500X-0.337500X0.062500X0.337500X-0.062500X0.337500X-0.062500X-0.337500X0*%
%ADD33RoundRect,0.062500X0.337500X-0.062500X0.337500X0.062500X-0.337500X0.062500X-0.337500X-0.062500X0*%
%ADD34R,3.700000X3.700000*%
%ADD35RoundRect,0.102000X-1.312500X-1.312500X1.312500X-1.312500X1.312500X1.312500X-1.312500X1.312500X0*%
%ADD36C,2.829000*%
%ADD37RoundRect,0.102000X-1.750000X-0.800000X1.750000X-0.800000X1.750000X0.800000X-1.750000X0.800000X0*%
%ADD38R,2.209800X2.260600*%
%ADD39RoundRect,0.168750X-0.335875X-0.097228X-0.097228X-0.335875X0.335875X0.097228X0.097228X0.335875X0*%
%ADD40R,1.498600X3.606800*%
%ADD41RoundRect,0.250000X0.650000X-0.412500X0.650000X0.412500X-0.650000X0.412500X-0.650000X-0.412500X0*%
%ADD42RoundRect,0.102000X-2.120900X-1.905000X2.120900X-1.905000X2.120900X1.905000X-2.120900X1.905000X0*%
%ADD43RoundRect,0.250000X0.400000X0.625000X-0.400000X0.625000X-0.400000X-0.625000X0.400000X-0.625000X0*%
%ADD44RoundRect,0.250000X0.625000X-0.400000X0.625000X0.400000X-0.625000X0.400000X-0.625000X-0.400000X0*%
%ADD45RoundRect,0.102000X-1.905000X2.120900X-1.905000X-2.120900X1.905000X-2.120900X1.905000X2.120900X0*%
%ADD46R,1.700000X1.700000*%
%ADD47O,1.700000X1.700000*%
G04 APERTURE END LIST*
D10*
X152550000Y-85200000D03*
D11*
X152550000Y-83200000D03*
X152550000Y-81200000D03*
X152550000Y-79200000D03*
D12*
X131724800Y-80673600D03*
X132512200Y-80673600D03*
X133325000Y-80673600D03*
X134112400Y-80673600D03*
X134899800Y-80673600D03*
X135712600Y-80673600D03*
X136500000Y-80673600D03*
X136500000Y-76000000D03*
X135712600Y-76000000D03*
X134899800Y-76000000D03*
X134112400Y-76000000D03*
X133325000Y-76000000D03*
X132512200Y-76000000D03*
X131724800Y-76000000D03*
D13*
X134112400Y-78336800D03*
D14*
X161500000Y-47500000D03*
D15*
X143190120Y-65790120D03*
X144409880Y-67009880D03*
D16*
X132710000Y-73450000D03*
D17*
X137790000Y-73450000D03*
X111000000Y-79850000D03*
X111000000Y-87470000D03*
D18*
X134932500Y-82000000D03*
X136067500Y-82000000D03*
D19*
X118125000Y-56350000D03*
X121250000Y-56350000D03*
D20*
X106000000Y-65050000D03*
X99585000Y-65050000D03*
D21*
X123800000Y-51525000D03*
X123800000Y-54650000D03*
D22*
X137800000Y-78735000D03*
X137800000Y-77600000D03*
D19*
X144107500Y-55860000D03*
X147232500Y-55860000D03*
D23*
X152788146Y-71688146D03*
X152211854Y-71111854D03*
D24*
X159337500Y-58380000D03*
X156362500Y-58380000D03*
D25*
X152852500Y-63090000D03*
X149727500Y-63090000D03*
D26*
X102150000Y-57300000D03*
X102150000Y-60275000D03*
D27*
X124000000Y-85450000D03*
D28*
X124000000Y-90150000D03*
X124000000Y-94850000D03*
D20*
X106100000Y-74900000D03*
X99685000Y-74900000D03*
D29*
X102100000Y-46800000D03*
X102100000Y-49900000D03*
D15*
X149840120Y-68590120D03*
X151059880Y-69809880D03*
D23*
X162684090Y-71684090D03*
X162107798Y-71107798D03*
D30*
X160550000Y-79200000D03*
D11*
X160550000Y-81200000D03*
X160550000Y-83200000D03*
X160550000Y-85200000D03*
D31*
X135600000Y-96350000D03*
X138700000Y-96350000D03*
D32*
X125050000Y-61250000D03*
X125550000Y-61250000D03*
X126050000Y-61250000D03*
X126550000Y-61250000D03*
X127050000Y-61250000D03*
X127550000Y-61250000D03*
X128050000Y-61250000D03*
D33*
X129000000Y-60300000D03*
X129000000Y-59800000D03*
X129000000Y-59300000D03*
X129000000Y-58800000D03*
X129000000Y-58300000D03*
X129000000Y-57800000D03*
X129000000Y-57300000D03*
D32*
X128050000Y-56350000D03*
X127550000Y-56350000D03*
X127050000Y-56350000D03*
X126550000Y-56350000D03*
X126050000Y-56350000D03*
X125550000Y-56350000D03*
X125050000Y-56350000D03*
D33*
X124100000Y-57300000D03*
X124100000Y-57800000D03*
X124100000Y-58300000D03*
X124100000Y-58800000D03*
X124100000Y-59300000D03*
X124100000Y-59800000D03*
X124100000Y-60300000D03*
D34*
X126550000Y-58800000D03*
D15*
X137440120Y-65790120D03*
X138659880Y-67009880D03*
D32*
X150050000Y-61250000D03*
X150550000Y-61250000D03*
X151050000Y-61250000D03*
X151550000Y-61250000D03*
X152050000Y-61250000D03*
X152550000Y-61250000D03*
X153050000Y-61250000D03*
D33*
X154000000Y-60300000D03*
X154000000Y-59800000D03*
X154000000Y-59300000D03*
X154000000Y-58800000D03*
X154000000Y-58300000D03*
X154000000Y-57800000D03*
X154000000Y-57300000D03*
D32*
X153050000Y-56350000D03*
X152550000Y-56350000D03*
X152050000Y-56350000D03*
X151550000Y-56350000D03*
X151050000Y-56350000D03*
X150550000Y-56350000D03*
X150050000Y-56350000D03*
D33*
X149100000Y-57300000D03*
X149100000Y-57800000D03*
X149100000Y-58300000D03*
X149100000Y-58800000D03*
X149100000Y-59300000D03*
X149100000Y-59800000D03*
X149100000Y-60300000D03*
D34*
X151550000Y-58800000D03*
D14*
X103500000Y-96500000D03*
D35*
X112270000Y-97000000D03*
D36*
X116230000Y-97000000D03*
D37*
X119750000Y-61450000D03*
X114150000Y-61450000D03*
D38*
X115144700Y-53600000D03*
X111055300Y-53600000D03*
D39*
X159621662Y-68621662D03*
X160558578Y-69558578D03*
D24*
X134387500Y-58350000D03*
X131412500Y-58350000D03*
D15*
X133880240Y-65780240D03*
X135100000Y-67000000D03*
D40*
X133500000Y-85250000D03*
X133500000Y-93860600D03*
D24*
X159355000Y-55940000D03*
X156380000Y-55940000D03*
D37*
X146500000Y-61050000D03*
X140900000Y-61050000D03*
D23*
X143350000Y-68950000D03*
X142773708Y-68373708D03*
D21*
X133300000Y-60487500D03*
X133300000Y-63612500D03*
D31*
X117450000Y-51200000D03*
X120550000Y-51200000D03*
D21*
X156000000Y-61187500D03*
X156000000Y-64312500D03*
D41*
X129750000Y-81862500D03*
X129750000Y-78737500D03*
D24*
X131537500Y-96350000D03*
X128562500Y-96350000D03*
D14*
X161500000Y-96500000D03*
D23*
X141300400Y-69672400D03*
X140724108Y-69096108D03*
D29*
X102110000Y-51877500D03*
X102110000Y-54977500D03*
D15*
X156230240Y-68580240D03*
X157450000Y-69800000D03*
D42*
X111562300Y-92500000D03*
X117937700Y-92500000D03*
D25*
X155322500Y-53170000D03*
X152197500Y-53170000D03*
D23*
X137138146Y-68988146D03*
X136561854Y-68411854D03*
D43*
X162662400Y-53264000D03*
X159562400Y-53264000D03*
D20*
X106057500Y-69850000D03*
X99642500Y-69850000D03*
D21*
X158310000Y-61187500D03*
X158310000Y-64312500D03*
D23*
X156523746Y-72449746D03*
X155947454Y-71873454D03*
X159288146Y-71688146D03*
X158711854Y-71111854D03*
D15*
X140090120Y-65740120D03*
X141309880Y-66959880D03*
D25*
X127912500Y-63900000D03*
X124787500Y-63900000D03*
D24*
X134387500Y-55900000D03*
X131412500Y-55900000D03*
D44*
X137084000Y-61519600D03*
X137084000Y-58419600D03*
D43*
X141950000Y-55850000D03*
X138850000Y-55850000D03*
D25*
X131875000Y-52000000D03*
X128750000Y-52000000D03*
D21*
X131000000Y-60487500D03*
X131000000Y-63612500D03*
D15*
X153475720Y-69341840D03*
X154695480Y-70561600D03*
D25*
X152852500Y-65500000D03*
X149727500Y-65500000D03*
D23*
X146388146Y-68938146D03*
X145811854Y-68361854D03*
D25*
X127912500Y-66300000D03*
X124787500Y-66300000D03*
D19*
X144087500Y-53400000D03*
X147212500Y-53400000D03*
D45*
X106600000Y-53312300D03*
X106600000Y-59687700D03*
D44*
X162636400Y-63907200D03*
X162636400Y-60807200D03*
D46*
X108370000Y-48770000D03*
D47*
X108370000Y-46230000D03*
X110910000Y-48770000D03*
X110910000Y-46230000D03*
X113450000Y-48770000D03*
X113450000Y-46230000D03*
X115990000Y-48770000D03*
X115990000Y-46230000D03*
X118530000Y-48770000D03*
X118530000Y-46230000D03*
X121070000Y-48770000D03*
X121070000Y-46230000D03*
X123610000Y-48770000D03*
X123610000Y-46230000D03*
X126150000Y-48770000D03*
X126150000Y-46230000D03*
X128690000Y-48770000D03*
X128690000Y-46230000D03*
X131230000Y-48770000D03*
X131230000Y-46230000D03*
X133770000Y-48770000D03*
X133770000Y-46230000D03*
X136310000Y-48770000D03*
X136310000Y-46230000D03*
X138850000Y-48770000D03*
X138850000Y-46230000D03*
X141390000Y-48770000D03*
X141390000Y-46230000D03*
X143930000Y-48770000D03*
X143930000Y-46230000D03*
X146470000Y-48770000D03*
X146470000Y-46230000D03*
X149010000Y-48770000D03*
X149010000Y-46230000D03*
X151550000Y-48770000D03*
X151550000Y-46230000D03*
X154090000Y-48770000D03*
X154090000Y-46230000D03*
X156630000Y-48770000D03*
X156630000Y-46230000D03*
M02*
