G04 #@! TF.GenerationSoftware,KiCad,Pcbnew,9.0.2*
G04 #@! TF.CreationDate,2025-10-25T21:31:50-05:00*
G04 #@! TF.ProjectId,telescope_driver,74656c65-7363-46f7-9065-5f6472697665,rev?*
G04 #@! TF.SameCoordinates,Original*
G04 #@! TF.FileFunction,Copper,L2,Bot*
G04 #@! TF.FilePolarity,Positive*
%FSLAX46Y46*%
G04 Gerber Fmt 4.6, Leading zero omitted, Abs format (unit mm)*
G04 Created by KiCad (PCBNEW 9.0.2) date 2025-10-25 21:31:50*
%MOMM*%
%LPD*%
G01*
G04 APERTURE LIST*
G04 Aperture macros list*
%AMRoundRect*
0 Rectangle with rounded corners*
0 $1 Rounding radius*
0 $2 $3 $4 $5 $6 $7 $8 $9 X,Y pos of 4 corners*
0 Add a 4 corners polygon primitive as box body*
4,1,4,$2,$3,$4,$5,$6,$7,$8,$9,$2,$3,0*
0 Add four circle primitives for the rounded corners*
1,1,$1+$1,$2,$3*
1,1,$1+$1,$4,$5*
1,1,$1+$1,$6,$7*
1,1,$1+$1,$8,$9*
0 Add four rect primitives between the rounded corners*
20,1,$1+$1,$2,$3,$4,$5,0*
20,1,$1+$1,$4,$5,$6,$7,0*
20,1,$1+$1,$6,$7,$8,$9,0*
20,1,$1+$1,$8,$9,$2,$3,0*%
G04 Aperture macros list end*
G04 #@! TA.AperFunction,ComponentPad*
%ADD10RoundRect,0.312500X0.587500X-0.437500X0.587500X0.437500X-0.587500X0.437500X-0.587500X-0.437500X0*%
G04 #@! TD*
G04 #@! TA.AperFunction,ComponentPad*
%ADD11O,1.800000X1.500000*%
G04 #@! TD*
G04 #@! TA.AperFunction,ComponentPad*
%ADD12R,2.000000X2.000000*%
G04 #@! TD*
G04 #@! TA.AperFunction,ComponentPad*
%ADD13C,2.000000*%
G04 #@! TD*
G04 #@! TA.AperFunction,ComponentPad*
%ADD14R,2.450000X2.450000*%
G04 #@! TD*
G04 #@! TA.AperFunction,ComponentPad*
%ADD15C,2.450000*%
G04 #@! TD*
G04 #@! TA.AperFunction,ComponentPad*
%ADD16RoundRect,0.312500X-0.587500X0.437500X-0.587500X-0.437500X0.587500X-0.437500X0.587500X0.437500X0*%
G04 #@! TD*
G04 #@! TA.AperFunction,HeatsinkPad*
%ADD17C,0.500000*%
G04 #@! TD*
G04 #@! TA.AperFunction,HeatsinkPad*
%ADD18R,3.500000X3.500000*%
G04 #@! TD*
G04 #@! TA.AperFunction,ComponentPad*
%ADD19R,2.625000X2.625000*%
G04 #@! TD*
G04 #@! TA.AperFunction,ComponentPad*
%ADD20C,2.625000*%
G04 #@! TD*
G04 #@! TA.AperFunction,ComponentPad*
%ADD21R,1.700000X1.700000*%
G04 #@! TD*
G04 #@! TA.AperFunction,ComponentPad*
%ADD22O,1.700000X1.700000*%
G04 #@! TD*
G04 #@! TA.AperFunction,ViaPad*
%ADD23C,0.750000*%
G04 #@! TD*
G04 #@! TA.AperFunction,ViaPad*
%ADD24C,0.900000*%
G04 #@! TD*
G04 #@! TA.AperFunction,ViaPad*
%ADD25C,1.200000*%
G04 #@! TD*
G04 #@! TA.AperFunction,ViaPad*
%ADD26C,0.800000*%
G04 #@! TD*
G04 #@! TA.AperFunction,Conductor*
%ADD27C,1.000000*%
G04 #@! TD*
G04 #@! TA.AperFunction,Conductor*
%ADD28C,0.200000*%
G04 #@! TD*
G04 #@! TA.AperFunction,Conductor*
%ADD29C,0.350000*%
G04 #@! TD*
G04 #@! TA.AperFunction,Conductor*
%ADD30C,0.500000*%
G04 #@! TD*
G04 APERTURE END LIST*
D10*
X152550000Y-85200000D03*
D11*
X152550000Y-83200000D03*
X152550000Y-81200000D03*
X152550000Y-79200000D03*
D12*
X132710000Y-73450000D03*
D13*
X137790000Y-73450000D03*
X111000000Y-79850000D03*
X111000000Y-87470000D03*
D14*
X124000000Y-85450000D03*
D15*
X124000000Y-90150000D03*
X124000000Y-94850000D03*
D16*
X160550000Y-79200000D03*
D11*
X160550000Y-81200000D03*
X160550000Y-83200000D03*
X160550000Y-85200000D03*
D17*
X125050000Y-60300000D03*
X126050000Y-60300000D03*
X127050000Y-60300000D03*
X128050000Y-60300000D03*
X125050000Y-59300000D03*
X126050000Y-59300000D03*
X127050000Y-59300000D03*
X128050000Y-59300000D03*
D18*
X126550000Y-58800000D03*
D17*
X125050000Y-58300000D03*
X126050000Y-58300000D03*
X127050000Y-58300000D03*
X128050000Y-58300000D03*
X125050000Y-57300000D03*
X126050000Y-57300000D03*
X127050000Y-57300000D03*
X128050000Y-57300000D03*
X150050000Y-60300000D03*
X151050000Y-60300000D03*
X152050000Y-60300000D03*
X153050000Y-60300000D03*
X150050000Y-59300000D03*
X151050000Y-59300000D03*
X152050000Y-59300000D03*
X153050000Y-59300000D03*
D18*
X151550000Y-58800000D03*
D17*
X150050000Y-58300000D03*
X151050000Y-58300000D03*
X152050000Y-58300000D03*
X153050000Y-58300000D03*
X150050000Y-57300000D03*
X151050000Y-57300000D03*
X152050000Y-57300000D03*
X153050000Y-57300000D03*
D19*
X112270000Y-97000000D03*
D20*
X116230000Y-97000000D03*
D21*
X108370000Y-48770000D03*
D22*
X108370000Y-46230000D03*
X110910000Y-48770000D03*
X110910000Y-46230000D03*
X113450000Y-48770000D03*
X113450000Y-46230000D03*
X115990000Y-48770000D03*
X115990000Y-46230000D03*
X118530000Y-48770000D03*
X118530000Y-46230000D03*
X121070000Y-48770000D03*
X121070000Y-46230000D03*
X123610000Y-48770000D03*
X123610000Y-46230000D03*
X126150000Y-48770000D03*
X126150000Y-46230000D03*
X128690000Y-48770000D03*
X128690000Y-46230000D03*
X131230000Y-48770000D03*
X131230000Y-46230000D03*
X133770000Y-48770000D03*
X133770000Y-46230000D03*
X136310000Y-48770000D03*
X136310000Y-46230000D03*
X138850000Y-48770000D03*
X138850000Y-46230000D03*
X141390000Y-48770000D03*
X141390000Y-46230000D03*
X143930000Y-48770000D03*
X143930000Y-46230000D03*
X146470000Y-48770000D03*
X146470000Y-46230000D03*
X149010000Y-48770000D03*
X149010000Y-46230000D03*
X151550000Y-48770000D03*
X151550000Y-46230000D03*
X154090000Y-48770000D03*
X154090000Y-46230000D03*
X156630000Y-48770000D03*
X156630000Y-46230000D03*
D23*
X149400000Y-70400000D03*
X127600000Y-76200000D03*
X143400000Y-78800000D03*
X162600000Y-66800000D03*
X125000000Y-68400000D03*
X131400000Y-68400000D03*
X159600000Y-90800000D03*
X111800000Y-58800000D03*
X104200000Y-48400000D03*
X138000000Y-52600000D03*
X152000000Y-90800000D03*
X152000000Y-96400000D03*
X111200000Y-83800000D03*
X118600000Y-73200000D03*
X114150000Y-70200000D03*
X114150000Y-66400000D03*
D24*
X144750000Y-65050000D03*
X143350000Y-63800000D03*
X138700000Y-58450000D03*
D25*
X137500000Y-80150000D03*
D24*
X122600000Y-58200000D03*
D23*
X139400000Y-67800000D03*
X142200000Y-67800000D03*
D24*
X122600000Y-59350000D03*
D23*
X145250000Y-67800000D03*
D24*
X124793892Y-61750000D03*
X125350000Y-55050000D03*
D23*
X135875000Y-67775000D03*
X161540120Y-70550000D03*
D24*
X149305395Y-61167398D03*
D23*
X155435600Y-71361600D03*
D24*
X147730000Y-58310000D03*
D23*
X151700000Y-70600000D03*
D24*
X150050000Y-55100000D03*
X147866397Y-59446397D03*
D23*
X158100000Y-70550000D03*
D26*
X154000000Y-55250000D03*
X155000000Y-59800000D03*
X135760002Y-83110000D03*
D27*
X143350000Y-63100000D02*
X138700000Y-58450000D01*
X144750000Y-65050000D02*
X144600000Y-65050000D01*
X144600000Y-65050000D02*
X143350000Y-63800000D01*
X143350000Y-63800000D02*
X143350000Y-63100000D01*
D28*
X119938500Y-79850000D02*
X111000000Y-79850000D01*
D29*
X137500000Y-80150000D02*
X136700000Y-80950000D01*
D28*
X120650000Y-80561500D02*
X119938500Y-79850000D01*
D29*
X121038500Y-80950000D02*
X120650000Y-80561500D01*
X136700000Y-80950000D02*
X121038500Y-80950000D01*
D30*
X121550000Y-58200000D02*
X122600000Y-58200000D01*
X139400000Y-67800000D02*
X135351000Y-63751000D01*
X121150000Y-62850000D02*
X121150000Y-58600000D01*
X152550000Y-83200000D02*
X148600000Y-79250000D01*
X148600000Y-79250000D02*
X148600000Y-77000000D01*
X122051000Y-63751000D02*
X121150000Y-62850000D01*
X135351000Y-63751000D02*
X122051000Y-63751000D01*
X121150000Y-58600000D02*
X121550000Y-58200000D01*
X148600000Y-77000000D02*
X139400000Y-67800000D01*
X122600000Y-61800000D02*
X123450000Y-62650000D01*
X150100000Y-75700000D02*
X150100000Y-78750000D01*
X122600000Y-59350000D02*
X122600000Y-61800000D01*
X150100000Y-78750000D02*
X152550000Y-81200000D01*
X142200000Y-67800000D02*
X150100000Y-75700000D01*
X137050000Y-62650000D02*
X142200000Y-67800000D01*
X123450000Y-62650000D02*
X137050000Y-62650000D01*
X152550000Y-79200000D02*
X152550000Y-75100000D01*
X141250000Y-63800000D02*
X145250000Y-67800000D01*
X124793892Y-61750000D02*
X124993892Y-61950000D01*
X139400000Y-61950000D02*
X141250000Y-63800000D01*
X152550000Y-75100000D02*
X145250000Y-67800000D01*
X124993892Y-61950000D02*
X139400000Y-61950000D01*
X121800000Y-65100000D02*
X133200000Y-65100000D01*
X125350000Y-55050000D02*
X123150000Y-55050000D01*
X149600000Y-81500000D02*
X135875000Y-67775000D01*
X123150000Y-55050000D02*
X119950000Y-58250000D01*
X133200000Y-65100000D02*
X135875000Y-67775000D01*
X119950000Y-58250000D02*
X119950000Y-63250000D01*
X149600000Y-82250000D02*
X152550000Y-85200000D01*
X149600000Y-82250000D02*
X149600000Y-81500000D01*
X119950000Y-63250000D02*
X121800000Y-65100000D01*
X164100000Y-82000000D02*
X164100000Y-73100000D01*
X160900000Y-85200000D02*
X164100000Y-82000000D01*
X160550000Y-85200000D02*
X160900000Y-85200000D01*
X164100000Y-73100000D02*
X152200000Y-61200000D01*
X152200000Y-61200000D02*
X149337997Y-61200000D01*
X149337997Y-61200000D02*
X149305395Y-61167398D01*
X161901000Y-79953754D02*
X161901000Y-77851000D01*
X146650000Y-59390000D02*
X146650000Y-62600000D01*
X161901000Y-77851000D02*
X154650000Y-70600000D01*
X160550000Y-81200000D02*
X160654754Y-81200000D01*
X146650000Y-62600000D02*
X154650000Y-70600000D01*
X160654754Y-81200000D02*
X161901000Y-79953754D01*
X147730000Y-58310000D02*
X146650000Y-59390000D01*
X150050000Y-55100000D02*
X149950000Y-55200000D01*
X159675000Y-79200000D02*
X160550000Y-79200000D01*
X149950000Y-55200000D02*
X148200000Y-55200000D01*
X145350000Y-58050000D02*
X145350000Y-64056498D01*
X148200000Y-55200000D02*
X145350000Y-58050000D01*
X145800000Y-65325000D02*
X159675000Y-79200000D01*
X145800000Y-64506498D02*
X145800000Y-65325000D01*
X145350000Y-64056498D02*
X145800000Y-64506498D01*
X147932845Y-61932845D02*
X147932845Y-62432845D01*
X150700000Y-63150000D02*
X163400000Y-75850000D01*
X148650000Y-63150000D02*
X150700000Y-63150000D01*
X147932845Y-62432845D02*
X148650000Y-63150000D01*
X147866397Y-59446397D02*
X147866397Y-61866397D01*
X163400000Y-75850000D02*
X163400000Y-80350000D01*
X163400000Y-80350000D02*
X160550000Y-83200000D01*
X147866397Y-61866397D02*
X147932845Y-61932845D01*
D28*
X155000000Y-56250000D02*
X154000000Y-55250000D01*
X155000000Y-59800000D02*
X155000000Y-56250000D01*
D30*
X130820000Y-50900000D02*
X128690000Y-48770000D01*
X154000000Y-55250000D02*
X149650000Y-50900000D01*
X149650000Y-50900000D02*
X130820000Y-50900000D01*
D28*
X139100000Y-72600000D02*
X138649000Y-72149000D01*
X136100000Y-82700000D02*
X136312076Y-82700000D01*
X136312076Y-82700000D02*
X139100000Y-79912076D01*
X138649000Y-72149000D02*
X134011000Y-72149000D01*
X134011000Y-72149000D02*
X132710000Y-73450000D01*
X139100000Y-79912076D02*
X139100000Y-72600000D01*
X135725000Y-83075000D02*
X136100000Y-82700000D01*
G04 #@! TA.AperFunction,Conductor*
G36*
X130374101Y-51238282D02*
G01*
X130374106Y-51238288D01*
X130479523Y-51343706D01*
X130479527Y-51343709D01*
X130479529Y-51343711D01*
X130605971Y-51416712D01*
X130605974Y-51416713D01*
X130692276Y-51439837D01*
X130746998Y-51454500D01*
X130746999Y-51454500D01*
X149394431Y-51454500D01*
X149438625Y-51472806D01*
X153284648Y-55318829D01*
X153301753Y-55350829D01*
X153322572Y-55455494D01*
X153375680Y-55583706D01*
X153375681Y-55583708D01*
X153410661Y-55636059D01*
X153452779Y-55699093D01*
X153550907Y-55797221D01*
X153666294Y-55874320D01*
X153794505Y-55927427D01*
X153930613Y-55954500D01*
X154069385Y-55954500D01*
X154069387Y-55954500D01*
X154089222Y-55950554D01*
X154136137Y-55959885D01*
X154145609Y-55967659D01*
X154577194Y-56399243D01*
X154595500Y-56443437D01*
X154595500Y-59189575D01*
X154577194Y-59233769D01*
X154567724Y-59241541D01*
X154550912Y-59252774D01*
X154550907Y-59252778D01*
X154452778Y-59350907D01*
X154375681Y-59466291D01*
X154375680Y-59466293D01*
X154322573Y-59594503D01*
X154322572Y-59594506D01*
X154295500Y-59730612D01*
X154295500Y-59869387D01*
X154322572Y-60005493D01*
X154322573Y-60005496D01*
X154375680Y-60133706D01*
X154375681Y-60133708D01*
X154442459Y-60233648D01*
X154452779Y-60249093D01*
X154550907Y-60347221D01*
X154666294Y-60424320D01*
X154794505Y-60477427D01*
X154930613Y-60504500D01*
X155069387Y-60504500D01*
X155205495Y-60477427D01*
X155333706Y-60424320D01*
X155449093Y-60347221D01*
X155547221Y-60249093D01*
X155624320Y-60133706D01*
X155677427Y-60005495D01*
X155704500Y-59869387D01*
X155704500Y-59730613D01*
X155677427Y-59594505D01*
X155624320Y-59466294D01*
X155547221Y-59350907D01*
X155449093Y-59252779D01*
X155449092Y-59252778D01*
X155449087Y-59252774D01*
X155432276Y-59241541D01*
X155405701Y-59201767D01*
X155404500Y-59189575D01*
X155404500Y-56196748D01*
X155404498Y-56196740D01*
X155376935Y-56093872D01*
X155376934Y-56093869D01*
X155323681Y-56001631D01*
X154717659Y-55395609D01*
X154699353Y-55351415D01*
X154700553Y-55339228D01*
X154704500Y-55319387D01*
X154704500Y-55180613D01*
X154677427Y-55044505D01*
X154624320Y-54916294D01*
X154547221Y-54800907D01*
X154449093Y-54702779D01*
X154433874Y-54692610D01*
X154333708Y-54625681D01*
X154333706Y-54625680D01*
X154205494Y-54572572D01*
X154100829Y-54551753D01*
X154068829Y-54534648D01*
X150097279Y-50563098D01*
X150097267Y-50563084D01*
X149990476Y-50456293D01*
X149990472Y-50456290D01*
X149990471Y-50456289D01*
X149927250Y-50419788D01*
X149864028Y-50383287D01*
X149864025Y-50383286D01*
X149723008Y-50345501D01*
X149723003Y-50345500D01*
X149723002Y-50345500D01*
X149723001Y-50345500D01*
X131075569Y-50345500D01*
X131031375Y-50327194D01*
X130754181Y-50050000D01*
X164699500Y-50050000D01*
X164699500Y-72796110D01*
X164681194Y-72840304D01*
X164637000Y-72858610D01*
X164592806Y-72840304D01*
X164582874Y-72827360D01*
X164543713Y-72759532D01*
X164543706Y-72759523D01*
X164438293Y-72654111D01*
X164438282Y-72654101D01*
X162221197Y-70437016D01*
X162204092Y-70405014D01*
X162193507Y-70351798D01*
X162193504Y-70351789D01*
X162175640Y-70308663D01*
X162142285Y-70228136D01*
X162067922Y-70116844D01*
X161973276Y-70022198D01*
X161936816Y-69997836D01*
X161861986Y-69947836D01*
X161861984Y-69947835D01*
X161738322Y-69896612D01*
X161685102Y-69886026D01*
X161653102Y-69868921D01*
X152647279Y-60863098D01*
X152647275Y-60863089D01*
X152647274Y-60863091D01*
X152540476Y-60756293D01*
X152540472Y-60756290D01*
X152540471Y-60756289D01*
X152503066Y-60734693D01*
X152794910Y-60734693D01*
X152855457Y-60769650D01*
X152855463Y-60769653D01*
X152983640Y-60803998D01*
X152983648Y-60804000D01*
X153116352Y-60804000D01*
X153116359Y-60803998D01*
X153244536Y-60769653D01*
X153244539Y-60769652D01*
X153305088Y-60734693D01*
X153050000Y-60479605D01*
X152794910Y-60734693D01*
X152503066Y-60734693D01*
X152419475Y-60686432D01*
X152414028Y-60683287D01*
X152414025Y-60683286D01*
X152296975Y-60651923D01*
X152296970Y-60651922D01*
X152292356Y-60650686D01*
X152273002Y-60645500D01*
X152273001Y-60645500D01*
X152238367Y-60645500D01*
X152234973Y-60645128D01*
X152216769Y-60635138D01*
X152197589Y-60627194D01*
X151960197Y-60389803D01*
X151850503Y-60280109D01*
X151950000Y-60280109D01*
X151950000Y-60319891D01*
X151965224Y-60356645D01*
X151993355Y-60384776D01*
X152030109Y-60400000D01*
X152069891Y-60400000D01*
X152106645Y-60384776D01*
X152134776Y-60356645D01*
X152150000Y-60319891D01*
X152150000Y-60299999D01*
X152229605Y-60299999D01*
X152229605Y-60300000D01*
X152484692Y-60555087D01*
X152495872Y-60535724D01*
X152533823Y-60506604D01*
X152581249Y-60512847D01*
X152604125Y-60535724D01*
X152615304Y-60555087D01*
X152615306Y-60555088D01*
X152870394Y-60300000D01*
X152870394Y-60299999D01*
X152850504Y-60280109D01*
X152950000Y-60280109D01*
X152950000Y-60319891D01*
X152965224Y-60356645D01*
X152993355Y-60384776D01*
X153030109Y-60400000D01*
X153069891Y-60400000D01*
X153106645Y-60384776D01*
X153134776Y-60356645D01*
X153150000Y-60319891D01*
X153150000Y-60299999D01*
X153229605Y-60299999D01*
X153229605Y-60300000D01*
X153484693Y-60555088D01*
X153519652Y-60494539D01*
X153519653Y-60494536D01*
X153553998Y-60366359D01*
X153554000Y-60366351D01*
X153554000Y-60233648D01*
X153553998Y-60233640D01*
X153519653Y-60105463D01*
X153519650Y-60105457D01*
X153484693Y-60044911D01*
X153229605Y-60299999D01*
X153150000Y-60299999D01*
X153150000Y-60280109D01*
X153134776Y-60243355D01*
X153106645Y-60215224D01*
X153069891Y-60200000D01*
X153030109Y-60200000D01*
X152993355Y-60215224D01*
X152965224Y-60243355D01*
X152950000Y-60280109D01*
X152850504Y-60280109D01*
X152615305Y-60044911D01*
X152615304Y-60044911D01*
X152604125Y-60064275D01*
X152566175Y-60093396D01*
X152518749Y-60087151D01*
X152495872Y-60064275D01*
X152484692Y-60044911D01*
X152229605Y-60299999D01*
X152150000Y-60299999D01*
X152150000Y-60280109D01*
X152134776Y-60243355D01*
X152106645Y-60215224D01*
X152069891Y-60200000D01*
X152030109Y-60200000D01*
X151993355Y-60215224D01*
X151965224Y-60243355D01*
X151950000Y-60280109D01*
X151850503Y-60280109D01*
X151615305Y-60044911D01*
X151615304Y-60044911D01*
X151604125Y-60064275D01*
X151566175Y-60093396D01*
X151518749Y-60087151D01*
X151495872Y-60064275D01*
X151484692Y-60044911D01*
X151183996Y-60345608D01*
X151139802Y-60363914D01*
X151131108Y-60360312D01*
X151134776Y-60356645D01*
X151150000Y-60319891D01*
X151150000Y-60280109D01*
X151134776Y-60243355D01*
X151106645Y-60215224D01*
X151069891Y-60200000D01*
X151030109Y-60200000D01*
X150993355Y-60215224D01*
X150965224Y-60243355D01*
X150950000Y-60280109D01*
X150950000Y-60319891D01*
X150965224Y-60356645D01*
X150968891Y-60360312D01*
X150960197Y-60363914D01*
X150916003Y-60345608D01*
X150615306Y-60044911D01*
X150615304Y-60044911D01*
X150604125Y-60064275D01*
X150566175Y-60093396D01*
X150518749Y-60087151D01*
X150495872Y-60064275D01*
X150484692Y-60044911D01*
X150183996Y-60345608D01*
X150139802Y-60363914D01*
X150131108Y-60360312D01*
X150134776Y-60356645D01*
X150150000Y-60319891D01*
X150150000Y-60280109D01*
X150134776Y-60243355D01*
X150106645Y-60215224D01*
X150069891Y-60200000D01*
X150030109Y-60200000D01*
X149993355Y-60215224D01*
X149965224Y-60243355D01*
X149950000Y-60280109D01*
X149950000Y-60319891D01*
X149965224Y-60356645D01*
X149968891Y-60360312D01*
X149960197Y-60363914D01*
X149916003Y-60345608D01*
X149615306Y-60044911D01*
X149580347Y-60105463D01*
X149580345Y-60105467D01*
X149546001Y-60233640D01*
X149546000Y-60233648D01*
X149546000Y-60369819D01*
X149527694Y-60414013D01*
X149483500Y-60432319D01*
X149471307Y-60431118D01*
X149379707Y-60412898D01*
X149231083Y-60412898D01*
X149085316Y-60441892D01*
X148948004Y-60498769D01*
X148948001Y-60498770D01*
X148824429Y-60581338D01*
X148719335Y-60686432D01*
X148636767Y-60810004D01*
X148636766Y-60810007D01*
X148579889Y-60947319D01*
X148550895Y-61093085D01*
X148550895Y-61241710D01*
X148579889Y-61387476D01*
X148636766Y-61524788D01*
X148636767Y-61524791D01*
X148719335Y-61648363D01*
X148824429Y-61753457D01*
X148948001Y-61836025D01*
X148948003Y-61836025D01*
X148948005Y-61836027D01*
X149085315Y-61892903D01*
X149231083Y-61921898D01*
X149379707Y-61921898D01*
X149525475Y-61892903D01*
X149662785Y-61836027D01*
X149769036Y-61765032D01*
X149803759Y-61754500D01*
X151944431Y-61754500D01*
X151988625Y-61772806D01*
X160854134Y-70638315D01*
X160871239Y-70670315D01*
X160886732Y-70748202D01*
X160937955Y-70871864D01*
X160937956Y-70871866D01*
X161012317Y-70983155D01*
X161012318Y-70983156D01*
X161106964Y-71077802D01*
X161218256Y-71152165D01*
X161341917Y-71203387D01*
X161419802Y-71218879D01*
X161451803Y-71235984D01*
X163527194Y-73311375D01*
X163545500Y-73355569D01*
X163545500Y-75060431D01*
X163527194Y-75104625D01*
X163483000Y-75122931D01*
X163438806Y-75104625D01*
X158783530Y-70449349D01*
X158766425Y-70417347D01*
X158753387Y-70351798D01*
X158753384Y-70351789D01*
X158735520Y-70308663D01*
X158702165Y-70228136D01*
X158627802Y-70116844D01*
X158533156Y-70022198D01*
X158496696Y-69997836D01*
X158421866Y-69947836D01*
X158421864Y-69947835D01*
X158298202Y-69896612D01*
X158232649Y-69883573D01*
X158200649Y-69866468D01*
X151147279Y-62813098D01*
X151147267Y-62813084D01*
X151040476Y-62706293D01*
X151040472Y-62706290D01*
X151040471Y-62706289D01*
X150977250Y-62669788D01*
X150914028Y-62633287D01*
X150914025Y-62633286D01*
X150773008Y-62595501D01*
X150773003Y-62595500D01*
X150773002Y-62595500D01*
X150773001Y-62595500D01*
X148905569Y-62595500D01*
X148861375Y-62577194D01*
X148505651Y-62221470D01*
X148487345Y-62177276D01*
X148487345Y-62010891D01*
X148487346Y-62010878D01*
X148487346Y-61859844D01*
X148487345Y-61859838D01*
X148449558Y-61718819D01*
X148449558Y-61718818D01*
X148448340Y-61716709D01*
X148448339Y-61716706D01*
X148429270Y-61683676D01*
X148420897Y-61652427D01*
X148420897Y-59984810D01*
X148439203Y-59940616D01*
X148452456Y-59927363D01*
X148493922Y-59865304D01*
X149794911Y-59865304D01*
X149794911Y-59865305D01*
X150049999Y-60120394D01*
X150305088Y-59865306D01*
X150305087Y-59865304D01*
X150285724Y-59854125D01*
X150256603Y-59816175D01*
X150262848Y-59768749D01*
X150263780Y-59767186D01*
X150283824Y-59734692D01*
X150794911Y-59734692D01*
X150814275Y-59745872D01*
X150843395Y-59783822D01*
X150837152Y-59831249D01*
X150814275Y-59854125D01*
X150794911Y-59865304D01*
X150794911Y-59865305D01*
X151049999Y-60120394D01*
X151305088Y-59865306D01*
X151305087Y-59865304D01*
X151285724Y-59854125D01*
X151256603Y-59816175D01*
X151262848Y-59768749D01*
X151263780Y-59767186D01*
X151283824Y-59734692D01*
X151794911Y-59734692D01*
X151814275Y-59745872D01*
X151843395Y-59783822D01*
X151837152Y-59831249D01*
X151814275Y-59854125D01*
X151794911Y-59865304D01*
X151794911Y-59865305D01*
X152049999Y-60120394D01*
X152305088Y-59865306D01*
X152305087Y-59865304D01*
X152285724Y-59854125D01*
X152256603Y-59816175D01*
X152262848Y-59768749D01*
X152263780Y-59767186D01*
X152283824Y-59734692D01*
X152794911Y-59734692D01*
X152814275Y-59745872D01*
X152843395Y-59783822D01*
X152837152Y-59831249D01*
X152814275Y-59854125D01*
X152794911Y-59865304D01*
X152794911Y-59865305D01*
X153049999Y-60120394D01*
X153305088Y-59865306D01*
X153305087Y-59865304D01*
X153285724Y-59854125D01*
X153256603Y-59816175D01*
X153262848Y-59768749D01*
X153285724Y-59745872D01*
X153305087Y-59734692D01*
X153050000Y-59479605D01*
X152794911Y-59734692D01*
X152283824Y-59734692D01*
X152291936Y-59721541D01*
X152050000Y-59479605D01*
X151794911Y-59734692D01*
X151283824Y-59734692D01*
X151291936Y-59721541D01*
X151050000Y-59479605D01*
X150794911Y-59734692D01*
X150283824Y-59734692D01*
X150291936Y-59721541D01*
X150050000Y-59479605D01*
X149808062Y-59721541D01*
X149836219Y-59767186D01*
X149837707Y-59776410D01*
X149843395Y-59783822D01*
X149841377Y-59799147D01*
X149843841Y-59814410D01*
X149838371Y-59821985D01*
X149837152Y-59831249D01*
X149817476Y-59850923D01*
X149815838Y-59853193D01*
X149815085Y-59853314D01*
X149814275Y-59854125D01*
X149794911Y-59865304D01*
X148493922Y-59865304D01*
X148535026Y-59803787D01*
X148591902Y-59666477D01*
X148620897Y-59520709D01*
X148620897Y-59372085D01*
X148602602Y-59280109D01*
X148594971Y-59241744D01*
X148593360Y-59233648D01*
X149546000Y-59233648D01*
X149546000Y-59366351D01*
X149546001Y-59366359D01*
X149580345Y-59494532D01*
X149580346Y-59494536D01*
X149615306Y-59555087D01*
X149870394Y-59300000D01*
X149870394Y-59299999D01*
X149850504Y-59280109D01*
X149950000Y-59280109D01*
X149950000Y-59319891D01*
X149965224Y-59356645D01*
X149993355Y-59384776D01*
X150030109Y-59400000D01*
X150069891Y-59400000D01*
X150106645Y-59384776D01*
X150134776Y-59356645D01*
X150150000Y-59319891D01*
X150150000Y-59299999D01*
X150229605Y-59299999D01*
X150229605Y-59300000D01*
X150484692Y-59555087D01*
X150495872Y-59535724D01*
X150533823Y-59506604D01*
X150581249Y-59512847D01*
X150604125Y-59535724D01*
X150615304Y-59555087D01*
X150615306Y-59555088D01*
X150870394Y-59300000D01*
X150870394Y-59299999D01*
X150850504Y-59280109D01*
X150950000Y-59280109D01*
X150950000Y-59319891D01*
X150965224Y-59356645D01*
X150993355Y-59384776D01*
X151030109Y-59400000D01*
X151069891Y-59400000D01*
X151106645Y-59384776D01*
X151134776Y-59356645D01*
X151150000Y-59319891D01*
X151150000Y-59299999D01*
X151229605Y-59299999D01*
X151229605Y-59300000D01*
X151484692Y-59555087D01*
X151495872Y-59535724D01*
X151533823Y-59506604D01*
X151581249Y-59512847D01*
X151604125Y-59535724D01*
X151615304Y-59555087D01*
X151615306Y-59555088D01*
X151870394Y-59300000D01*
X151870394Y-59299999D01*
X151850504Y-59280109D01*
X151950000Y-59280109D01*
X151950000Y-59319891D01*
X151965224Y-59356645D01*
X151993355Y-59384776D01*
X152030109Y-59400000D01*
X152069891Y-59400000D01*
X152106645Y-59384776D01*
X152134776Y-59356645D01*
X152150000Y-59319891D01*
X152150000Y-59299999D01*
X152229605Y-59299999D01*
X152229605Y-59300000D01*
X152484692Y-59555087D01*
X152495872Y-59535724D01*
X152533823Y-59506604D01*
X152581249Y-59512847D01*
X152604125Y-59535724D01*
X152615304Y-59555087D01*
X152615306Y-59555088D01*
X152870394Y-59300000D01*
X152870394Y-59299999D01*
X152850504Y-59280109D01*
X152950000Y-59280109D01*
X152950000Y-59319891D01*
X152965224Y-59356645D01*
X152993355Y-59384776D01*
X153030109Y-59400000D01*
X153069891Y-59400000D01*
X153106645Y-59384776D01*
X153134776Y-59356645D01*
X153150000Y-59319891D01*
X153150000Y-59299999D01*
X153229605Y-59299999D01*
X153229605Y-59300000D01*
X153484693Y-59555088D01*
X153519652Y-59494539D01*
X153519653Y-59494536D01*
X153553998Y-59366359D01*
X153554000Y-59366351D01*
X153554000Y-59233648D01*
X153553998Y-59233640D01*
X153519653Y-59105463D01*
X153519650Y-59105457D01*
X153484693Y-59044911D01*
X153229605Y-59299999D01*
X153150000Y-59299999D01*
X153150000Y-59280109D01*
X153134776Y-59243355D01*
X153106645Y-59215224D01*
X153069891Y-59200000D01*
X153030109Y-59200000D01*
X152993355Y-59215224D01*
X152965224Y-59243355D01*
X152950000Y-59280109D01*
X152850504Y-59280109D01*
X152615305Y-59044911D01*
X152615304Y-59044911D01*
X152604125Y-59064275D01*
X152566175Y-59093396D01*
X152518749Y-59087151D01*
X152495872Y-59064275D01*
X152484692Y-59044911D01*
X152229605Y-59299999D01*
X152150000Y-59299999D01*
X152150000Y-59280109D01*
X152134776Y-59243355D01*
X152106645Y-59215224D01*
X152069891Y-59200000D01*
X152030109Y-59200000D01*
X151993355Y-59215224D01*
X151965224Y-59243355D01*
X151950000Y-59280109D01*
X151850504Y-59280109D01*
X151615305Y-59044911D01*
X151615304Y-59044911D01*
X151604125Y-59064275D01*
X151566175Y-59093396D01*
X151518749Y-59087151D01*
X151495872Y-59064275D01*
X151484692Y-59044911D01*
X151229605Y-59299999D01*
X151150000Y-59299999D01*
X151150000Y-59280109D01*
X151134776Y-59243355D01*
X151106645Y-59215224D01*
X151069891Y-59200000D01*
X151030109Y-59200000D01*
X150993355Y-59215224D01*
X150965224Y-59243355D01*
X150950000Y-59280109D01*
X150850504Y-59280109D01*
X150615305Y-59044911D01*
X150615304Y-59044911D01*
X150604125Y-59064275D01*
X150566175Y-59093396D01*
X150518749Y-59087151D01*
X150495872Y-59064275D01*
X150484692Y-59044911D01*
X150229605Y-59299999D01*
X150150000Y-59299999D01*
X150150000Y-59280109D01*
X150134776Y-59243355D01*
X150106645Y-59215224D01*
X150069891Y-59200000D01*
X150030109Y-59200000D01*
X149993355Y-59215224D01*
X149965224Y-59243355D01*
X149950000Y-59280109D01*
X149850504Y-59280109D01*
X149615306Y-59044911D01*
X149580347Y-59105463D01*
X149580345Y-59105467D01*
X149546001Y-59233640D01*
X149546000Y-59233648D01*
X148593360Y-59233648D01*
X148591902Y-59226317D01*
X148551973Y-59129921D01*
X148535026Y-59089007D01*
X148535024Y-59089005D01*
X148535024Y-59089003D01*
X148452456Y-58965431D01*
X148347363Y-58860338D01*
X148345640Y-58859187D01*
X148345251Y-58858604D01*
X148344988Y-58858389D01*
X148345053Y-58858309D01*
X148329312Y-58834748D01*
X148319066Y-58819414D01*
X148319110Y-58819194D01*
X148328397Y-58772499D01*
X148353659Y-58734692D01*
X149794911Y-58734692D01*
X149814275Y-58745872D01*
X149843395Y-58783822D01*
X149837152Y-58831249D01*
X149814275Y-58854125D01*
X149794911Y-58865304D01*
X149794911Y-58865305D01*
X150049999Y-59120394D01*
X150305088Y-58865306D01*
X150305087Y-58865304D01*
X150285724Y-58854125D01*
X150256603Y-58816175D01*
X150262848Y-58768749D01*
X150263780Y-58767186D01*
X150283824Y-58734692D01*
X150794911Y-58734692D01*
X150814275Y-58745872D01*
X150843395Y-58783822D01*
X150837152Y-58831249D01*
X150814275Y-58854125D01*
X150794911Y-58865304D01*
X150794911Y-58865305D01*
X151049999Y-59120394D01*
X151305088Y-58865306D01*
X151305087Y-58865304D01*
X151285724Y-58854125D01*
X151256603Y-58816175D01*
X151262848Y-58768749D01*
X151263780Y-58767186D01*
X151283824Y-58734692D01*
X151794911Y-58734692D01*
X151814275Y-58745872D01*
X151843395Y-58783822D01*
X151837152Y-58831249D01*
X151814275Y-58854125D01*
X151794911Y-58865304D01*
X151794911Y-58865305D01*
X152049999Y-59120394D01*
X152305088Y-58865306D01*
X152305087Y-58865304D01*
X152285724Y-58854125D01*
X152256603Y-58816175D01*
X152262848Y-58768749D01*
X152263780Y-58767186D01*
X152283824Y-58734692D01*
X152794911Y-58734692D01*
X152814275Y-58745872D01*
X152843395Y-58783822D01*
X152837152Y-58831249D01*
X152814275Y-58854125D01*
X152794911Y-58865304D01*
X152794911Y-58865305D01*
X153049999Y-59120394D01*
X153305088Y-58865306D01*
X153305087Y-58865304D01*
X153285724Y-58854125D01*
X153256603Y-58816175D01*
X153262848Y-58768749D01*
X153285724Y-58745872D01*
X153305087Y-58734692D01*
X153050000Y-58479605D01*
X152794911Y-58734692D01*
X152283824Y-58734692D01*
X152291936Y-58721541D01*
X152050000Y-58479605D01*
X151794911Y-58734692D01*
X151283824Y-58734692D01*
X151291936Y-58721541D01*
X151050000Y-58479605D01*
X150794911Y-58734692D01*
X150283824Y-58734692D01*
X150291936Y-58721541D01*
X150050000Y-58479605D01*
X149794911Y-58734692D01*
X148353659Y-58734692D01*
X148398629Y-58667390D01*
X148455505Y-58530080D01*
X148484500Y-58384312D01*
X148484500Y-58235688D01*
X148484094Y-58233648D01*
X149546000Y-58233648D01*
X149546000Y-58366351D01*
X149546001Y-58366359D01*
X149580345Y-58494532D01*
X149580346Y-58494536D01*
X149615306Y-58555087D01*
X149870394Y-58300000D01*
X149870394Y-58299999D01*
X149850504Y-58280109D01*
X149950000Y-58280109D01*
X149950000Y-58319891D01*
X149965224Y-58356645D01*
X149993355Y-58384776D01*
X150030109Y-58400000D01*
X150069891Y-58400000D01*
X150106645Y-58384776D01*
X150134776Y-58356645D01*
X150150000Y-58319891D01*
X150150000Y-58299999D01*
X150229605Y-58299999D01*
X150229605Y-58300000D01*
X150484692Y-58555087D01*
X150495872Y-58535724D01*
X150533823Y-58506604D01*
X150581249Y-58512847D01*
X150604125Y-58535724D01*
X150615304Y-58555087D01*
X150615306Y-58555088D01*
X150870394Y-58300000D01*
X150870394Y-58299999D01*
X150850504Y-58280109D01*
X150950000Y-58280109D01*
X150950000Y-58319891D01*
X150965224Y-58356645D01*
X150993355Y-58384776D01*
X151030109Y-58400000D01*
X151069891Y-58400000D01*
X151106645Y-58384776D01*
X151134776Y-58356645D01*
X151150000Y-58319891D01*
X151150000Y-58299999D01*
X151229605Y-58299999D01*
X151229605Y-58300000D01*
X151484692Y-58555087D01*
X151495872Y-58535724D01*
X151533823Y-58506604D01*
X151581249Y-58512847D01*
X151604125Y-58535724D01*
X151615304Y-58555087D01*
X151615306Y-58555088D01*
X151870394Y-58300000D01*
X151870394Y-58299999D01*
X151850504Y-58280109D01*
X151950000Y-58280109D01*
X151950000Y-58319891D01*
X151965224Y-58356645D01*
X151993355Y-58384776D01*
X152030109Y-58400000D01*
X152069891Y-58400000D01*
X152106645Y-58384776D01*
X152134776Y-58356645D01*
X152150000Y-58319891D01*
X152150000Y-58299999D01*
X152229605Y-58299999D01*
X152229605Y-58300000D01*
X152484692Y-58555087D01*
X152495872Y-58535724D01*
X152533823Y-58506604D01*
X152581249Y-58512847D01*
X152604125Y-58535724D01*
X152615304Y-58555087D01*
X152615306Y-58555088D01*
X152870394Y-58300000D01*
X152870394Y-58299999D01*
X152850504Y-58280109D01*
X152950000Y-58280109D01*
X152950000Y-58319891D01*
X152965224Y-58356645D01*
X152993355Y-58384776D01*
X153030109Y-58400000D01*
X153069891Y-58400000D01*
X153106645Y-58384776D01*
X153134776Y-58356645D01*
X153150000Y-58319891D01*
X153150000Y-58299999D01*
X153229605Y-58299999D01*
X153229605Y-58300000D01*
X153484693Y-58555088D01*
X153519652Y-58494539D01*
X153519653Y-58494536D01*
X153553998Y-58366359D01*
X153554000Y-58366351D01*
X153554000Y-58233648D01*
X153553998Y-58233640D01*
X153519653Y-58105463D01*
X153519650Y-58105457D01*
X153484693Y-58044911D01*
X153229605Y-58299999D01*
X153150000Y-58299999D01*
X153150000Y-58280109D01*
X153134776Y-58243355D01*
X153106645Y-58215224D01*
X153069891Y-58200000D01*
X153030109Y-58200000D01*
X152993355Y-58215224D01*
X152965224Y-58243355D01*
X152950000Y-58280109D01*
X152850504Y-58280109D01*
X152615305Y-58044911D01*
X152615304Y-58044911D01*
X152604125Y-58064275D01*
X152566175Y-58093396D01*
X152518749Y-58087151D01*
X152495872Y-58064275D01*
X152484692Y-58044911D01*
X152229605Y-58299999D01*
X152150000Y-58299999D01*
X152150000Y-58280109D01*
X152134776Y-58243355D01*
X152106645Y-58215224D01*
X152069891Y-58200000D01*
X152030109Y-58200000D01*
X151993355Y-58215224D01*
X151965224Y-58243355D01*
X151950000Y-58280109D01*
X151850504Y-58280109D01*
X151615305Y-58044911D01*
X151615304Y-58044911D01*
X151604125Y-58064275D01*
X151566175Y-58093396D01*
X151518749Y-58087151D01*
X151495872Y-58064275D01*
X151484692Y-58044911D01*
X151229605Y-58299999D01*
X151150000Y-58299999D01*
X151150000Y-58280109D01*
X151134776Y-58243355D01*
X151106645Y-58215224D01*
X151069891Y-58200000D01*
X151030109Y-58200000D01*
X150993355Y-58215224D01*
X150965224Y-58243355D01*
X150950000Y-58280109D01*
X150850504Y-58280109D01*
X150615305Y-58044911D01*
X150615304Y-58044911D01*
X150604125Y-58064275D01*
X150566175Y-58093396D01*
X150518749Y-58087151D01*
X150495872Y-58064275D01*
X150484692Y-58044911D01*
X150229605Y-58299999D01*
X150150000Y-58299999D01*
X150150000Y-58280109D01*
X150134776Y-58243355D01*
X150106645Y-58215224D01*
X150069891Y-58200000D01*
X150030109Y-58200000D01*
X149993355Y-58215224D01*
X149965224Y-58243355D01*
X149950000Y-58280109D01*
X149850504Y-58280109D01*
X149615306Y-58044911D01*
X149580347Y-58105463D01*
X149580345Y-58105467D01*
X149546001Y-58233640D01*
X149546000Y-58233648D01*
X148484094Y-58233648D01*
X148480429Y-58215224D01*
X148455505Y-58089921D01*
X148444882Y-58064275D01*
X148398629Y-57952610D01*
X148398627Y-57952608D01*
X148398627Y-57952606D01*
X148340294Y-57865304D01*
X149794911Y-57865304D01*
X149794911Y-57865305D01*
X150049999Y-58120394D01*
X150305088Y-57865306D01*
X150305087Y-57865304D01*
X150285724Y-57854125D01*
X150256603Y-57816175D01*
X150262848Y-57768749D01*
X150263780Y-57767186D01*
X150283824Y-57734692D01*
X150794911Y-57734692D01*
X150814275Y-57745872D01*
X150843395Y-57783822D01*
X150837152Y-57831249D01*
X150814275Y-57854125D01*
X150794911Y-57865304D01*
X150794911Y-57865305D01*
X151049999Y-58120394D01*
X151305088Y-57865306D01*
X151305087Y-57865304D01*
X151285724Y-57854125D01*
X151256603Y-57816175D01*
X151262848Y-57768749D01*
X151263780Y-57767186D01*
X151283824Y-57734692D01*
X151794911Y-57734692D01*
X151814275Y-57745872D01*
X151843395Y-57783822D01*
X151837152Y-57831249D01*
X151814275Y-57854125D01*
X151794911Y-57865304D01*
X151794911Y-57865305D01*
X152049999Y-58120394D01*
X152305088Y-57865306D01*
X152305087Y-57865304D01*
X152285724Y-57854125D01*
X152256603Y-57816175D01*
X152262848Y-57768749D01*
X152263780Y-57767186D01*
X152283824Y-57734692D01*
X152794911Y-57734692D01*
X152814275Y-57745872D01*
X152843395Y-57783822D01*
X152837152Y-57831249D01*
X152814275Y-57854125D01*
X152794911Y-57865304D01*
X152794911Y-57865305D01*
X153049999Y-58120394D01*
X153305088Y-57865306D01*
X153305087Y-57865304D01*
X153285724Y-57854125D01*
X153256603Y-57816175D01*
X153262848Y-57768749D01*
X153285724Y-57745872D01*
X153305087Y-57734692D01*
X153050000Y-57479605D01*
X152794911Y-57734692D01*
X152283824Y-57734692D01*
X152291936Y-57721541D01*
X152050000Y-57479605D01*
X151794911Y-57734692D01*
X151283824Y-57734692D01*
X151291936Y-57721541D01*
X151050000Y-57479605D01*
X150794911Y-57734692D01*
X150283824Y-57734692D01*
X150291936Y-57721541D01*
X150050000Y-57479605D01*
X149808062Y-57721541D01*
X149836219Y-57767186D01*
X149837707Y-57776410D01*
X149843395Y-57783822D01*
X149841377Y-57799147D01*
X149843841Y-57814410D01*
X149838371Y-57821985D01*
X149837152Y-57831249D01*
X149817476Y-57850923D01*
X149815838Y-57853193D01*
X149815085Y-57853314D01*
X149814275Y-57854125D01*
X149794911Y-57865304D01*
X148340294Y-57865304D01*
X148316059Y-57829034D01*
X148210965Y-57723940D01*
X148087393Y-57641372D01*
X148087390Y-57641371D01*
X147950078Y-57584494D01*
X147804312Y-57555500D01*
X147655688Y-57555500D01*
X147509921Y-57584494D01*
X147372609Y-57641371D01*
X147372606Y-57641372D01*
X147249034Y-57723940D01*
X147143940Y-57829034D01*
X147061372Y-57952606D01*
X147061371Y-57952609D01*
X147004494Y-58089921D01*
X146975500Y-58235687D01*
X146975500Y-58254430D01*
X146957194Y-58298624D01*
X146309529Y-58946289D01*
X146206293Y-59049523D01*
X146206290Y-59049527D01*
X146173999Y-59105457D01*
X146156382Y-59135971D01*
X146133288Y-59175971D01*
X146112708Y-59252779D01*
X146112708Y-59252780D01*
X146095500Y-59316993D01*
X146095500Y-62673007D01*
X146111654Y-62733288D01*
X146111654Y-62733289D01*
X146133286Y-62814025D01*
X146133287Y-62814028D01*
X146133288Y-62814029D01*
X146196203Y-62923002D01*
X146206290Y-62940472D01*
X146206293Y-62940476D01*
X146313084Y-63047267D01*
X146313098Y-63047279D01*
X154313083Y-71047266D01*
X154313097Y-71047278D01*
X154758027Y-71492208D01*
X154775132Y-71524208D01*
X154782213Y-71559802D01*
X154782212Y-71559802D01*
X154833435Y-71683464D01*
X154833436Y-71683466D01*
X154892637Y-71772066D01*
X154907798Y-71794756D01*
X155002444Y-71889402D01*
X155113736Y-71963765D01*
X155194263Y-71997120D01*
X155237389Y-72014984D01*
X155237392Y-72014985D01*
X155237397Y-72014987D01*
X155272988Y-72022066D01*
X155304990Y-72039171D01*
X161315364Y-78049545D01*
X161333670Y-78093739D01*
X161315364Y-78137933D01*
X161271170Y-78156239D01*
X161253737Y-78153758D01*
X161234787Y-78148253D01*
X161234783Y-78148252D01*
X161234781Y-78148252D01*
X161199816Y-78145500D01*
X161199808Y-78145500D01*
X159900192Y-78145500D01*
X159900184Y-78145500D01*
X159865218Y-78148252D01*
X159865213Y-78148252D01*
X159715514Y-78191744D01*
X159715512Y-78191744D01*
X159715512Y-78191745D01*
X159590979Y-78265393D01*
X159543622Y-78272132D01*
X159514971Y-78255790D01*
X152289920Y-71030739D01*
X152271614Y-70986545D01*
X152282148Y-70951821D01*
X152302162Y-70921868D01*
X152302165Y-70921864D01*
X152353387Y-70798203D01*
X152379500Y-70666925D01*
X152379500Y-70533075D01*
X152353387Y-70401797D01*
X152302165Y-70278136D01*
X152227802Y-70166844D01*
X152133156Y-70072198D01*
X152058326Y-70022198D01*
X152021866Y-69997836D01*
X152021864Y-69997835D01*
X151898201Y-69946612D01*
X151766925Y-69920500D01*
X151633075Y-69920500D01*
X151501800Y-69946612D01*
X151501798Y-69946612D01*
X151501797Y-69946613D01*
X151465580Y-69961614D01*
X151378137Y-69997834D01*
X151378129Y-69997838D01*
X151348176Y-70017852D01*
X151301260Y-70027184D01*
X151269260Y-70010079D01*
X146372806Y-65113625D01*
X146354500Y-65069431D01*
X146354500Y-64433497D01*
X146354499Y-64433494D01*
X146344712Y-64396969D01*
X146316712Y-64292469D01*
X146316710Y-64292465D01*
X146304044Y-64270526D01*
X146304044Y-64270525D01*
X146243713Y-64166030D01*
X146243706Y-64166021D01*
X146138293Y-64060609D01*
X146138282Y-64060599D01*
X145922806Y-63845123D01*
X145904500Y-63800929D01*
X145904500Y-58305569D01*
X145922806Y-58261375D01*
X146950533Y-57233648D01*
X149546000Y-57233648D01*
X149546000Y-57366351D01*
X149546001Y-57366359D01*
X149580345Y-57494532D01*
X149580346Y-57494536D01*
X149615306Y-57555087D01*
X149870394Y-57300000D01*
X149870394Y-57299999D01*
X149850504Y-57280109D01*
X149950000Y-57280109D01*
X149950000Y-57319891D01*
X149965224Y-57356645D01*
X149993355Y-57384776D01*
X150030109Y-57400000D01*
X150069891Y-57400000D01*
X150106645Y-57384776D01*
X150134776Y-57356645D01*
X150150000Y-57319891D01*
X150150000Y-57299999D01*
X150229605Y-57299999D01*
X150229605Y-57300000D01*
X150484692Y-57555087D01*
X150495872Y-57535724D01*
X150533823Y-57506604D01*
X150581249Y-57512847D01*
X150604125Y-57535724D01*
X150615304Y-57555087D01*
X150615306Y-57555088D01*
X150870394Y-57300000D01*
X150870394Y-57299999D01*
X150850504Y-57280109D01*
X150950000Y-57280109D01*
X150950000Y-57319891D01*
X150965224Y-57356645D01*
X150993355Y-57384776D01*
X151030109Y-57400000D01*
X151069891Y-57400000D01*
X151106645Y-57384776D01*
X151134776Y-57356645D01*
X151150000Y-57319891D01*
X151150000Y-57299999D01*
X151229605Y-57299999D01*
X151229605Y-57300000D01*
X151484692Y-57555087D01*
X151495872Y-57535724D01*
X151533823Y-57506604D01*
X151581249Y-57512847D01*
X151604125Y-57535724D01*
X151615304Y-57555087D01*
X151615306Y-57555088D01*
X151870394Y-57300000D01*
X151870394Y-57299999D01*
X151850504Y-57280109D01*
X151950000Y-57280109D01*
X151950000Y-57319891D01*
X151965224Y-57356645D01*
X151993355Y-57384776D01*
X152030109Y-57400000D01*
X152069891Y-57400000D01*
X152106645Y-57384776D01*
X152134776Y-57356645D01*
X152150000Y-57319891D01*
X152150000Y-57299999D01*
X152229605Y-57299999D01*
X152229605Y-57300000D01*
X152484692Y-57555087D01*
X152495872Y-57535724D01*
X152533823Y-57506604D01*
X152581249Y-57512847D01*
X152604125Y-57535724D01*
X152615304Y-57555087D01*
X152615306Y-57555088D01*
X152870394Y-57300000D01*
X152870394Y-57299999D01*
X152850504Y-57280109D01*
X152950000Y-57280109D01*
X152950000Y-57319891D01*
X152965224Y-57356645D01*
X152993355Y-57384776D01*
X153030109Y-57400000D01*
X153069891Y-57400000D01*
X153106645Y-57384776D01*
X153134776Y-57356645D01*
X153150000Y-57319891D01*
X153150000Y-57299999D01*
X153229605Y-57299999D01*
X153229605Y-57300000D01*
X153484693Y-57555088D01*
X153519652Y-57494539D01*
X153519653Y-57494536D01*
X153553998Y-57366359D01*
X153554000Y-57366351D01*
X153554000Y-57233648D01*
X153553998Y-57233640D01*
X153519653Y-57105463D01*
X153519650Y-57105457D01*
X153484693Y-57044911D01*
X153229605Y-57299999D01*
X153150000Y-57299999D01*
X153150000Y-57280109D01*
X153134776Y-57243355D01*
X153106645Y-57215224D01*
X153069891Y-57200000D01*
X153030109Y-57200000D01*
X152993355Y-57215224D01*
X152965224Y-57243355D01*
X152950000Y-57280109D01*
X152850504Y-57280109D01*
X152615305Y-57044911D01*
X152615304Y-57044911D01*
X152604125Y-57064275D01*
X152566175Y-57093396D01*
X152518749Y-57087151D01*
X152495872Y-57064275D01*
X152484692Y-57044911D01*
X152229605Y-57299999D01*
X152150000Y-57299999D01*
X152150000Y-57280109D01*
X152134776Y-57243355D01*
X152106645Y-57215224D01*
X152069891Y-57200000D01*
X152030109Y-57200000D01*
X151993355Y-57215224D01*
X151965224Y-57243355D01*
X151950000Y-57280109D01*
X151850504Y-57280109D01*
X151615305Y-57044911D01*
X151615304Y-57044911D01*
X151604125Y-57064275D01*
X151566175Y-57093396D01*
X151518749Y-57087151D01*
X151495872Y-57064275D01*
X151484692Y-57044911D01*
X151229605Y-57299999D01*
X151150000Y-57299999D01*
X151150000Y-57280109D01*
X151134776Y-57243355D01*
X151106645Y-57215224D01*
X151069891Y-57200000D01*
X151030109Y-57200000D01*
X150993355Y-57215224D01*
X150965224Y-57243355D01*
X150950000Y-57280109D01*
X150850504Y-57280109D01*
X150615305Y-57044911D01*
X150615304Y-57044911D01*
X150604125Y-57064275D01*
X150566175Y-57093396D01*
X150518749Y-57087151D01*
X150495872Y-57064275D01*
X150484692Y-57044911D01*
X150229605Y-57299999D01*
X150150000Y-57299999D01*
X150150000Y-57280109D01*
X150134776Y-57243355D01*
X150106645Y-57215224D01*
X150069891Y-57200000D01*
X150030109Y-57200000D01*
X149993355Y-57215224D01*
X149965224Y-57243355D01*
X149950000Y-57280109D01*
X149850504Y-57280109D01*
X149615306Y-57044911D01*
X149580347Y-57105463D01*
X149580345Y-57105467D01*
X149546001Y-57233640D01*
X149546000Y-57233648D01*
X146950533Y-57233648D01*
X147318875Y-56865306D01*
X149794911Y-56865306D01*
X150049999Y-57120394D01*
X150305088Y-56865306D01*
X150794911Y-56865306D01*
X151049999Y-57120394D01*
X151305088Y-56865306D01*
X151794911Y-56865306D01*
X152049999Y-57120394D01*
X152305087Y-56865306D01*
X152794911Y-56865306D01*
X153049999Y-57120394D01*
X153305088Y-56865306D01*
X153244536Y-56830346D01*
X153244532Y-56830345D01*
X153116359Y-56796001D01*
X153116352Y-56796000D01*
X152983648Y-56796000D01*
X152983640Y-56796001D01*
X152855467Y-56830345D01*
X152855463Y-56830347D01*
X152794911Y-56865306D01*
X152305087Y-56865306D01*
X152244536Y-56830346D01*
X152244532Y-56830345D01*
X152116359Y-56796001D01*
X152116352Y-56796000D01*
X151983648Y-56796000D01*
X151983640Y-56796001D01*
X151855467Y-56830345D01*
X151855463Y-56830347D01*
X151794911Y-56865306D01*
X151305088Y-56865306D01*
X151244536Y-56830346D01*
X151244532Y-56830345D01*
X151116359Y-56796001D01*
X151116352Y-56796000D01*
X150983648Y-56796000D01*
X150983640Y-56796001D01*
X150855467Y-56830345D01*
X150855463Y-56830347D01*
X150794911Y-56865306D01*
X150305088Y-56865306D01*
X150244536Y-56830346D01*
X150244532Y-56830345D01*
X150116359Y-56796001D01*
X150116352Y-56796000D01*
X149983648Y-56796000D01*
X149983640Y-56796001D01*
X149855467Y-56830345D01*
X149855463Y-56830347D01*
X149794911Y-56865306D01*
X147318875Y-56865306D01*
X148411375Y-55772806D01*
X148455569Y-55754500D01*
X149652505Y-55754500D01*
X149687228Y-55765033D01*
X149692610Y-55768629D01*
X149829920Y-55825505D01*
X149975688Y-55854500D01*
X150124312Y-55854500D01*
X150270080Y-55825505D01*
X150407390Y-55768629D01*
X150530966Y-55686059D01*
X150636059Y-55580966D01*
X150718629Y-55457390D01*
X150775505Y-55320080D01*
X150804500Y-55174312D01*
X150804500Y-55025688D01*
X150775505Y-54879920D01*
X150718629Y-54742610D01*
X150718627Y-54742608D01*
X150718627Y-54742606D01*
X150636059Y-54619034D01*
X150530965Y-54513940D01*
X150407393Y-54431372D01*
X150407390Y-54431371D01*
X150270078Y-54374494D01*
X150124312Y-54345500D01*
X149975688Y-54345500D01*
X149829921Y-54374494D01*
X149692609Y-54431371D01*
X149692606Y-54431372D01*
X149569034Y-54513940D01*
X149463942Y-54619032D01*
X149461992Y-54621409D01*
X149460785Y-54620418D01*
X149425039Y-54644300D01*
X149412850Y-54645500D01*
X148276843Y-54645500D01*
X148276827Y-54645499D01*
X148273002Y-54645499D01*
X148126999Y-54645499D01*
X148126993Y-54645499D01*
X147985973Y-54683287D01*
X147985971Y-54683287D01*
X147859527Y-54756290D01*
X147859523Y-54756293D01*
X147756289Y-54859529D01*
X144906289Y-57709528D01*
X144879292Y-57756290D01*
X144833287Y-57835971D01*
X144833286Y-57835974D01*
X144797502Y-57969526D01*
X144797502Y-57969527D01*
X144795500Y-57976996D01*
X144795500Y-64129504D01*
X144812973Y-64194709D01*
X144812973Y-64194710D01*
X144833286Y-64270523D01*
X144833287Y-64270526D01*
X144869788Y-64333748D01*
X144906288Y-64396968D01*
X144906290Y-64396970D01*
X144906293Y-64396974D01*
X145013084Y-64503765D01*
X145013098Y-64503777D01*
X145227194Y-64717873D01*
X145245500Y-64762067D01*
X145245500Y-65397999D01*
X145245501Y-65398007D01*
X145283286Y-65539025D01*
X145283287Y-65539028D01*
X145356290Y-65665472D01*
X145356293Y-65665476D01*
X145463084Y-65772267D01*
X145463098Y-65772279D01*
X159229101Y-79538282D01*
X159229106Y-79538288D01*
X159327194Y-79636376D01*
X159345500Y-79680570D01*
X159345500Y-79699816D01*
X159348252Y-79734781D01*
X159348252Y-79734786D01*
X159388176Y-79872203D01*
X159391745Y-79884488D01*
X159445488Y-79975363D01*
X159471100Y-80018671D01*
X159581328Y-80128899D01*
X159581330Y-80128900D01*
X159581331Y-80128901D01*
X159715512Y-80208255D01*
X159775315Y-80225629D01*
X159812647Y-80255537D01*
X159817896Y-80303084D01*
X159792602Y-80337613D01*
X159727799Y-80380914D01*
X159727794Y-80380918D01*
X159580916Y-80527796D01*
X159465515Y-80700504D01*
X159465514Y-80700506D01*
X159386024Y-80892410D01*
X159345500Y-81096140D01*
X159345500Y-81303859D01*
X159386024Y-81507589D01*
X159465514Y-81699493D01*
X159465515Y-81699495D01*
X159580916Y-81872203D01*
X159727796Y-82019083D01*
X159900503Y-82134484D01*
X159900505Y-82134485D01*
X159900507Y-82134486D01*
X159919271Y-82142258D01*
X159953095Y-82176083D01*
X159953094Y-82223919D01*
X159919271Y-82257741D01*
X159913483Y-82260138D01*
X159900503Y-82265515D01*
X159727796Y-82380916D01*
X159727796Y-82380917D01*
X159580918Y-82527794D01*
X159580916Y-82527796D01*
X159465515Y-82700504D01*
X159465514Y-82700506D01*
X159386024Y-82892410D01*
X159345500Y-83096140D01*
X159345500Y-83303859D01*
X159386024Y-83507589D01*
X159465514Y-83699493D01*
X159465515Y-83699495D01*
X159580916Y-83872203D01*
X159727796Y-84019083D01*
X159900503Y-84134484D01*
X159900505Y-84134485D01*
X159900507Y-84134486D01*
X159919271Y-84142258D01*
X159953095Y-84176083D01*
X159953094Y-84223919D01*
X159919271Y-84257741D01*
X159913483Y-84260138D01*
X159900503Y-84265515D01*
X159727796Y-84380916D01*
X159580916Y-84527796D01*
X159465515Y-84700504D01*
X159465514Y-84700506D01*
X159386024Y-84892410D01*
X159345500Y-85096140D01*
X159345500Y-85303859D01*
X159386024Y-85507589D01*
X159465514Y-85699493D01*
X159465515Y-85699495D01*
X159489093Y-85734781D01*
X159580917Y-85872204D01*
X159727796Y-86019083D01*
X159900507Y-86134486D01*
X159990971Y-86171957D01*
X160092410Y-86213975D01*
X160092413Y-86213975D01*
X160092414Y-86213976D01*
X160296141Y-86254500D01*
X160803859Y-86254500D01*
X161007586Y-86213976D01*
X161007587Y-86213975D01*
X161007589Y-86213975D01*
X161047073Y-86197620D01*
X161199493Y-86134486D01*
X161372204Y-86019083D01*
X161519083Y-85872204D01*
X161634486Y-85699493D01*
X161713976Y-85507586D01*
X161754500Y-85303859D01*
X161754500Y-85155568D01*
X161772805Y-85111375D01*
X164435324Y-82448855D01*
X164435329Y-82448852D01*
X164440469Y-82443711D01*
X164440471Y-82443711D01*
X164543711Y-82340471D01*
X164582874Y-82272638D01*
X164620824Y-82243519D01*
X164668250Y-82249762D01*
X164697370Y-82287713D01*
X164699500Y-82303889D01*
X164699500Y-96998241D01*
X164699402Y-97001746D01*
X164682722Y-97298746D01*
X164681937Y-97305710D01*
X164632405Y-97597238D01*
X164630845Y-97604071D01*
X164548984Y-97888214D01*
X164546670Y-97894830D01*
X164433506Y-98168030D01*
X164430469Y-98174335D01*
X164287429Y-98433147D01*
X164283701Y-98439082D01*
X164112585Y-98680247D01*
X164108215Y-98685727D01*
X163911173Y-98906217D01*
X163906217Y-98911173D01*
X163685727Y-99108215D01*
X163680247Y-99112585D01*
X163439082Y-99283701D01*
X163433147Y-99287429D01*
X163174335Y-99430469D01*
X163168030Y-99433506D01*
X162937201Y-99529119D01*
X162894830Y-99546670D01*
X162888214Y-99548984D01*
X162604071Y-99630845D01*
X162597238Y-99632405D01*
X162305710Y-99681937D01*
X162298746Y-99682722D01*
X162023887Y-99698158D01*
X162001744Y-99699402D01*
X161998241Y-99699500D01*
X101001759Y-99699500D01*
X100998255Y-99699402D01*
X100974248Y-99698053D01*
X100701253Y-99682722D01*
X100694289Y-99681937D01*
X100402761Y-99632405D01*
X100395928Y-99630845D01*
X100111785Y-99548984D01*
X100105173Y-99546671D01*
X99831962Y-99433503D01*
X99825664Y-99430469D01*
X99566852Y-99287429D01*
X99560917Y-99283701D01*
X99319752Y-99112585D01*
X99314272Y-99108215D01*
X99093782Y-98911173D01*
X99088826Y-98906217D01*
X98891784Y-98685727D01*
X98887414Y-98680247D01*
X98716298Y-98439082D01*
X98712570Y-98433147D01*
X98569530Y-98174335D01*
X98566499Y-98168045D01*
X98453324Y-97894816D01*
X98451015Y-97888214D01*
X98441563Y-97855404D01*
X98369151Y-97604060D01*
X98367596Y-97597248D01*
X98318061Y-97305706D01*
X98317277Y-97298745D01*
X98316626Y-97287159D01*
X98300598Y-97001745D01*
X98300500Y-96998241D01*
X98300500Y-96374040D01*
X101899500Y-96374040D01*
X101899500Y-96625959D01*
X101899501Y-96625975D01*
X101938909Y-96874782D01*
X101938909Y-96874783D01*
X102007597Y-97086180D01*
X102016759Y-97114379D01*
X102131130Y-97338845D01*
X102279207Y-97542656D01*
X102279210Y-97542659D01*
X102279213Y-97542663D01*
X102457336Y-97720786D01*
X102457339Y-97720788D01*
X102457344Y-97720793D01*
X102661155Y-97868870D01*
X102885621Y-97983241D01*
X103125215Y-98061090D01*
X103230083Y-98077699D01*
X103374024Y-98100498D01*
X103374030Y-98100498D01*
X103374038Y-98100500D01*
X103374040Y-98100500D01*
X103625960Y-98100500D01*
X103625962Y-98100500D01*
X103874785Y-98061090D01*
X104114379Y-97983241D01*
X104338845Y-97868870D01*
X104542656Y-97720793D01*
X104720793Y-97542656D01*
X104868870Y-97338845D01*
X104983241Y-97114379D01*
X105061090Y-96874785D01*
X105100500Y-96625962D01*
X105100500Y-96374038D01*
X105091995Y-96320343D01*
X105076829Y-96224585D01*
X105061090Y-96125215D01*
X104983241Y-95885621D01*
X104868870Y-95661155D01*
X104854982Y-95642040D01*
X110653000Y-95642040D01*
X110653000Y-98357960D01*
X110655954Y-98383423D01*
X110701937Y-98487565D01*
X110782435Y-98568063D01*
X110886577Y-98614046D01*
X110912040Y-98617000D01*
X110912041Y-98617000D01*
X113627959Y-98617000D01*
X113627960Y-98617000D01*
X113653423Y-98614046D01*
X113757565Y-98568063D01*
X113838063Y-98487565D01*
X113884046Y-98383423D01*
X113887000Y-98357960D01*
X113887000Y-96876712D01*
X114663500Y-96876712D01*
X114663500Y-97123287D01*
X114702073Y-97366828D01*
X114778266Y-97601325D01*
X114778267Y-97601328D01*
X114890211Y-97821028D01*
X115032929Y-98017463D01*
X115527219Y-97523173D01*
X115550343Y-97557780D01*
X115672220Y-97679657D01*
X115706824Y-97702779D01*
X115212535Y-98197068D01*
X115408974Y-98339790D01*
X115628671Y-98451732D01*
X115628674Y-98451733D01*
X115863171Y-98527926D01*
X116106712Y-98566499D01*
X116106716Y-98566500D01*
X116353284Y-98566500D01*
X116353287Y-98566499D01*
X116596828Y-98527926D01*
X116831325Y-98451733D01*
X116831328Y-98451732D01*
X117051025Y-98339790D01*
X117247463Y-98197068D01*
X116753174Y-97702779D01*
X116787780Y-97679657D01*
X116909657Y-97557780D01*
X116932779Y-97523174D01*
X117427068Y-98017463D01*
X117569790Y-97821025D01*
X117681732Y-97601328D01*
X117681733Y-97601325D01*
X117757926Y-97366828D01*
X117796499Y-97123287D01*
X117796500Y-97123283D01*
X117796500Y-96876716D01*
X117796499Y-96876712D01*
X117757926Y-96633171D01*
X117681733Y-96398674D01*
X117681732Y-96398671D01*
X117569790Y-96178974D01*
X117427068Y-95982535D01*
X116932778Y-96476824D01*
X116909657Y-96442220D01*
X116787780Y-96320343D01*
X116753173Y-96297219D01*
X117247464Y-95802929D01*
X117051028Y-95660211D01*
X116831328Y-95548267D01*
X116831325Y-95548266D01*
X116596828Y-95472073D01*
X116353287Y-95433500D01*
X116106712Y-95433500D01*
X115863171Y-95472073D01*
X115628674Y-95548266D01*
X115628671Y-95548267D01*
X115408971Y-95660211D01*
X115212534Y-95802929D01*
X115706825Y-96297220D01*
X115672220Y-96320343D01*
X115550343Y-96442220D01*
X115527220Y-96476825D01*
X115032929Y-95982534D01*
X114890211Y-96178971D01*
X114778267Y-96398671D01*
X114778266Y-96398674D01*
X114702073Y-96633171D01*
X114663500Y-96876712D01*
X113887000Y-96876712D01*
X113887000Y-95642040D01*
X113884046Y-95616577D01*
X113838063Y-95512435D01*
X113757565Y-95431937D01*
X113653423Y-95385954D01*
X113627960Y-95383000D01*
X110912040Y-95383000D01*
X110899308Y-95384477D01*
X110886576Y-95385954D01*
X110782433Y-95431938D01*
X110701938Y-95512433D01*
X110701937Y-95512434D01*
X110701937Y-95512435D01*
X110655954Y-95616577D01*
X110653000Y-95642040D01*
X104854982Y-95642040D01*
X104720793Y-95457344D01*
X104720788Y-95457339D01*
X104720786Y-95457336D01*
X104542663Y-95279213D01*
X104542659Y-95279210D01*
X104542656Y-95279207D01*
X104338845Y-95131130D01*
X104114379Y-95016759D01*
X104114377Y-95016758D01*
X103874783Y-94938909D01*
X103625975Y-94899501D01*
X103625963Y-94899500D01*
X103625962Y-94899500D01*
X103374038Y-94899500D01*
X103374036Y-94899500D01*
X103374024Y-94899501D01*
X103125217Y-94938909D01*
X103125216Y-94938909D01*
X102885622Y-95016758D01*
X102885614Y-95016762D01*
X102668457Y-95127409D01*
X102661155Y-95131130D01*
X102555127Y-95208164D01*
X102457336Y-95279213D01*
X102279213Y-95457336D01*
X102279207Y-95457343D01*
X102279207Y-95457344D01*
X102138049Y-95651633D01*
X102131129Y-95661157D01*
X102016762Y-95885614D01*
X102016758Y-95885622D01*
X101938909Y-96125216D01*
X101938909Y-96125217D01*
X101899501Y-96374024D01*
X101899500Y-96374040D01*
X98300500Y-96374040D01*
X98300500Y-94729624D01*
X122470500Y-94729624D01*
X122470500Y-94970375D01*
X122508162Y-95208164D01*
X122582555Y-95437122D01*
X122582556Y-95437125D01*
X122673992Y-95616577D01*
X122691854Y-95651633D01*
X122833362Y-95846403D01*
X122833365Y-95846406D01*
X122833368Y-95846410D01*
X123003589Y-96016631D01*
X123003592Y-96016633D01*
X123003597Y-96016638D01*
X123198367Y-96158146D01*
X123412876Y-96267444D01*
X123641841Y-96341839D01*
X123879626Y-96379500D01*
X123879628Y-96379500D01*
X124120372Y-96379500D01*
X124120374Y-96379500D01*
X124358159Y-96341839D01*
X124587124Y-96267444D01*
X124801633Y-96158146D01*
X124996403Y-96016638D01*
X125166638Y-95846403D01*
X125308146Y-95651633D01*
X125417444Y-95437124D01*
X125491839Y-95208159D01*
X125529500Y-94970374D01*
X125529500Y-94729626D01*
X125491839Y-94491841D01*
X125417444Y-94262876D01*
X125308146Y-94048367D01*
X125166638Y-93853597D01*
X125166633Y-93853592D01*
X125166631Y-93853589D01*
X124996410Y-93683368D01*
X124996406Y-93683365D01*
X124996403Y-93683362D01*
X124801633Y-93541854D01*
X124587125Y-93432556D01*
X124587122Y-93432555D01*
X124358164Y-93358162D01*
X124358160Y-93358161D01*
X124358159Y-93358161D01*
X124223143Y-93336776D01*
X124120375Y-93320500D01*
X124120374Y-93320500D01*
X123879626Y-93320500D01*
X123879624Y-93320500D01*
X123641835Y-93358162D01*
X123412877Y-93432555D01*
X123412874Y-93432556D01*
X123198366Y-93541854D01*
X123003589Y-93683368D01*
X122833368Y-93853589D01*
X122691854Y-94048366D01*
X122582556Y-94262874D01*
X122582555Y-94262877D01*
X122508162Y-94491835D01*
X122470500Y-94729624D01*
X98300500Y-94729624D01*
X98300500Y-90029624D01*
X122470500Y-90029624D01*
X122470500Y-90270375D01*
X122508162Y-90508164D01*
X122582555Y-90737122D01*
X122582556Y-90737125D01*
X122691854Y-90951633D01*
X122833362Y-91146403D01*
X122833365Y-91146406D01*
X122833368Y-91146410D01*
X123003589Y-91316631D01*
X123003592Y-91316633D01*
X123003597Y-91316638D01*
X123198367Y-91458146D01*
X123412876Y-91567444D01*
X123641841Y-91641839D01*
X123879626Y-91679500D01*
X123879628Y-91679500D01*
X124120372Y-91679500D01*
X124120374Y-91679500D01*
X124358159Y-91641839D01*
X124587124Y-91567444D01*
X124801633Y-91458146D01*
X124996403Y-91316638D01*
X125166638Y-91146403D01*
X125308146Y-90951633D01*
X125417444Y-90737124D01*
X125491839Y-90508159D01*
X125529500Y-90270374D01*
X125529500Y-90029626D01*
X125491839Y-89791841D01*
X125417444Y-89562876D01*
X125308146Y-89348367D01*
X125166638Y-89153597D01*
X125166633Y-89153592D01*
X125166631Y-89153589D01*
X124996410Y-88983368D01*
X124996406Y-88983365D01*
X124996403Y-88983362D01*
X124801633Y-88841854D01*
X124669440Y-88774498D01*
X124587125Y-88732556D01*
X124587122Y-88732555D01*
X124358164Y-88658162D01*
X124358160Y-88658161D01*
X124358159Y-88658161D01*
X124223143Y-88636776D01*
X124120375Y-88620500D01*
X124120374Y-88620500D01*
X123879626Y-88620500D01*
X123879624Y-88620500D01*
X123641835Y-88658162D01*
X123412877Y-88732555D01*
X123412874Y-88732556D01*
X123198366Y-88841854D01*
X123003589Y-88983368D01*
X122833368Y-89153589D01*
X122691854Y-89348366D01*
X122582556Y-89562874D01*
X122582555Y-89562877D01*
X122508162Y-89791835D01*
X122470500Y-90029624D01*
X98300500Y-90029624D01*
X98300500Y-87367336D01*
X109695500Y-87367336D01*
X109695500Y-87572663D01*
X109695501Y-87572679D01*
X109727620Y-87775465D01*
X109727622Y-87775474D01*
X109791071Y-87970752D01*
X109791075Y-87970760D01*
X109884292Y-88153709D01*
X110004982Y-88319824D01*
X110004989Y-88319832D01*
X110150167Y-88465010D01*
X110150175Y-88465017D01*
X110316293Y-88585709D01*
X110499246Y-88678928D01*
X110694529Y-88742379D01*
X110853645Y-88767580D01*
X110897320Y-88774498D01*
X110897326Y-88774498D01*
X110897334Y-88774500D01*
X110897336Y-88774500D01*
X111102664Y-88774500D01*
X111102666Y-88774500D01*
X111305471Y-88742379D01*
X111500754Y-88678928D01*
X111683707Y-88585709D01*
X111849825Y-88465017D01*
X111995017Y-88319825D01*
X112115709Y-88153707D01*
X112208928Y-87970754D01*
X112272379Y-87775471D01*
X112304500Y-87572666D01*
X112304500Y-87367334D01*
X112272379Y-87164529D01*
X112208928Y-86969246D01*
X112115709Y-86786293D01*
X112086378Y-86745923D01*
X111995017Y-86620175D01*
X111995010Y-86620167D01*
X111849832Y-86474989D01*
X111849824Y-86474982D01*
X111683709Y-86354292D01*
X111500760Y-86261075D01*
X111500752Y-86261071D01*
X111305474Y-86197622D01*
X111305471Y-86197621D01*
X111305465Y-86197620D01*
X111102679Y-86165501D01*
X111102667Y-86165500D01*
X111102666Y-86165500D01*
X110897334Y-86165500D01*
X110897332Y-86165500D01*
X110897320Y-86165501D01*
X110694534Y-86197620D01*
X110694525Y-86197622D01*
X110499247Y-86261071D01*
X110499239Y-86261075D01*
X110316290Y-86354292D01*
X110150175Y-86474982D01*
X110150167Y-86474989D01*
X110004989Y-86620167D01*
X110004982Y-86620175D01*
X109884292Y-86786290D01*
X109791075Y-86969239D01*
X109791071Y-86969247D01*
X109727622Y-87164525D01*
X109727620Y-87164534D01*
X109695501Y-87367320D01*
X109695500Y-87367336D01*
X98300500Y-87367336D01*
X98300500Y-84179540D01*
X122470500Y-84179540D01*
X122470500Y-86720460D01*
X122473454Y-86745923D01*
X122519437Y-86850065D01*
X122599935Y-86930563D01*
X122704077Y-86976546D01*
X122729540Y-86979500D01*
X122729541Y-86979500D01*
X125270459Y-86979500D01*
X125270460Y-86979500D01*
X125295923Y-86976546D01*
X125400065Y-86930563D01*
X125480563Y-86850065D01*
X125526546Y-86745923D01*
X125529500Y-86720460D01*
X125529500Y-84179540D01*
X125526546Y-84154077D01*
X125480563Y-84049935D01*
X125400065Y-83969437D01*
X125295923Y-83923454D01*
X125270460Y-83920500D01*
X122729540Y-83920500D01*
X122716808Y-83921977D01*
X122704076Y-83923454D01*
X122599933Y-83969438D01*
X122519438Y-84049933D01*
X122476026Y-84148253D01*
X122473454Y-84154077D01*
X122470500Y-84179540D01*
X98300500Y-84179540D01*
X98300500Y-79747336D01*
X109695500Y-79747336D01*
X109695500Y-79952663D01*
X109695501Y-79952679D01*
X109727620Y-80155465D01*
X109727622Y-80155474D01*
X109791071Y-80350752D01*
X109791075Y-80350760D01*
X109884292Y-80533709D01*
X110004982Y-80699824D01*
X110004989Y-80699832D01*
X110150167Y-80845010D01*
X110150175Y-80845017D01*
X110233294Y-80905407D01*
X110316293Y-80965709D01*
X110499246Y-81058928D01*
X110694529Y-81122379D01*
X110853645Y-81147580D01*
X110897320Y-81154498D01*
X110897326Y-81154498D01*
X110897334Y-81154500D01*
X110897336Y-81154500D01*
X111102664Y-81154500D01*
X111102666Y-81154500D01*
X111305471Y-81122379D01*
X111500754Y-81058928D01*
X111683707Y-80965709D01*
X111849825Y-80845017D01*
X111995017Y-80699825D01*
X112115709Y-80533707D01*
X112208928Y-80350754D01*
X112226171Y-80297686D01*
X112257238Y-80261312D01*
X112285612Y-80254500D01*
X119745063Y-80254500D01*
X119789257Y-80272806D01*
X120169426Y-80652975D01*
X120185602Y-80680992D01*
X120203177Y-80746580D01*
X120203179Y-80746585D01*
X120266302Y-80855916D01*
X120266309Y-80855925D01*
X120652616Y-81242231D01*
X120652621Y-81242237D01*
X120654804Y-81244420D01*
X120744080Y-81333696D01*
X120853420Y-81396823D01*
X120853423Y-81396824D01*
X120886023Y-81405559D01*
X120975372Y-81429500D01*
X120975373Y-81429500D01*
X136763127Y-81429500D01*
X136763128Y-81429500D01*
X136763136Y-81429498D01*
X136786668Y-81423192D01*
X136875775Y-81399316D01*
X136923202Y-81405559D01*
X136952322Y-81443509D01*
X136946079Y-81490936D01*
X136936146Y-81503880D01*
X136162833Y-82277194D01*
X136118639Y-82295500D01*
X136046747Y-82295500D01*
X136046746Y-82295500D01*
X136046740Y-82295501D01*
X135943872Y-82323064D01*
X135943863Y-82323068D01*
X135851634Y-82376317D01*
X135851625Y-82376324D01*
X135840756Y-82387194D01*
X135796562Y-82405500D01*
X135690615Y-82405500D01*
X135554508Y-82432572D01*
X135554505Y-82432573D01*
X135426295Y-82485680D01*
X135426293Y-82485681D01*
X135310909Y-82562778D01*
X135212780Y-82660907D01*
X135135683Y-82776291D01*
X135135682Y-82776293D01*
X135082575Y-82904503D01*
X135082574Y-82904506D01*
X135055502Y-83040612D01*
X135055502Y-83179387D01*
X135082574Y-83315493D01*
X135082575Y-83315496D01*
X135135682Y-83443706D01*
X135135683Y-83443708D01*
X135171868Y-83497863D01*
X135212781Y-83559093D01*
X135310909Y-83657221D01*
X135426296Y-83734320D01*
X135554507Y-83787427D01*
X135690615Y-83814500D01*
X135829389Y-83814500D01*
X135965497Y-83787427D01*
X136093708Y-83734320D01*
X136209095Y-83657221D01*
X136307223Y-83559093D01*
X136384322Y-83443706D01*
X136437429Y-83315495D01*
X136464502Y-83179387D01*
X136464502Y-83115157D01*
X136482808Y-83070963D01*
X136495747Y-83061033D01*
X136560445Y-83023680D01*
X137589694Y-81994431D01*
X138691888Y-80892238D01*
X144699500Y-80892238D01*
X144699500Y-80960438D01*
X144699500Y-95952405D01*
X144699500Y-96000000D01*
X144699500Y-96107762D01*
X144734974Y-96320348D01*
X144804955Y-96524195D01*
X144860027Y-96625959D01*
X144907533Y-96713743D01*
X144907534Y-96713745D01*
X145039907Y-96883817D01*
X145039910Y-96883821D01*
X145198475Y-97029791D01*
X145198477Y-97029792D01*
X145198479Y-97029794D01*
X145378909Y-97147675D01*
X145576281Y-97234251D01*
X145785211Y-97287159D01*
X146000000Y-97304957D01*
X146214789Y-97287159D01*
X146423719Y-97234251D01*
X146621091Y-97147675D01*
X146801521Y-97029794D01*
X146960088Y-96883823D01*
X147092466Y-96713744D01*
X147195045Y-96524195D01*
X147246593Y-96374040D01*
X159899500Y-96374040D01*
X159899500Y-96625959D01*
X159899501Y-96625975D01*
X159938909Y-96874782D01*
X159938909Y-96874783D01*
X160007597Y-97086180D01*
X160016759Y-97114379D01*
X160131130Y-97338845D01*
X160279207Y-97542656D01*
X160279210Y-97542659D01*
X160279213Y-97542663D01*
X160457336Y-97720786D01*
X160457339Y-97720788D01*
X160457344Y-97720793D01*
X160661155Y-97868870D01*
X160885621Y-97983241D01*
X161125215Y-98061090D01*
X161230083Y-98077699D01*
X161374024Y-98100498D01*
X161374030Y-98100498D01*
X161374038Y-98100500D01*
X161374040Y-98100500D01*
X161625960Y-98100500D01*
X161625962Y-98100500D01*
X161874785Y-98061090D01*
X162114379Y-97983241D01*
X162338845Y-97868870D01*
X162542656Y-97720793D01*
X162720793Y-97542656D01*
X162868870Y-97338845D01*
X162983241Y-97114379D01*
X163061090Y-96874785D01*
X163100500Y-96625962D01*
X163100500Y-96374038D01*
X163091995Y-96320343D01*
X163076829Y-96224585D01*
X163061090Y-96125215D01*
X162983241Y-95885621D01*
X162868870Y-95661155D01*
X162720793Y-95457344D01*
X162720788Y-95457339D01*
X162720786Y-95457336D01*
X162542663Y-95279213D01*
X162542659Y-95279210D01*
X162542656Y-95279207D01*
X162338845Y-95131130D01*
X162114379Y-95016759D01*
X162114377Y-95016758D01*
X161874783Y-94938909D01*
X161625975Y-94899501D01*
X161625963Y-94899500D01*
X161625962Y-94899500D01*
X161374038Y-94899500D01*
X161374036Y-94899500D01*
X161374024Y-94899501D01*
X161125217Y-94938909D01*
X161125216Y-94938909D01*
X160885622Y-95016758D01*
X160885614Y-95016762D01*
X160668457Y-95127409D01*
X160661155Y-95131130D01*
X160555127Y-95208164D01*
X160457336Y-95279213D01*
X160279213Y-95457336D01*
X160279207Y-95457343D01*
X160279207Y-95457344D01*
X160138049Y-95651633D01*
X160131129Y-95661157D01*
X160016762Y-95885614D01*
X160016758Y-95885622D01*
X159938909Y-96125216D01*
X159938909Y-96125217D01*
X159899501Y-96374024D01*
X159899500Y-96374040D01*
X147246593Y-96374040D01*
X147265026Y-96320348D01*
X147300500Y-96107762D01*
X147300500Y-96000000D01*
X147300500Y-95952405D01*
X147300500Y-80960438D01*
X147300500Y-80892238D01*
X147265026Y-80679652D01*
X147195045Y-80475805D01*
X147092466Y-80286256D01*
X147092465Y-80286254D01*
X146960092Y-80116182D01*
X146960089Y-80116178D01*
X146958458Y-80114677D01*
X146907974Y-80068203D01*
X146801524Y-79970208D01*
X146801519Y-79970205D01*
X146621096Y-79852328D01*
X146621093Y-79852326D01*
X146423721Y-79765750D01*
X146423719Y-79765749D01*
X146214789Y-79712841D01*
X146000000Y-79695043D01*
X145785211Y-79712841D01*
X145576281Y-79765749D01*
X145576279Y-79765749D01*
X145576278Y-79765750D01*
X145378906Y-79852326D01*
X145378903Y-79852328D01*
X145198480Y-79970205D01*
X145198475Y-79970208D01*
X145039910Y-80116178D01*
X145039907Y-80116182D01*
X144907534Y-80286254D01*
X144907533Y-80286256D01*
X144847350Y-80397466D01*
X144817238Y-80453109D01*
X144804956Y-80475804D01*
X144804955Y-80475805D01*
X144734974Y-80679651D01*
X144731494Y-80700504D01*
X144699500Y-80892238D01*
X138691888Y-80892238D01*
X138738667Y-80845459D01*
X139423675Y-80160450D01*
X139423680Y-80160445D01*
X139476934Y-80068207D01*
X139504500Y-79965329D01*
X139504500Y-79858823D01*
X139504500Y-72546747D01*
X139476934Y-72443869D01*
X139476934Y-72443868D01*
X139423680Y-72351631D01*
X139423675Y-72351625D01*
X138897374Y-71825324D01*
X138897365Y-71825317D01*
X138805136Y-71772068D01*
X138805127Y-71772064D01*
X138702259Y-71744501D01*
X138702254Y-71744500D01*
X138702253Y-71744500D01*
X134064253Y-71744500D01*
X133957747Y-71744500D01*
X133957746Y-71744500D01*
X133957740Y-71744501D01*
X133854872Y-71772064D01*
X133854863Y-71772068D01*
X133762634Y-71825317D01*
X133762625Y-71825324D01*
X133460757Y-72127194D01*
X133416563Y-72145500D01*
X131664540Y-72145500D01*
X131651808Y-72146977D01*
X131639076Y-72148454D01*
X131534933Y-72194438D01*
X131454438Y-72274933D01*
X131420573Y-72351631D01*
X131408454Y-72379077D01*
X131405500Y-72404540D01*
X131405500Y-74495460D01*
X131408454Y-74520923D01*
X131454437Y-74625065D01*
X131534935Y-74705563D01*
X131639077Y-74751546D01*
X131664540Y-74754500D01*
X131664541Y-74754500D01*
X133755459Y-74754500D01*
X133755460Y-74754500D01*
X133780923Y-74751546D01*
X133885065Y-74705563D01*
X133965563Y-74625065D01*
X134011546Y-74520923D01*
X134014500Y-74495460D01*
X134014500Y-72743437D01*
X134032806Y-72699243D01*
X134160243Y-72571806D01*
X134204437Y-72553500D01*
X136768653Y-72553500D01*
X136812847Y-72571806D01*
X136831153Y-72616000D01*
X136819217Y-72652737D01*
X136717481Y-72792763D01*
X136627873Y-72968627D01*
X136627872Y-72968629D01*
X136566878Y-73156348D01*
X136536000Y-73351306D01*
X136536000Y-73548693D01*
X136566878Y-73743651D01*
X136627872Y-73931370D01*
X136627873Y-73931372D01*
X136717485Y-74107242D01*
X136816654Y-74243738D01*
X137321631Y-73738761D01*
X137349890Y-73787708D01*
X137452292Y-73890110D01*
X137501236Y-73918367D01*
X136996259Y-74423344D01*
X137132757Y-74522514D01*
X137308627Y-74612126D01*
X137308629Y-74612127D01*
X137496348Y-74673121D01*
X137691306Y-74703999D01*
X137691310Y-74704000D01*
X137888690Y-74704000D01*
X137888693Y-74703999D01*
X138083651Y-74673121D01*
X138271370Y-74612127D01*
X138271372Y-74612126D01*
X138447236Y-74522518D01*
X138596263Y-74414244D01*
X138642777Y-74403077D01*
X138683564Y-74428071D01*
X138695500Y-74464808D01*
X138695500Y-79718638D01*
X138677194Y-79762832D01*
X138482968Y-79957057D01*
X138438774Y-79975363D01*
X138394580Y-79957057D01*
X138377475Y-79925056D01*
X138369740Y-79886168D01*
X138369739Y-79886165D01*
X138301557Y-79721559D01*
X138301555Y-79721557D01*
X138301555Y-79721555D01*
X138202571Y-79573415D01*
X138076584Y-79447428D01*
X137928444Y-79348444D01*
X137928441Y-79348443D01*
X137763831Y-79280259D01*
X137589085Y-79245500D01*
X137410915Y-79245500D01*
X137236168Y-79280259D01*
X137071558Y-79348443D01*
X137071555Y-79348444D01*
X136923415Y-79447428D01*
X136797428Y-79573415D01*
X136698444Y-79721555D01*
X136698443Y-79721558D01*
X136630259Y-79886168D01*
X136595500Y-80060914D01*
X136595500Y-80239088D01*
X136611761Y-80320841D01*
X136610512Y-80327118D01*
X136612962Y-80333032D01*
X136605984Y-80349877D01*
X136602428Y-80367757D01*
X136594657Y-80377227D01*
X136519690Y-80452194D01*
X136475498Y-80470500D01*
X121263003Y-80470500D01*
X121218809Y-80452194D01*
X120944425Y-80177809D01*
X120944416Y-80177802D01*
X120835085Y-80114679D01*
X120835080Y-80114677D01*
X120769492Y-80097102D01*
X120741475Y-80080926D01*
X120186874Y-79526324D01*
X120186865Y-79526317D01*
X120094636Y-79473068D01*
X120094627Y-79473064D01*
X119991759Y-79445501D01*
X119991754Y-79445500D01*
X119991753Y-79445500D01*
X119991752Y-79445500D01*
X112285612Y-79445500D01*
X112241418Y-79427194D01*
X112226171Y-79402314D01*
X112208928Y-79349247D01*
X112208924Y-79349239D01*
X112208519Y-79348444D01*
X112115709Y-79166293D01*
X111995017Y-79000175D01*
X111995010Y-79000167D01*
X111849832Y-78854989D01*
X111849824Y-78854982D01*
X111683709Y-78734292D01*
X111500760Y-78641075D01*
X111500752Y-78641071D01*
X111305474Y-78577622D01*
X111305471Y-78577621D01*
X111305465Y-78577620D01*
X111102679Y-78545501D01*
X111102667Y-78545500D01*
X111102666Y-78545500D01*
X110897334Y-78545500D01*
X110897332Y-78545500D01*
X110897320Y-78545501D01*
X110694534Y-78577620D01*
X110694525Y-78577622D01*
X110499247Y-78641071D01*
X110499239Y-78641075D01*
X110316290Y-78734292D01*
X110150175Y-78854982D01*
X110150167Y-78854989D01*
X110004989Y-79000167D01*
X110004982Y-79000175D01*
X109884292Y-79166290D01*
X109791075Y-79349239D01*
X109791071Y-79349247D01*
X109727622Y-79544525D01*
X109727620Y-79544534D01*
X109695501Y-79747320D01*
X109695500Y-79747336D01*
X98300500Y-79747336D01*
X98300500Y-58176999D01*
X119395500Y-58176999D01*
X119395500Y-58180193D01*
X119395500Y-63323006D01*
X119414262Y-63393023D01*
X119418953Y-63410529D01*
X119433288Y-63464029D01*
X119433289Y-63464030D01*
X119506290Y-63590472D01*
X119506293Y-63590476D01*
X119613084Y-63697267D01*
X119613098Y-63697279D01*
X121354101Y-65438282D01*
X121354106Y-65438288D01*
X121459523Y-65543706D01*
X121459527Y-65543709D01*
X121459529Y-65543711D01*
X121585971Y-65616712D01*
X121585974Y-65616713D01*
X121672276Y-65639837D01*
X121726998Y-65654500D01*
X121726999Y-65654500D01*
X132944431Y-65654500D01*
X132988625Y-65672806D01*
X135191468Y-67875649D01*
X135208573Y-67907649D01*
X135221612Y-67973202D01*
X135272835Y-68096864D01*
X135272836Y-68096866D01*
X135347197Y-68208155D01*
X135347198Y-68208156D01*
X135441844Y-68302802D01*
X135553136Y-68377165D01*
X135633663Y-68410520D01*
X135676789Y-68428384D01*
X135676792Y-68428385D01*
X135676797Y-68428387D01*
X135742347Y-68441425D01*
X135774349Y-68458530D01*
X149027194Y-81711375D01*
X149045500Y-81755569D01*
X149045500Y-82323006D01*
X149057914Y-82369334D01*
X149059785Y-82376317D01*
X149061018Y-82380916D01*
X149061018Y-82380917D01*
X149083286Y-82464025D01*
X149083287Y-82464028D01*
X149156290Y-82590472D01*
X149156293Y-82590476D01*
X149263084Y-82697267D01*
X149263098Y-82697279D01*
X151327194Y-84761375D01*
X151345500Y-84805569D01*
X151345500Y-85699816D01*
X151348252Y-85734781D01*
X151348252Y-85734786D01*
X151388176Y-85872203D01*
X151391745Y-85884488D01*
X151455942Y-85993040D01*
X151471100Y-86018671D01*
X151581328Y-86128899D01*
X151581330Y-86128900D01*
X151581331Y-86128901D01*
X151715512Y-86208255D01*
X151865213Y-86251747D01*
X151872208Y-86252297D01*
X151900184Y-86254500D01*
X151900192Y-86254500D01*
X153199816Y-86254500D01*
X153219796Y-86252926D01*
X153234787Y-86251747D01*
X153384488Y-86208255D01*
X153518669Y-86128901D01*
X153628901Y-86018669D01*
X153708255Y-85884488D01*
X153751747Y-85734787D01*
X153752926Y-85719796D01*
X153754500Y-85699816D01*
X153754500Y-84700183D01*
X153751747Y-84665218D01*
X153751747Y-84665213D01*
X153708255Y-84515512D01*
X153628901Y-84381331D01*
X153628900Y-84381330D01*
X153628899Y-84381328D01*
X153518671Y-84271100D01*
X153493040Y-84255942D01*
X153384488Y-84191745D01*
X153384485Y-84191744D01*
X153324684Y-84174370D01*
X153287352Y-84144461D01*
X153282103Y-84096915D01*
X153307397Y-84062385D01*
X153372204Y-84019083D01*
X153519083Y-83872204D01*
X153634486Y-83699493D01*
X153713976Y-83507586D01*
X153754500Y-83303859D01*
X153754500Y-83096141D01*
X153713976Y-82892414D01*
X153713975Y-82892413D01*
X153713975Y-82892410D01*
X153665877Y-82776293D01*
X153634486Y-82700507D01*
X153519083Y-82527796D01*
X153372204Y-82380917D01*
X153372203Y-82380916D01*
X153199495Y-82265515D01*
X153199493Y-82265514D01*
X153180728Y-82257741D01*
X153146905Y-82223918D01*
X153146905Y-82176082D01*
X153180728Y-82142258D01*
X153199493Y-82134486D01*
X153372204Y-82019083D01*
X153519083Y-81872204D01*
X153634486Y-81699493D01*
X153713976Y-81507586D01*
X153754500Y-81303859D01*
X153754500Y-81096141D01*
X153713976Y-80892414D01*
X153713975Y-80892412D01*
X153713975Y-80892410D01*
X153653570Y-80746580D01*
X153634486Y-80700507D01*
X153519083Y-80527796D01*
X153372204Y-80380917D01*
X153352509Y-80367757D01*
X153199495Y-80265515D01*
X153199493Y-80265514D01*
X153189348Y-80261312D01*
X153180728Y-80257741D01*
X153146905Y-80223918D01*
X153146905Y-80176082D01*
X153180728Y-80142258D01*
X153199493Y-80134486D01*
X153372204Y-80019083D01*
X153519083Y-79872204D01*
X153634486Y-79699493D01*
X153706216Y-79526320D01*
X153713975Y-79507589D01*
X153720842Y-79473066D01*
X153754500Y-79303859D01*
X153754500Y-79096141D01*
X153713976Y-78892414D01*
X153713975Y-78892413D01*
X153713975Y-78892410D01*
X153648480Y-78734292D01*
X153634486Y-78700507D01*
X153519083Y-78527796D01*
X153372204Y-78380917D01*
X153199493Y-78265514D01*
X153199492Y-78265513D01*
X153199490Y-78265512D01*
X153143082Y-78242147D01*
X153109257Y-78208322D01*
X153104500Y-78184405D01*
X153104500Y-75027000D01*
X153104498Y-75026992D01*
X153066713Y-74885974D01*
X153066712Y-74885971D01*
X152993711Y-74759529D01*
X152993709Y-74759527D01*
X152993706Y-74759523D01*
X152888293Y-74654111D01*
X152888282Y-74654101D01*
X145933530Y-67699349D01*
X145916425Y-67667347D01*
X145915151Y-67660943D01*
X145903387Y-67601797D01*
X145852165Y-67478136D01*
X145777802Y-67366844D01*
X145683156Y-67272198D01*
X145645741Y-67247198D01*
X145571866Y-67197836D01*
X145571864Y-67197835D01*
X145448202Y-67146612D01*
X145382649Y-67133573D01*
X145350649Y-67116468D01*
X139847279Y-61613098D01*
X139847267Y-61613084D01*
X139740476Y-61506293D01*
X139740472Y-61506290D01*
X139740471Y-61506289D01*
X139614029Y-61433288D01*
X139574465Y-61422687D01*
X139554172Y-61417249D01*
X139473006Y-61395500D01*
X139473002Y-61395500D01*
X139473001Y-61395500D01*
X125497859Y-61395500D01*
X125453665Y-61377194D01*
X125445892Y-61367723D01*
X125379951Y-61269034D01*
X125274857Y-61163940D01*
X125151285Y-61081372D01*
X125151282Y-61081371D01*
X125013970Y-61024494D01*
X124868204Y-60995500D01*
X124719580Y-60995500D01*
X124573813Y-61024494D01*
X124436501Y-61081371D01*
X124436498Y-61081372D01*
X124312926Y-61163940D01*
X124207832Y-61269034D01*
X124125264Y-61392606D01*
X124125263Y-61392609D01*
X124068386Y-61529921D01*
X124039392Y-61675687D01*
X124039392Y-61824312D01*
X124068197Y-61969128D01*
X124068387Y-61970080D01*
X124083204Y-62005850D01*
X124084543Y-62009083D01*
X124084542Y-62056918D01*
X124050717Y-62090743D01*
X124026800Y-62095500D01*
X123705570Y-62095500D01*
X123661376Y-62077194D01*
X123172806Y-61588624D01*
X123154500Y-61544430D01*
X123154500Y-60734693D01*
X124794911Y-60734693D01*
X124855457Y-60769650D01*
X124855463Y-60769653D01*
X124983640Y-60803998D01*
X124983648Y-60804000D01*
X125116352Y-60804000D01*
X125116359Y-60803998D01*
X125244536Y-60769653D01*
X125244539Y-60769652D01*
X125305088Y-60734693D01*
X125794911Y-60734693D01*
X125855457Y-60769650D01*
X125855463Y-60769653D01*
X125983640Y-60803998D01*
X125983648Y-60804000D01*
X126116352Y-60804000D01*
X126116359Y-60803998D01*
X126244536Y-60769653D01*
X126244539Y-60769652D01*
X126305088Y-60734693D01*
X126794911Y-60734693D01*
X126855457Y-60769650D01*
X126855463Y-60769653D01*
X126983640Y-60803998D01*
X126983648Y-60804000D01*
X127116352Y-60804000D01*
X127116359Y-60803998D01*
X127244536Y-60769653D01*
X127244539Y-60769652D01*
X127305088Y-60734693D01*
X127794910Y-60734693D01*
X127855457Y-60769650D01*
X127855463Y-60769653D01*
X127983640Y-60803998D01*
X127983648Y-60804000D01*
X128116352Y-60804000D01*
X128116359Y-60803998D01*
X128244536Y-60769653D01*
X128244539Y-60769652D01*
X128305088Y-60734693D01*
X128050000Y-60479605D01*
X127794910Y-60734693D01*
X127305088Y-60734693D01*
X127050000Y-60479605D01*
X126794911Y-60734693D01*
X126305088Y-60734693D01*
X126050000Y-60479605D01*
X125794911Y-60734693D01*
X125305088Y-60734693D01*
X125050000Y-60479605D01*
X124794911Y-60734693D01*
X123154500Y-60734693D01*
X123154500Y-60233648D01*
X124546000Y-60233648D01*
X124546000Y-60366351D01*
X124546001Y-60366359D01*
X124580345Y-60494532D01*
X124580346Y-60494536D01*
X124615306Y-60555087D01*
X124870394Y-60300000D01*
X124870394Y-60299999D01*
X124850504Y-60280109D01*
X124950000Y-60280109D01*
X124950000Y-60319891D01*
X124965224Y-60356645D01*
X124993355Y-60384776D01*
X125030109Y-60400000D01*
X125069891Y-60400000D01*
X125106645Y-60384776D01*
X125134776Y-60356645D01*
X125150000Y-60319891D01*
X125150000Y-60299999D01*
X125229605Y-60299999D01*
X125229605Y-60300000D01*
X125484692Y-60555087D01*
X125495872Y-60535724D01*
X125533823Y-60506604D01*
X125581249Y-60512847D01*
X125604125Y-60535724D01*
X125615304Y-60555087D01*
X125615306Y-60555088D01*
X125870394Y-60300000D01*
X125870394Y-60299999D01*
X125850504Y-60280109D01*
X125950000Y-60280109D01*
X125950000Y-60319891D01*
X125965224Y-60356645D01*
X125993355Y-60384776D01*
X126030109Y-60400000D01*
X126069891Y-60400000D01*
X126106645Y-60384776D01*
X126134776Y-60356645D01*
X126150000Y-60319891D01*
X126150000Y-60299999D01*
X126229605Y-60299999D01*
X126229605Y-60300000D01*
X126484692Y-60555087D01*
X126495872Y-60535724D01*
X126533823Y-60506604D01*
X126581249Y-60512847D01*
X126604125Y-60535724D01*
X126615304Y-60555087D01*
X126615306Y-60555088D01*
X126870394Y-60300000D01*
X126870394Y-60299999D01*
X126850504Y-60280109D01*
X126950000Y-60280109D01*
X126950000Y-60319891D01*
X126965224Y-60356645D01*
X126993355Y-60384776D01*
X127030109Y-60400000D01*
X127069891Y-60400000D01*
X127106645Y-60384776D01*
X127134776Y-60356645D01*
X127150000Y-60319891D01*
X127150000Y-60299999D01*
X127229605Y-60299999D01*
X127229605Y-60300000D01*
X127484692Y-60555087D01*
X127495872Y-60535724D01*
X127533823Y-60506604D01*
X127581249Y-60512847D01*
X127604125Y-60535724D01*
X127615304Y-60555087D01*
X127615306Y-60555088D01*
X127870394Y-60300000D01*
X127870394Y-60299999D01*
X127850504Y-60280109D01*
X127950000Y-60280109D01*
X127950000Y-60319891D01*
X127965224Y-60356645D01*
X127993355Y-60384776D01*
X128030109Y-60400000D01*
X128069891Y-60400000D01*
X128106645Y-60384776D01*
X128134776Y-60356645D01*
X128150000Y-60319891D01*
X128150000Y-60299999D01*
X128229605Y-60299999D01*
X128229605Y-60300000D01*
X128484693Y-60555088D01*
X128519652Y-60494539D01*
X128519653Y-60494536D01*
X128553998Y-60366359D01*
X128554000Y-60366351D01*
X128554000Y-60233648D01*
X128553998Y-60233640D01*
X128519653Y-60105463D01*
X128519650Y-60105457D01*
X128484693Y-60044911D01*
X128229605Y-60299999D01*
X128150000Y-60299999D01*
X128150000Y-60280109D01*
X128134776Y-60243355D01*
X128106645Y-60215224D01*
X128069891Y-60200000D01*
X128030109Y-60200000D01*
X127993355Y-60215224D01*
X127965224Y-60243355D01*
X127950000Y-60280109D01*
X127850504Y-60280109D01*
X127615305Y-60044911D01*
X127615304Y-60044911D01*
X127604125Y-60064275D01*
X127566175Y-60093396D01*
X127518749Y-60087151D01*
X127495872Y-60064275D01*
X127484692Y-60044911D01*
X127229605Y-60299999D01*
X127150000Y-60299999D01*
X127150000Y-60280109D01*
X127134776Y-60243355D01*
X127106645Y-60215224D01*
X127069891Y-60200000D01*
X127030109Y-60200000D01*
X126993355Y-60215224D01*
X126965224Y-60243355D01*
X126950000Y-60280109D01*
X126850504Y-60280109D01*
X126615305Y-60044911D01*
X126615304Y-60044911D01*
X126604125Y-60064275D01*
X126566175Y-60093396D01*
X126518749Y-60087151D01*
X126495872Y-60064275D01*
X126484692Y-60044911D01*
X126229605Y-60299999D01*
X126150000Y-60299999D01*
X126150000Y-60280109D01*
X126134776Y-60243355D01*
X126106645Y-60215224D01*
X126069891Y-60200000D01*
X126030109Y-60200000D01*
X125993355Y-60215224D01*
X125965224Y-60243355D01*
X125950000Y-60280109D01*
X125850504Y-60280109D01*
X125615305Y-60044911D01*
X125615304Y-60044911D01*
X125604125Y-60064275D01*
X125566175Y-60093396D01*
X125518749Y-60087151D01*
X125495872Y-60064275D01*
X125484692Y-60044911D01*
X125229605Y-60299999D01*
X125150000Y-60299999D01*
X125150000Y-60280109D01*
X125134776Y-60243355D01*
X125106645Y-60215224D01*
X125069891Y-60200000D01*
X125030109Y-60200000D01*
X124993355Y-60215224D01*
X124965224Y-60243355D01*
X124950000Y-60280109D01*
X124850504Y-60280109D01*
X124615306Y-60044911D01*
X124580347Y-60105463D01*
X124580345Y-60105467D01*
X124546001Y-60233640D01*
X124546000Y-60233648D01*
X123154500Y-60233648D01*
X123154500Y-59888413D01*
X123164072Y-59865304D01*
X124794911Y-59865304D01*
X124794911Y-59865305D01*
X125049999Y-60120394D01*
X125305088Y-59865306D01*
X125305087Y-59865304D01*
X125285724Y-59854125D01*
X125256603Y-59816175D01*
X125262848Y-59768749D01*
X125263780Y-59767186D01*
X125283824Y-59734692D01*
X125794911Y-59734692D01*
X125814275Y-59745872D01*
X125843395Y-59783822D01*
X125837152Y-59831249D01*
X125814275Y-59854125D01*
X125794911Y-59865304D01*
X125794911Y-59865305D01*
X126049999Y-60120394D01*
X126305088Y-59865306D01*
X126305087Y-59865304D01*
X126285724Y-59854125D01*
X126256603Y-59816175D01*
X126262848Y-59768749D01*
X126263780Y-59767186D01*
X126283824Y-59734692D01*
X126794911Y-59734692D01*
X126814275Y-59745872D01*
X126843395Y-59783822D01*
X126837152Y-59831249D01*
X126814275Y-59854125D01*
X126794911Y-59865304D01*
X126794911Y-59865305D01*
X127049999Y-60120394D01*
X127305088Y-59865306D01*
X127305087Y-59865304D01*
X127285724Y-59854125D01*
X127256603Y-59816175D01*
X127262848Y-59768749D01*
X127263780Y-59767186D01*
X127283824Y-59734692D01*
X127794911Y-59734692D01*
X127814275Y-59745872D01*
X127843395Y-59783822D01*
X127837152Y-59831249D01*
X127814275Y-59854125D01*
X127794911Y-59865304D01*
X127794911Y-59865305D01*
X128049999Y-60120394D01*
X128305088Y-59865306D01*
X128305087Y-59865304D01*
X128285724Y-59854125D01*
X128256603Y-59816175D01*
X128262848Y-59768749D01*
X128285724Y-59745872D01*
X128305087Y-59734692D01*
X128050000Y-59479605D01*
X127794911Y-59734692D01*
X127283824Y-59734692D01*
X127291936Y-59721541D01*
X127050000Y-59479605D01*
X126794911Y-59734692D01*
X126283824Y-59734692D01*
X126291936Y-59721541D01*
X126050000Y-59479605D01*
X125794911Y-59734692D01*
X125283824Y-59734692D01*
X125291936Y-59721541D01*
X125050000Y-59479605D01*
X124808062Y-59721541D01*
X124836219Y-59767186D01*
X124837707Y-59776410D01*
X124843395Y-59783822D01*
X124841377Y-59799147D01*
X124843841Y-59814410D01*
X124838371Y-59821985D01*
X124837152Y-59831249D01*
X124817476Y-59850923D01*
X124815838Y-59853193D01*
X124815085Y-59853314D01*
X124814275Y-59854125D01*
X124794911Y-59865304D01*
X123164072Y-59865304D01*
X123172806Y-59844219D01*
X123186059Y-59830966D01*
X123268629Y-59707390D01*
X123325505Y-59570080D01*
X123354500Y-59424312D01*
X123354500Y-59275688D01*
X123346138Y-59233648D01*
X124546000Y-59233648D01*
X124546000Y-59366351D01*
X124546001Y-59366359D01*
X124580345Y-59494532D01*
X124580346Y-59494536D01*
X124615306Y-59555087D01*
X124870394Y-59300000D01*
X124870394Y-59299999D01*
X124850504Y-59280109D01*
X124950000Y-59280109D01*
X124950000Y-59319891D01*
X124965224Y-59356645D01*
X124993355Y-59384776D01*
X125030109Y-59400000D01*
X125069891Y-59400000D01*
X125106645Y-59384776D01*
X125134776Y-59356645D01*
X125150000Y-59319891D01*
X125150000Y-59299999D01*
X125229605Y-59299999D01*
X125229605Y-59300000D01*
X125484692Y-59555087D01*
X125495872Y-59535724D01*
X125533823Y-59506604D01*
X125581249Y-59512847D01*
X125604125Y-59535724D01*
X125615304Y-59555087D01*
X125615306Y-59555088D01*
X125870394Y-59300000D01*
X125870394Y-59299999D01*
X125850504Y-59280109D01*
X125950000Y-59280109D01*
X125950000Y-59319891D01*
X125965224Y-59356645D01*
X125993355Y-59384776D01*
X126030109Y-59400000D01*
X126069891Y-59400000D01*
X126106645Y-59384776D01*
X126134776Y-59356645D01*
X126150000Y-59319891D01*
X126150000Y-59299999D01*
X126229605Y-59299999D01*
X126229605Y-59300000D01*
X126484692Y-59555087D01*
X126495872Y-59535724D01*
X126533823Y-59506604D01*
X126581249Y-59512847D01*
X126604125Y-59535724D01*
X126615304Y-59555087D01*
X126615306Y-59555088D01*
X126870394Y-59300000D01*
X126870394Y-59299999D01*
X126850504Y-59280109D01*
X126950000Y-59280109D01*
X126950000Y-59319891D01*
X126965224Y-59356645D01*
X126993355Y-59384776D01*
X127030109Y-59400000D01*
X127069891Y-59400000D01*
X127106645Y-59384776D01*
X127134776Y-59356645D01*
X127150000Y-59319891D01*
X127150000Y-59299999D01*
X127229605Y-59299999D01*
X127229605Y-59300000D01*
X127484692Y-59555087D01*
X127495872Y-59535724D01*
X127533823Y-59506604D01*
X127581249Y-59512847D01*
X127604125Y-59535724D01*
X127615304Y-59555087D01*
X127615306Y-59555088D01*
X127870394Y-59300000D01*
X127870394Y-59299999D01*
X127850504Y-59280109D01*
X127950000Y-59280109D01*
X127950000Y-59319891D01*
X127965224Y-59356645D01*
X127993355Y-59384776D01*
X128030109Y-59400000D01*
X128069891Y-59400000D01*
X128106645Y-59384776D01*
X128134776Y-59356645D01*
X128150000Y-59319891D01*
X128150000Y-59299999D01*
X128229605Y-59299999D01*
X128229605Y-59300000D01*
X128484693Y-59555088D01*
X128519652Y-59494539D01*
X128519653Y-59494536D01*
X128553998Y-59366359D01*
X128554000Y-59366351D01*
X128554000Y-59233648D01*
X128553998Y-59233640D01*
X128519653Y-59105463D01*
X128519650Y-59105457D01*
X128484693Y-59044911D01*
X128229605Y-59299999D01*
X128150000Y-59299999D01*
X128150000Y-59280109D01*
X128134776Y-59243355D01*
X128106645Y-59215224D01*
X128069891Y-59200000D01*
X128030109Y-59200000D01*
X127993355Y-59215224D01*
X127965224Y-59243355D01*
X127950000Y-59280109D01*
X127850504Y-59280109D01*
X127615305Y-59044911D01*
X127615304Y-59044911D01*
X127604125Y-59064275D01*
X127566175Y-59093396D01*
X127518749Y-59087151D01*
X127495872Y-59064275D01*
X127484692Y-59044911D01*
X127229605Y-59299999D01*
X127150000Y-59299999D01*
X127150000Y-59280109D01*
X127134776Y-59243355D01*
X127106645Y-59215224D01*
X127069891Y-59200000D01*
X127030109Y-59200000D01*
X126993355Y-59215224D01*
X126965224Y-59243355D01*
X126950000Y-59280109D01*
X126850504Y-59280109D01*
X126615305Y-59044911D01*
X126615304Y-59044911D01*
X126604125Y-59064275D01*
X126566175Y-59093396D01*
X126518749Y-59087151D01*
X126495872Y-59064275D01*
X126484692Y-59044911D01*
X126229605Y-59299999D01*
X126150000Y-59299999D01*
X126150000Y-59280109D01*
X126134776Y-59243355D01*
X126106645Y-59215224D01*
X126069891Y-59200000D01*
X126030109Y-59200000D01*
X125993355Y-59215224D01*
X125965224Y-59243355D01*
X125950000Y-59280109D01*
X125850504Y-59280109D01*
X125615305Y-59044911D01*
X125615304Y-59044911D01*
X125604125Y-59064275D01*
X125566175Y-59093396D01*
X125518749Y-59087151D01*
X125495872Y-59064275D01*
X125484692Y-59044911D01*
X125229605Y-59299999D01*
X125150000Y-59299999D01*
X125150000Y-59280109D01*
X125134776Y-59243355D01*
X125106645Y-59215224D01*
X125069891Y-59200000D01*
X125030109Y-59200000D01*
X124993355Y-59215224D01*
X124965224Y-59243355D01*
X124950000Y-59280109D01*
X124850504Y-59280109D01*
X124615306Y-59044911D01*
X124580347Y-59105463D01*
X124580345Y-59105467D01*
X124546001Y-59233640D01*
X124546000Y-59233648D01*
X123346138Y-59233648D01*
X123325505Y-59129920D01*
X123268629Y-58992610D01*
X123268627Y-58992608D01*
X123268627Y-58992606D01*
X123186059Y-58869034D01*
X123136219Y-58819194D01*
X123127318Y-58797707D01*
X123117930Y-58776440D01*
X123118214Y-58775728D01*
X123117913Y-58775000D01*
X123134067Y-58734692D01*
X124794911Y-58734692D01*
X124814275Y-58745872D01*
X124843395Y-58783822D01*
X124837152Y-58831249D01*
X124814275Y-58854125D01*
X124794911Y-58865304D01*
X124794911Y-58865305D01*
X125049999Y-59120394D01*
X125305088Y-58865306D01*
X125305087Y-58865304D01*
X125285724Y-58854125D01*
X125256603Y-58816175D01*
X125262848Y-58768749D01*
X125263780Y-58767186D01*
X125283824Y-58734692D01*
X125794911Y-58734692D01*
X125814275Y-58745872D01*
X125843395Y-58783822D01*
X125837152Y-58831249D01*
X125814275Y-58854125D01*
X125794911Y-58865304D01*
X125794911Y-58865305D01*
X126049999Y-59120394D01*
X126305088Y-58865306D01*
X126305087Y-58865304D01*
X126285724Y-58854125D01*
X126256603Y-58816175D01*
X126262848Y-58768749D01*
X126263780Y-58767186D01*
X126283824Y-58734692D01*
X126794911Y-58734692D01*
X126814275Y-58745872D01*
X126843395Y-58783822D01*
X126837152Y-58831249D01*
X126814275Y-58854125D01*
X126794911Y-58865304D01*
X126794911Y-58865305D01*
X127049999Y-59120394D01*
X127305088Y-58865306D01*
X127305087Y-58865304D01*
X127285724Y-58854125D01*
X127256603Y-58816175D01*
X127262848Y-58768749D01*
X127263780Y-58767186D01*
X127283824Y-58734692D01*
X127794911Y-58734692D01*
X127814275Y-58745872D01*
X127843395Y-58783822D01*
X127837152Y-58831249D01*
X127814275Y-58854125D01*
X127794911Y-58865304D01*
X127794911Y-58865305D01*
X128049999Y-59120394D01*
X128305088Y-58865306D01*
X128305087Y-58865304D01*
X128285724Y-58854125D01*
X128256603Y-58816175D01*
X128262848Y-58768749D01*
X128285724Y-58745872D01*
X128305087Y-58734692D01*
X128050000Y-58479605D01*
X127794911Y-58734692D01*
X127283824Y-58734692D01*
X127291936Y-58721541D01*
X127050000Y-58479605D01*
X126794911Y-58734692D01*
X126283824Y-58734692D01*
X126291936Y-58721541D01*
X126050000Y-58479605D01*
X125794911Y-58734692D01*
X125283824Y-58734692D01*
X125291936Y-58721541D01*
X125050000Y-58479605D01*
X124794911Y-58734692D01*
X123134067Y-58734692D01*
X123135212Y-58731836D01*
X123135699Y-58731325D01*
X123186059Y-58680966D01*
X123268629Y-58557390D01*
X123325505Y-58420080D01*
X123354500Y-58274312D01*
X123354500Y-58233648D01*
X124546000Y-58233648D01*
X124546000Y-58366351D01*
X124546001Y-58366359D01*
X124580345Y-58494532D01*
X124580346Y-58494536D01*
X124615306Y-58555087D01*
X124870394Y-58300000D01*
X124870394Y-58299999D01*
X124850504Y-58280109D01*
X124950000Y-58280109D01*
X124950000Y-58319891D01*
X124965224Y-58356645D01*
X124993355Y-58384776D01*
X125030109Y-58400000D01*
X125069891Y-58400000D01*
X125106645Y-58384776D01*
X125134776Y-58356645D01*
X125150000Y-58319891D01*
X125150000Y-58299999D01*
X125229605Y-58299999D01*
X125229605Y-58300000D01*
X125484692Y-58555087D01*
X125495872Y-58535724D01*
X125533823Y-58506604D01*
X125581249Y-58512847D01*
X125604125Y-58535724D01*
X125615304Y-58555087D01*
X125615306Y-58555088D01*
X125870394Y-58300000D01*
X125870394Y-58299999D01*
X125850504Y-58280109D01*
X125950000Y-58280109D01*
X125950000Y-58319891D01*
X125965224Y-58356645D01*
X125993355Y-58384776D01*
X126030109Y-58400000D01*
X126069891Y-58400000D01*
X126106645Y-58384776D01*
X126134776Y-58356645D01*
X126150000Y-58319891D01*
X126150000Y-58299999D01*
X126229605Y-58299999D01*
X126229605Y-58300000D01*
X126484692Y-58555087D01*
X126495872Y-58535724D01*
X126533823Y-58506604D01*
X126581249Y-58512847D01*
X126604125Y-58535724D01*
X126615304Y-58555087D01*
X126615306Y-58555088D01*
X126870394Y-58300000D01*
X126870394Y-58299999D01*
X126850504Y-58280109D01*
X126950000Y-58280109D01*
X126950000Y-58319891D01*
X126965224Y-58356645D01*
X126993355Y-58384776D01*
X127030109Y-58400000D01*
X127069891Y-58400000D01*
X127106645Y-58384776D01*
X127134776Y-58356645D01*
X127150000Y-58319891D01*
X127150000Y-58299999D01*
X127229605Y-58299999D01*
X127229605Y-58300000D01*
X127484692Y-58555087D01*
X127495872Y-58535724D01*
X127533823Y-58506604D01*
X127581249Y-58512847D01*
X127604125Y-58535724D01*
X127615304Y-58555087D01*
X127615306Y-58555088D01*
X127870394Y-58300000D01*
X127870394Y-58299999D01*
X127850504Y-58280109D01*
X127950000Y-58280109D01*
X127950000Y-58319891D01*
X127965224Y-58356645D01*
X127993355Y-58384776D01*
X128030109Y-58400000D01*
X128069891Y-58400000D01*
X128106645Y-58384776D01*
X128134776Y-58356645D01*
X128150000Y-58319891D01*
X128150000Y-58299999D01*
X128229605Y-58299999D01*
X128229605Y-58300000D01*
X128484693Y-58555088D01*
X128519652Y-58494539D01*
X128519653Y-58494536D01*
X128553998Y-58366359D01*
X128554000Y-58366351D01*
X128554000Y-58233648D01*
X128553998Y-58233640D01*
X128519653Y-58105463D01*
X128519650Y-58105457D01*
X128484693Y-58044911D01*
X128229605Y-58299999D01*
X128150000Y-58299999D01*
X128150000Y-58280109D01*
X128134776Y-58243355D01*
X128106645Y-58215224D01*
X128069891Y-58200000D01*
X128030109Y-58200000D01*
X127993355Y-58215224D01*
X127965224Y-58243355D01*
X127950000Y-58280109D01*
X127850504Y-58280109D01*
X127615305Y-58044911D01*
X127615304Y-58044911D01*
X127604125Y-58064275D01*
X127566175Y-58093396D01*
X127518749Y-58087151D01*
X127495872Y-58064275D01*
X127484692Y-58044911D01*
X127229605Y-58299999D01*
X127150000Y-58299999D01*
X127150000Y-58280109D01*
X127134776Y-58243355D01*
X127106645Y-58215224D01*
X127069891Y-58200000D01*
X127030109Y-58200000D01*
X126993355Y-58215224D01*
X126965224Y-58243355D01*
X126950000Y-58280109D01*
X126850504Y-58280109D01*
X126615305Y-58044911D01*
X126615304Y-58044911D01*
X126604125Y-58064275D01*
X126566175Y-58093396D01*
X126518749Y-58087151D01*
X126495872Y-58064275D01*
X126484692Y-58044911D01*
X126229605Y-58299999D01*
X126150000Y-58299999D01*
X126150000Y-58280109D01*
X126134776Y-58243355D01*
X126106645Y-58215224D01*
X126069891Y-58200000D01*
X126030109Y-58200000D01*
X125993355Y-58215224D01*
X125965224Y-58243355D01*
X125950000Y-58280109D01*
X125850504Y-58280109D01*
X125615305Y-58044911D01*
X125615304Y-58044911D01*
X125604125Y-58064275D01*
X125566175Y-58093396D01*
X125518749Y-58087151D01*
X125495872Y-58064275D01*
X125484692Y-58044911D01*
X125229605Y-58299999D01*
X125150000Y-58299999D01*
X125150000Y-58280109D01*
X125134776Y-58243355D01*
X125106645Y-58215224D01*
X125069891Y-58200000D01*
X125030109Y-58200000D01*
X124993355Y-58215224D01*
X124965224Y-58243355D01*
X124950000Y-58280109D01*
X124850504Y-58280109D01*
X124615306Y-58044911D01*
X124580347Y-58105463D01*
X124580345Y-58105467D01*
X124546001Y-58233640D01*
X124546000Y-58233648D01*
X123354500Y-58233648D01*
X123354500Y-58125688D01*
X123325505Y-57979920D01*
X123278029Y-57865304D01*
X124794911Y-57865304D01*
X124794911Y-57865305D01*
X125049999Y-58120394D01*
X125305088Y-57865306D01*
X125305087Y-57865304D01*
X125285724Y-57854125D01*
X125256603Y-57816175D01*
X125262848Y-57768749D01*
X125263780Y-57767186D01*
X125283824Y-57734692D01*
X125794911Y-57734692D01*
X125814275Y-57745872D01*
X125843395Y-57783822D01*
X125837152Y-57831249D01*
X125814275Y-57854125D01*
X125794911Y-57865304D01*
X125794911Y-57865305D01*
X126049999Y-58120394D01*
X126305088Y-57865306D01*
X126305087Y-57865304D01*
X126285724Y-57854125D01*
X126256603Y-57816175D01*
X126262848Y-57768749D01*
X126263780Y-57767186D01*
X126283824Y-57734692D01*
X126794911Y-57734692D01*
X126814275Y-57745872D01*
X126843395Y-57783822D01*
X126837152Y-57831249D01*
X126814275Y-57854125D01*
X126794911Y-57865304D01*
X126794911Y-57865305D01*
X127049999Y-58120394D01*
X127305088Y-57865306D01*
X127305087Y-57865304D01*
X127285724Y-57854125D01*
X127256603Y-57816175D01*
X127262848Y-57768749D01*
X127263780Y-57767186D01*
X127283824Y-57734692D01*
X127794911Y-57734692D01*
X127814275Y-57745872D01*
X127843395Y-57783822D01*
X127837152Y-57831249D01*
X127814275Y-57854125D01*
X127794911Y-57865304D01*
X127794911Y-57865305D01*
X128049999Y-58120394D01*
X128305088Y-57865306D01*
X128305087Y-57865304D01*
X128285724Y-57854125D01*
X128256603Y-57816175D01*
X128262848Y-57768749D01*
X128285724Y-57745872D01*
X128305087Y-57734692D01*
X128050000Y-57479605D01*
X127794911Y-57734692D01*
X127283824Y-57734692D01*
X127291936Y-57721541D01*
X127050000Y-57479605D01*
X126794911Y-57734692D01*
X126283824Y-57734692D01*
X126291936Y-57721541D01*
X126050000Y-57479605D01*
X125794911Y-57734692D01*
X125283824Y-57734692D01*
X125291936Y-57721541D01*
X125050000Y-57479605D01*
X124808062Y-57721541D01*
X124836219Y-57767186D01*
X124837707Y-57776410D01*
X124843395Y-57783822D01*
X124841377Y-57799147D01*
X124843841Y-57814410D01*
X124838371Y-57821985D01*
X124837152Y-57831249D01*
X124817476Y-57850923D01*
X124815838Y-57853193D01*
X124815085Y-57853314D01*
X124814275Y-57854125D01*
X124794911Y-57865304D01*
X123278029Y-57865304D01*
X123268629Y-57842610D01*
X123268627Y-57842608D01*
X123268627Y-57842606D01*
X123204756Y-57747016D01*
X123186059Y-57719034D01*
X123080965Y-57613940D01*
X122957393Y-57531372D01*
X122957390Y-57531371D01*
X122820078Y-57474494D01*
X122674312Y-57445500D01*
X122525688Y-57445500D01*
X122379921Y-57474494D01*
X122242609Y-57531371D01*
X122242606Y-57531372D01*
X122119034Y-57613940D01*
X122119032Y-57613942D01*
X122105781Y-57627194D01*
X122061587Y-57645500D01*
X121489568Y-57645500D01*
X121445374Y-57627194D01*
X121427068Y-57583000D01*
X121445374Y-57538806D01*
X121750532Y-57233648D01*
X124546000Y-57233648D01*
X124546000Y-57366351D01*
X124546001Y-57366359D01*
X124580345Y-57494532D01*
X124580346Y-57494536D01*
X124615306Y-57555087D01*
X124870394Y-57300000D01*
X124870394Y-57299999D01*
X124850504Y-57280109D01*
X124950000Y-57280109D01*
X124950000Y-57319891D01*
X124965224Y-57356645D01*
X124993355Y-57384776D01*
X125030109Y-57400000D01*
X125069891Y-57400000D01*
X125106645Y-57384776D01*
X125134776Y-57356645D01*
X125150000Y-57319891D01*
X125150000Y-57299999D01*
X125229605Y-57299999D01*
X125229605Y-57300000D01*
X125484692Y-57555087D01*
X125495872Y-57535724D01*
X125533823Y-57506604D01*
X125581249Y-57512847D01*
X125604125Y-57535724D01*
X125615304Y-57555087D01*
X125615306Y-57555088D01*
X125870394Y-57300000D01*
X125870394Y-57299999D01*
X125850504Y-57280109D01*
X125950000Y-57280109D01*
X125950000Y-57319891D01*
X125965224Y-57356645D01*
X125993355Y-57384776D01*
X126030109Y-57400000D01*
X126069891Y-57400000D01*
X126106645Y-57384776D01*
X126134776Y-57356645D01*
X126150000Y-57319891D01*
X126150000Y-57299999D01*
X126229605Y-57299999D01*
X126229605Y-57300000D01*
X126484692Y-57555087D01*
X126495872Y-57535724D01*
X126533823Y-57506604D01*
X126581249Y-57512847D01*
X126604125Y-57535724D01*
X126615304Y-57555087D01*
X126615306Y-57555088D01*
X126870394Y-57300000D01*
X126870394Y-57299999D01*
X126850504Y-57280109D01*
X126950000Y-57280109D01*
X126950000Y-57319891D01*
X126965224Y-57356645D01*
X126993355Y-57384776D01*
X127030109Y-57400000D01*
X127069891Y-57400000D01*
X127106645Y-57384776D01*
X127134776Y-57356645D01*
X127150000Y-57319891D01*
X127150000Y-57299999D01*
X127229605Y-57299999D01*
X127229605Y-57300000D01*
X127484692Y-57555087D01*
X127495872Y-57535724D01*
X127533823Y-57506604D01*
X127581249Y-57512847D01*
X127604125Y-57535724D01*
X127615304Y-57555087D01*
X127615306Y-57555088D01*
X127870394Y-57300000D01*
X127870394Y-57299999D01*
X127850504Y-57280109D01*
X127950000Y-57280109D01*
X127950000Y-57319891D01*
X127965224Y-57356645D01*
X127993355Y-57384776D01*
X128030109Y-57400000D01*
X128069891Y-57400000D01*
X128106645Y-57384776D01*
X128134776Y-57356645D01*
X128150000Y-57319891D01*
X128150000Y-57299999D01*
X128229605Y-57299999D01*
X128229605Y-57300000D01*
X128484693Y-57555088D01*
X128519652Y-57494539D01*
X128519653Y-57494536D01*
X128553998Y-57366359D01*
X128554000Y-57366351D01*
X128554000Y-57233648D01*
X128553998Y-57233640D01*
X128519653Y-57105463D01*
X128519650Y-57105457D01*
X128484693Y-57044911D01*
X128229605Y-57299999D01*
X128150000Y-57299999D01*
X128150000Y-57280109D01*
X128134776Y-57243355D01*
X128106645Y-57215224D01*
X128069891Y-57200000D01*
X128030109Y-57200000D01*
X127993355Y-57215224D01*
X127965224Y-57243355D01*
X127950000Y-57280109D01*
X127850504Y-57280109D01*
X127615305Y-57044911D01*
X127615304Y-57044911D01*
X127604125Y-57064275D01*
X127566175Y-57093396D01*
X127518749Y-57087151D01*
X127495872Y-57064275D01*
X127484692Y-57044911D01*
X127229605Y-57299999D01*
X127150000Y-57299999D01*
X127150000Y-57280109D01*
X127134776Y-57243355D01*
X127106645Y-57215224D01*
X127069891Y-57200000D01*
X127030109Y-57200000D01*
X126993355Y-57215224D01*
X126965224Y-57243355D01*
X126950000Y-57280109D01*
X126850504Y-57280109D01*
X126615305Y-57044911D01*
X126615304Y-57044911D01*
X126604125Y-57064275D01*
X126566175Y-57093396D01*
X126518749Y-57087151D01*
X126495872Y-57064275D01*
X126484692Y-57044911D01*
X126229605Y-57299999D01*
X126150000Y-57299999D01*
X126150000Y-57280109D01*
X126134776Y-57243355D01*
X126106645Y-57215224D01*
X126069891Y-57200000D01*
X126030109Y-57200000D01*
X125993355Y-57215224D01*
X125965224Y-57243355D01*
X125950000Y-57280109D01*
X125850504Y-57280109D01*
X125615305Y-57044911D01*
X125615304Y-57044911D01*
X125604125Y-57064275D01*
X125566175Y-57093396D01*
X125518749Y-57087151D01*
X125495872Y-57064275D01*
X125484692Y-57044911D01*
X125229605Y-57299999D01*
X125150000Y-57299999D01*
X125150000Y-57280109D01*
X125134776Y-57243355D01*
X125106645Y-57215224D01*
X125069891Y-57200000D01*
X125030109Y-57200000D01*
X124993355Y-57215224D01*
X124965224Y-57243355D01*
X124950000Y-57280109D01*
X124850504Y-57280109D01*
X124615306Y-57044911D01*
X124580347Y-57105463D01*
X124580345Y-57105467D01*
X124546001Y-57233640D01*
X124546000Y-57233648D01*
X121750532Y-57233648D01*
X122118874Y-56865306D01*
X124794911Y-56865306D01*
X125049999Y-57120394D01*
X125305088Y-56865306D01*
X125794911Y-56865306D01*
X126049999Y-57120394D01*
X126305088Y-56865306D01*
X126794911Y-56865306D01*
X127049999Y-57120394D01*
X127305088Y-56865306D01*
X127794911Y-56865306D01*
X128049999Y-57120394D01*
X128305087Y-56865306D01*
X128244536Y-56830346D01*
X128244532Y-56830345D01*
X128116359Y-56796001D01*
X128116352Y-56796000D01*
X127983648Y-56796000D01*
X127983640Y-56796001D01*
X127855467Y-56830345D01*
X127855463Y-56830347D01*
X127794911Y-56865306D01*
X127305088Y-56865306D01*
X127244536Y-56830346D01*
X127244532Y-56830345D01*
X127116359Y-56796001D01*
X127116352Y-56796000D01*
X126983648Y-56796000D01*
X126983640Y-56796001D01*
X126855467Y-56830345D01*
X126855463Y-56830347D01*
X126794911Y-56865306D01*
X126305088Y-56865306D01*
X126244536Y-56830346D01*
X126244532Y-56830345D01*
X126116359Y-56796001D01*
X126116352Y-56796000D01*
X125983648Y-56796000D01*
X125983640Y-56796001D01*
X125855467Y-56830345D01*
X125855463Y-56830347D01*
X125794911Y-56865306D01*
X125305088Y-56865306D01*
X125244536Y-56830346D01*
X125244532Y-56830345D01*
X125116359Y-56796001D01*
X125116352Y-56796000D01*
X124983648Y-56796000D01*
X124983640Y-56796001D01*
X124855467Y-56830345D01*
X124855463Y-56830347D01*
X124794911Y-56865306D01*
X122118874Y-56865306D01*
X122140668Y-56843512D01*
X122540744Y-56443437D01*
X123361375Y-55622806D01*
X123405569Y-55604500D01*
X124811587Y-55604500D01*
X124855781Y-55622806D01*
X124869034Y-55636059D01*
X124992606Y-55718627D01*
X124992608Y-55718627D01*
X124992610Y-55718629D01*
X125129920Y-55775505D01*
X125275688Y-55804500D01*
X125424312Y-55804500D01*
X125570080Y-55775505D01*
X125707390Y-55718629D01*
X125830966Y-55636059D01*
X125936059Y-55530966D01*
X126018629Y-55407390D01*
X126075505Y-55270080D01*
X126104500Y-55124312D01*
X126104500Y-54975688D01*
X126075505Y-54829920D01*
X126018629Y-54692610D01*
X126018627Y-54692608D01*
X126018627Y-54692606D01*
X125936059Y-54569034D01*
X125830965Y-54463940D01*
X125707393Y-54381372D01*
X125707390Y-54381371D01*
X125570078Y-54324494D01*
X125424312Y-54295500D01*
X125275688Y-54295500D01*
X125129921Y-54324494D01*
X124992609Y-54381371D01*
X124992606Y-54381372D01*
X124869034Y-54463940D01*
X124869032Y-54463942D01*
X124855781Y-54477194D01*
X124811587Y-54495500D01*
X123223001Y-54495500D01*
X123076998Y-54495500D01*
X123076997Y-54495500D01*
X123076991Y-54495501D01*
X122935974Y-54533286D01*
X122935971Y-54533287D01*
X122809527Y-54606290D01*
X122809523Y-54606293D01*
X122706289Y-54709529D01*
X119609529Y-57806289D01*
X119506293Y-57909523D01*
X119506290Y-57909527D01*
X119461954Y-57986320D01*
X119433288Y-58035971D01*
X119433286Y-58035974D01*
X119401942Y-58152957D01*
X119401698Y-58153869D01*
X119395500Y-58176999D01*
X98300500Y-58176999D01*
X98300500Y-50050000D01*
X129185819Y-50050000D01*
X130374101Y-51238282D01*
G37*
G04 #@! TD.AperFunction*
G04 #@! TA.AperFunction,Conductor*
G36*
X161948614Y-44301053D02*
G01*
X161949277Y-44301045D01*
X161949280Y-44301046D01*
X161994343Y-44300509D01*
X161994773Y-44300504D01*
X161995517Y-44300500D01*
X161995930Y-44300500D01*
X161998698Y-44300561D01*
X162293211Y-44313615D01*
X162300188Y-44314319D01*
X162589716Y-44360073D01*
X162596555Y-44361551D01*
X162879139Y-44439505D01*
X162885778Y-44441746D01*
X163157802Y-44550901D01*
X163164159Y-44553877D01*
X163422225Y-44692867D01*
X163428212Y-44696540D01*
X163548629Y-44780069D01*
X163669053Y-44863604D01*
X163674577Y-44867915D01*
X163734184Y-44920078D01*
X163895156Y-45060950D01*
X163900173Y-45065865D01*
X163934890Y-45103927D01*
X164097700Y-45282426D01*
X164102126Y-45287863D01*
X164123158Y-45316889D01*
X164274107Y-45525218D01*
X164277902Y-45531128D01*
X164422163Y-45786274D01*
X164425271Y-45792572D01*
X164539998Y-46062300D01*
X164542379Y-46068907D01*
X164626117Y-46349798D01*
X164627742Y-46356631D01*
X164679435Y-46645135D01*
X164680284Y-46652107D01*
X164699369Y-46945943D01*
X164699500Y-46949994D01*
X164699500Y-50050000D01*
X130754181Y-50050000D01*
X130570972Y-49866791D01*
X130552666Y-49822597D01*
X130570972Y-49778403D01*
X130615166Y-49760097D01*
X130643538Y-49766908D01*
X130786826Y-49839917D01*
X130959654Y-49896072D01*
X131019861Y-49905608D01*
X131139125Y-49924498D01*
X131139131Y-49924498D01*
X131139139Y-49924500D01*
X131139141Y-49924500D01*
X131320859Y-49924500D01*
X131320861Y-49924500D01*
X131500346Y-49896072D01*
X131673174Y-49839917D01*
X131835090Y-49757417D01*
X131982106Y-49650603D01*
X132110603Y-49522106D01*
X132217417Y-49375090D01*
X132299917Y-49213174D01*
X132356072Y-49040346D01*
X132381357Y-48880704D01*
X132384498Y-48860874D01*
X132384500Y-48860858D01*
X132384500Y-48679141D01*
X132615500Y-48679141D01*
X132615500Y-48860858D01*
X132615501Y-48860874D01*
X132643927Y-49040343D01*
X132643927Y-49040344D01*
X132700082Y-49213172D01*
X132700086Y-49213180D01*
X132782584Y-49375092D01*
X132889396Y-49522105D01*
X132889403Y-49522113D01*
X133017886Y-49650596D01*
X133017894Y-49650603D01*
X133164910Y-49757417D01*
X133326826Y-49839917D01*
X133499654Y-49896072D01*
X133559861Y-49905608D01*
X133679125Y-49924498D01*
X133679131Y-49924498D01*
X133679139Y-49924500D01*
X133679141Y-49924500D01*
X133860859Y-49924500D01*
X133860861Y-49924500D01*
X134040346Y-49896072D01*
X134213174Y-49839917D01*
X134375090Y-49757417D01*
X134522106Y-49650603D01*
X134650603Y-49522106D01*
X134757417Y-49375090D01*
X134839917Y-49213174D01*
X134896072Y-49040346D01*
X134921357Y-48880704D01*
X134924498Y-48860874D01*
X134924500Y-48860858D01*
X134924500Y-48679141D01*
X135155500Y-48679141D01*
X135155500Y-48860858D01*
X135155501Y-48860874D01*
X135183927Y-49040343D01*
X135183927Y-49040344D01*
X135240082Y-49213172D01*
X135240086Y-49213180D01*
X135322584Y-49375092D01*
X135429396Y-49522105D01*
X135429403Y-49522113D01*
X135557886Y-49650596D01*
X135557894Y-49650603D01*
X135704910Y-49757417D01*
X135866826Y-49839917D01*
X136039654Y-49896072D01*
X136099861Y-49905608D01*
X136219125Y-49924498D01*
X136219131Y-49924498D01*
X136219139Y-49924500D01*
X136219141Y-49924500D01*
X136400859Y-49924500D01*
X136400861Y-49924500D01*
X136580346Y-49896072D01*
X136753174Y-49839917D01*
X136915090Y-49757417D01*
X137062106Y-49650603D01*
X137190603Y-49522106D01*
X137297417Y-49375090D01*
X137379917Y-49213174D01*
X137436072Y-49040346D01*
X137461357Y-48880704D01*
X137464498Y-48860874D01*
X137464500Y-48860858D01*
X137464500Y-48679141D01*
X140235500Y-48679141D01*
X140235500Y-48860858D01*
X140235501Y-48860874D01*
X140263927Y-49040343D01*
X140263927Y-49040344D01*
X140320082Y-49213172D01*
X140320086Y-49213180D01*
X140402584Y-49375092D01*
X140509396Y-49522105D01*
X140509403Y-49522113D01*
X140637886Y-49650596D01*
X140637894Y-49650603D01*
X140784910Y-49757417D01*
X140946826Y-49839917D01*
X141119654Y-49896072D01*
X141179861Y-49905608D01*
X141299125Y-49924498D01*
X141299131Y-49924498D01*
X141299139Y-49924500D01*
X141299141Y-49924500D01*
X141480859Y-49924500D01*
X141480861Y-49924500D01*
X141660346Y-49896072D01*
X141833174Y-49839917D01*
X141995090Y-49757417D01*
X142142106Y-49650603D01*
X142270603Y-49522106D01*
X142377417Y-49375090D01*
X142459917Y-49213174D01*
X142516072Y-49040346D01*
X142541357Y-48880704D01*
X142544498Y-48860874D01*
X142544500Y-48860858D01*
X142544500Y-48679141D01*
X142775500Y-48679141D01*
X142775500Y-48860858D01*
X142775501Y-48860874D01*
X142803927Y-49040343D01*
X142803927Y-49040344D01*
X142860082Y-49213172D01*
X142860086Y-49213180D01*
X142942584Y-49375092D01*
X143049396Y-49522105D01*
X143049403Y-49522113D01*
X143177886Y-49650596D01*
X143177894Y-49650603D01*
X143324910Y-49757417D01*
X143486826Y-49839917D01*
X143659654Y-49896072D01*
X143719861Y-49905608D01*
X143839125Y-49924498D01*
X143839131Y-49924498D01*
X143839139Y-49924500D01*
X143839141Y-49924500D01*
X144020859Y-49924500D01*
X144020861Y-49924500D01*
X144200346Y-49896072D01*
X144373174Y-49839917D01*
X144535090Y-49757417D01*
X144682106Y-49650603D01*
X144810603Y-49522106D01*
X144917417Y-49375090D01*
X144999917Y-49213174D01*
X145056072Y-49040346D01*
X145081357Y-48880704D01*
X145084498Y-48860874D01*
X145084500Y-48860858D01*
X145084500Y-48679141D01*
X145315500Y-48679141D01*
X145315500Y-48860858D01*
X145315501Y-48860874D01*
X145343927Y-49040343D01*
X145343927Y-49040344D01*
X145400082Y-49213172D01*
X145400086Y-49213180D01*
X145482584Y-49375092D01*
X145589396Y-49522105D01*
X145589403Y-49522113D01*
X145717886Y-49650596D01*
X145717894Y-49650603D01*
X145864910Y-49757417D01*
X146026826Y-49839917D01*
X146199654Y-49896072D01*
X146259861Y-49905608D01*
X146379125Y-49924498D01*
X146379131Y-49924498D01*
X146379139Y-49924500D01*
X146379141Y-49924500D01*
X146560859Y-49924500D01*
X146560861Y-49924500D01*
X146740346Y-49896072D01*
X146913174Y-49839917D01*
X147075090Y-49757417D01*
X147222106Y-49650603D01*
X147350603Y-49522106D01*
X147457417Y-49375090D01*
X147539917Y-49213174D01*
X147596072Y-49040346D01*
X147621357Y-48880704D01*
X147624498Y-48860874D01*
X147624500Y-48860858D01*
X147624500Y-48679141D01*
X147855500Y-48679141D01*
X147855500Y-48860858D01*
X147855501Y-48860874D01*
X147883927Y-49040343D01*
X147883927Y-49040344D01*
X147940082Y-49213172D01*
X147940086Y-49213180D01*
X148022584Y-49375092D01*
X148129396Y-49522105D01*
X148129403Y-49522113D01*
X148257886Y-49650596D01*
X148257894Y-49650603D01*
X148404910Y-49757417D01*
X148566826Y-49839917D01*
X148739654Y-49896072D01*
X148799861Y-49905608D01*
X148919125Y-49924498D01*
X148919131Y-49924498D01*
X148919139Y-49924500D01*
X148919141Y-49924500D01*
X149100859Y-49924500D01*
X149100861Y-49924500D01*
X149280346Y-49896072D01*
X149453174Y-49839917D01*
X149615090Y-49757417D01*
X149762106Y-49650603D01*
X149890603Y-49522106D01*
X149997417Y-49375090D01*
X150079917Y-49213174D01*
X150136072Y-49040346D01*
X150161357Y-48880704D01*
X150164498Y-48860874D01*
X150164500Y-48860858D01*
X150164500Y-48679141D01*
X150395500Y-48679141D01*
X150395500Y-48860858D01*
X150395501Y-48860874D01*
X150423927Y-49040343D01*
X150423927Y-49040344D01*
X150480082Y-49213172D01*
X150480086Y-49213180D01*
X150562584Y-49375092D01*
X150669396Y-49522105D01*
X150669403Y-49522113D01*
X150797886Y-49650596D01*
X150797894Y-49650603D01*
X150944910Y-49757417D01*
X151106826Y-49839917D01*
X151279654Y-49896072D01*
X151339861Y-49905608D01*
X151459125Y-49924498D01*
X151459131Y-49924498D01*
X151459139Y-49924500D01*
X151459141Y-49924500D01*
X151640859Y-49924500D01*
X151640861Y-49924500D01*
X151820346Y-49896072D01*
X151993174Y-49839917D01*
X152155090Y-49757417D01*
X152302106Y-49650603D01*
X152430603Y-49522106D01*
X152537417Y-49375090D01*
X152619917Y-49213174D01*
X152676072Y-49040346D01*
X152701357Y-48880704D01*
X152704498Y-48860874D01*
X152704500Y-48860858D01*
X152704500Y-48679141D01*
X152935500Y-48679141D01*
X152935500Y-48860858D01*
X152935501Y-48860874D01*
X152963927Y-49040343D01*
X152963927Y-49040344D01*
X153020082Y-49213172D01*
X153020086Y-49213180D01*
X153102584Y-49375092D01*
X153209396Y-49522105D01*
X153209403Y-49522113D01*
X153337886Y-49650596D01*
X153337894Y-49650603D01*
X153484910Y-49757417D01*
X153646826Y-49839917D01*
X153819654Y-49896072D01*
X153879861Y-49905608D01*
X153999125Y-49924498D01*
X153999131Y-49924498D01*
X153999139Y-49924500D01*
X153999141Y-49924500D01*
X154180859Y-49924500D01*
X154180861Y-49924500D01*
X154360346Y-49896072D01*
X154533174Y-49839917D01*
X154695090Y-49757417D01*
X154842106Y-49650603D01*
X154970603Y-49522106D01*
X155077417Y-49375090D01*
X155159917Y-49213174D01*
X155216072Y-49040346D01*
X155241357Y-48880704D01*
X155244498Y-48860874D01*
X155244500Y-48860858D01*
X155244500Y-48679141D01*
X155244498Y-48679125D01*
X155216072Y-48499656D01*
X155216072Y-48499655D01*
X155159917Y-48326827D01*
X155159913Y-48326819D01*
X155077415Y-48164907D01*
X154970603Y-48017894D01*
X154970596Y-48017886D01*
X154842113Y-47889403D01*
X154842105Y-47889396D01*
X154695092Y-47782584D01*
X154533180Y-47700086D01*
X154533172Y-47700082D01*
X154360344Y-47643927D01*
X154180874Y-47615501D01*
X154180862Y-47615500D01*
X154180861Y-47615500D01*
X153999139Y-47615500D01*
X153999137Y-47615500D01*
X153999125Y-47615501D01*
X153819656Y-47643927D01*
X153819655Y-47643927D01*
X153646827Y-47700082D01*
X153646819Y-47700086D01*
X153484907Y-47782584D01*
X153337894Y-47889396D01*
X153337886Y-47889403D01*
X153209403Y-48017886D01*
X153209396Y-48017894D01*
X153102584Y-48164907D01*
X153020086Y-48326819D01*
X153020082Y-48326827D01*
X152963927Y-48499655D01*
X152963927Y-48499656D01*
X152935501Y-48679125D01*
X152935500Y-48679141D01*
X152704500Y-48679141D01*
X152704498Y-48679125D01*
X152676072Y-48499656D01*
X152676072Y-48499655D01*
X152619917Y-48326827D01*
X152619913Y-48326819D01*
X152537415Y-48164907D01*
X152430603Y-48017894D01*
X152430596Y-48017886D01*
X152302113Y-47889403D01*
X152302105Y-47889396D01*
X152155092Y-47782584D01*
X151993180Y-47700086D01*
X151993172Y-47700082D01*
X151820344Y-47643927D01*
X151640874Y-47615501D01*
X151640862Y-47615500D01*
X151640861Y-47615500D01*
X151459139Y-47615500D01*
X151459137Y-47615500D01*
X151459125Y-47615501D01*
X151279656Y-47643927D01*
X151279655Y-47643927D01*
X151106827Y-47700082D01*
X151106819Y-47700086D01*
X150944907Y-47782584D01*
X150797894Y-47889396D01*
X150797886Y-47889403D01*
X150669403Y-48017886D01*
X150669396Y-48017894D01*
X150562584Y-48164907D01*
X150480086Y-48326819D01*
X150480082Y-48326827D01*
X150423927Y-48499655D01*
X150423927Y-48499656D01*
X150395501Y-48679125D01*
X150395500Y-48679141D01*
X150164500Y-48679141D01*
X150164498Y-48679125D01*
X150136072Y-48499656D01*
X150136072Y-48499655D01*
X150079917Y-48326827D01*
X150079913Y-48326819D01*
X149997415Y-48164907D01*
X149890603Y-48017894D01*
X149890596Y-48017886D01*
X149762113Y-47889403D01*
X149762105Y-47889396D01*
X149615092Y-47782584D01*
X149453180Y-47700086D01*
X149453172Y-47700082D01*
X149280344Y-47643927D01*
X149100874Y-47615501D01*
X149100862Y-47615500D01*
X149100861Y-47615500D01*
X148919139Y-47615500D01*
X148919137Y-47615500D01*
X148919125Y-47615501D01*
X148739656Y-47643927D01*
X148739655Y-47643927D01*
X148566827Y-47700082D01*
X148566819Y-47700086D01*
X148404907Y-47782584D01*
X148257894Y-47889396D01*
X148257886Y-47889403D01*
X148129403Y-48017886D01*
X148129396Y-48017894D01*
X148022584Y-48164907D01*
X147940086Y-48326819D01*
X147940082Y-48326827D01*
X147883927Y-48499655D01*
X147883927Y-48499656D01*
X147855501Y-48679125D01*
X147855500Y-48679141D01*
X147624500Y-48679141D01*
X147624498Y-48679125D01*
X147596072Y-48499656D01*
X147596072Y-48499655D01*
X147539917Y-48326827D01*
X147539913Y-48326819D01*
X147457415Y-48164907D01*
X147350603Y-48017894D01*
X147350596Y-48017886D01*
X147222113Y-47889403D01*
X147222105Y-47889396D01*
X147075092Y-47782584D01*
X146913180Y-47700086D01*
X146913172Y-47700082D01*
X146740344Y-47643927D01*
X146560874Y-47615501D01*
X146560862Y-47615500D01*
X146560861Y-47615500D01*
X146379139Y-47615500D01*
X146379137Y-47615500D01*
X146379125Y-47615501D01*
X146199656Y-47643927D01*
X146199655Y-47643927D01*
X146026827Y-47700082D01*
X146026819Y-47700086D01*
X145864907Y-47782584D01*
X145717894Y-47889396D01*
X145717886Y-47889403D01*
X145589403Y-48017886D01*
X145589396Y-48017894D01*
X145482584Y-48164907D01*
X145400086Y-48326819D01*
X145400082Y-48326827D01*
X145343927Y-48499655D01*
X145343927Y-48499656D01*
X145315501Y-48679125D01*
X145315500Y-48679141D01*
X145084500Y-48679141D01*
X145084498Y-48679125D01*
X145056072Y-48499656D01*
X145056072Y-48499655D01*
X144999917Y-48326827D01*
X144999913Y-48326819D01*
X144917415Y-48164907D01*
X144810603Y-48017894D01*
X144810596Y-48017886D01*
X144682113Y-47889403D01*
X144682105Y-47889396D01*
X144535092Y-47782584D01*
X144373180Y-47700086D01*
X144373172Y-47700082D01*
X144200344Y-47643927D01*
X144020874Y-47615501D01*
X144020862Y-47615500D01*
X144020861Y-47615500D01*
X143839139Y-47615500D01*
X143839137Y-47615500D01*
X143839125Y-47615501D01*
X143659656Y-47643927D01*
X143659655Y-47643927D01*
X143486827Y-47700082D01*
X143486819Y-47700086D01*
X143324907Y-47782584D01*
X143177894Y-47889396D01*
X143177886Y-47889403D01*
X143049403Y-48017886D01*
X143049396Y-48017894D01*
X142942584Y-48164907D01*
X142860086Y-48326819D01*
X142860082Y-48326827D01*
X142803927Y-48499655D01*
X142803927Y-48499656D01*
X142775501Y-48679125D01*
X142775500Y-48679141D01*
X142544500Y-48679141D01*
X142544498Y-48679125D01*
X142516072Y-48499656D01*
X142516072Y-48499655D01*
X142459917Y-48326827D01*
X142459913Y-48326819D01*
X142377415Y-48164907D01*
X142270603Y-48017894D01*
X142270596Y-48017886D01*
X142142113Y-47889403D01*
X142142105Y-47889396D01*
X141995092Y-47782584D01*
X141833180Y-47700086D01*
X141833172Y-47700082D01*
X141660344Y-47643927D01*
X141480874Y-47615501D01*
X141480862Y-47615500D01*
X141480861Y-47615500D01*
X141299139Y-47615500D01*
X141299137Y-47615500D01*
X141299125Y-47615501D01*
X141119656Y-47643927D01*
X141119655Y-47643927D01*
X140946827Y-47700082D01*
X140946819Y-47700086D01*
X140784907Y-47782584D01*
X140637894Y-47889396D01*
X140637886Y-47889403D01*
X140509403Y-48017886D01*
X140509396Y-48017894D01*
X140402584Y-48164907D01*
X140320086Y-48326819D01*
X140320082Y-48326827D01*
X140263927Y-48499655D01*
X140263927Y-48499656D01*
X140235501Y-48679125D01*
X140235500Y-48679141D01*
X137464500Y-48679141D01*
X137464498Y-48679125D01*
X137436072Y-48499656D01*
X137436072Y-48499655D01*
X137379917Y-48326827D01*
X137379913Y-48326819D01*
X137297415Y-48164907D01*
X137190603Y-48017894D01*
X137190596Y-48017886D01*
X137062113Y-47889403D01*
X137062105Y-47889396D01*
X136915092Y-47782584D01*
X136753180Y-47700086D01*
X136753172Y-47700082D01*
X136580344Y-47643927D01*
X136400874Y-47615501D01*
X136400862Y-47615500D01*
X136400861Y-47615500D01*
X136219139Y-47615500D01*
X136219137Y-47615500D01*
X136219125Y-47615501D01*
X136039656Y-47643927D01*
X136039655Y-47643927D01*
X135866827Y-47700082D01*
X135866819Y-47700086D01*
X135704907Y-47782584D01*
X135557894Y-47889396D01*
X135557886Y-47889403D01*
X135429403Y-48017886D01*
X135429396Y-48017894D01*
X135322584Y-48164907D01*
X135240086Y-48326819D01*
X135240082Y-48326827D01*
X135183927Y-48499655D01*
X135183927Y-48499656D01*
X135155501Y-48679125D01*
X135155500Y-48679141D01*
X134924500Y-48679141D01*
X134924498Y-48679125D01*
X134896072Y-48499656D01*
X134896072Y-48499655D01*
X134839917Y-48326827D01*
X134839913Y-48326819D01*
X134757415Y-48164907D01*
X134650603Y-48017894D01*
X134650596Y-48017886D01*
X134522113Y-47889403D01*
X134522105Y-47889396D01*
X134375092Y-47782584D01*
X134213180Y-47700086D01*
X134213172Y-47700082D01*
X134040344Y-47643927D01*
X133860874Y-47615501D01*
X133860862Y-47615500D01*
X133860861Y-47615500D01*
X133679139Y-47615500D01*
X133679137Y-47615500D01*
X133679125Y-47615501D01*
X133499656Y-47643927D01*
X133499655Y-47643927D01*
X133326827Y-47700082D01*
X133326819Y-47700086D01*
X133164907Y-47782584D01*
X133017894Y-47889396D01*
X133017886Y-47889403D01*
X132889403Y-48017886D01*
X132889396Y-48017894D01*
X132782584Y-48164907D01*
X132700086Y-48326819D01*
X132700082Y-48326827D01*
X132643927Y-48499655D01*
X132643927Y-48499656D01*
X132615501Y-48679125D01*
X132615500Y-48679141D01*
X132384500Y-48679141D01*
X132384498Y-48679125D01*
X132356072Y-48499656D01*
X132356072Y-48499655D01*
X132299917Y-48326827D01*
X132299913Y-48326819D01*
X132217415Y-48164907D01*
X132110603Y-48017894D01*
X132110596Y-48017886D01*
X131982113Y-47889403D01*
X131982105Y-47889396D01*
X131835092Y-47782584D01*
X131673180Y-47700086D01*
X131673172Y-47700082D01*
X131500344Y-47643927D01*
X131320874Y-47615501D01*
X131320862Y-47615500D01*
X131320861Y-47615500D01*
X131139139Y-47615500D01*
X131139137Y-47615500D01*
X131139125Y-47615501D01*
X130959656Y-47643927D01*
X130959655Y-47643927D01*
X130786827Y-47700082D01*
X130786819Y-47700086D01*
X130624907Y-47782584D01*
X130477894Y-47889396D01*
X130477886Y-47889403D01*
X130349403Y-48017886D01*
X130349396Y-48017894D01*
X130242584Y-48164907D01*
X130160086Y-48326819D01*
X130160082Y-48326827D01*
X130103927Y-48499655D01*
X130103927Y-48499656D01*
X130075501Y-48679125D01*
X130075500Y-48679141D01*
X130075500Y-48860858D01*
X130075501Y-48860874D01*
X130103927Y-49040343D01*
X130103927Y-49040344D01*
X130160082Y-49213172D01*
X130160086Y-49213180D01*
X130233090Y-49356459D01*
X130236843Y-49404147D01*
X130205776Y-49440521D01*
X130158088Y-49444274D01*
X130133208Y-49429027D01*
X129825608Y-49121427D01*
X129807302Y-49077233D01*
X129810360Y-49057922D01*
X129816072Y-49040346D01*
X129842526Y-48873322D01*
X129844498Y-48860874D01*
X129844500Y-48860858D01*
X129844500Y-48679141D01*
X129844498Y-48679125D01*
X129816072Y-48499656D01*
X129816072Y-48499655D01*
X129759917Y-48326827D01*
X129759913Y-48326819D01*
X129677415Y-48164907D01*
X129570603Y-48017894D01*
X129570596Y-48017886D01*
X129442113Y-47889403D01*
X129442105Y-47889396D01*
X129295092Y-47782584D01*
X129133180Y-47700086D01*
X129133172Y-47700082D01*
X128960344Y-47643927D01*
X128780874Y-47615501D01*
X128780862Y-47615500D01*
X128780861Y-47615500D01*
X128599139Y-47615500D01*
X128599137Y-47615500D01*
X128599125Y-47615501D01*
X128419656Y-47643927D01*
X128419655Y-47643927D01*
X128246827Y-47700082D01*
X128246819Y-47700086D01*
X128084907Y-47782584D01*
X127937894Y-47889396D01*
X127937886Y-47889403D01*
X127809403Y-48017886D01*
X127809396Y-48017894D01*
X127702584Y-48164907D01*
X127620086Y-48326819D01*
X127620082Y-48326827D01*
X127563927Y-48499655D01*
X127563927Y-48499656D01*
X127535501Y-48679125D01*
X127535500Y-48679141D01*
X127535500Y-48860858D01*
X127535501Y-48860874D01*
X127563927Y-49040343D01*
X127563927Y-49040344D01*
X127620082Y-49213172D01*
X127620086Y-49213180D01*
X127702584Y-49375092D01*
X127809396Y-49522105D01*
X127809403Y-49522113D01*
X127937886Y-49650596D01*
X127937894Y-49650603D01*
X128084910Y-49757417D01*
X128246826Y-49839917D01*
X128419654Y-49896072D01*
X128479861Y-49905608D01*
X128599125Y-49924498D01*
X128599131Y-49924498D01*
X128599139Y-49924500D01*
X128599141Y-49924500D01*
X128780859Y-49924500D01*
X128780861Y-49924500D01*
X128960346Y-49896072D01*
X128977918Y-49890362D01*
X129025604Y-49894112D01*
X129041427Y-49905608D01*
X129185819Y-50050000D01*
X98300500Y-50050000D01*
X98300500Y-47874540D01*
X107215500Y-47874540D01*
X107215500Y-49665460D01*
X107218454Y-49690923D01*
X107264437Y-49795065D01*
X107344935Y-49875563D01*
X107449077Y-49921546D01*
X107474540Y-49924500D01*
X107474541Y-49924500D01*
X109265459Y-49924500D01*
X109265460Y-49924500D01*
X109290923Y-49921546D01*
X109395065Y-49875563D01*
X109475563Y-49795065D01*
X109521546Y-49690923D01*
X109524500Y-49665460D01*
X109524500Y-48679141D01*
X109755500Y-48679141D01*
X109755500Y-48860858D01*
X109755501Y-48860874D01*
X109783927Y-49040343D01*
X109783927Y-49040344D01*
X109840082Y-49213172D01*
X109840086Y-49213180D01*
X109922584Y-49375092D01*
X110029396Y-49522105D01*
X110029403Y-49522113D01*
X110157886Y-49650596D01*
X110157894Y-49650603D01*
X110304910Y-49757417D01*
X110466826Y-49839917D01*
X110639654Y-49896072D01*
X110699861Y-49905608D01*
X110819125Y-49924498D01*
X110819131Y-49924498D01*
X110819139Y-49924500D01*
X110819141Y-49924500D01*
X111000859Y-49924500D01*
X111000861Y-49924500D01*
X111180346Y-49896072D01*
X111353174Y-49839917D01*
X111515090Y-49757417D01*
X111662106Y-49650603D01*
X111790603Y-49522106D01*
X111897417Y-49375090D01*
X111979917Y-49213174D01*
X112036072Y-49040346D01*
X112061357Y-48880704D01*
X112064498Y-48860874D01*
X112064500Y-48860858D01*
X112064500Y-48679141D01*
X112295500Y-48679141D01*
X112295500Y-48860858D01*
X112295501Y-48860874D01*
X112323927Y-49040343D01*
X112323927Y-49040344D01*
X112380082Y-49213172D01*
X112380086Y-49213180D01*
X112462584Y-49375092D01*
X112569396Y-49522105D01*
X112569403Y-49522113D01*
X112697886Y-49650596D01*
X112697894Y-49650603D01*
X112844910Y-49757417D01*
X113006826Y-49839917D01*
X113179654Y-49896072D01*
X113239861Y-49905608D01*
X113359125Y-49924498D01*
X113359131Y-49924498D01*
X113359139Y-49924500D01*
X113359141Y-49924500D01*
X113540859Y-49924500D01*
X113540861Y-49924500D01*
X113720346Y-49896072D01*
X113893174Y-49839917D01*
X114055090Y-49757417D01*
X114202106Y-49650603D01*
X114330603Y-49522106D01*
X114437417Y-49375090D01*
X114519917Y-49213174D01*
X114576072Y-49040346D01*
X114601357Y-48880704D01*
X114604498Y-48860874D01*
X114604500Y-48860858D01*
X114604500Y-48679141D01*
X114835500Y-48679141D01*
X114835500Y-48860858D01*
X114835501Y-48860874D01*
X114863927Y-49040343D01*
X114863927Y-49040344D01*
X114920082Y-49213172D01*
X114920086Y-49213180D01*
X115002584Y-49375092D01*
X115109396Y-49522105D01*
X115109403Y-49522113D01*
X115237886Y-49650596D01*
X115237894Y-49650603D01*
X115384910Y-49757417D01*
X115546826Y-49839917D01*
X115719654Y-49896072D01*
X115779861Y-49905608D01*
X115899125Y-49924498D01*
X115899131Y-49924498D01*
X115899139Y-49924500D01*
X115899141Y-49924500D01*
X116080859Y-49924500D01*
X116080861Y-49924500D01*
X116260346Y-49896072D01*
X116433174Y-49839917D01*
X116595090Y-49757417D01*
X116742106Y-49650603D01*
X116870603Y-49522106D01*
X116977417Y-49375090D01*
X117059917Y-49213174D01*
X117116072Y-49040346D01*
X117141357Y-48880704D01*
X117144498Y-48860874D01*
X117144500Y-48860858D01*
X117144500Y-48679141D01*
X119915500Y-48679141D01*
X119915500Y-48860858D01*
X119915501Y-48860874D01*
X119943927Y-49040343D01*
X119943927Y-49040344D01*
X120000082Y-49213172D01*
X120000086Y-49213180D01*
X120082584Y-49375092D01*
X120189396Y-49522105D01*
X120189403Y-49522113D01*
X120317886Y-49650596D01*
X120317894Y-49650603D01*
X120464910Y-49757417D01*
X120626826Y-49839917D01*
X120799654Y-49896072D01*
X120859861Y-49905608D01*
X120979125Y-49924498D01*
X120979131Y-49924498D01*
X120979139Y-49924500D01*
X120979141Y-49924500D01*
X121160859Y-49924500D01*
X121160861Y-49924500D01*
X121340346Y-49896072D01*
X121513174Y-49839917D01*
X121675090Y-49757417D01*
X121822106Y-49650603D01*
X121950603Y-49522106D01*
X122057417Y-49375090D01*
X122139917Y-49213174D01*
X122196072Y-49040346D01*
X122221357Y-48880704D01*
X122224498Y-48860874D01*
X122224500Y-48860858D01*
X122224500Y-48679141D01*
X122455500Y-48679141D01*
X122455500Y-48860858D01*
X122455501Y-48860874D01*
X122483927Y-49040343D01*
X122483927Y-49040344D01*
X122540082Y-49213172D01*
X122540086Y-49213180D01*
X122622584Y-49375092D01*
X122729396Y-49522105D01*
X122729403Y-49522113D01*
X122857886Y-49650596D01*
X122857894Y-49650603D01*
X123004910Y-49757417D01*
X123166826Y-49839917D01*
X123339654Y-49896072D01*
X123399861Y-49905608D01*
X123519125Y-49924498D01*
X123519131Y-49924498D01*
X123519139Y-49924500D01*
X123519141Y-49924500D01*
X123700859Y-49924500D01*
X123700861Y-49924500D01*
X123880346Y-49896072D01*
X124053174Y-49839917D01*
X124215090Y-49757417D01*
X124362106Y-49650603D01*
X124490603Y-49522106D01*
X124597417Y-49375090D01*
X124679917Y-49213174D01*
X124736072Y-49040346D01*
X124761357Y-48880704D01*
X124764498Y-48860874D01*
X124764500Y-48860858D01*
X124764500Y-48679141D01*
X124995500Y-48679141D01*
X124995500Y-48860858D01*
X124995501Y-48860874D01*
X125023927Y-49040343D01*
X125023927Y-49040344D01*
X125080082Y-49213172D01*
X125080086Y-49213180D01*
X125162584Y-49375092D01*
X125269396Y-49522105D01*
X125269403Y-49522113D01*
X125397886Y-49650596D01*
X125397894Y-49650603D01*
X125544910Y-49757417D01*
X125706826Y-49839917D01*
X125879654Y-49896072D01*
X125939861Y-49905608D01*
X126059125Y-49924498D01*
X126059131Y-49924498D01*
X126059139Y-49924500D01*
X126059141Y-49924500D01*
X126240859Y-49924500D01*
X126240861Y-49924500D01*
X126420346Y-49896072D01*
X126593174Y-49839917D01*
X126755090Y-49757417D01*
X126902106Y-49650603D01*
X127030603Y-49522106D01*
X127137417Y-49375090D01*
X127219917Y-49213174D01*
X127276072Y-49040346D01*
X127301357Y-48880704D01*
X127304498Y-48860874D01*
X127304500Y-48860858D01*
X127304500Y-48679141D01*
X127304498Y-48679125D01*
X127276072Y-48499656D01*
X127276072Y-48499655D01*
X127219917Y-48326827D01*
X127219913Y-48326819D01*
X127137415Y-48164907D01*
X127030603Y-48017894D01*
X127030596Y-48017886D01*
X126902113Y-47889403D01*
X126902105Y-47889396D01*
X126755092Y-47782584D01*
X126593180Y-47700086D01*
X126593172Y-47700082D01*
X126420344Y-47643927D01*
X126240874Y-47615501D01*
X126240862Y-47615500D01*
X126240861Y-47615500D01*
X126059139Y-47615500D01*
X126059137Y-47615500D01*
X126059125Y-47615501D01*
X125879656Y-47643927D01*
X125879655Y-47643927D01*
X125706827Y-47700082D01*
X125706819Y-47700086D01*
X125544907Y-47782584D01*
X125397894Y-47889396D01*
X125397886Y-47889403D01*
X125269403Y-48017886D01*
X125269396Y-48017894D01*
X125162584Y-48164907D01*
X125080086Y-48326819D01*
X125080082Y-48326827D01*
X125023927Y-48499655D01*
X125023927Y-48499656D01*
X124995501Y-48679125D01*
X124995500Y-48679141D01*
X124764500Y-48679141D01*
X124764498Y-48679125D01*
X124736072Y-48499656D01*
X124736072Y-48499655D01*
X124679917Y-48326827D01*
X124679913Y-48326819D01*
X124597415Y-48164907D01*
X124490603Y-48017894D01*
X124490596Y-48017886D01*
X124362113Y-47889403D01*
X124362105Y-47889396D01*
X124215092Y-47782584D01*
X124053180Y-47700086D01*
X124053172Y-47700082D01*
X123880344Y-47643927D01*
X123700874Y-47615501D01*
X123700862Y-47615500D01*
X123700861Y-47615500D01*
X123519139Y-47615500D01*
X123519137Y-47615500D01*
X123519125Y-47615501D01*
X123339656Y-47643927D01*
X123339655Y-47643927D01*
X123166827Y-47700082D01*
X123166819Y-47700086D01*
X123004907Y-47782584D01*
X122857894Y-47889396D01*
X122857886Y-47889403D01*
X122729403Y-48017886D01*
X122729396Y-48017894D01*
X122622584Y-48164907D01*
X122540086Y-48326819D01*
X122540082Y-48326827D01*
X122483927Y-48499655D01*
X122483927Y-48499656D01*
X122455501Y-48679125D01*
X122455500Y-48679141D01*
X122224500Y-48679141D01*
X122224498Y-48679125D01*
X122196072Y-48499656D01*
X122196072Y-48499655D01*
X122139917Y-48326827D01*
X122139913Y-48326819D01*
X122057415Y-48164907D01*
X121950603Y-48017894D01*
X121950596Y-48017886D01*
X121822113Y-47889403D01*
X121822105Y-47889396D01*
X121675092Y-47782584D01*
X121513180Y-47700086D01*
X121513172Y-47700082D01*
X121340344Y-47643927D01*
X121160874Y-47615501D01*
X121160862Y-47615500D01*
X121160861Y-47615500D01*
X120979139Y-47615500D01*
X120979137Y-47615500D01*
X120979125Y-47615501D01*
X120799656Y-47643927D01*
X120799655Y-47643927D01*
X120626827Y-47700082D01*
X120626819Y-47700086D01*
X120464907Y-47782584D01*
X120317894Y-47889396D01*
X120317886Y-47889403D01*
X120189403Y-48017886D01*
X120189396Y-48017894D01*
X120082584Y-48164907D01*
X120000086Y-48326819D01*
X120000082Y-48326827D01*
X119943927Y-48499655D01*
X119943927Y-48499656D01*
X119915501Y-48679125D01*
X119915500Y-48679141D01*
X117144500Y-48679141D01*
X117144498Y-48679125D01*
X117116072Y-48499656D01*
X117116072Y-48499655D01*
X117059917Y-48326827D01*
X117059913Y-48326819D01*
X116977415Y-48164907D01*
X116870603Y-48017894D01*
X116870596Y-48017886D01*
X116742113Y-47889403D01*
X116742105Y-47889396D01*
X116595092Y-47782584D01*
X116433180Y-47700086D01*
X116433172Y-47700082D01*
X116260344Y-47643927D01*
X116080874Y-47615501D01*
X116080862Y-47615500D01*
X116080861Y-47615500D01*
X115899139Y-47615500D01*
X115899137Y-47615500D01*
X115899125Y-47615501D01*
X115719656Y-47643927D01*
X115719655Y-47643927D01*
X115546827Y-47700082D01*
X115546819Y-47700086D01*
X115384907Y-47782584D01*
X115237894Y-47889396D01*
X115237886Y-47889403D01*
X115109403Y-48017886D01*
X115109396Y-48017894D01*
X115002584Y-48164907D01*
X114920086Y-48326819D01*
X114920082Y-48326827D01*
X114863927Y-48499655D01*
X114863927Y-48499656D01*
X114835501Y-48679125D01*
X114835500Y-48679141D01*
X114604500Y-48679141D01*
X114604498Y-48679125D01*
X114576072Y-48499656D01*
X114576072Y-48499655D01*
X114519917Y-48326827D01*
X114519913Y-48326819D01*
X114437415Y-48164907D01*
X114330603Y-48017894D01*
X114330596Y-48017886D01*
X114202113Y-47889403D01*
X114202105Y-47889396D01*
X114055092Y-47782584D01*
X113893180Y-47700086D01*
X113893172Y-47700082D01*
X113720344Y-47643927D01*
X113540874Y-47615501D01*
X113540862Y-47615500D01*
X113540861Y-47615500D01*
X113359139Y-47615500D01*
X113359137Y-47615500D01*
X113359125Y-47615501D01*
X113179656Y-47643927D01*
X113179655Y-47643927D01*
X113006827Y-47700082D01*
X113006819Y-47700086D01*
X112844907Y-47782584D01*
X112697894Y-47889396D01*
X112697886Y-47889403D01*
X112569403Y-48017886D01*
X112569396Y-48017894D01*
X112462584Y-48164907D01*
X112380086Y-48326819D01*
X112380082Y-48326827D01*
X112323927Y-48499655D01*
X112323927Y-48499656D01*
X112295501Y-48679125D01*
X112295500Y-48679141D01*
X112064500Y-48679141D01*
X112064498Y-48679125D01*
X112036072Y-48499656D01*
X112036072Y-48499655D01*
X111979917Y-48326827D01*
X111979913Y-48326819D01*
X111897415Y-48164907D01*
X111790603Y-48017894D01*
X111790596Y-48017886D01*
X111662113Y-47889403D01*
X111662105Y-47889396D01*
X111515092Y-47782584D01*
X111353180Y-47700086D01*
X111353172Y-47700082D01*
X111180344Y-47643927D01*
X111000874Y-47615501D01*
X111000862Y-47615500D01*
X111000861Y-47615500D01*
X110819139Y-47615500D01*
X110819137Y-47615500D01*
X110819125Y-47615501D01*
X110639656Y-47643927D01*
X110639655Y-47643927D01*
X110466827Y-47700082D01*
X110466819Y-47700086D01*
X110304907Y-47782584D01*
X110157894Y-47889396D01*
X110157886Y-47889403D01*
X110029403Y-48017886D01*
X110029396Y-48017894D01*
X109922584Y-48164907D01*
X109840086Y-48326819D01*
X109840082Y-48326827D01*
X109783927Y-48499655D01*
X109783927Y-48499656D01*
X109755501Y-48679125D01*
X109755500Y-48679141D01*
X109524500Y-48679141D01*
X109524500Y-47874540D01*
X109521546Y-47849077D01*
X109475563Y-47744935D01*
X109395065Y-47664437D01*
X109290923Y-47618454D01*
X109265460Y-47615500D01*
X107474540Y-47615500D01*
X107461808Y-47616977D01*
X107449076Y-47618454D01*
X107344933Y-47664438D01*
X107264438Y-47744933D01*
X107264437Y-47744934D01*
X107264437Y-47744935D01*
X107218454Y-47849077D01*
X107215500Y-47874540D01*
X98300500Y-47874540D01*
X98300500Y-47001758D01*
X98300598Y-46998254D01*
X98301033Y-46990512D01*
X98317277Y-46701248D01*
X98318062Y-46694289D01*
X98321650Y-46673172D01*
X98367597Y-46402747D01*
X98369150Y-46395943D01*
X98443133Y-46139141D01*
X107215500Y-46139141D01*
X107215500Y-46320858D01*
X107215501Y-46320874D01*
X107243927Y-46500343D01*
X107243927Y-46500344D01*
X107300082Y-46673172D01*
X107300086Y-46673180D01*
X107382584Y-46835092D01*
X107489396Y-46982105D01*
X107489403Y-46982113D01*
X107617886Y-47110596D01*
X107617894Y-47110603D01*
X107764910Y-47217417D01*
X107926826Y-47299917D01*
X108099654Y-47356072D01*
X108175295Y-47368052D01*
X108279125Y-47384498D01*
X108279131Y-47384498D01*
X108279139Y-47384500D01*
X108279141Y-47384500D01*
X108460859Y-47384500D01*
X108460861Y-47384500D01*
X108640346Y-47356072D01*
X108813174Y-47299917D01*
X108975090Y-47217417D01*
X109122106Y-47110603D01*
X109250603Y-46982106D01*
X109357417Y-46835090D01*
X109439917Y-46673174D01*
X109496072Y-46500346D01*
X109524500Y-46320861D01*
X109524500Y-46139141D01*
X109755500Y-46139141D01*
X109755500Y-46320858D01*
X109755501Y-46320874D01*
X109783927Y-46500343D01*
X109783927Y-46500344D01*
X109840082Y-46673172D01*
X109840086Y-46673180D01*
X109922584Y-46835092D01*
X110029396Y-46982105D01*
X110029403Y-46982113D01*
X110157886Y-47110596D01*
X110157894Y-47110603D01*
X110304910Y-47217417D01*
X110466826Y-47299917D01*
X110639654Y-47356072D01*
X110715295Y-47368052D01*
X110819125Y-47384498D01*
X110819131Y-47384498D01*
X110819139Y-47384500D01*
X110819141Y-47384500D01*
X111000859Y-47384500D01*
X111000861Y-47384500D01*
X111180346Y-47356072D01*
X111353174Y-47299917D01*
X111515090Y-47217417D01*
X111662106Y-47110603D01*
X111790603Y-46982106D01*
X111897417Y-46835090D01*
X111979917Y-46673174D01*
X112036072Y-46500346D01*
X112064500Y-46320861D01*
X112064500Y-46139141D01*
X114835500Y-46139141D01*
X114835500Y-46320858D01*
X114835501Y-46320874D01*
X114863927Y-46500343D01*
X114863927Y-46500344D01*
X114920082Y-46673172D01*
X114920086Y-46673180D01*
X115002584Y-46835092D01*
X115109396Y-46982105D01*
X115109403Y-46982113D01*
X115237886Y-47110596D01*
X115237894Y-47110603D01*
X115384910Y-47217417D01*
X115546826Y-47299917D01*
X115719654Y-47356072D01*
X115795295Y-47368052D01*
X115899125Y-47384498D01*
X115899131Y-47384498D01*
X115899139Y-47384500D01*
X115899141Y-47384500D01*
X116080859Y-47384500D01*
X116080861Y-47384500D01*
X116260346Y-47356072D01*
X116433174Y-47299917D01*
X116595090Y-47217417D01*
X116742106Y-47110603D01*
X116870603Y-46982106D01*
X116977417Y-46835090D01*
X117059917Y-46673174D01*
X117116072Y-46500346D01*
X117144500Y-46320861D01*
X117144500Y-46139141D01*
X117375500Y-46139141D01*
X117375500Y-46320858D01*
X117375501Y-46320874D01*
X117403927Y-46500343D01*
X117403927Y-46500344D01*
X117460082Y-46673172D01*
X117460086Y-46673180D01*
X117542584Y-46835092D01*
X117649396Y-46982105D01*
X117649403Y-46982113D01*
X117777886Y-47110596D01*
X117777894Y-47110603D01*
X117924910Y-47217417D01*
X118086826Y-47299917D01*
X118259654Y-47356072D01*
X118335295Y-47368052D01*
X118439125Y-47384498D01*
X118439131Y-47384498D01*
X118439139Y-47384500D01*
X118439141Y-47384500D01*
X118620859Y-47384500D01*
X118620861Y-47384500D01*
X118800346Y-47356072D01*
X118973174Y-47299917D01*
X119135090Y-47217417D01*
X119282106Y-47110603D01*
X119410603Y-46982106D01*
X119517417Y-46835090D01*
X119599917Y-46673174D01*
X119656072Y-46500346D01*
X119684500Y-46320861D01*
X119684500Y-46139141D01*
X119915500Y-46139141D01*
X119915500Y-46320858D01*
X119915501Y-46320874D01*
X119943927Y-46500343D01*
X119943927Y-46500344D01*
X120000082Y-46673172D01*
X120000086Y-46673180D01*
X120082584Y-46835092D01*
X120189396Y-46982105D01*
X120189403Y-46982113D01*
X120317886Y-47110596D01*
X120317894Y-47110603D01*
X120464910Y-47217417D01*
X120626826Y-47299917D01*
X120799654Y-47356072D01*
X120875295Y-47368052D01*
X120979125Y-47384498D01*
X120979131Y-47384498D01*
X120979139Y-47384500D01*
X120979141Y-47384500D01*
X121160859Y-47384500D01*
X121160861Y-47384500D01*
X121340346Y-47356072D01*
X121513174Y-47299917D01*
X121675090Y-47217417D01*
X121822106Y-47110603D01*
X121950603Y-46982106D01*
X122057417Y-46835090D01*
X122139917Y-46673174D01*
X122196072Y-46500346D01*
X122224500Y-46320861D01*
X122224500Y-46139141D01*
X124995500Y-46139141D01*
X124995500Y-46320858D01*
X124995501Y-46320874D01*
X125023927Y-46500343D01*
X125023927Y-46500344D01*
X125080082Y-46673172D01*
X125080086Y-46673180D01*
X125162584Y-46835092D01*
X125269396Y-46982105D01*
X125269403Y-46982113D01*
X125397886Y-47110596D01*
X125397894Y-47110603D01*
X125544910Y-47217417D01*
X125706826Y-47299917D01*
X125879654Y-47356072D01*
X125955295Y-47368052D01*
X126059125Y-47384498D01*
X126059131Y-47384498D01*
X126059139Y-47384500D01*
X126059141Y-47384500D01*
X126240859Y-47384500D01*
X126240861Y-47384500D01*
X126420346Y-47356072D01*
X126593174Y-47299917D01*
X126755090Y-47217417D01*
X126902106Y-47110603D01*
X127030603Y-46982106D01*
X127137417Y-46835090D01*
X127219917Y-46673174D01*
X127276072Y-46500346D01*
X127304500Y-46320861D01*
X127304500Y-46139141D01*
X127535500Y-46139141D01*
X127535500Y-46320858D01*
X127535501Y-46320874D01*
X127563927Y-46500343D01*
X127563927Y-46500344D01*
X127620082Y-46673172D01*
X127620086Y-46673180D01*
X127702584Y-46835092D01*
X127809396Y-46982105D01*
X127809403Y-46982113D01*
X127937886Y-47110596D01*
X127937894Y-47110603D01*
X128084910Y-47217417D01*
X128246826Y-47299917D01*
X128419654Y-47356072D01*
X128495295Y-47368052D01*
X128599125Y-47384498D01*
X128599131Y-47384498D01*
X128599139Y-47384500D01*
X128599141Y-47384500D01*
X128780859Y-47384500D01*
X128780861Y-47384500D01*
X128960346Y-47356072D01*
X129133174Y-47299917D01*
X129295090Y-47217417D01*
X129442106Y-47110603D01*
X129570603Y-46982106D01*
X129677417Y-46835090D01*
X129759917Y-46673174D01*
X129816072Y-46500346D01*
X129844500Y-46320861D01*
X129844500Y-46139141D01*
X132615500Y-46139141D01*
X132615500Y-46320858D01*
X132615501Y-46320874D01*
X132643927Y-46500343D01*
X132643927Y-46500344D01*
X132700082Y-46673172D01*
X132700086Y-46673180D01*
X132782584Y-46835092D01*
X132889396Y-46982105D01*
X132889403Y-46982113D01*
X133017886Y-47110596D01*
X133017894Y-47110603D01*
X133164910Y-47217417D01*
X133326826Y-47299917D01*
X133499654Y-47356072D01*
X133575295Y-47368052D01*
X133679125Y-47384498D01*
X133679131Y-47384498D01*
X133679139Y-47384500D01*
X133679141Y-47384500D01*
X133860859Y-47384500D01*
X133860861Y-47384500D01*
X134040346Y-47356072D01*
X134213174Y-47299917D01*
X134375090Y-47217417D01*
X134522106Y-47110603D01*
X134650603Y-46982106D01*
X134757417Y-46835090D01*
X134839917Y-46673174D01*
X134896072Y-46500346D01*
X134924500Y-46320861D01*
X134924500Y-46139141D01*
X135155500Y-46139141D01*
X135155500Y-46320858D01*
X135155501Y-46320874D01*
X135183927Y-46500343D01*
X135183927Y-46500344D01*
X135240082Y-46673172D01*
X135240086Y-46673180D01*
X135322584Y-46835092D01*
X135429396Y-46982105D01*
X135429403Y-46982113D01*
X135557886Y-47110596D01*
X135557894Y-47110603D01*
X135704910Y-47217417D01*
X135866826Y-47299917D01*
X136039654Y-47356072D01*
X136115295Y-47368052D01*
X136219125Y-47384498D01*
X136219131Y-47384498D01*
X136219139Y-47384500D01*
X136219141Y-47384500D01*
X136400859Y-47384500D01*
X136400861Y-47384500D01*
X136580346Y-47356072D01*
X136753174Y-47299917D01*
X136915090Y-47217417D01*
X137062106Y-47110603D01*
X137190603Y-46982106D01*
X137297417Y-46835090D01*
X137379917Y-46673174D01*
X137436072Y-46500346D01*
X137464500Y-46320861D01*
X137464500Y-46139141D01*
X137695500Y-46139141D01*
X137695500Y-46320858D01*
X137695501Y-46320874D01*
X137723927Y-46500343D01*
X137723927Y-46500344D01*
X137780082Y-46673172D01*
X137780086Y-46673180D01*
X137862584Y-46835092D01*
X137969396Y-46982105D01*
X137969403Y-46982113D01*
X138097886Y-47110596D01*
X138097894Y-47110603D01*
X138244910Y-47217417D01*
X138406826Y-47299917D01*
X138579654Y-47356072D01*
X138655295Y-47368052D01*
X138759125Y-47384498D01*
X138759131Y-47384498D01*
X138759139Y-47384500D01*
X138759141Y-47384500D01*
X138940859Y-47384500D01*
X138940861Y-47384500D01*
X139120346Y-47356072D01*
X139293174Y-47299917D01*
X139455090Y-47217417D01*
X139602106Y-47110603D01*
X139730603Y-46982106D01*
X139837417Y-46835090D01*
X139919917Y-46673174D01*
X139976072Y-46500346D01*
X140004500Y-46320861D01*
X140004500Y-46139141D01*
X140235500Y-46139141D01*
X140235500Y-46320858D01*
X140235501Y-46320874D01*
X140263927Y-46500343D01*
X140263927Y-46500344D01*
X140320082Y-46673172D01*
X140320086Y-46673180D01*
X140402584Y-46835092D01*
X140509396Y-46982105D01*
X140509403Y-46982113D01*
X140637886Y-47110596D01*
X140637894Y-47110603D01*
X140784910Y-47217417D01*
X140946826Y-47299917D01*
X141119654Y-47356072D01*
X141195295Y-47368052D01*
X141299125Y-47384498D01*
X141299131Y-47384498D01*
X141299139Y-47384500D01*
X141299141Y-47384500D01*
X141480859Y-47384500D01*
X141480861Y-47384500D01*
X141660346Y-47356072D01*
X141833174Y-47299917D01*
X141995090Y-47217417D01*
X142142106Y-47110603D01*
X142270603Y-46982106D01*
X142377417Y-46835090D01*
X142459917Y-46673174D01*
X142516072Y-46500346D01*
X142544500Y-46320861D01*
X142544500Y-46139141D01*
X145315500Y-46139141D01*
X145315500Y-46320858D01*
X145315501Y-46320874D01*
X145343927Y-46500343D01*
X145343927Y-46500344D01*
X145400082Y-46673172D01*
X145400086Y-46673180D01*
X145482584Y-46835092D01*
X145589396Y-46982105D01*
X145589403Y-46982113D01*
X145717886Y-47110596D01*
X145717894Y-47110603D01*
X145864910Y-47217417D01*
X146026826Y-47299917D01*
X146199654Y-47356072D01*
X146275295Y-47368052D01*
X146379125Y-47384498D01*
X146379131Y-47384498D01*
X146379139Y-47384500D01*
X146379141Y-47384500D01*
X146560859Y-47384500D01*
X146560861Y-47384500D01*
X146740346Y-47356072D01*
X146913174Y-47299917D01*
X147075090Y-47217417D01*
X147222106Y-47110603D01*
X147350603Y-46982106D01*
X147457417Y-46835090D01*
X147539917Y-46673174D01*
X147596072Y-46500346D01*
X147624500Y-46320861D01*
X147624500Y-46139141D01*
X150395500Y-46139141D01*
X150395500Y-46320858D01*
X150395501Y-46320874D01*
X150423927Y-46500343D01*
X150423927Y-46500344D01*
X150480082Y-46673172D01*
X150480086Y-46673180D01*
X150562584Y-46835092D01*
X150669396Y-46982105D01*
X150669403Y-46982113D01*
X150797886Y-47110596D01*
X150797894Y-47110603D01*
X150944910Y-47217417D01*
X151106826Y-47299917D01*
X151279654Y-47356072D01*
X151355295Y-47368052D01*
X151459125Y-47384498D01*
X151459131Y-47384498D01*
X151459139Y-47384500D01*
X151459141Y-47384500D01*
X151640859Y-47384500D01*
X151640861Y-47384500D01*
X151820346Y-47356072D01*
X151993174Y-47299917D01*
X152155090Y-47217417D01*
X152302106Y-47110603D01*
X152430603Y-46982106D01*
X152537417Y-46835090D01*
X152619917Y-46673174D01*
X152676072Y-46500346D01*
X152704500Y-46320861D01*
X152704500Y-46139141D01*
X152935500Y-46139141D01*
X152935500Y-46320858D01*
X152935501Y-46320874D01*
X152963927Y-46500343D01*
X152963927Y-46500344D01*
X153020082Y-46673172D01*
X153020086Y-46673180D01*
X153102584Y-46835092D01*
X153209396Y-46982105D01*
X153209403Y-46982113D01*
X153337886Y-47110596D01*
X153337894Y-47110603D01*
X153484910Y-47217417D01*
X153646826Y-47299917D01*
X153819654Y-47356072D01*
X153895295Y-47368052D01*
X153999125Y-47384498D01*
X153999131Y-47384498D01*
X153999139Y-47384500D01*
X153999141Y-47384500D01*
X154180859Y-47384500D01*
X154180861Y-47384500D01*
X154360346Y-47356072D01*
X154533174Y-47299917D01*
X154695090Y-47217417D01*
X154842106Y-47110603D01*
X154970603Y-46982106D01*
X155077417Y-46835090D01*
X155159917Y-46673174D01*
X155216072Y-46500346D01*
X155244500Y-46320861D01*
X155244500Y-46139141D01*
X155475500Y-46139141D01*
X155475500Y-46320858D01*
X155475501Y-46320874D01*
X155503927Y-46500343D01*
X155503927Y-46500344D01*
X155560082Y-46673172D01*
X155560086Y-46673180D01*
X155642584Y-46835092D01*
X155749396Y-46982105D01*
X155749403Y-46982113D01*
X155877886Y-47110596D01*
X155877894Y-47110603D01*
X156024910Y-47217417D01*
X156186826Y-47299917D01*
X156359654Y-47356072D01*
X156435295Y-47368052D01*
X156539125Y-47384498D01*
X156539131Y-47384498D01*
X156539139Y-47384500D01*
X156539141Y-47384500D01*
X156720859Y-47384500D01*
X156720861Y-47384500D01*
X156786902Y-47374040D01*
X159899500Y-47374040D01*
X159899500Y-47625959D01*
X159899501Y-47625975D01*
X159938909Y-47874782D01*
X159938909Y-47874783D01*
X159943660Y-47889403D01*
X160016759Y-48114379D01*
X160131130Y-48338845D01*
X160279207Y-48542656D01*
X160279210Y-48542659D01*
X160279213Y-48542663D01*
X160457336Y-48720786D01*
X160457339Y-48720788D01*
X160457344Y-48720793D01*
X160661155Y-48868870D01*
X160885621Y-48983241D01*
X161125215Y-49061090D01*
X161227137Y-49077233D01*
X161374024Y-49100498D01*
X161374030Y-49100498D01*
X161374038Y-49100500D01*
X161374040Y-49100500D01*
X161625960Y-49100500D01*
X161625962Y-49100500D01*
X161874785Y-49061090D01*
X162114379Y-48983241D01*
X162338845Y-48868870D01*
X162542656Y-48720793D01*
X162720793Y-48542656D01*
X162868870Y-48338845D01*
X162983241Y-48114379D01*
X163061090Y-47874785D01*
X163100500Y-47625962D01*
X163100500Y-47374038D01*
X163097654Y-47356072D01*
X163061090Y-47125217D01*
X163061090Y-47125216D01*
X163019838Y-46998254D01*
X162983241Y-46885621D01*
X162868870Y-46661155D01*
X162720793Y-46457344D01*
X162720788Y-46457339D01*
X162720786Y-46457336D01*
X162542663Y-46279213D01*
X162542659Y-46279210D01*
X162542656Y-46279207D01*
X162338845Y-46131130D01*
X162114379Y-46016759D01*
X162114377Y-46016758D01*
X161874783Y-45938909D01*
X161625975Y-45899501D01*
X161625963Y-45899500D01*
X161625962Y-45899500D01*
X161374038Y-45899500D01*
X161374036Y-45899500D01*
X161374024Y-45899501D01*
X161125217Y-45938909D01*
X161125216Y-45938909D01*
X160885622Y-46016758D01*
X160885614Y-46016762D01*
X160699118Y-46111787D01*
X160661155Y-46131130D01*
X160650151Y-46139125D01*
X160457336Y-46279213D01*
X160279213Y-46457336D01*
X160279207Y-46457343D01*
X160279207Y-46457344D01*
X160142770Y-46645135D01*
X160131129Y-46661157D01*
X160016762Y-46885614D01*
X160016758Y-46885622D01*
X159938909Y-47125216D01*
X159938909Y-47125217D01*
X159899501Y-47374024D01*
X159899500Y-47374040D01*
X156786902Y-47374040D01*
X156900346Y-47356072D01*
X157073174Y-47299917D01*
X157235090Y-47217417D01*
X157382106Y-47110603D01*
X157510603Y-46982106D01*
X157617417Y-46835090D01*
X157699917Y-46673174D01*
X157756072Y-46500346D01*
X157784500Y-46320861D01*
X157784500Y-46139139D01*
X157783231Y-46131130D01*
X157765117Y-46016759D01*
X157756072Y-45959654D01*
X157699917Y-45786826D01*
X157617417Y-45624910D01*
X157573002Y-45563779D01*
X157510603Y-45477894D01*
X157510596Y-45477886D01*
X157382113Y-45349403D01*
X157382105Y-45349396D01*
X157235092Y-45242584D01*
X157073180Y-45160086D01*
X157073172Y-45160082D01*
X156900344Y-45103927D01*
X156720874Y-45075501D01*
X156720862Y-45075500D01*
X156720861Y-45075500D01*
X156539139Y-45075500D01*
X156539137Y-45075500D01*
X156539125Y-45075501D01*
X156359656Y-45103927D01*
X156359655Y-45103927D01*
X156186827Y-45160082D01*
X156186819Y-45160086D01*
X156024907Y-45242584D01*
X155877894Y-45349396D01*
X155877886Y-45349403D01*
X155749403Y-45477886D01*
X155749396Y-45477894D01*
X155642584Y-45624907D01*
X155560086Y-45786819D01*
X155560082Y-45786827D01*
X155503927Y-45959655D01*
X155503927Y-45959656D01*
X155475501Y-46139125D01*
X155475500Y-46139141D01*
X155244500Y-46139141D01*
X155244500Y-46139139D01*
X155243231Y-46131130D01*
X155225117Y-46016759D01*
X155216072Y-45959654D01*
X155159917Y-45786826D01*
X155077417Y-45624910D01*
X155033002Y-45563779D01*
X154970603Y-45477894D01*
X154970596Y-45477886D01*
X154842113Y-45349403D01*
X154842105Y-45349396D01*
X154695092Y-45242584D01*
X154533180Y-45160086D01*
X154533172Y-45160082D01*
X154360344Y-45103927D01*
X154180874Y-45075501D01*
X154180862Y-45075500D01*
X154180861Y-45075500D01*
X153999139Y-45075500D01*
X153999137Y-45075500D01*
X153999125Y-45075501D01*
X153819656Y-45103927D01*
X153819655Y-45103927D01*
X153646827Y-45160082D01*
X153646819Y-45160086D01*
X153484907Y-45242584D01*
X153337894Y-45349396D01*
X153337886Y-45349403D01*
X153209403Y-45477886D01*
X153209396Y-45477894D01*
X153102584Y-45624907D01*
X153020086Y-45786819D01*
X153020082Y-45786827D01*
X152963927Y-45959655D01*
X152963927Y-45959656D01*
X152935501Y-46139125D01*
X152935500Y-46139141D01*
X152704500Y-46139141D01*
X152704500Y-46139139D01*
X152703231Y-46131130D01*
X152685117Y-46016759D01*
X152676072Y-45959654D01*
X152619917Y-45786826D01*
X152537417Y-45624910D01*
X152493002Y-45563779D01*
X152430603Y-45477894D01*
X152430596Y-45477886D01*
X152302113Y-45349403D01*
X152302105Y-45349396D01*
X152155092Y-45242584D01*
X151993180Y-45160086D01*
X151993172Y-45160082D01*
X151820344Y-45103927D01*
X151640874Y-45075501D01*
X151640862Y-45075500D01*
X151640861Y-45075500D01*
X151459139Y-45075500D01*
X151459137Y-45075500D01*
X151459125Y-45075501D01*
X151279656Y-45103927D01*
X151279655Y-45103927D01*
X151106827Y-45160082D01*
X151106819Y-45160086D01*
X150944907Y-45242584D01*
X150797894Y-45349396D01*
X150797886Y-45349403D01*
X150669403Y-45477886D01*
X150669396Y-45477894D01*
X150562584Y-45624907D01*
X150480086Y-45786819D01*
X150480082Y-45786827D01*
X150423927Y-45959655D01*
X150423927Y-45959656D01*
X150395501Y-46139125D01*
X150395500Y-46139141D01*
X147624500Y-46139141D01*
X147624500Y-46139139D01*
X147623231Y-46131130D01*
X147605117Y-46016759D01*
X147596072Y-45959654D01*
X147539917Y-45786826D01*
X147457417Y-45624910D01*
X147413002Y-45563779D01*
X147350603Y-45477894D01*
X147350596Y-45477886D01*
X147222113Y-45349403D01*
X147222105Y-45349396D01*
X147075092Y-45242584D01*
X146913180Y-45160086D01*
X146913172Y-45160082D01*
X146740344Y-45103927D01*
X146560874Y-45075501D01*
X146560862Y-45075500D01*
X146560861Y-45075500D01*
X146379139Y-45075500D01*
X146379137Y-45075500D01*
X146379125Y-45075501D01*
X146199656Y-45103927D01*
X146199655Y-45103927D01*
X146026827Y-45160082D01*
X146026819Y-45160086D01*
X145864907Y-45242584D01*
X145717894Y-45349396D01*
X145717886Y-45349403D01*
X145589403Y-45477886D01*
X145589396Y-45477894D01*
X145482584Y-45624907D01*
X145400086Y-45786819D01*
X145400082Y-45786827D01*
X145343927Y-45959655D01*
X145343927Y-45959656D01*
X145315501Y-46139125D01*
X145315500Y-46139141D01*
X142544500Y-46139141D01*
X142544500Y-46139139D01*
X142543231Y-46131130D01*
X142525117Y-46016759D01*
X142516072Y-45959654D01*
X142459917Y-45786826D01*
X142377417Y-45624910D01*
X142333002Y-45563779D01*
X142270603Y-45477894D01*
X142270596Y-45477886D01*
X142142113Y-45349403D01*
X142142105Y-45349396D01*
X141995092Y-45242584D01*
X141833180Y-45160086D01*
X141833172Y-45160082D01*
X141660344Y-45103927D01*
X141480874Y-45075501D01*
X141480862Y-45075500D01*
X141480861Y-45075500D01*
X141299139Y-45075500D01*
X141299137Y-45075500D01*
X141299125Y-45075501D01*
X141119656Y-45103927D01*
X141119655Y-45103927D01*
X140946827Y-45160082D01*
X140946819Y-45160086D01*
X140784907Y-45242584D01*
X140637894Y-45349396D01*
X140637886Y-45349403D01*
X140509403Y-45477886D01*
X140509396Y-45477894D01*
X140402584Y-45624907D01*
X140320086Y-45786819D01*
X140320082Y-45786827D01*
X140263927Y-45959655D01*
X140263927Y-45959656D01*
X140235501Y-46139125D01*
X140235500Y-46139141D01*
X140004500Y-46139141D01*
X140004500Y-46139139D01*
X140003231Y-46131130D01*
X139985117Y-46016759D01*
X139976072Y-45959654D01*
X139919917Y-45786826D01*
X139837417Y-45624910D01*
X139793002Y-45563779D01*
X139730603Y-45477894D01*
X139730596Y-45477886D01*
X139602113Y-45349403D01*
X139602105Y-45349396D01*
X139455092Y-45242584D01*
X139293180Y-45160086D01*
X139293172Y-45160082D01*
X139120344Y-45103927D01*
X138940874Y-45075501D01*
X138940862Y-45075500D01*
X138940861Y-45075500D01*
X138759139Y-45075500D01*
X138759137Y-45075500D01*
X138759125Y-45075501D01*
X138579656Y-45103927D01*
X138579655Y-45103927D01*
X138406827Y-45160082D01*
X138406819Y-45160086D01*
X138244907Y-45242584D01*
X138097894Y-45349396D01*
X138097886Y-45349403D01*
X137969403Y-45477886D01*
X137969396Y-45477894D01*
X137862584Y-45624907D01*
X137780086Y-45786819D01*
X137780082Y-45786827D01*
X137723927Y-45959655D01*
X137723927Y-45959656D01*
X137695501Y-46139125D01*
X137695500Y-46139141D01*
X137464500Y-46139141D01*
X137464500Y-46139139D01*
X137463231Y-46131130D01*
X137445117Y-46016759D01*
X137436072Y-45959654D01*
X137379917Y-45786826D01*
X137297417Y-45624910D01*
X137253002Y-45563779D01*
X137190603Y-45477894D01*
X137190596Y-45477886D01*
X137062113Y-45349403D01*
X137062105Y-45349396D01*
X136915092Y-45242584D01*
X136753180Y-45160086D01*
X136753172Y-45160082D01*
X136580344Y-45103927D01*
X136400874Y-45075501D01*
X136400862Y-45075500D01*
X136400861Y-45075500D01*
X136219139Y-45075500D01*
X136219137Y-45075500D01*
X136219125Y-45075501D01*
X136039656Y-45103927D01*
X136039655Y-45103927D01*
X135866827Y-45160082D01*
X135866819Y-45160086D01*
X135704907Y-45242584D01*
X135557894Y-45349396D01*
X135557886Y-45349403D01*
X135429403Y-45477886D01*
X135429396Y-45477894D01*
X135322584Y-45624907D01*
X135240086Y-45786819D01*
X135240082Y-45786827D01*
X135183927Y-45959655D01*
X135183927Y-45959656D01*
X135155501Y-46139125D01*
X135155500Y-46139141D01*
X134924500Y-46139141D01*
X134924500Y-46139139D01*
X134923231Y-46131130D01*
X134905117Y-46016759D01*
X134896072Y-45959654D01*
X134839917Y-45786826D01*
X134757417Y-45624910D01*
X134713002Y-45563779D01*
X134650603Y-45477894D01*
X134650596Y-45477886D01*
X134522113Y-45349403D01*
X134522105Y-45349396D01*
X134375092Y-45242584D01*
X134213180Y-45160086D01*
X134213172Y-45160082D01*
X134040344Y-45103927D01*
X133860874Y-45075501D01*
X133860862Y-45075500D01*
X133860861Y-45075500D01*
X133679139Y-45075500D01*
X133679137Y-45075500D01*
X133679125Y-45075501D01*
X133499656Y-45103927D01*
X133499655Y-45103927D01*
X133326827Y-45160082D01*
X133326819Y-45160086D01*
X133164907Y-45242584D01*
X133017894Y-45349396D01*
X133017886Y-45349403D01*
X132889403Y-45477886D01*
X132889396Y-45477894D01*
X132782584Y-45624907D01*
X132700086Y-45786819D01*
X132700082Y-45786827D01*
X132643927Y-45959655D01*
X132643927Y-45959656D01*
X132615501Y-46139125D01*
X132615500Y-46139141D01*
X129844500Y-46139141D01*
X129844500Y-46139139D01*
X129843231Y-46131130D01*
X129825117Y-46016759D01*
X129816072Y-45959654D01*
X129759917Y-45786826D01*
X129677417Y-45624910D01*
X129633002Y-45563779D01*
X129570603Y-45477894D01*
X129570596Y-45477886D01*
X129442113Y-45349403D01*
X129442105Y-45349396D01*
X129295092Y-45242584D01*
X129133180Y-45160086D01*
X129133172Y-45160082D01*
X128960344Y-45103927D01*
X128780874Y-45075501D01*
X128780862Y-45075500D01*
X128780861Y-45075500D01*
X128599139Y-45075500D01*
X128599137Y-45075500D01*
X128599125Y-45075501D01*
X128419656Y-45103927D01*
X128419655Y-45103927D01*
X128246827Y-45160082D01*
X128246819Y-45160086D01*
X128084907Y-45242584D01*
X127937894Y-45349396D01*
X127937886Y-45349403D01*
X127809403Y-45477886D01*
X127809396Y-45477894D01*
X127702584Y-45624907D01*
X127620086Y-45786819D01*
X127620082Y-45786827D01*
X127563927Y-45959655D01*
X127563927Y-45959656D01*
X127535501Y-46139125D01*
X127535500Y-46139141D01*
X127304500Y-46139141D01*
X127304500Y-46139139D01*
X127303231Y-46131130D01*
X127285117Y-46016759D01*
X127276072Y-45959654D01*
X127219917Y-45786826D01*
X127137417Y-45624910D01*
X127093002Y-45563779D01*
X127030603Y-45477894D01*
X127030596Y-45477886D01*
X126902113Y-45349403D01*
X126902105Y-45349396D01*
X126755092Y-45242584D01*
X126593180Y-45160086D01*
X126593172Y-45160082D01*
X126420344Y-45103927D01*
X126240874Y-45075501D01*
X126240862Y-45075500D01*
X126240861Y-45075500D01*
X126059139Y-45075500D01*
X126059137Y-45075500D01*
X126059125Y-45075501D01*
X125879656Y-45103927D01*
X125879655Y-45103927D01*
X125706827Y-45160082D01*
X125706819Y-45160086D01*
X125544907Y-45242584D01*
X125397894Y-45349396D01*
X125397886Y-45349403D01*
X125269403Y-45477886D01*
X125269396Y-45477894D01*
X125162584Y-45624907D01*
X125080086Y-45786819D01*
X125080082Y-45786827D01*
X125023927Y-45959655D01*
X125023927Y-45959656D01*
X124995501Y-46139125D01*
X124995500Y-46139141D01*
X122224500Y-46139141D01*
X122224500Y-46139139D01*
X122223231Y-46131130D01*
X122205117Y-46016759D01*
X122196072Y-45959654D01*
X122139917Y-45786826D01*
X122057417Y-45624910D01*
X122013002Y-45563779D01*
X121950603Y-45477894D01*
X121950596Y-45477886D01*
X121822113Y-45349403D01*
X121822105Y-45349396D01*
X121675092Y-45242584D01*
X121513180Y-45160086D01*
X121513172Y-45160082D01*
X121340344Y-45103927D01*
X121160874Y-45075501D01*
X121160862Y-45075500D01*
X121160861Y-45075500D01*
X120979139Y-45075500D01*
X120979137Y-45075500D01*
X120979125Y-45075501D01*
X120799656Y-45103927D01*
X120799655Y-45103927D01*
X120626827Y-45160082D01*
X120626819Y-45160086D01*
X120464907Y-45242584D01*
X120317894Y-45349396D01*
X120317886Y-45349403D01*
X120189403Y-45477886D01*
X120189396Y-45477894D01*
X120082584Y-45624907D01*
X120000086Y-45786819D01*
X120000082Y-45786827D01*
X119943927Y-45959655D01*
X119943927Y-45959656D01*
X119915501Y-46139125D01*
X119915500Y-46139141D01*
X119684500Y-46139141D01*
X119684500Y-46139139D01*
X119683231Y-46131130D01*
X119665117Y-46016759D01*
X119656072Y-45959654D01*
X119599917Y-45786826D01*
X119517417Y-45624910D01*
X119473002Y-45563779D01*
X119410603Y-45477894D01*
X119410596Y-45477886D01*
X119282113Y-45349403D01*
X119282105Y-45349396D01*
X119135092Y-45242584D01*
X118973180Y-45160086D01*
X118973172Y-45160082D01*
X118800344Y-45103927D01*
X118620874Y-45075501D01*
X118620862Y-45075500D01*
X118620861Y-45075500D01*
X118439139Y-45075500D01*
X118439137Y-45075500D01*
X118439125Y-45075501D01*
X118259656Y-45103927D01*
X118259655Y-45103927D01*
X118086827Y-45160082D01*
X118086819Y-45160086D01*
X117924907Y-45242584D01*
X117777894Y-45349396D01*
X117777886Y-45349403D01*
X117649403Y-45477886D01*
X117649396Y-45477894D01*
X117542584Y-45624907D01*
X117460086Y-45786819D01*
X117460082Y-45786827D01*
X117403927Y-45959655D01*
X117403927Y-45959656D01*
X117375501Y-46139125D01*
X117375500Y-46139141D01*
X117144500Y-46139141D01*
X117144500Y-46139139D01*
X117143231Y-46131130D01*
X117125117Y-46016759D01*
X117116072Y-45959654D01*
X117059917Y-45786826D01*
X116977417Y-45624910D01*
X116933002Y-45563779D01*
X116870603Y-45477894D01*
X116870596Y-45477886D01*
X116742113Y-45349403D01*
X116742105Y-45349396D01*
X116595092Y-45242584D01*
X116433180Y-45160086D01*
X116433172Y-45160082D01*
X116260344Y-45103927D01*
X116080874Y-45075501D01*
X116080862Y-45075500D01*
X116080861Y-45075500D01*
X115899139Y-45075500D01*
X115899137Y-45075500D01*
X115899125Y-45075501D01*
X115719656Y-45103927D01*
X115719655Y-45103927D01*
X115546827Y-45160082D01*
X115546819Y-45160086D01*
X115384907Y-45242584D01*
X115237894Y-45349396D01*
X115237886Y-45349403D01*
X115109403Y-45477886D01*
X115109396Y-45477894D01*
X115002584Y-45624907D01*
X114920086Y-45786819D01*
X114920082Y-45786827D01*
X114863927Y-45959655D01*
X114863927Y-45959656D01*
X114835501Y-46139125D01*
X114835500Y-46139141D01*
X112064500Y-46139141D01*
X112064500Y-46139139D01*
X112063231Y-46131130D01*
X112045117Y-46016759D01*
X112036072Y-45959654D01*
X111979917Y-45786826D01*
X111897417Y-45624910D01*
X111853002Y-45563779D01*
X111790603Y-45477894D01*
X111790596Y-45477886D01*
X111662113Y-45349403D01*
X111662105Y-45349396D01*
X111515092Y-45242584D01*
X111353180Y-45160086D01*
X111353172Y-45160082D01*
X111180344Y-45103927D01*
X111000874Y-45075501D01*
X111000862Y-45075500D01*
X111000861Y-45075500D01*
X110819139Y-45075500D01*
X110819137Y-45075500D01*
X110819125Y-45075501D01*
X110639656Y-45103927D01*
X110639655Y-45103927D01*
X110466827Y-45160082D01*
X110466819Y-45160086D01*
X110304907Y-45242584D01*
X110157894Y-45349396D01*
X110157886Y-45349403D01*
X110029403Y-45477886D01*
X110029396Y-45477894D01*
X109922584Y-45624907D01*
X109840086Y-45786819D01*
X109840082Y-45786827D01*
X109783927Y-45959655D01*
X109783927Y-45959656D01*
X109755501Y-46139125D01*
X109755500Y-46139141D01*
X109524500Y-46139141D01*
X109524500Y-46139139D01*
X109523231Y-46131130D01*
X109505117Y-46016759D01*
X109496072Y-45959654D01*
X109439917Y-45786826D01*
X109357417Y-45624910D01*
X109313002Y-45563779D01*
X109250603Y-45477894D01*
X109250596Y-45477886D01*
X109122113Y-45349403D01*
X109122105Y-45349396D01*
X108975092Y-45242584D01*
X108813180Y-45160086D01*
X108813172Y-45160082D01*
X108640344Y-45103927D01*
X108460874Y-45075501D01*
X108460862Y-45075500D01*
X108460861Y-45075500D01*
X108279139Y-45075500D01*
X108279137Y-45075500D01*
X108279125Y-45075501D01*
X108099656Y-45103927D01*
X108099655Y-45103927D01*
X107926827Y-45160082D01*
X107926819Y-45160086D01*
X107764907Y-45242584D01*
X107617894Y-45349396D01*
X107617886Y-45349403D01*
X107489403Y-45477886D01*
X107489396Y-45477894D01*
X107382584Y-45624907D01*
X107300086Y-45786819D01*
X107300082Y-45786827D01*
X107243927Y-45959655D01*
X107243927Y-45959656D01*
X107215501Y-46139125D01*
X107215500Y-46139141D01*
X98443133Y-46139141D01*
X98451017Y-46111776D01*
X98453321Y-46105189D01*
X98566502Y-45831947D01*
X98569530Y-45825664D01*
X98712570Y-45566852D01*
X98716292Y-45560925D01*
X98887419Y-45319745D01*
X98891778Y-45314279D01*
X99088828Y-45093779D01*
X99093782Y-45088826D01*
X99108694Y-45075500D01*
X99314279Y-44891778D01*
X99319745Y-44887419D01*
X99560925Y-44716292D01*
X99566852Y-44712570D01*
X99825664Y-44569530D01*
X99831947Y-44566502D01*
X100105189Y-44453321D01*
X100111780Y-44451016D01*
X100395943Y-44369150D01*
X100402747Y-44367597D01*
X100694295Y-44318061D01*
X100701248Y-44317277D01*
X100998255Y-44300598D01*
X101001759Y-44300500D01*
X101047595Y-44300500D01*
X102960438Y-44300500D01*
X161941001Y-44300500D01*
X161948614Y-44301053D01*
G37*
G04 #@! TD.AperFunction*
M02*
