G04 #@! TF.GenerationSoftware,KiCad,Pcbnew,9.0.2*
G04 #@! TF.CreationDate,2025-10-25T21:31:50-05:00*
G04 #@! TF.ProjectId,telescope_driver,74656c65-7363-46f7-9065-5f6472697665,rev?*
G04 #@! TF.SameCoordinates,Original*
G04 #@! TF.FileFunction,Soldermask,Bot*
G04 #@! TF.FilePolarity,Negative*
%FSLAX46Y46*%
G04 Gerber Fmt 4.6, Leading zero omitted, Abs format (unit mm)*
G04 Created by KiCad (PCBNEW 9.0.2) date 2025-10-25 21:31:50*
%MOMM*%
%LPD*%
G01*
G04 APERTURE LIST*
G04 Aperture macros list*
%AMRoundRect*
0 Rectangle with rounded corners*
0 $1 Rounding radius*
0 $2 $3 $4 $5 $6 $7 $8 $9 X,Y pos of 4 corners*
0 Add a 4 corners polygon primitive as box body*
4,1,4,$2,$3,$4,$5,$6,$7,$8,$9,$2,$3,0*
0 Add four circle primitives for the rounded corners*
1,1,$1+$1,$2,$3*
1,1,$1+$1,$4,$5*
1,1,$1+$1,$6,$7*
1,1,$1+$1,$8,$9*
0 Add four rect primitives between the rounded corners*
20,1,$1+$1,$2,$3,$4,$5,0*
20,1,$1+$1,$4,$5,$6,$7,0*
20,1,$1+$1,$6,$7,$8,$9,0*
20,1,$1+$1,$8,$9,$2,$3,0*%
G04 Aperture macros list end*
%ADD10RoundRect,0.312500X0.587500X-0.437500X0.587500X0.437500X-0.587500X0.437500X-0.587500X-0.437500X0*%
%ADD11O,1.800000X1.500000*%
%ADD12C,2.700000*%
%ADD13R,2.000000X2.000000*%
%ADD14C,2.000000*%
%ADD15RoundRect,0.102000X-1.225000X-1.225000X1.225000X-1.225000X1.225000X1.225000X-1.225000X1.225000X0*%
%ADD16C,2.654000*%
%ADD17RoundRect,0.312500X-0.587500X0.437500X-0.587500X-0.437500X0.587500X-0.437500X0.587500X0.437500X0*%
%ADD18RoundRect,0.102000X-1.312500X-1.312500X1.312500X-1.312500X1.312500X1.312500X-1.312500X1.312500X0*%
%ADD19C,2.829000*%
%ADD20R,1.700000X1.700000*%
%ADD21O,1.700000X1.700000*%
G04 APERTURE END LIST*
D10*
X152550000Y-85200000D03*
D11*
X152550000Y-83200000D03*
X152550000Y-81200000D03*
X152550000Y-79200000D03*
D12*
X161500000Y-47500000D03*
D13*
X132710000Y-73450000D03*
D14*
X137790000Y-73450000D03*
X111000000Y-79850000D03*
X111000000Y-87470000D03*
D15*
X124000000Y-85450000D03*
D16*
X124000000Y-90150000D03*
X124000000Y-94850000D03*
D17*
X160550000Y-79200000D03*
D11*
X160550000Y-81200000D03*
X160550000Y-83200000D03*
X160550000Y-85200000D03*
D12*
X103500000Y-96500000D03*
D18*
X112270000Y-97000000D03*
D19*
X116230000Y-97000000D03*
D12*
X161500000Y-96500000D03*
D20*
X108370000Y-48770000D03*
D21*
X108370000Y-46230000D03*
X110910000Y-48770000D03*
X110910000Y-46230000D03*
X113450000Y-48770000D03*
X113450000Y-46230000D03*
X115990000Y-48770000D03*
X115990000Y-46230000D03*
X118530000Y-48770000D03*
X118530000Y-46230000D03*
X121070000Y-48770000D03*
X121070000Y-46230000D03*
X123610000Y-48770000D03*
X123610000Y-46230000D03*
X126150000Y-48770000D03*
X126150000Y-46230000D03*
X128690000Y-48770000D03*
X128690000Y-46230000D03*
X131230000Y-48770000D03*
X131230000Y-46230000D03*
X133770000Y-48770000D03*
X133770000Y-46230000D03*
X136310000Y-48770000D03*
X136310000Y-46230000D03*
X138850000Y-48770000D03*
X138850000Y-46230000D03*
X141390000Y-48770000D03*
X141390000Y-46230000D03*
X143930000Y-48770000D03*
X143930000Y-46230000D03*
X146470000Y-48770000D03*
X146470000Y-46230000D03*
X149010000Y-48770000D03*
X149010000Y-46230000D03*
X151550000Y-48770000D03*
X151550000Y-46230000D03*
X154090000Y-48770000D03*
X154090000Y-46230000D03*
X156630000Y-48770000D03*
X156630000Y-46230000D03*
M02*
