G04 #@! TF.GenerationSoftware,KiCad,Pcbnew,9.0.2*
G04 #@! TF.CreationDate,2025-10-25T21:31:50-05:00*
G04 #@! TF.ProjectId,telescope_driver,74656c65-7363-46f7-9065-5f6472697665,rev?*
G04 #@! TF.SameCoordinates,Original*
G04 #@! TF.FileFunction,Legend,Top*
G04 #@! TF.FilePolarity,Positive*
%FSLAX46Y46*%
G04 Gerber Fmt 4.6, Leading zero omitted, Abs format (unit mm)*
G04 Created by KiCad (PCBNEW 9.0.2) date 2025-10-25 21:31:50*
%MOMM*%
%LPD*%
G01*
G04 APERTURE LIST*
%ADD10C,0.200000*%
%ADD11C,0.160000*%
%ADD12C,0.150000*%
%ADD13C,0.120000*%
G04 APERTURE END LIST*
D10*
X99679675Y-97141126D02*
X98679675Y-97141126D01*
X98679675Y-97141126D02*
X99393960Y-96807793D01*
X99393960Y-96807793D02*
X98679675Y-96474460D01*
X98679675Y-96474460D02*
X99679675Y-96474460D01*
X99679675Y-95569698D02*
X99155865Y-95569698D01*
X99155865Y-95569698D02*
X99060627Y-95617317D01*
X99060627Y-95617317D02*
X99013008Y-95712555D01*
X99013008Y-95712555D02*
X99013008Y-95903031D01*
X99013008Y-95903031D02*
X99060627Y-95998269D01*
X99632056Y-95569698D02*
X99679675Y-95664936D01*
X99679675Y-95664936D02*
X99679675Y-95903031D01*
X99679675Y-95903031D02*
X99632056Y-95998269D01*
X99632056Y-95998269D02*
X99536817Y-96045888D01*
X99536817Y-96045888D02*
X99441579Y-96045888D01*
X99441579Y-96045888D02*
X99346341Y-95998269D01*
X99346341Y-95998269D02*
X99298722Y-95903031D01*
X99298722Y-95903031D02*
X99298722Y-95664936D01*
X99298722Y-95664936D02*
X99251103Y-95569698D01*
X99679675Y-94664936D02*
X98679675Y-94664936D01*
X99632056Y-94664936D02*
X99679675Y-94760174D01*
X99679675Y-94760174D02*
X99679675Y-94950650D01*
X99679675Y-94950650D02*
X99632056Y-95045888D01*
X99632056Y-95045888D02*
X99584436Y-95093507D01*
X99584436Y-95093507D02*
X99489198Y-95141126D01*
X99489198Y-95141126D02*
X99203484Y-95141126D01*
X99203484Y-95141126D02*
X99108246Y-95093507D01*
X99108246Y-95093507D02*
X99060627Y-95045888D01*
X99060627Y-95045888D02*
X99013008Y-94950650D01*
X99013008Y-94950650D02*
X99013008Y-94760174D01*
X99013008Y-94760174D02*
X99060627Y-94664936D01*
X99632056Y-93807793D02*
X99679675Y-93903031D01*
X99679675Y-93903031D02*
X99679675Y-94093507D01*
X99679675Y-94093507D02*
X99632056Y-94188745D01*
X99632056Y-94188745D02*
X99536817Y-94236364D01*
X99536817Y-94236364D02*
X99155865Y-94236364D01*
X99155865Y-94236364D02*
X99060627Y-94188745D01*
X99060627Y-94188745D02*
X99013008Y-94093507D01*
X99013008Y-94093507D02*
X99013008Y-93903031D01*
X99013008Y-93903031D02*
X99060627Y-93807793D01*
X99060627Y-93807793D02*
X99155865Y-93760174D01*
X99155865Y-93760174D02*
X99251103Y-93760174D01*
X99251103Y-93760174D02*
X99346341Y-94236364D01*
X99679675Y-92569697D02*
X98679675Y-92569697D01*
X99060627Y-92569697D02*
X99013008Y-92474459D01*
X99013008Y-92474459D02*
X99013008Y-92283983D01*
X99013008Y-92283983D02*
X99060627Y-92188745D01*
X99060627Y-92188745D02*
X99108246Y-92141126D01*
X99108246Y-92141126D02*
X99203484Y-92093507D01*
X99203484Y-92093507D02*
X99489198Y-92093507D01*
X99489198Y-92093507D02*
X99584436Y-92141126D01*
X99584436Y-92141126D02*
X99632056Y-92188745D01*
X99632056Y-92188745D02*
X99679675Y-92283983D01*
X99679675Y-92283983D02*
X99679675Y-92474459D01*
X99679675Y-92474459D02*
X99632056Y-92569697D01*
X99013008Y-91760173D02*
X99679675Y-91522078D01*
X99013008Y-91283983D02*
X99679675Y-91522078D01*
X99679675Y-91522078D02*
X99917770Y-91617316D01*
X99917770Y-91617316D02*
X99965389Y-91664935D01*
X99965389Y-91664935D02*
X100013008Y-91760173D01*
X98679675Y-90283982D02*
X98679675Y-89712554D01*
X99679675Y-89998268D02*
X98679675Y-89998268D01*
X99013008Y-89474458D02*
X99679675Y-89236363D01*
X99013008Y-88998268D02*
X99679675Y-89236363D01*
X99679675Y-89236363D02*
X99917770Y-89331601D01*
X99917770Y-89331601D02*
X99965389Y-89379220D01*
X99965389Y-89379220D02*
X100013008Y-89474458D01*
X99679675Y-88474458D02*
X99632056Y-88569696D01*
X99632056Y-88569696D02*
X99536817Y-88617315D01*
X99536817Y-88617315D02*
X98679675Y-88617315D01*
X99632056Y-87712553D02*
X99679675Y-87807791D01*
X99679675Y-87807791D02*
X99679675Y-87998267D01*
X99679675Y-87998267D02*
X99632056Y-88093505D01*
X99632056Y-88093505D02*
X99536817Y-88141124D01*
X99536817Y-88141124D02*
X99155865Y-88141124D01*
X99155865Y-88141124D02*
X99060627Y-88093505D01*
X99060627Y-88093505D02*
X99013008Y-87998267D01*
X99013008Y-87998267D02*
X99013008Y-87807791D01*
X99013008Y-87807791D02*
X99060627Y-87712553D01*
X99060627Y-87712553D02*
X99155865Y-87664934D01*
X99155865Y-87664934D02*
X99251103Y-87664934D01*
X99251103Y-87664934D02*
X99346341Y-88141124D01*
X99679675Y-87236362D02*
X99013008Y-87236362D01*
X99203484Y-87236362D02*
X99108246Y-87188743D01*
X99108246Y-87188743D02*
X99060627Y-87141124D01*
X99060627Y-87141124D02*
X99013008Y-87045886D01*
X99013008Y-87045886D02*
X99013008Y-86950648D01*
X99679675Y-85855409D02*
X98679675Y-85855409D01*
X98679675Y-85855409D02*
X98679675Y-85474457D01*
X98679675Y-85474457D02*
X98727294Y-85379219D01*
X98727294Y-85379219D02*
X98774913Y-85331600D01*
X98774913Y-85331600D02*
X98870151Y-85283981D01*
X98870151Y-85283981D02*
X99013008Y-85283981D01*
X99013008Y-85283981D02*
X99108246Y-85331600D01*
X99108246Y-85331600D02*
X99155865Y-85379219D01*
X99155865Y-85379219D02*
X99203484Y-85474457D01*
X99203484Y-85474457D02*
X99203484Y-85855409D01*
X99679675Y-84426838D02*
X99155865Y-84426838D01*
X99155865Y-84426838D02*
X99060627Y-84474457D01*
X99060627Y-84474457D02*
X99013008Y-84569695D01*
X99013008Y-84569695D02*
X99013008Y-84760171D01*
X99013008Y-84760171D02*
X99060627Y-84855409D01*
X99632056Y-84426838D02*
X99679675Y-84522076D01*
X99679675Y-84522076D02*
X99679675Y-84760171D01*
X99679675Y-84760171D02*
X99632056Y-84855409D01*
X99632056Y-84855409D02*
X99536817Y-84903028D01*
X99536817Y-84903028D02*
X99441579Y-84903028D01*
X99441579Y-84903028D02*
X99346341Y-84855409D01*
X99346341Y-84855409D02*
X99298722Y-84760171D01*
X99298722Y-84760171D02*
X99298722Y-84522076D01*
X99298722Y-84522076D02*
X99251103Y-84426838D01*
X99013008Y-84093504D02*
X99013008Y-83712552D01*
X98679675Y-83950647D02*
X99536817Y-83950647D01*
X99536817Y-83950647D02*
X99632056Y-83903028D01*
X99632056Y-83903028D02*
X99679675Y-83807790D01*
X99679675Y-83807790D02*
X99679675Y-83712552D01*
X99013008Y-83522075D02*
X99013008Y-83141123D01*
X98679675Y-83379218D02*
X99536817Y-83379218D01*
X99536817Y-83379218D02*
X99632056Y-83331599D01*
X99632056Y-83331599D02*
X99679675Y-83236361D01*
X99679675Y-83236361D02*
X99679675Y-83141123D01*
X99632056Y-82426837D02*
X99679675Y-82522075D01*
X99679675Y-82522075D02*
X99679675Y-82712551D01*
X99679675Y-82712551D02*
X99632056Y-82807789D01*
X99632056Y-82807789D02*
X99536817Y-82855408D01*
X99536817Y-82855408D02*
X99155865Y-82855408D01*
X99155865Y-82855408D02*
X99060627Y-82807789D01*
X99060627Y-82807789D02*
X99013008Y-82712551D01*
X99013008Y-82712551D02*
X99013008Y-82522075D01*
X99013008Y-82522075D02*
X99060627Y-82426837D01*
X99060627Y-82426837D02*
X99155865Y-82379218D01*
X99155865Y-82379218D02*
X99251103Y-82379218D01*
X99251103Y-82379218D02*
X99346341Y-82855408D01*
X99679675Y-81950646D02*
X99013008Y-81950646D01*
X99203484Y-81950646D02*
X99108246Y-81903027D01*
X99108246Y-81903027D02*
X99060627Y-81855408D01*
X99060627Y-81855408D02*
X99013008Y-81760170D01*
X99013008Y-81760170D02*
X99013008Y-81664932D01*
X99632056Y-81379217D02*
X99679675Y-81283979D01*
X99679675Y-81283979D02*
X99679675Y-81093503D01*
X99679675Y-81093503D02*
X99632056Y-80998265D01*
X99632056Y-80998265D02*
X99536817Y-80950646D01*
X99536817Y-80950646D02*
X99489198Y-80950646D01*
X99489198Y-80950646D02*
X99393960Y-80998265D01*
X99393960Y-80998265D02*
X99346341Y-81093503D01*
X99346341Y-81093503D02*
X99346341Y-81236360D01*
X99346341Y-81236360D02*
X99298722Y-81331598D01*
X99298722Y-81331598D02*
X99203484Y-81379217D01*
X99203484Y-81379217D02*
X99155865Y-81379217D01*
X99155865Y-81379217D02*
X99060627Y-81331598D01*
X99060627Y-81331598D02*
X99013008Y-81236360D01*
X99013008Y-81236360D02*
X99013008Y-81093503D01*
X99013008Y-81093503D02*
X99060627Y-80998265D01*
X99679675Y-80379217D02*
X99632056Y-80474455D01*
X99632056Y-80474455D02*
X99584436Y-80522074D01*
X99584436Y-80522074D02*
X99489198Y-80569693D01*
X99489198Y-80569693D02*
X99203484Y-80569693D01*
X99203484Y-80569693D02*
X99108246Y-80522074D01*
X99108246Y-80522074D02*
X99060627Y-80474455D01*
X99060627Y-80474455D02*
X99013008Y-80379217D01*
X99013008Y-80379217D02*
X99013008Y-80236360D01*
X99013008Y-80236360D02*
X99060627Y-80141122D01*
X99060627Y-80141122D02*
X99108246Y-80093503D01*
X99108246Y-80093503D02*
X99203484Y-80045884D01*
X99203484Y-80045884D02*
X99489198Y-80045884D01*
X99489198Y-80045884D02*
X99584436Y-80093503D01*
X99584436Y-80093503D02*
X99632056Y-80141122D01*
X99632056Y-80141122D02*
X99679675Y-80236360D01*
X99679675Y-80236360D02*
X99679675Y-80379217D01*
X99013008Y-79617312D02*
X99679675Y-79617312D01*
X99108246Y-79617312D02*
X99060627Y-79569693D01*
X99060627Y-79569693D02*
X99013008Y-79474455D01*
X99013008Y-79474455D02*
X99013008Y-79331598D01*
X99013008Y-79331598D02*
X99060627Y-79236360D01*
X99060627Y-79236360D02*
X99155865Y-79188741D01*
X99155865Y-79188741D02*
X99679675Y-79188741D01*
D11*
X152641666Y-88004299D02*
X152641666Y-88718584D01*
X152641666Y-88718584D02*
X152594047Y-88861441D01*
X152594047Y-88861441D02*
X152498809Y-88956680D01*
X152498809Y-88956680D02*
X152355952Y-89004299D01*
X152355952Y-89004299D02*
X152260714Y-89004299D01*
X153022619Y-88004299D02*
X153641666Y-88004299D01*
X153641666Y-88004299D02*
X153308333Y-88385251D01*
X153308333Y-88385251D02*
X153451190Y-88385251D01*
X153451190Y-88385251D02*
X153546428Y-88432870D01*
X153546428Y-88432870D02*
X153594047Y-88480489D01*
X153594047Y-88480489D02*
X153641666Y-88575727D01*
X153641666Y-88575727D02*
X153641666Y-88813822D01*
X153641666Y-88813822D02*
X153594047Y-88909060D01*
X153594047Y-88909060D02*
X153546428Y-88956680D01*
X153546428Y-88956680D02*
X153451190Y-89004299D01*
X153451190Y-89004299D02*
X153165476Y-89004299D01*
X153165476Y-89004299D02*
X153070238Y-88956680D01*
X153070238Y-88956680D02*
X153022619Y-88909060D01*
X138638095Y-77804299D02*
X138638095Y-78613822D01*
X138638095Y-78613822D02*
X138685714Y-78709060D01*
X138685714Y-78709060D02*
X138733333Y-78756680D01*
X138733333Y-78756680D02*
X138828571Y-78804299D01*
X138828571Y-78804299D02*
X139019047Y-78804299D01*
X139019047Y-78804299D02*
X139114285Y-78756680D01*
X139114285Y-78756680D02*
X139161904Y-78709060D01*
X139161904Y-78709060D02*
X139209523Y-78613822D01*
X139209523Y-78613822D02*
X139209523Y-77804299D01*
X139590476Y-77804299D02*
X140209523Y-77804299D01*
X140209523Y-77804299D02*
X139876190Y-78185251D01*
X139876190Y-78185251D02*
X140019047Y-78185251D01*
X140019047Y-78185251D02*
X140114285Y-78232870D01*
X140114285Y-78232870D02*
X140161904Y-78280489D01*
X140161904Y-78280489D02*
X140209523Y-78375727D01*
X140209523Y-78375727D02*
X140209523Y-78613822D01*
X140209523Y-78613822D02*
X140161904Y-78709060D01*
X140161904Y-78709060D02*
X140114285Y-78756680D01*
X140114285Y-78756680D02*
X140019047Y-78804299D01*
X140019047Y-78804299D02*
X139733333Y-78804299D01*
X139733333Y-78804299D02*
X139638095Y-78756680D01*
X139638095Y-78756680D02*
X139590476Y-78709060D01*
X144960736Y-66068126D02*
X144893393Y-66068126D01*
X144893393Y-66068126D02*
X144758706Y-66000783D01*
X144758706Y-66000783D02*
X144691362Y-65933439D01*
X144691362Y-65933439D02*
X144624019Y-65798752D01*
X144624019Y-65798752D02*
X144624019Y-65664065D01*
X144624019Y-65664065D02*
X144657691Y-65563050D01*
X144657691Y-65563050D02*
X144758706Y-65394691D01*
X144758706Y-65394691D02*
X144859721Y-65293676D01*
X144859721Y-65293676D02*
X145028080Y-65192661D01*
X145028080Y-65192661D02*
X145129095Y-65158989D01*
X145129095Y-65158989D02*
X145263782Y-65158989D01*
X145263782Y-65158989D02*
X145398469Y-65226332D01*
X145398469Y-65226332D02*
X145465813Y-65293676D01*
X145465813Y-65293676D02*
X145533156Y-65428363D01*
X145533156Y-65428363D02*
X145533156Y-65495706D01*
X145566828Y-66808905D02*
X145162767Y-66404844D01*
X145364797Y-66606874D02*
X146071904Y-65899767D01*
X146071904Y-65899767D02*
X145903545Y-65933439D01*
X145903545Y-65933439D02*
X145768858Y-65933439D01*
X145768858Y-65933439D02*
X145667843Y-65899767D01*
X146509637Y-66337500D02*
X146981042Y-66808905D01*
X146981042Y-66808905D02*
X145970889Y-67212966D01*
X134035714Y-69771099D02*
X134035714Y-68771099D01*
X134035714Y-68771099D02*
X134273809Y-68771099D01*
X134273809Y-68771099D02*
X134416666Y-68818718D01*
X134416666Y-68818718D02*
X134511904Y-68913956D01*
X134511904Y-68913956D02*
X134559523Y-69009194D01*
X134559523Y-69009194D02*
X134607142Y-69199670D01*
X134607142Y-69199670D02*
X134607142Y-69342527D01*
X134607142Y-69342527D02*
X134559523Y-69533003D01*
X134559523Y-69533003D02*
X134511904Y-69628241D01*
X134511904Y-69628241D02*
X134416666Y-69723480D01*
X134416666Y-69723480D02*
X134273809Y-69771099D01*
X134273809Y-69771099D02*
X134035714Y-69771099D01*
X135559523Y-69771099D02*
X134988095Y-69771099D01*
X135273809Y-69771099D02*
X135273809Y-68771099D01*
X135273809Y-68771099D02*
X135178571Y-68913956D01*
X135178571Y-68913956D02*
X135083333Y-69009194D01*
X135083333Y-69009194D02*
X134988095Y-69056813D01*
X136511904Y-69771099D02*
X135940476Y-69771099D01*
X136226190Y-69771099D02*
X136226190Y-68771099D01*
X136226190Y-68771099D02*
X136130952Y-68913956D01*
X136130952Y-68913956D02*
X136035714Y-69009194D01*
X136035714Y-69009194D02*
X135940476Y-69056813D01*
X111333333Y-77254299D02*
X110857143Y-77254299D01*
X110857143Y-77254299D02*
X110857143Y-76254299D01*
X112190476Y-77254299D02*
X111619048Y-77254299D01*
X111904762Y-77254299D02*
X111904762Y-76254299D01*
X111904762Y-76254299D02*
X111809524Y-76397156D01*
X111809524Y-76397156D02*
X111714286Y-76492394D01*
X111714286Y-76492394D02*
X111619048Y-76540013D01*
X137482142Y-82434060D02*
X137434523Y-82481680D01*
X137434523Y-82481680D02*
X137291666Y-82529299D01*
X137291666Y-82529299D02*
X137196428Y-82529299D01*
X137196428Y-82529299D02*
X137053571Y-82481680D01*
X137053571Y-82481680D02*
X136958333Y-82386441D01*
X136958333Y-82386441D02*
X136910714Y-82291203D01*
X136910714Y-82291203D02*
X136863095Y-82100727D01*
X136863095Y-82100727D02*
X136863095Y-81957870D01*
X136863095Y-81957870D02*
X136910714Y-81767394D01*
X136910714Y-81767394D02*
X136958333Y-81672156D01*
X136958333Y-81672156D02*
X137053571Y-81576918D01*
X137053571Y-81576918D02*
X137196428Y-81529299D01*
X137196428Y-81529299D02*
X137291666Y-81529299D01*
X137291666Y-81529299D02*
X137434523Y-81576918D01*
X137434523Y-81576918D02*
X137482142Y-81624537D01*
X137863095Y-81624537D02*
X137910714Y-81576918D01*
X137910714Y-81576918D02*
X138005952Y-81529299D01*
X138005952Y-81529299D02*
X138244047Y-81529299D01*
X138244047Y-81529299D02*
X138339285Y-81576918D01*
X138339285Y-81576918D02*
X138386904Y-81624537D01*
X138386904Y-81624537D02*
X138434523Y-81719775D01*
X138434523Y-81719775D02*
X138434523Y-81815013D01*
X138434523Y-81815013D02*
X138386904Y-81957870D01*
X138386904Y-81957870D02*
X137815476Y-82529299D01*
X137815476Y-82529299D02*
X138434523Y-82529299D01*
X138910714Y-82529299D02*
X139101190Y-82529299D01*
X139101190Y-82529299D02*
X139196428Y-82481680D01*
X139196428Y-82481680D02*
X139244047Y-82434060D01*
X139244047Y-82434060D02*
X139339285Y-82291203D01*
X139339285Y-82291203D02*
X139386904Y-82100727D01*
X139386904Y-82100727D02*
X139386904Y-81719775D01*
X139386904Y-81719775D02*
X139339285Y-81624537D01*
X139339285Y-81624537D02*
X139291666Y-81576918D01*
X139291666Y-81576918D02*
X139196428Y-81529299D01*
X139196428Y-81529299D02*
X139005952Y-81529299D01*
X139005952Y-81529299D02*
X138910714Y-81576918D01*
X138910714Y-81576918D02*
X138863095Y-81624537D01*
X138863095Y-81624537D02*
X138815476Y-81719775D01*
X138815476Y-81719775D02*
X138815476Y-81957870D01*
X138815476Y-81957870D02*
X138863095Y-82053108D01*
X138863095Y-82053108D02*
X138910714Y-82100727D01*
X138910714Y-82100727D02*
X139005952Y-82148346D01*
X139005952Y-82148346D02*
X139196428Y-82148346D01*
X139196428Y-82148346D02*
X139291666Y-82100727D01*
X139291666Y-82100727D02*
X139339285Y-82053108D01*
X139339285Y-82053108D02*
X139386904Y-81957870D01*
X115993333Y-57219060D02*
X115945714Y-57266680D01*
X115945714Y-57266680D02*
X115802857Y-57314299D01*
X115802857Y-57314299D02*
X115707619Y-57314299D01*
X115707619Y-57314299D02*
X115564762Y-57266680D01*
X115564762Y-57266680D02*
X115469524Y-57171441D01*
X115469524Y-57171441D02*
X115421905Y-57076203D01*
X115421905Y-57076203D02*
X115374286Y-56885727D01*
X115374286Y-56885727D02*
X115374286Y-56742870D01*
X115374286Y-56742870D02*
X115421905Y-56552394D01*
X115421905Y-56552394D02*
X115469524Y-56457156D01*
X115469524Y-56457156D02*
X115564762Y-56361918D01*
X115564762Y-56361918D02*
X115707619Y-56314299D01*
X115707619Y-56314299D02*
X115802857Y-56314299D01*
X115802857Y-56314299D02*
X115945714Y-56361918D01*
X115945714Y-56361918D02*
X115993333Y-56409537D01*
X116898095Y-56314299D02*
X116421905Y-56314299D01*
X116421905Y-56314299D02*
X116374286Y-56790489D01*
X116374286Y-56790489D02*
X116421905Y-56742870D01*
X116421905Y-56742870D02*
X116517143Y-56695251D01*
X116517143Y-56695251D02*
X116755238Y-56695251D01*
X116755238Y-56695251D02*
X116850476Y-56742870D01*
X116850476Y-56742870D02*
X116898095Y-56790489D01*
X116898095Y-56790489D02*
X116945714Y-56885727D01*
X116945714Y-56885727D02*
X116945714Y-57123822D01*
X116945714Y-57123822D02*
X116898095Y-57219060D01*
X116898095Y-57219060D02*
X116850476Y-57266680D01*
X116850476Y-57266680D02*
X116755238Y-57314299D01*
X116755238Y-57314299D02*
X116517143Y-57314299D01*
X116517143Y-57314299D02*
X116421905Y-57266680D01*
X116421905Y-57266680D02*
X116374286Y-57219060D01*
X108207142Y-64859060D02*
X108159523Y-64906680D01*
X108159523Y-64906680D02*
X108016666Y-64954299D01*
X108016666Y-64954299D02*
X107921428Y-64954299D01*
X107921428Y-64954299D02*
X107778571Y-64906680D01*
X107778571Y-64906680D02*
X107683333Y-64811441D01*
X107683333Y-64811441D02*
X107635714Y-64716203D01*
X107635714Y-64716203D02*
X107588095Y-64525727D01*
X107588095Y-64525727D02*
X107588095Y-64382870D01*
X107588095Y-64382870D02*
X107635714Y-64192394D01*
X107635714Y-64192394D02*
X107683333Y-64097156D01*
X107683333Y-64097156D02*
X107778571Y-64001918D01*
X107778571Y-64001918D02*
X107921428Y-63954299D01*
X107921428Y-63954299D02*
X108016666Y-63954299D01*
X108016666Y-63954299D02*
X108159523Y-64001918D01*
X108159523Y-64001918D02*
X108207142Y-64049537D01*
X109159523Y-64954299D02*
X108588095Y-64954299D01*
X108873809Y-64954299D02*
X108873809Y-63954299D01*
X108873809Y-63954299D02*
X108778571Y-64097156D01*
X108778571Y-64097156D02*
X108683333Y-64192394D01*
X108683333Y-64192394D02*
X108588095Y-64240013D01*
X109540476Y-64049537D02*
X109588095Y-64001918D01*
X109588095Y-64001918D02*
X109683333Y-63954299D01*
X109683333Y-63954299D02*
X109921428Y-63954299D01*
X109921428Y-63954299D02*
X110016666Y-64001918D01*
X110016666Y-64001918D02*
X110064285Y-64049537D01*
X110064285Y-64049537D02*
X110111904Y-64144775D01*
X110111904Y-64144775D02*
X110111904Y-64240013D01*
X110111904Y-64240013D02*
X110064285Y-64382870D01*
X110064285Y-64382870D02*
X109492857Y-64954299D01*
X109492857Y-64954299D02*
X110111904Y-64954299D01*
X125853333Y-53479060D02*
X125805714Y-53526680D01*
X125805714Y-53526680D02*
X125662857Y-53574299D01*
X125662857Y-53574299D02*
X125567619Y-53574299D01*
X125567619Y-53574299D02*
X125424762Y-53526680D01*
X125424762Y-53526680D02*
X125329524Y-53431441D01*
X125329524Y-53431441D02*
X125281905Y-53336203D01*
X125281905Y-53336203D02*
X125234286Y-53145727D01*
X125234286Y-53145727D02*
X125234286Y-53002870D01*
X125234286Y-53002870D02*
X125281905Y-52812394D01*
X125281905Y-52812394D02*
X125329524Y-52717156D01*
X125329524Y-52717156D02*
X125424762Y-52621918D01*
X125424762Y-52621918D02*
X125567619Y-52574299D01*
X125567619Y-52574299D02*
X125662857Y-52574299D01*
X125662857Y-52574299D02*
X125805714Y-52621918D01*
X125805714Y-52621918D02*
X125853333Y-52669537D01*
X126186667Y-52574299D02*
X126805714Y-52574299D01*
X126805714Y-52574299D02*
X126472381Y-52955251D01*
X126472381Y-52955251D02*
X126615238Y-52955251D01*
X126615238Y-52955251D02*
X126710476Y-53002870D01*
X126710476Y-53002870D02*
X126758095Y-53050489D01*
X126758095Y-53050489D02*
X126805714Y-53145727D01*
X126805714Y-53145727D02*
X126805714Y-53383822D01*
X126805714Y-53383822D02*
X126758095Y-53479060D01*
X126758095Y-53479060D02*
X126710476Y-53526680D01*
X126710476Y-53526680D02*
X126615238Y-53574299D01*
X126615238Y-53574299D02*
X126329524Y-53574299D01*
X126329524Y-53574299D02*
X126234286Y-53526680D01*
X126234286Y-53526680D02*
X126186667Y-53479060D01*
X146833333Y-58139060D02*
X146785714Y-58186680D01*
X146785714Y-58186680D02*
X146642857Y-58234299D01*
X146642857Y-58234299D02*
X146547619Y-58234299D01*
X146547619Y-58234299D02*
X146404762Y-58186680D01*
X146404762Y-58186680D02*
X146309524Y-58091441D01*
X146309524Y-58091441D02*
X146261905Y-57996203D01*
X146261905Y-57996203D02*
X146214286Y-57805727D01*
X146214286Y-57805727D02*
X146214286Y-57662870D01*
X146214286Y-57662870D02*
X146261905Y-57472394D01*
X146261905Y-57472394D02*
X146309524Y-57377156D01*
X146309524Y-57377156D02*
X146404762Y-57281918D01*
X146404762Y-57281918D02*
X146547619Y-57234299D01*
X146547619Y-57234299D02*
X146642857Y-57234299D01*
X146642857Y-57234299D02*
X146785714Y-57281918D01*
X146785714Y-57281918D02*
X146833333Y-57329537D01*
X147690476Y-57234299D02*
X147500000Y-57234299D01*
X147500000Y-57234299D02*
X147404762Y-57281918D01*
X147404762Y-57281918D02*
X147357143Y-57329537D01*
X147357143Y-57329537D02*
X147261905Y-57472394D01*
X147261905Y-57472394D02*
X147214286Y-57662870D01*
X147214286Y-57662870D02*
X147214286Y-58043822D01*
X147214286Y-58043822D02*
X147261905Y-58139060D01*
X147261905Y-58139060D02*
X147309524Y-58186680D01*
X147309524Y-58186680D02*
X147404762Y-58234299D01*
X147404762Y-58234299D02*
X147595238Y-58234299D01*
X147595238Y-58234299D02*
X147690476Y-58186680D01*
X147690476Y-58186680D02*
X147738095Y-58139060D01*
X147738095Y-58139060D02*
X147785714Y-58043822D01*
X147785714Y-58043822D02*
X147785714Y-57805727D01*
X147785714Y-57805727D02*
X147738095Y-57710489D01*
X147738095Y-57710489D02*
X147690476Y-57662870D01*
X147690476Y-57662870D02*
X147595238Y-57615251D01*
X147595238Y-57615251D02*
X147404762Y-57615251D01*
X147404762Y-57615251D02*
X147309524Y-57662870D01*
X147309524Y-57662870D02*
X147261905Y-57710489D01*
X147261905Y-57710489D02*
X147214286Y-57805727D01*
X153295132Y-72762608D02*
X154002239Y-72055501D01*
X154002239Y-72055501D02*
X154170597Y-72223860D01*
X154170597Y-72223860D02*
X154237941Y-72358547D01*
X154237941Y-72358547D02*
X154237941Y-72493234D01*
X154237941Y-72493234D02*
X154204269Y-72594249D01*
X154204269Y-72594249D02*
X154103254Y-72762608D01*
X154103254Y-72762608D02*
X154002239Y-72863623D01*
X154002239Y-72863623D02*
X153833880Y-72964638D01*
X153833880Y-72964638D02*
X153732865Y-72998310D01*
X153732865Y-72998310D02*
X153598178Y-72998310D01*
X153598178Y-72998310D02*
X153463491Y-72930966D01*
X153463491Y-72930966D02*
X153295132Y-72762608D01*
X154372628Y-73840104D02*
X153968567Y-73436043D01*
X154170597Y-73638073D02*
X154877704Y-72930966D01*
X154877704Y-72930966D02*
X154709345Y-72964638D01*
X154709345Y-72964638D02*
X154574658Y-72964638D01*
X154574658Y-72964638D02*
X154473643Y-72930966D01*
X155719498Y-73772760D02*
X155382780Y-73436043D01*
X155382780Y-73436043D02*
X155012391Y-73739089D01*
X155012391Y-73739089D02*
X155079735Y-73739089D01*
X155079735Y-73739089D02*
X155180750Y-73772760D01*
X155180750Y-73772760D02*
X155349109Y-73941119D01*
X155349109Y-73941119D02*
X155382780Y-74042134D01*
X155382780Y-74042134D02*
X155382780Y-74109478D01*
X155382780Y-74109478D02*
X155349109Y-74210493D01*
X155349109Y-74210493D02*
X155180750Y-74378852D01*
X155180750Y-74378852D02*
X155079735Y-74412524D01*
X155079735Y-74412524D02*
X155012391Y-74412524D01*
X155012391Y-74412524D02*
X154911376Y-74378852D01*
X154911376Y-74378852D02*
X154743017Y-74210493D01*
X154743017Y-74210493D02*
X154709345Y-74109478D01*
X154709345Y-74109478D02*
X154709345Y-74042134D01*
X161339505Y-58784299D02*
X161339505Y-57784299D01*
X161339505Y-57784299D02*
X161577600Y-57784299D01*
X161577600Y-57784299D02*
X161720457Y-57831918D01*
X161720457Y-57831918D02*
X161815695Y-57927156D01*
X161815695Y-57927156D02*
X161863314Y-58022394D01*
X161863314Y-58022394D02*
X161910933Y-58212870D01*
X161910933Y-58212870D02*
X161910933Y-58355727D01*
X161910933Y-58355727D02*
X161863314Y-58546203D01*
X161863314Y-58546203D02*
X161815695Y-58641441D01*
X161815695Y-58641441D02*
X161720457Y-58736680D01*
X161720457Y-58736680D02*
X161577600Y-58784299D01*
X161577600Y-58784299D02*
X161339505Y-58784299D01*
X162768076Y-57784299D02*
X162577600Y-57784299D01*
X162577600Y-57784299D02*
X162482362Y-57831918D01*
X162482362Y-57831918D02*
X162434743Y-57879537D01*
X162434743Y-57879537D02*
X162339505Y-58022394D01*
X162339505Y-58022394D02*
X162291886Y-58212870D01*
X162291886Y-58212870D02*
X162291886Y-58593822D01*
X162291886Y-58593822D02*
X162339505Y-58689060D01*
X162339505Y-58689060D02*
X162387124Y-58736680D01*
X162387124Y-58736680D02*
X162482362Y-58784299D01*
X162482362Y-58784299D02*
X162672838Y-58784299D01*
X162672838Y-58784299D02*
X162768076Y-58736680D01*
X162768076Y-58736680D02*
X162815695Y-58689060D01*
X162815695Y-58689060D02*
X162863314Y-58593822D01*
X162863314Y-58593822D02*
X162863314Y-58355727D01*
X162863314Y-58355727D02*
X162815695Y-58260489D01*
X162815695Y-58260489D02*
X162768076Y-58212870D01*
X162768076Y-58212870D02*
X162672838Y-58165251D01*
X162672838Y-58165251D02*
X162482362Y-58165251D01*
X162482362Y-58165251D02*
X162387124Y-58212870D01*
X162387124Y-58212870D02*
X162339505Y-58260489D01*
X162339505Y-58260489D02*
X162291886Y-58355727D01*
X148434060Y-63341666D02*
X148481680Y-63389285D01*
X148481680Y-63389285D02*
X148529299Y-63532142D01*
X148529299Y-63532142D02*
X148529299Y-63627380D01*
X148529299Y-63627380D02*
X148481680Y-63770237D01*
X148481680Y-63770237D02*
X148386441Y-63865475D01*
X148386441Y-63865475D02*
X148291203Y-63913094D01*
X148291203Y-63913094D02*
X148100727Y-63960713D01*
X148100727Y-63960713D02*
X147957870Y-63960713D01*
X147957870Y-63960713D02*
X147767394Y-63913094D01*
X147767394Y-63913094D02*
X147672156Y-63865475D01*
X147672156Y-63865475D02*
X147576918Y-63770237D01*
X147576918Y-63770237D02*
X147529299Y-63627380D01*
X147529299Y-63627380D02*
X147529299Y-63532142D01*
X147529299Y-63532142D02*
X147576918Y-63389285D01*
X147576918Y-63389285D02*
X147624537Y-63341666D01*
X148529299Y-62865475D02*
X148529299Y-62674999D01*
X148529299Y-62674999D02*
X148481680Y-62579761D01*
X148481680Y-62579761D02*
X148434060Y-62532142D01*
X148434060Y-62532142D02*
X148291203Y-62436904D01*
X148291203Y-62436904D02*
X148100727Y-62389285D01*
X148100727Y-62389285D02*
X147719775Y-62389285D01*
X147719775Y-62389285D02*
X147624537Y-62436904D01*
X147624537Y-62436904D02*
X147576918Y-62484523D01*
X147576918Y-62484523D02*
X147529299Y-62579761D01*
X147529299Y-62579761D02*
X147529299Y-62770237D01*
X147529299Y-62770237D02*
X147576918Y-62865475D01*
X147576918Y-62865475D02*
X147624537Y-62913094D01*
X147624537Y-62913094D02*
X147719775Y-62960713D01*
X147719775Y-62960713D02*
X147957870Y-62960713D01*
X147957870Y-62960713D02*
X148053108Y-62913094D01*
X148053108Y-62913094D02*
X148100727Y-62865475D01*
X148100727Y-62865475D02*
X148148346Y-62770237D01*
X148148346Y-62770237D02*
X148148346Y-62579761D01*
X148148346Y-62579761D02*
X148100727Y-62484523D01*
X148100727Y-62484523D02*
X148053108Y-62436904D01*
X148053108Y-62436904D02*
X147957870Y-62389285D01*
X100403499Y-59488494D02*
X99403499Y-59488494D01*
X99403499Y-59488494D02*
X99403499Y-59250399D01*
X99403499Y-59250399D02*
X99451118Y-59107542D01*
X99451118Y-59107542D02*
X99546356Y-59012304D01*
X99546356Y-59012304D02*
X99641594Y-58964685D01*
X99641594Y-58964685D02*
X99832070Y-58917066D01*
X99832070Y-58917066D02*
X99974927Y-58917066D01*
X99974927Y-58917066D02*
X100165403Y-58964685D01*
X100165403Y-58964685D02*
X100260641Y-59012304D01*
X100260641Y-59012304D02*
X100355880Y-59107542D01*
X100355880Y-59107542D02*
X100403499Y-59250399D01*
X100403499Y-59250399D02*
X100403499Y-59488494D01*
X99403499Y-58012304D02*
X99403499Y-58488494D01*
X99403499Y-58488494D02*
X99879689Y-58536113D01*
X99879689Y-58536113D02*
X99832070Y-58488494D01*
X99832070Y-58488494D02*
X99784451Y-58393256D01*
X99784451Y-58393256D02*
X99784451Y-58155161D01*
X99784451Y-58155161D02*
X99832070Y-58059923D01*
X99832070Y-58059923D02*
X99879689Y-58012304D01*
X99879689Y-58012304D02*
X99974927Y-57964685D01*
X99974927Y-57964685D02*
X100213022Y-57964685D01*
X100213022Y-57964685D02*
X100308260Y-58012304D01*
X100308260Y-58012304D02*
X100355880Y-58059923D01*
X100355880Y-58059923D02*
X100403499Y-58155161D01*
X100403499Y-58155161D02*
X100403499Y-58393256D01*
X100403499Y-58393256D02*
X100355880Y-58488494D01*
X100355880Y-58488494D02*
X100308260Y-58536113D01*
X123012665Y-83107400D02*
X123155522Y-83155019D01*
X123155522Y-83155019D02*
X123393617Y-83155019D01*
X123393617Y-83155019D02*
X123488855Y-83107400D01*
X123488855Y-83107400D02*
X123536474Y-83059780D01*
X123536474Y-83059780D02*
X123584093Y-82964542D01*
X123584093Y-82964542D02*
X123584093Y-82869304D01*
X123584093Y-82869304D02*
X123536474Y-82774066D01*
X123536474Y-82774066D02*
X123488855Y-82726447D01*
X123488855Y-82726447D02*
X123393617Y-82678828D01*
X123393617Y-82678828D02*
X123203141Y-82631209D01*
X123203141Y-82631209D02*
X123107903Y-82583590D01*
X123107903Y-82583590D02*
X123060284Y-82535971D01*
X123060284Y-82535971D02*
X123012665Y-82440733D01*
X123012665Y-82440733D02*
X123012665Y-82345495D01*
X123012665Y-82345495D02*
X123060284Y-82250257D01*
X123060284Y-82250257D02*
X123107903Y-82202638D01*
X123107903Y-82202638D02*
X123203141Y-82155019D01*
X123203141Y-82155019D02*
X123441236Y-82155019D01*
X123441236Y-82155019D02*
X123584093Y-82202638D01*
X124536474Y-83155019D02*
X123965046Y-83155019D01*
X124250760Y-83155019D02*
X124250760Y-82155019D01*
X124250760Y-82155019D02*
X124155522Y-82297876D01*
X124155522Y-82297876D02*
X124060284Y-82393114D01*
X124060284Y-82393114D02*
X123965046Y-82440733D01*
X108653542Y-74705060D02*
X108605923Y-74752680D01*
X108605923Y-74752680D02*
X108463066Y-74800299D01*
X108463066Y-74800299D02*
X108367828Y-74800299D01*
X108367828Y-74800299D02*
X108224971Y-74752680D01*
X108224971Y-74752680D02*
X108129733Y-74657441D01*
X108129733Y-74657441D02*
X108082114Y-74562203D01*
X108082114Y-74562203D02*
X108034495Y-74371727D01*
X108034495Y-74371727D02*
X108034495Y-74228870D01*
X108034495Y-74228870D02*
X108082114Y-74038394D01*
X108082114Y-74038394D02*
X108129733Y-73943156D01*
X108129733Y-73943156D02*
X108224971Y-73847918D01*
X108224971Y-73847918D02*
X108367828Y-73800299D01*
X108367828Y-73800299D02*
X108463066Y-73800299D01*
X108463066Y-73800299D02*
X108605923Y-73847918D01*
X108605923Y-73847918D02*
X108653542Y-73895537D01*
X109034495Y-73895537D02*
X109082114Y-73847918D01*
X109082114Y-73847918D02*
X109177352Y-73800299D01*
X109177352Y-73800299D02*
X109415447Y-73800299D01*
X109415447Y-73800299D02*
X109510685Y-73847918D01*
X109510685Y-73847918D02*
X109558304Y-73895537D01*
X109558304Y-73895537D02*
X109605923Y-73990775D01*
X109605923Y-73990775D02*
X109605923Y-74086013D01*
X109605923Y-74086013D02*
X109558304Y-74228870D01*
X109558304Y-74228870D02*
X108986876Y-74800299D01*
X108986876Y-74800299D02*
X109605923Y-74800299D01*
X109939257Y-73800299D02*
X110605923Y-73800299D01*
X110605923Y-73800299D02*
X110177352Y-74800299D01*
X100454299Y-48503066D02*
X99978108Y-48836399D01*
X100454299Y-49074494D02*
X99454299Y-49074494D01*
X99454299Y-49074494D02*
X99454299Y-48693542D01*
X99454299Y-48693542D02*
X99501918Y-48598304D01*
X99501918Y-48598304D02*
X99549537Y-48550685D01*
X99549537Y-48550685D02*
X99644775Y-48503066D01*
X99644775Y-48503066D02*
X99787632Y-48503066D01*
X99787632Y-48503066D02*
X99882870Y-48550685D01*
X99882870Y-48550685D02*
X99930489Y-48598304D01*
X99930489Y-48598304D02*
X99978108Y-48693542D01*
X99978108Y-48693542D02*
X99978108Y-49074494D01*
X100454299Y-47550685D02*
X100454299Y-48122113D01*
X100454299Y-47836399D02*
X99454299Y-47836399D01*
X99454299Y-47836399D02*
X99597156Y-47931637D01*
X99597156Y-47931637D02*
X99692394Y-48026875D01*
X99692394Y-48026875D02*
X99740013Y-48122113D01*
X148567536Y-70030525D02*
X148500193Y-70030525D01*
X148500193Y-70030525D02*
X148365506Y-69963182D01*
X148365506Y-69963182D02*
X148298162Y-69895838D01*
X148298162Y-69895838D02*
X148230819Y-69761151D01*
X148230819Y-69761151D02*
X148230819Y-69626464D01*
X148230819Y-69626464D02*
X148264491Y-69525449D01*
X148264491Y-69525449D02*
X148365506Y-69357090D01*
X148365506Y-69357090D02*
X148466521Y-69256075D01*
X148466521Y-69256075D02*
X148634880Y-69155060D01*
X148634880Y-69155060D02*
X148735895Y-69121388D01*
X148735895Y-69121388D02*
X148870582Y-69121388D01*
X148870582Y-69121388D02*
X149005269Y-69188731D01*
X149005269Y-69188731D02*
X149072613Y-69256075D01*
X149072613Y-69256075D02*
X149139956Y-69390762D01*
X149139956Y-69390762D02*
X149139956Y-69458105D01*
X149409330Y-69727479D02*
X149476674Y-69727479D01*
X149476674Y-69727479D02*
X149577689Y-69761151D01*
X149577689Y-69761151D02*
X149746048Y-69929510D01*
X149746048Y-69929510D02*
X149779719Y-70030525D01*
X149779719Y-70030525D02*
X149779719Y-70097869D01*
X149779719Y-70097869D02*
X149746048Y-70198884D01*
X149746048Y-70198884D02*
X149678704Y-70266228D01*
X149678704Y-70266228D02*
X149544017Y-70333571D01*
X149544017Y-70333571D02*
X148735895Y-70333571D01*
X148735895Y-70333571D02*
X149173628Y-70771304D01*
X150520498Y-70703960D02*
X150183780Y-70367243D01*
X150183780Y-70367243D02*
X149813391Y-70670289D01*
X149813391Y-70670289D02*
X149880735Y-70670289D01*
X149880735Y-70670289D02*
X149981750Y-70703960D01*
X149981750Y-70703960D02*
X150150109Y-70872319D01*
X150150109Y-70872319D02*
X150183780Y-70973334D01*
X150183780Y-70973334D02*
X150183780Y-71040678D01*
X150183780Y-71040678D02*
X150150109Y-71141693D01*
X150150109Y-71141693D02*
X149981750Y-71310052D01*
X149981750Y-71310052D02*
X149880735Y-71343724D01*
X149880735Y-71343724D02*
X149813391Y-71343724D01*
X149813391Y-71343724D02*
X149712376Y-71310052D01*
X149712376Y-71310052D02*
X149544017Y-71141693D01*
X149544017Y-71141693D02*
X149510345Y-71040678D01*
X149510345Y-71040678D02*
X149510345Y-70973334D01*
X161997932Y-70112608D02*
X162705039Y-69405501D01*
X162705039Y-69405501D02*
X162873397Y-69573860D01*
X162873397Y-69573860D02*
X162940741Y-69708547D01*
X162940741Y-69708547D02*
X162940741Y-69843234D01*
X162940741Y-69843234D02*
X162907069Y-69944249D01*
X162907069Y-69944249D02*
X162806054Y-70112608D01*
X162806054Y-70112608D02*
X162705039Y-70213623D01*
X162705039Y-70213623D02*
X162536680Y-70314638D01*
X162536680Y-70314638D02*
X162435665Y-70348310D01*
X162435665Y-70348310D02*
X162300978Y-70348310D01*
X162300978Y-70348310D02*
X162166291Y-70280966D01*
X162166291Y-70280966D02*
X161997932Y-70112608D01*
X163075428Y-71190104D02*
X162671367Y-70786043D01*
X162873397Y-70988073D02*
X163580504Y-70280966D01*
X163580504Y-70280966D02*
X163412145Y-70314638D01*
X163412145Y-70314638D02*
X163277458Y-70314638D01*
X163277458Y-70314638D02*
X163176443Y-70280966D01*
X164018237Y-70718699D02*
X164455970Y-71156432D01*
X164455970Y-71156432D02*
X163950893Y-71190104D01*
X163950893Y-71190104D02*
X164051909Y-71291119D01*
X164051909Y-71291119D02*
X164085580Y-71392134D01*
X164085580Y-71392134D02*
X164085580Y-71459478D01*
X164085580Y-71459478D02*
X164051909Y-71560493D01*
X164051909Y-71560493D02*
X163883550Y-71728852D01*
X163883550Y-71728852D02*
X163782535Y-71762524D01*
X163782535Y-71762524D02*
X163715191Y-71762524D01*
X163715191Y-71762524D02*
X163614176Y-71728852D01*
X163614176Y-71728852D02*
X163412145Y-71526821D01*
X163412145Y-71526821D02*
X163378474Y-71425806D01*
X163378474Y-71425806D02*
X163378474Y-71358463D01*
X160041666Y-87979299D02*
X160041666Y-88693584D01*
X160041666Y-88693584D02*
X159994047Y-88836441D01*
X159994047Y-88836441D02*
X159898809Y-88931680D01*
X159898809Y-88931680D02*
X159755952Y-88979299D01*
X159755952Y-88979299D02*
X159660714Y-88979299D01*
X160946428Y-88312632D02*
X160946428Y-88979299D01*
X160708333Y-87931680D02*
X160470238Y-88645965D01*
X160470238Y-88645965D02*
X161089285Y-88645965D01*
X136983333Y-98854299D02*
X136650000Y-98378108D01*
X136411905Y-98854299D02*
X136411905Y-97854299D01*
X136411905Y-97854299D02*
X136792857Y-97854299D01*
X136792857Y-97854299D02*
X136888095Y-97901918D01*
X136888095Y-97901918D02*
X136935714Y-97949537D01*
X136935714Y-97949537D02*
X136983333Y-98044775D01*
X136983333Y-98044775D02*
X136983333Y-98187632D01*
X136983333Y-98187632D02*
X136935714Y-98282870D01*
X136935714Y-98282870D02*
X136888095Y-98330489D01*
X136888095Y-98330489D02*
X136792857Y-98378108D01*
X136792857Y-98378108D02*
X136411905Y-98378108D01*
X137840476Y-97854299D02*
X137650000Y-97854299D01*
X137650000Y-97854299D02*
X137554762Y-97901918D01*
X137554762Y-97901918D02*
X137507143Y-97949537D01*
X137507143Y-97949537D02*
X137411905Y-98092394D01*
X137411905Y-98092394D02*
X137364286Y-98282870D01*
X137364286Y-98282870D02*
X137364286Y-98663822D01*
X137364286Y-98663822D02*
X137411905Y-98759060D01*
X137411905Y-98759060D02*
X137459524Y-98806680D01*
X137459524Y-98806680D02*
X137554762Y-98854299D01*
X137554762Y-98854299D02*
X137745238Y-98854299D01*
X137745238Y-98854299D02*
X137840476Y-98806680D01*
X137840476Y-98806680D02*
X137888095Y-98759060D01*
X137888095Y-98759060D02*
X137935714Y-98663822D01*
X137935714Y-98663822D02*
X137935714Y-98425727D01*
X137935714Y-98425727D02*
X137888095Y-98330489D01*
X137888095Y-98330489D02*
X137840476Y-98282870D01*
X137840476Y-98282870D02*
X137745238Y-98235251D01*
X137745238Y-98235251D02*
X137554762Y-98235251D01*
X137554762Y-98235251D02*
X137459524Y-98282870D01*
X137459524Y-98282870D02*
X137411905Y-98330489D01*
X137411905Y-98330489D02*
X137364286Y-98425727D01*
X125988095Y-54454299D02*
X125988095Y-55263822D01*
X125988095Y-55263822D02*
X126035714Y-55359060D01*
X126035714Y-55359060D02*
X126083333Y-55406680D01*
X126083333Y-55406680D02*
X126178571Y-55454299D01*
X126178571Y-55454299D02*
X126369047Y-55454299D01*
X126369047Y-55454299D02*
X126464285Y-55406680D01*
X126464285Y-55406680D02*
X126511904Y-55359060D01*
X126511904Y-55359060D02*
X126559523Y-55263822D01*
X126559523Y-55263822D02*
X126559523Y-54454299D01*
X127559523Y-55454299D02*
X126988095Y-55454299D01*
X127273809Y-55454299D02*
X127273809Y-54454299D01*
X127273809Y-54454299D02*
X127178571Y-54597156D01*
X127178571Y-54597156D02*
X127083333Y-54692394D01*
X127083333Y-54692394D02*
X126988095Y-54740013D01*
X135511936Y-63934525D02*
X135444593Y-63934525D01*
X135444593Y-63934525D02*
X135309906Y-63867182D01*
X135309906Y-63867182D02*
X135242562Y-63799838D01*
X135242562Y-63799838D02*
X135175219Y-63665151D01*
X135175219Y-63665151D02*
X135175219Y-63530464D01*
X135175219Y-63530464D02*
X135208891Y-63429449D01*
X135208891Y-63429449D02*
X135309906Y-63261090D01*
X135309906Y-63261090D02*
X135410921Y-63160075D01*
X135410921Y-63160075D02*
X135579280Y-63059060D01*
X135579280Y-63059060D02*
X135680295Y-63025388D01*
X135680295Y-63025388D02*
X135814982Y-63025388D01*
X135814982Y-63025388D02*
X135949669Y-63092731D01*
X135949669Y-63092731D02*
X136017013Y-63160075D01*
X136017013Y-63160075D02*
X136084356Y-63294762D01*
X136084356Y-63294762D02*
X136084356Y-63362105D01*
X136118028Y-64675304D02*
X135713967Y-64271243D01*
X135915997Y-64473273D02*
X136623104Y-63766166D01*
X136623104Y-63766166D02*
X136454745Y-63799838D01*
X136454745Y-63799838D02*
X136320058Y-63799838D01*
X136320058Y-63799838D02*
X136219043Y-63766166D01*
X137431226Y-64574289D02*
X137296539Y-64439602D01*
X137296539Y-64439602D02*
X137195524Y-64405930D01*
X137195524Y-64405930D02*
X137128180Y-64405930D01*
X137128180Y-64405930D02*
X136959822Y-64439602D01*
X136959822Y-64439602D02*
X136791463Y-64540617D01*
X136791463Y-64540617D02*
X136522089Y-64809991D01*
X136522089Y-64809991D02*
X136488417Y-64911006D01*
X136488417Y-64911006D02*
X136488417Y-64978350D01*
X136488417Y-64978350D02*
X136522089Y-65079365D01*
X136522089Y-65079365D02*
X136656776Y-65214052D01*
X136656776Y-65214052D02*
X136757791Y-65247724D01*
X136757791Y-65247724D02*
X136825135Y-65247724D01*
X136825135Y-65247724D02*
X136926150Y-65214052D01*
X136926150Y-65214052D02*
X137094509Y-65045693D01*
X137094509Y-65045693D02*
X137128180Y-64944678D01*
X137128180Y-64944678D02*
X137128180Y-64877334D01*
X137128180Y-64877334D02*
X137094509Y-64776319D01*
X137094509Y-64776319D02*
X136959822Y-64641632D01*
X136959822Y-64641632D02*
X136858806Y-64607960D01*
X136858806Y-64607960D02*
X136791463Y-64607960D01*
X136791463Y-64607960D02*
X136690448Y-64641632D01*
X150838095Y-54496299D02*
X150838095Y-55305822D01*
X150838095Y-55305822D02*
X150885714Y-55401060D01*
X150885714Y-55401060D02*
X150933333Y-55448680D01*
X150933333Y-55448680D02*
X151028571Y-55496299D01*
X151028571Y-55496299D02*
X151219047Y-55496299D01*
X151219047Y-55496299D02*
X151314285Y-55448680D01*
X151314285Y-55448680D02*
X151361904Y-55401060D01*
X151361904Y-55401060D02*
X151409523Y-55305822D01*
X151409523Y-55305822D02*
X151409523Y-54496299D01*
X151838095Y-54591537D02*
X151885714Y-54543918D01*
X151885714Y-54543918D02*
X151980952Y-54496299D01*
X151980952Y-54496299D02*
X152219047Y-54496299D01*
X152219047Y-54496299D02*
X152314285Y-54543918D01*
X152314285Y-54543918D02*
X152361904Y-54591537D01*
X152361904Y-54591537D02*
X152409523Y-54686775D01*
X152409523Y-54686775D02*
X152409523Y-54782013D01*
X152409523Y-54782013D02*
X152361904Y-54924870D01*
X152361904Y-54924870D02*
X151790476Y-55496299D01*
X151790476Y-55496299D02*
X152409523Y-55496299D01*
X108141666Y-98054299D02*
X108141666Y-98768584D01*
X108141666Y-98768584D02*
X108094047Y-98911441D01*
X108094047Y-98911441D02*
X107998809Y-99006680D01*
X107998809Y-99006680D02*
X107855952Y-99054299D01*
X107855952Y-99054299D02*
X107760714Y-99054299D01*
X108570238Y-98149537D02*
X108617857Y-98101918D01*
X108617857Y-98101918D02*
X108713095Y-98054299D01*
X108713095Y-98054299D02*
X108951190Y-98054299D01*
X108951190Y-98054299D02*
X109046428Y-98101918D01*
X109046428Y-98101918D02*
X109094047Y-98149537D01*
X109094047Y-98149537D02*
X109141666Y-98244775D01*
X109141666Y-98244775D02*
X109141666Y-98340013D01*
X109141666Y-98340013D02*
X109094047Y-98482870D01*
X109094047Y-98482870D02*
X108522619Y-99054299D01*
X108522619Y-99054299D02*
X109141666Y-99054299D01*
X115937142Y-66269060D02*
X115889523Y-66316680D01*
X115889523Y-66316680D02*
X115746666Y-66364299D01*
X115746666Y-66364299D02*
X115651428Y-66364299D01*
X115651428Y-66364299D02*
X115508571Y-66316680D01*
X115508571Y-66316680D02*
X115413333Y-66221441D01*
X115413333Y-66221441D02*
X115365714Y-66126203D01*
X115365714Y-66126203D02*
X115318095Y-65935727D01*
X115318095Y-65935727D02*
X115318095Y-65792870D01*
X115318095Y-65792870D02*
X115365714Y-65602394D01*
X115365714Y-65602394D02*
X115413333Y-65507156D01*
X115413333Y-65507156D02*
X115508571Y-65411918D01*
X115508571Y-65411918D02*
X115651428Y-65364299D01*
X115651428Y-65364299D02*
X115746666Y-65364299D01*
X115746666Y-65364299D02*
X115889523Y-65411918D01*
X115889523Y-65411918D02*
X115937142Y-65459537D01*
X116889523Y-66364299D02*
X116318095Y-66364299D01*
X116603809Y-66364299D02*
X116603809Y-65364299D01*
X116603809Y-65364299D02*
X116508571Y-65507156D01*
X116508571Y-65507156D02*
X116413333Y-65602394D01*
X116413333Y-65602394D02*
X116318095Y-65650013D01*
X117460952Y-65792870D02*
X117365714Y-65745251D01*
X117365714Y-65745251D02*
X117318095Y-65697632D01*
X117318095Y-65697632D02*
X117270476Y-65602394D01*
X117270476Y-65602394D02*
X117270476Y-65554775D01*
X117270476Y-65554775D02*
X117318095Y-65459537D01*
X117318095Y-65459537D02*
X117365714Y-65411918D01*
X117365714Y-65411918D02*
X117460952Y-65364299D01*
X117460952Y-65364299D02*
X117651428Y-65364299D01*
X117651428Y-65364299D02*
X117746666Y-65411918D01*
X117746666Y-65411918D02*
X117794285Y-65459537D01*
X117794285Y-65459537D02*
X117841904Y-65554775D01*
X117841904Y-65554775D02*
X117841904Y-65602394D01*
X117841904Y-65602394D02*
X117794285Y-65697632D01*
X117794285Y-65697632D02*
X117746666Y-65745251D01*
X117746666Y-65745251D02*
X117651428Y-65792870D01*
X117651428Y-65792870D02*
X117460952Y-65792870D01*
X117460952Y-65792870D02*
X117365714Y-65840489D01*
X117365714Y-65840489D02*
X117318095Y-65888108D01*
X117318095Y-65888108D02*
X117270476Y-65983346D01*
X117270476Y-65983346D02*
X117270476Y-66173822D01*
X117270476Y-66173822D02*
X117318095Y-66269060D01*
X117318095Y-66269060D02*
X117365714Y-66316680D01*
X117365714Y-66316680D02*
X117460952Y-66364299D01*
X117460952Y-66364299D02*
X117651428Y-66364299D01*
X117651428Y-66364299D02*
X117746666Y-66316680D01*
X117746666Y-66316680D02*
X117794285Y-66269060D01*
X117794285Y-66269060D02*
X117841904Y-66173822D01*
X117841904Y-66173822D02*
X117841904Y-65983346D01*
X117841904Y-65983346D02*
X117794285Y-65888108D01*
X117794285Y-65888108D02*
X117746666Y-65840489D01*
X117746666Y-65840489D02*
X117651428Y-65792870D01*
X112361905Y-57104299D02*
X112361905Y-56104299D01*
X112361905Y-56104299D02*
X112600000Y-56104299D01*
X112600000Y-56104299D02*
X112742857Y-56151918D01*
X112742857Y-56151918D02*
X112838095Y-56247156D01*
X112838095Y-56247156D02*
X112885714Y-56342394D01*
X112885714Y-56342394D02*
X112933333Y-56532870D01*
X112933333Y-56532870D02*
X112933333Y-56675727D01*
X112933333Y-56675727D02*
X112885714Y-56866203D01*
X112885714Y-56866203D02*
X112838095Y-56961441D01*
X112838095Y-56961441D02*
X112742857Y-57056680D01*
X112742857Y-57056680D02*
X112600000Y-57104299D01*
X112600000Y-57104299D02*
X112361905Y-57104299D01*
X113266667Y-56104299D02*
X113885714Y-56104299D01*
X113885714Y-56104299D02*
X113552381Y-56485251D01*
X113552381Y-56485251D02*
X113695238Y-56485251D01*
X113695238Y-56485251D02*
X113790476Y-56532870D01*
X113790476Y-56532870D02*
X113838095Y-56580489D01*
X113838095Y-56580489D02*
X113885714Y-56675727D01*
X113885714Y-56675727D02*
X113885714Y-56913822D01*
X113885714Y-56913822D02*
X113838095Y-57009060D01*
X113838095Y-57009060D02*
X113790476Y-57056680D01*
X113790476Y-57056680D02*
X113695238Y-57104299D01*
X113695238Y-57104299D02*
X113409524Y-57104299D01*
X113409524Y-57104299D02*
X113314286Y-57056680D01*
X113314286Y-57056680D02*
X113266667Y-57009060D01*
X160556336Y-67998525D02*
X160488993Y-67998525D01*
X160488993Y-67998525D02*
X160354306Y-67931182D01*
X160354306Y-67931182D02*
X160286962Y-67863838D01*
X160286962Y-67863838D02*
X160219619Y-67729151D01*
X160219619Y-67729151D02*
X160219619Y-67594464D01*
X160219619Y-67594464D02*
X160253291Y-67493449D01*
X160253291Y-67493449D02*
X160354306Y-67325090D01*
X160354306Y-67325090D02*
X160455321Y-67224075D01*
X160455321Y-67224075D02*
X160623680Y-67123060D01*
X160623680Y-67123060D02*
X160724695Y-67089388D01*
X160724695Y-67089388D02*
X160859382Y-67089388D01*
X160859382Y-67089388D02*
X160994069Y-67156731D01*
X160994069Y-67156731D02*
X161061413Y-67224075D01*
X161061413Y-67224075D02*
X161128756Y-67358762D01*
X161128756Y-67358762D02*
X161128756Y-67426105D01*
X161398130Y-67695479D02*
X161465474Y-67695479D01*
X161465474Y-67695479D02*
X161566489Y-67729151D01*
X161566489Y-67729151D02*
X161734848Y-67897510D01*
X161734848Y-67897510D02*
X161768519Y-67998525D01*
X161768519Y-67998525D02*
X161768519Y-68065869D01*
X161768519Y-68065869D02*
X161734848Y-68166884D01*
X161734848Y-68166884D02*
X161667504Y-68234228D01*
X161667504Y-68234228D02*
X161532817Y-68301571D01*
X161532817Y-68301571D02*
X160724695Y-68301571D01*
X160724695Y-68301571D02*
X161162428Y-68739304D01*
X162071565Y-68368915D02*
X162138909Y-68368915D01*
X162138909Y-68368915D02*
X162239924Y-68402586D01*
X162239924Y-68402586D02*
X162408283Y-68570945D01*
X162408283Y-68570945D02*
X162441955Y-68671960D01*
X162441955Y-68671960D02*
X162441955Y-68739304D01*
X162441955Y-68739304D02*
X162408283Y-68840319D01*
X162408283Y-68840319D02*
X162340939Y-68907663D01*
X162340939Y-68907663D02*
X162206252Y-68975006D01*
X162206252Y-68975006D02*
X161398130Y-68975006D01*
X161398130Y-68975006D02*
X161835863Y-69412739D01*
X132463936Y-67236525D02*
X132396593Y-67236525D01*
X132396593Y-67236525D02*
X132261906Y-67169182D01*
X132261906Y-67169182D02*
X132194562Y-67101838D01*
X132194562Y-67101838D02*
X132127219Y-66967151D01*
X132127219Y-66967151D02*
X132127219Y-66832464D01*
X132127219Y-66832464D02*
X132160891Y-66731449D01*
X132160891Y-66731449D02*
X132261906Y-66563090D01*
X132261906Y-66563090D02*
X132362921Y-66462075D01*
X132362921Y-66462075D02*
X132531280Y-66361060D01*
X132531280Y-66361060D02*
X132632295Y-66327388D01*
X132632295Y-66327388D02*
X132766982Y-66327388D01*
X132766982Y-66327388D02*
X132901669Y-66394731D01*
X132901669Y-66394731D02*
X132969013Y-66462075D01*
X132969013Y-66462075D02*
X133036356Y-66596762D01*
X133036356Y-66596762D02*
X133036356Y-66664105D01*
X133070028Y-67977304D02*
X132665967Y-67573243D01*
X132867997Y-67775273D02*
X133575104Y-67068166D01*
X133575104Y-67068166D02*
X133406745Y-67101838D01*
X133406745Y-67101838D02*
X133272058Y-67101838D01*
X133272058Y-67101838D02*
X133171043Y-67068166D01*
X134416898Y-67909960D02*
X134080180Y-67573243D01*
X134080180Y-67573243D02*
X133709791Y-67876289D01*
X133709791Y-67876289D02*
X133777135Y-67876289D01*
X133777135Y-67876289D02*
X133878150Y-67909960D01*
X133878150Y-67909960D02*
X134046509Y-68078319D01*
X134046509Y-68078319D02*
X134080180Y-68179334D01*
X134080180Y-68179334D02*
X134080180Y-68246678D01*
X134080180Y-68246678D02*
X134046509Y-68347693D01*
X134046509Y-68347693D02*
X133878150Y-68516052D01*
X133878150Y-68516052D02*
X133777135Y-68549724D01*
X133777135Y-68549724D02*
X133709791Y-68549724D01*
X133709791Y-68549724D02*
X133608776Y-68516052D01*
X133608776Y-68516052D02*
X133440417Y-68347693D01*
X133440417Y-68347693D02*
X133406745Y-68246678D01*
X133406745Y-68246678D02*
X133406745Y-68179334D01*
X139982142Y-90284060D02*
X139934523Y-90331680D01*
X139934523Y-90331680D02*
X139791666Y-90379299D01*
X139791666Y-90379299D02*
X139696428Y-90379299D01*
X139696428Y-90379299D02*
X139553571Y-90331680D01*
X139553571Y-90331680D02*
X139458333Y-90236441D01*
X139458333Y-90236441D02*
X139410714Y-90141203D01*
X139410714Y-90141203D02*
X139363095Y-89950727D01*
X139363095Y-89950727D02*
X139363095Y-89807870D01*
X139363095Y-89807870D02*
X139410714Y-89617394D01*
X139410714Y-89617394D02*
X139458333Y-89522156D01*
X139458333Y-89522156D02*
X139553571Y-89426918D01*
X139553571Y-89426918D02*
X139696428Y-89379299D01*
X139696428Y-89379299D02*
X139791666Y-89379299D01*
X139791666Y-89379299D02*
X139934523Y-89426918D01*
X139934523Y-89426918D02*
X139982142Y-89474537D01*
X140315476Y-89379299D02*
X140934523Y-89379299D01*
X140934523Y-89379299D02*
X140601190Y-89760251D01*
X140601190Y-89760251D02*
X140744047Y-89760251D01*
X140744047Y-89760251D02*
X140839285Y-89807870D01*
X140839285Y-89807870D02*
X140886904Y-89855489D01*
X140886904Y-89855489D02*
X140934523Y-89950727D01*
X140934523Y-89950727D02*
X140934523Y-90188822D01*
X140934523Y-90188822D02*
X140886904Y-90284060D01*
X140886904Y-90284060D02*
X140839285Y-90331680D01*
X140839285Y-90331680D02*
X140744047Y-90379299D01*
X140744047Y-90379299D02*
X140458333Y-90379299D01*
X140458333Y-90379299D02*
X140363095Y-90331680D01*
X140363095Y-90331680D02*
X140315476Y-90284060D01*
X141553571Y-89379299D02*
X141648809Y-89379299D01*
X141648809Y-89379299D02*
X141744047Y-89426918D01*
X141744047Y-89426918D02*
X141791666Y-89474537D01*
X141791666Y-89474537D02*
X141839285Y-89569775D01*
X141839285Y-89569775D02*
X141886904Y-89760251D01*
X141886904Y-89760251D02*
X141886904Y-89998346D01*
X141886904Y-89998346D02*
X141839285Y-90188822D01*
X141839285Y-90188822D02*
X141791666Y-90284060D01*
X141791666Y-90284060D02*
X141744047Y-90331680D01*
X141744047Y-90331680D02*
X141648809Y-90379299D01*
X141648809Y-90379299D02*
X141553571Y-90379299D01*
X141553571Y-90379299D02*
X141458333Y-90331680D01*
X141458333Y-90331680D02*
X141410714Y-90284060D01*
X141410714Y-90284060D02*
X141363095Y-90188822D01*
X141363095Y-90188822D02*
X141315476Y-89998346D01*
X141315476Y-89998346D02*
X141315476Y-89760251D01*
X141315476Y-89760251D02*
X141363095Y-89569775D01*
X141363095Y-89569775D02*
X141410714Y-89474537D01*
X141410714Y-89474537D02*
X141458333Y-89426918D01*
X141458333Y-89426918D02*
X141553571Y-89379299D01*
X161339505Y-56410699D02*
X161339505Y-55410699D01*
X161339505Y-55410699D02*
X161577600Y-55410699D01*
X161577600Y-55410699D02*
X161720457Y-55458318D01*
X161720457Y-55458318D02*
X161815695Y-55553556D01*
X161815695Y-55553556D02*
X161863314Y-55648794D01*
X161863314Y-55648794D02*
X161910933Y-55839270D01*
X161910933Y-55839270D02*
X161910933Y-55982127D01*
X161910933Y-55982127D02*
X161863314Y-56172603D01*
X161863314Y-56172603D02*
X161815695Y-56267841D01*
X161815695Y-56267841D02*
X161720457Y-56363080D01*
X161720457Y-56363080D02*
X161577600Y-56410699D01*
X161577600Y-56410699D02*
X161339505Y-56410699D01*
X162863314Y-56410699D02*
X162291886Y-56410699D01*
X162577600Y-56410699D02*
X162577600Y-55410699D01*
X162577600Y-55410699D02*
X162482362Y-55553556D01*
X162482362Y-55553556D02*
X162387124Y-55648794D01*
X162387124Y-55648794D02*
X162291886Y-55696413D01*
X138983333Y-59759060D02*
X138935714Y-59806680D01*
X138935714Y-59806680D02*
X138792857Y-59854299D01*
X138792857Y-59854299D02*
X138697619Y-59854299D01*
X138697619Y-59854299D02*
X138554762Y-59806680D01*
X138554762Y-59806680D02*
X138459524Y-59711441D01*
X138459524Y-59711441D02*
X138411905Y-59616203D01*
X138411905Y-59616203D02*
X138364286Y-59425727D01*
X138364286Y-59425727D02*
X138364286Y-59282870D01*
X138364286Y-59282870D02*
X138411905Y-59092394D01*
X138411905Y-59092394D02*
X138459524Y-58997156D01*
X138459524Y-58997156D02*
X138554762Y-58901918D01*
X138554762Y-58901918D02*
X138697619Y-58854299D01*
X138697619Y-58854299D02*
X138792857Y-58854299D01*
X138792857Y-58854299D02*
X138935714Y-58901918D01*
X138935714Y-58901918D02*
X138983333Y-58949537D01*
X139316667Y-58854299D02*
X139983333Y-58854299D01*
X139983333Y-58854299D02*
X139554762Y-59854299D01*
X143657650Y-69979726D02*
X144364757Y-69272619D01*
X144364757Y-69272619D02*
X144533115Y-69440978D01*
X144533115Y-69440978D02*
X144600459Y-69575665D01*
X144600459Y-69575665D02*
X144600459Y-69710352D01*
X144600459Y-69710352D02*
X144566787Y-69811367D01*
X144566787Y-69811367D02*
X144465772Y-69979726D01*
X144465772Y-69979726D02*
X144364757Y-70080741D01*
X144364757Y-70080741D02*
X144196398Y-70181756D01*
X144196398Y-70181756D02*
X144095383Y-70215428D01*
X144095383Y-70215428D02*
X143960696Y-70215428D01*
X143960696Y-70215428D02*
X143826009Y-70148084D01*
X143826009Y-70148084D02*
X143657650Y-69979726D01*
X144398428Y-70720504D02*
X144533115Y-70855191D01*
X144533115Y-70855191D02*
X144634131Y-70888863D01*
X144634131Y-70888863D02*
X144701474Y-70888863D01*
X144701474Y-70888863D02*
X144869833Y-70855191D01*
X144869833Y-70855191D02*
X145038192Y-70754176D01*
X145038192Y-70754176D02*
X145307566Y-70484802D01*
X145307566Y-70484802D02*
X145341237Y-70383787D01*
X145341237Y-70383787D02*
X145341237Y-70316443D01*
X145341237Y-70316443D02*
X145307566Y-70215428D01*
X145307566Y-70215428D02*
X145172879Y-70080741D01*
X145172879Y-70080741D02*
X145071863Y-70047069D01*
X145071863Y-70047069D02*
X145004520Y-70047069D01*
X145004520Y-70047069D02*
X144903505Y-70080741D01*
X144903505Y-70080741D02*
X144735146Y-70249100D01*
X144735146Y-70249100D02*
X144701474Y-70350115D01*
X144701474Y-70350115D02*
X144701474Y-70417458D01*
X144701474Y-70417458D02*
X144735146Y-70518474D01*
X144735146Y-70518474D02*
X144869833Y-70653161D01*
X144869833Y-70653161D02*
X144970848Y-70686832D01*
X144970848Y-70686832D02*
X145038192Y-70686832D01*
X145038192Y-70686832D02*
X145139207Y-70653161D01*
X135614260Y-61780857D02*
X135661880Y-61828476D01*
X135661880Y-61828476D02*
X135709499Y-61971333D01*
X135709499Y-61971333D02*
X135709499Y-62066571D01*
X135709499Y-62066571D02*
X135661880Y-62209428D01*
X135661880Y-62209428D02*
X135566641Y-62304666D01*
X135566641Y-62304666D02*
X135471403Y-62352285D01*
X135471403Y-62352285D02*
X135280927Y-62399904D01*
X135280927Y-62399904D02*
X135138070Y-62399904D01*
X135138070Y-62399904D02*
X134947594Y-62352285D01*
X134947594Y-62352285D02*
X134852356Y-62304666D01*
X134852356Y-62304666D02*
X134757118Y-62209428D01*
X134757118Y-62209428D02*
X134709499Y-62066571D01*
X134709499Y-62066571D02*
X134709499Y-61971333D01*
X134709499Y-61971333D02*
X134757118Y-61828476D01*
X134757118Y-61828476D02*
X134804737Y-61780857D01*
X135709499Y-60828476D02*
X135709499Y-61399904D01*
X135709499Y-61114190D02*
X134709499Y-61114190D01*
X134709499Y-61114190D02*
X134852356Y-61209428D01*
X134852356Y-61209428D02*
X134947594Y-61304666D01*
X134947594Y-61304666D02*
X134995213Y-61399904D01*
X135042832Y-59971333D02*
X135709499Y-59971333D01*
X134661880Y-60209428D02*
X135376165Y-60447523D01*
X135376165Y-60447523D02*
X135376165Y-59828476D01*
X119208333Y-53604299D02*
X118875000Y-53128108D01*
X118636905Y-53604299D02*
X118636905Y-52604299D01*
X118636905Y-52604299D02*
X119017857Y-52604299D01*
X119017857Y-52604299D02*
X119113095Y-52651918D01*
X119113095Y-52651918D02*
X119160714Y-52699537D01*
X119160714Y-52699537D02*
X119208333Y-52794775D01*
X119208333Y-52794775D02*
X119208333Y-52937632D01*
X119208333Y-52937632D02*
X119160714Y-53032870D01*
X119160714Y-53032870D02*
X119113095Y-53080489D01*
X119113095Y-53080489D02*
X119017857Y-53128108D01*
X119017857Y-53128108D02*
X118636905Y-53128108D01*
X119589286Y-52699537D02*
X119636905Y-52651918D01*
X119636905Y-52651918D02*
X119732143Y-52604299D01*
X119732143Y-52604299D02*
X119970238Y-52604299D01*
X119970238Y-52604299D02*
X120065476Y-52651918D01*
X120065476Y-52651918D02*
X120113095Y-52699537D01*
X120113095Y-52699537D02*
X120160714Y-52794775D01*
X120160714Y-52794775D02*
X120160714Y-52890013D01*
X120160714Y-52890013D02*
X120113095Y-53032870D01*
X120113095Y-53032870D02*
X119541667Y-53604299D01*
X119541667Y-53604299D02*
X120160714Y-53604299D01*
X155764133Y-66373860D02*
X155716514Y-66421480D01*
X155716514Y-66421480D02*
X155573657Y-66469099D01*
X155573657Y-66469099D02*
X155478419Y-66469099D01*
X155478419Y-66469099D02*
X155335562Y-66421480D01*
X155335562Y-66421480D02*
X155240324Y-66326241D01*
X155240324Y-66326241D02*
X155192705Y-66231003D01*
X155192705Y-66231003D02*
X155145086Y-66040527D01*
X155145086Y-66040527D02*
X155145086Y-65897670D01*
X155145086Y-65897670D02*
X155192705Y-65707194D01*
X155192705Y-65707194D02*
X155240324Y-65611956D01*
X155240324Y-65611956D02*
X155335562Y-65516718D01*
X155335562Y-65516718D02*
X155478419Y-65469099D01*
X155478419Y-65469099D02*
X155573657Y-65469099D01*
X155573657Y-65469099D02*
X155716514Y-65516718D01*
X155716514Y-65516718D02*
X155764133Y-65564337D01*
X156335562Y-65897670D02*
X156240324Y-65850051D01*
X156240324Y-65850051D02*
X156192705Y-65802432D01*
X156192705Y-65802432D02*
X156145086Y-65707194D01*
X156145086Y-65707194D02*
X156145086Y-65659575D01*
X156145086Y-65659575D02*
X156192705Y-65564337D01*
X156192705Y-65564337D02*
X156240324Y-65516718D01*
X156240324Y-65516718D02*
X156335562Y-65469099D01*
X156335562Y-65469099D02*
X156526038Y-65469099D01*
X156526038Y-65469099D02*
X156621276Y-65516718D01*
X156621276Y-65516718D02*
X156668895Y-65564337D01*
X156668895Y-65564337D02*
X156716514Y-65659575D01*
X156716514Y-65659575D02*
X156716514Y-65707194D01*
X156716514Y-65707194D02*
X156668895Y-65802432D01*
X156668895Y-65802432D02*
X156621276Y-65850051D01*
X156621276Y-65850051D02*
X156526038Y-65897670D01*
X156526038Y-65897670D02*
X156335562Y-65897670D01*
X156335562Y-65897670D02*
X156240324Y-65945289D01*
X156240324Y-65945289D02*
X156192705Y-65992908D01*
X156192705Y-65992908D02*
X156145086Y-66088146D01*
X156145086Y-66088146D02*
X156145086Y-66278622D01*
X156145086Y-66278622D02*
X156192705Y-66373860D01*
X156192705Y-66373860D02*
X156240324Y-66421480D01*
X156240324Y-66421480D02*
X156335562Y-66469099D01*
X156335562Y-66469099D02*
X156526038Y-66469099D01*
X156526038Y-66469099D02*
X156621276Y-66421480D01*
X156621276Y-66421480D02*
X156668895Y-66373860D01*
X156668895Y-66373860D02*
X156716514Y-66278622D01*
X156716514Y-66278622D02*
X156716514Y-66088146D01*
X156716514Y-66088146D02*
X156668895Y-65992908D01*
X156668895Y-65992908D02*
X156621276Y-65945289D01*
X156621276Y-65945289D02*
X156526038Y-65897670D01*
X126387142Y-78771560D02*
X126339523Y-78819180D01*
X126339523Y-78819180D02*
X126196666Y-78866799D01*
X126196666Y-78866799D02*
X126101428Y-78866799D01*
X126101428Y-78866799D02*
X125958571Y-78819180D01*
X125958571Y-78819180D02*
X125863333Y-78723941D01*
X125863333Y-78723941D02*
X125815714Y-78628703D01*
X125815714Y-78628703D02*
X125768095Y-78438227D01*
X125768095Y-78438227D02*
X125768095Y-78295370D01*
X125768095Y-78295370D02*
X125815714Y-78104894D01*
X125815714Y-78104894D02*
X125863333Y-78009656D01*
X125863333Y-78009656D02*
X125958571Y-77914418D01*
X125958571Y-77914418D02*
X126101428Y-77866799D01*
X126101428Y-77866799D02*
X126196666Y-77866799D01*
X126196666Y-77866799D02*
X126339523Y-77914418D01*
X126339523Y-77914418D02*
X126387142Y-77962037D01*
X126768095Y-77962037D02*
X126815714Y-77914418D01*
X126815714Y-77914418D02*
X126910952Y-77866799D01*
X126910952Y-77866799D02*
X127149047Y-77866799D01*
X127149047Y-77866799D02*
X127244285Y-77914418D01*
X127244285Y-77914418D02*
X127291904Y-77962037D01*
X127291904Y-77962037D02*
X127339523Y-78057275D01*
X127339523Y-78057275D02*
X127339523Y-78152513D01*
X127339523Y-78152513D02*
X127291904Y-78295370D01*
X127291904Y-78295370D02*
X126720476Y-78866799D01*
X126720476Y-78866799D02*
X127339523Y-78866799D01*
X127910952Y-78295370D02*
X127815714Y-78247751D01*
X127815714Y-78247751D02*
X127768095Y-78200132D01*
X127768095Y-78200132D02*
X127720476Y-78104894D01*
X127720476Y-78104894D02*
X127720476Y-78057275D01*
X127720476Y-78057275D02*
X127768095Y-77962037D01*
X127768095Y-77962037D02*
X127815714Y-77914418D01*
X127815714Y-77914418D02*
X127910952Y-77866799D01*
X127910952Y-77866799D02*
X128101428Y-77866799D01*
X128101428Y-77866799D02*
X128196666Y-77914418D01*
X128196666Y-77914418D02*
X128244285Y-77962037D01*
X128244285Y-77962037D02*
X128291904Y-78057275D01*
X128291904Y-78057275D02*
X128291904Y-78104894D01*
X128291904Y-78104894D02*
X128244285Y-78200132D01*
X128244285Y-78200132D02*
X128196666Y-78247751D01*
X128196666Y-78247751D02*
X128101428Y-78295370D01*
X128101428Y-78295370D02*
X127910952Y-78295370D01*
X127910952Y-78295370D02*
X127815714Y-78342989D01*
X127815714Y-78342989D02*
X127768095Y-78390608D01*
X127768095Y-78390608D02*
X127720476Y-78485846D01*
X127720476Y-78485846D02*
X127720476Y-78676322D01*
X127720476Y-78676322D02*
X127768095Y-78771560D01*
X127768095Y-78771560D02*
X127815714Y-78819180D01*
X127815714Y-78819180D02*
X127910952Y-78866799D01*
X127910952Y-78866799D02*
X128101428Y-78866799D01*
X128101428Y-78866799D02*
X128196666Y-78819180D01*
X128196666Y-78819180D02*
X128244285Y-78771560D01*
X128244285Y-78771560D02*
X128291904Y-78676322D01*
X128291904Y-78676322D02*
X128291904Y-78485846D01*
X128291904Y-78485846D02*
X128244285Y-78390608D01*
X128244285Y-78390608D02*
X128196666Y-78342989D01*
X128196666Y-78342989D02*
X128101428Y-78295370D01*
X128785714Y-98654299D02*
X128785714Y-97654299D01*
X128785714Y-97654299D02*
X129023809Y-97654299D01*
X129023809Y-97654299D02*
X129166666Y-97701918D01*
X129166666Y-97701918D02*
X129261904Y-97797156D01*
X129261904Y-97797156D02*
X129309523Y-97892394D01*
X129309523Y-97892394D02*
X129357142Y-98082870D01*
X129357142Y-98082870D02*
X129357142Y-98225727D01*
X129357142Y-98225727D02*
X129309523Y-98416203D01*
X129309523Y-98416203D02*
X129261904Y-98511441D01*
X129261904Y-98511441D02*
X129166666Y-98606680D01*
X129166666Y-98606680D02*
X129023809Y-98654299D01*
X129023809Y-98654299D02*
X128785714Y-98654299D01*
X130309523Y-98654299D02*
X129738095Y-98654299D01*
X130023809Y-98654299D02*
X130023809Y-97654299D01*
X130023809Y-97654299D02*
X129928571Y-97797156D01*
X129928571Y-97797156D02*
X129833333Y-97892394D01*
X129833333Y-97892394D02*
X129738095Y-97940013D01*
X131166666Y-97654299D02*
X130976190Y-97654299D01*
X130976190Y-97654299D02*
X130880952Y-97701918D01*
X130880952Y-97701918D02*
X130833333Y-97749537D01*
X130833333Y-97749537D02*
X130738095Y-97892394D01*
X130738095Y-97892394D02*
X130690476Y-98082870D01*
X130690476Y-98082870D02*
X130690476Y-98463822D01*
X130690476Y-98463822D02*
X130738095Y-98559060D01*
X130738095Y-98559060D02*
X130785714Y-98606680D01*
X130785714Y-98606680D02*
X130880952Y-98654299D01*
X130880952Y-98654299D02*
X131071428Y-98654299D01*
X131071428Y-98654299D02*
X131166666Y-98606680D01*
X131166666Y-98606680D02*
X131214285Y-98559060D01*
X131214285Y-98559060D02*
X131261904Y-98463822D01*
X131261904Y-98463822D02*
X131261904Y-98225727D01*
X131261904Y-98225727D02*
X131214285Y-98130489D01*
X131214285Y-98130489D02*
X131166666Y-98082870D01*
X131166666Y-98082870D02*
X131071428Y-98035251D01*
X131071428Y-98035251D02*
X130880952Y-98035251D01*
X130880952Y-98035251D02*
X130785714Y-98082870D01*
X130785714Y-98082870D02*
X130738095Y-98130489D01*
X130738095Y-98130489D02*
X130690476Y-98225727D01*
X141695532Y-70660008D02*
X142402639Y-69952901D01*
X142402639Y-69952901D02*
X142570997Y-70121260D01*
X142570997Y-70121260D02*
X142638341Y-70255947D01*
X142638341Y-70255947D02*
X142638341Y-70390634D01*
X142638341Y-70390634D02*
X142604669Y-70491649D01*
X142604669Y-70491649D02*
X142503654Y-70660008D01*
X142503654Y-70660008D02*
X142402639Y-70761023D01*
X142402639Y-70761023D02*
X142234280Y-70862038D01*
X142234280Y-70862038D02*
X142133265Y-70895710D01*
X142133265Y-70895710D02*
X141998578Y-70895710D01*
X141998578Y-70895710D02*
X141863891Y-70828366D01*
X141863891Y-70828366D02*
X141695532Y-70660008D01*
X142773028Y-71737504D02*
X142368967Y-71333443D01*
X142570997Y-71535473D02*
X143278104Y-70828366D01*
X143278104Y-70828366D02*
X143109745Y-70862038D01*
X143109745Y-70862038D02*
X142975058Y-70862038D01*
X142975058Y-70862038D02*
X142874043Y-70828366D01*
X143917867Y-71468130D02*
X143985211Y-71535473D01*
X143985211Y-71535473D02*
X144018883Y-71636489D01*
X144018883Y-71636489D02*
X144018883Y-71703832D01*
X144018883Y-71703832D02*
X143985211Y-71804847D01*
X143985211Y-71804847D02*
X143884196Y-71973206D01*
X143884196Y-71973206D02*
X143715837Y-72141565D01*
X143715837Y-72141565D02*
X143547478Y-72242580D01*
X143547478Y-72242580D02*
X143446463Y-72276252D01*
X143446463Y-72276252D02*
X143379119Y-72276252D01*
X143379119Y-72276252D02*
X143278104Y-72242580D01*
X143278104Y-72242580D02*
X143210761Y-72175237D01*
X143210761Y-72175237D02*
X143177089Y-72074221D01*
X143177089Y-72074221D02*
X143177089Y-72006878D01*
X143177089Y-72006878D02*
X143210761Y-71905863D01*
X143210761Y-71905863D02*
X143311776Y-71737504D01*
X143311776Y-71737504D02*
X143480135Y-71569145D01*
X143480135Y-71569145D02*
X143648493Y-71468130D01*
X143648493Y-71468130D02*
X143749509Y-71434458D01*
X143749509Y-71434458D02*
X143816852Y-71434458D01*
X143816852Y-71434458D02*
X143917867Y-71468130D01*
X100454299Y-53633866D02*
X99978108Y-53967199D01*
X100454299Y-54205294D02*
X99454299Y-54205294D01*
X99454299Y-54205294D02*
X99454299Y-53824342D01*
X99454299Y-53824342D02*
X99501918Y-53729104D01*
X99501918Y-53729104D02*
X99549537Y-53681485D01*
X99549537Y-53681485D02*
X99644775Y-53633866D01*
X99644775Y-53633866D02*
X99787632Y-53633866D01*
X99787632Y-53633866D02*
X99882870Y-53681485D01*
X99882870Y-53681485D02*
X99930489Y-53729104D01*
X99930489Y-53729104D02*
X99978108Y-53824342D01*
X99978108Y-53824342D02*
X99978108Y-54205294D01*
X99454299Y-53300532D02*
X99454299Y-52681485D01*
X99454299Y-52681485D02*
X99835251Y-53014818D01*
X99835251Y-53014818D02*
X99835251Y-52871961D01*
X99835251Y-52871961D02*
X99882870Y-52776723D01*
X99882870Y-52776723D02*
X99930489Y-52729104D01*
X99930489Y-52729104D02*
X100025727Y-52681485D01*
X100025727Y-52681485D02*
X100263822Y-52681485D01*
X100263822Y-52681485D02*
X100359060Y-52729104D01*
X100359060Y-52729104D02*
X100406680Y-52776723D01*
X100406680Y-52776723D02*
X100454299Y-52871961D01*
X100454299Y-52871961D02*
X100454299Y-53157675D01*
X100454299Y-53157675D02*
X100406680Y-53252913D01*
X100406680Y-53252913D02*
X100359060Y-53300532D01*
X156816536Y-67549325D02*
X156749193Y-67549325D01*
X156749193Y-67549325D02*
X156614506Y-67481982D01*
X156614506Y-67481982D02*
X156547162Y-67414638D01*
X156547162Y-67414638D02*
X156479819Y-67279951D01*
X156479819Y-67279951D02*
X156479819Y-67145264D01*
X156479819Y-67145264D02*
X156513491Y-67044249D01*
X156513491Y-67044249D02*
X156614506Y-66875890D01*
X156614506Y-66875890D02*
X156715521Y-66774875D01*
X156715521Y-66774875D02*
X156883880Y-66673860D01*
X156883880Y-66673860D02*
X156984895Y-66640188D01*
X156984895Y-66640188D02*
X157119582Y-66640188D01*
X157119582Y-66640188D02*
X157254269Y-66707531D01*
X157254269Y-66707531D02*
X157321613Y-66774875D01*
X157321613Y-66774875D02*
X157388956Y-66909562D01*
X157388956Y-66909562D02*
X157388956Y-66976905D01*
X157658330Y-67246279D02*
X157725674Y-67246279D01*
X157725674Y-67246279D02*
X157826689Y-67279951D01*
X157826689Y-67279951D02*
X157995048Y-67448310D01*
X157995048Y-67448310D02*
X158028719Y-67549325D01*
X158028719Y-67549325D02*
X158028719Y-67616669D01*
X158028719Y-67616669D02*
X157995048Y-67717684D01*
X157995048Y-67717684D02*
X157927704Y-67785028D01*
X157927704Y-67785028D02*
X157793017Y-67852371D01*
X157793017Y-67852371D02*
X156984895Y-67852371D01*
X156984895Y-67852371D02*
X157422628Y-68290104D01*
X158500124Y-68424791D02*
X158028719Y-68896195D01*
X158601139Y-67987058D02*
X157927704Y-68323776D01*
X157927704Y-68323776D02*
X158365437Y-68761508D01*
X107766666Y-92430489D02*
X107433333Y-92430489D01*
X107433333Y-92954299D02*
X107433333Y-91954299D01*
X107433333Y-91954299D02*
X107909523Y-91954299D01*
X108242857Y-92049537D02*
X108290476Y-92001918D01*
X108290476Y-92001918D02*
X108385714Y-91954299D01*
X108385714Y-91954299D02*
X108623809Y-91954299D01*
X108623809Y-91954299D02*
X108719047Y-92001918D01*
X108719047Y-92001918D02*
X108766666Y-92049537D01*
X108766666Y-92049537D02*
X108814285Y-92144775D01*
X108814285Y-92144775D02*
X108814285Y-92240013D01*
X108814285Y-92240013D02*
X108766666Y-92382870D01*
X108766666Y-92382870D02*
X108195238Y-92954299D01*
X108195238Y-92954299D02*
X108814285Y-92954299D01*
X153593333Y-51759060D02*
X153545714Y-51806680D01*
X153545714Y-51806680D02*
X153402857Y-51854299D01*
X153402857Y-51854299D02*
X153307619Y-51854299D01*
X153307619Y-51854299D02*
X153164762Y-51806680D01*
X153164762Y-51806680D02*
X153069524Y-51711441D01*
X153069524Y-51711441D02*
X153021905Y-51616203D01*
X153021905Y-51616203D02*
X152974286Y-51425727D01*
X152974286Y-51425727D02*
X152974286Y-51282870D01*
X152974286Y-51282870D02*
X153021905Y-51092394D01*
X153021905Y-51092394D02*
X153069524Y-50997156D01*
X153069524Y-50997156D02*
X153164762Y-50901918D01*
X153164762Y-50901918D02*
X153307619Y-50854299D01*
X153307619Y-50854299D02*
X153402857Y-50854299D01*
X153402857Y-50854299D02*
X153545714Y-50901918D01*
X153545714Y-50901918D02*
X153593333Y-50949537D01*
X154545714Y-51854299D02*
X153974286Y-51854299D01*
X154260000Y-51854299D02*
X154260000Y-50854299D01*
X154260000Y-50854299D02*
X154164762Y-50997156D01*
X154164762Y-50997156D02*
X154069524Y-51092394D01*
X154069524Y-51092394D02*
X153974286Y-51140013D01*
X137002849Y-68049326D02*
X137709956Y-67342219D01*
X137709956Y-67342219D02*
X137878314Y-67510578D01*
X137878314Y-67510578D02*
X137945658Y-67645265D01*
X137945658Y-67645265D02*
X137945658Y-67779952D01*
X137945658Y-67779952D02*
X137911986Y-67880967D01*
X137911986Y-67880967D02*
X137810971Y-68049326D01*
X137810971Y-68049326D02*
X137709956Y-68150341D01*
X137709956Y-68150341D02*
X137541597Y-68251356D01*
X137541597Y-68251356D02*
X137440582Y-68285028D01*
X137440582Y-68285028D02*
X137305895Y-68285028D01*
X137305895Y-68285028D02*
X137171208Y-68217684D01*
X137171208Y-68217684D02*
X137002849Y-68049326D01*
X138215032Y-68453387D02*
X138181360Y-68352371D01*
X138181360Y-68352371D02*
X138181360Y-68285028D01*
X138181360Y-68285028D02*
X138215032Y-68184013D01*
X138215032Y-68184013D02*
X138248704Y-68150341D01*
X138248704Y-68150341D02*
X138349719Y-68116669D01*
X138349719Y-68116669D02*
X138417062Y-68116669D01*
X138417062Y-68116669D02*
X138518078Y-68150341D01*
X138518078Y-68150341D02*
X138652765Y-68285028D01*
X138652765Y-68285028D02*
X138686436Y-68386043D01*
X138686436Y-68386043D02*
X138686436Y-68453387D01*
X138686436Y-68453387D02*
X138652765Y-68554402D01*
X138652765Y-68554402D02*
X138619093Y-68588074D01*
X138619093Y-68588074D02*
X138518078Y-68621745D01*
X138518078Y-68621745D02*
X138450734Y-68621745D01*
X138450734Y-68621745D02*
X138349719Y-68588074D01*
X138349719Y-68588074D02*
X138215032Y-68453387D01*
X138215032Y-68453387D02*
X138114017Y-68419715D01*
X138114017Y-68419715D02*
X138046673Y-68419715D01*
X138046673Y-68419715D02*
X137945658Y-68453387D01*
X137945658Y-68453387D02*
X137810971Y-68588074D01*
X137810971Y-68588074D02*
X137777299Y-68689089D01*
X137777299Y-68689089D02*
X137777299Y-68756432D01*
X137777299Y-68756432D02*
X137810971Y-68857448D01*
X137810971Y-68857448D02*
X137945658Y-68992135D01*
X137945658Y-68992135D02*
X138046673Y-69025806D01*
X138046673Y-69025806D02*
X138114017Y-69025806D01*
X138114017Y-69025806D02*
X138215032Y-68992135D01*
X138215032Y-68992135D02*
X138349719Y-68857448D01*
X138349719Y-68857448D02*
X138383391Y-68756432D01*
X138383391Y-68756432D02*
X138383391Y-68689089D01*
X138383391Y-68689089D02*
X138349719Y-68588074D01*
X160945733Y-51889499D02*
X160612400Y-51413308D01*
X160374305Y-51889499D02*
X160374305Y-50889499D01*
X160374305Y-50889499D02*
X160755257Y-50889499D01*
X160755257Y-50889499D02*
X160850495Y-50937118D01*
X160850495Y-50937118D02*
X160898114Y-50984737D01*
X160898114Y-50984737D02*
X160945733Y-51079975D01*
X160945733Y-51079975D02*
X160945733Y-51222832D01*
X160945733Y-51222832D02*
X160898114Y-51318070D01*
X160898114Y-51318070D02*
X160850495Y-51365689D01*
X160850495Y-51365689D02*
X160755257Y-51413308D01*
X160755257Y-51413308D02*
X160374305Y-51413308D01*
X161850495Y-50889499D02*
X161374305Y-50889499D01*
X161374305Y-50889499D02*
X161326686Y-51365689D01*
X161326686Y-51365689D02*
X161374305Y-51318070D01*
X161374305Y-51318070D02*
X161469543Y-51270451D01*
X161469543Y-51270451D02*
X161707638Y-51270451D01*
X161707638Y-51270451D02*
X161802876Y-51318070D01*
X161802876Y-51318070D02*
X161850495Y-51365689D01*
X161850495Y-51365689D02*
X161898114Y-51460927D01*
X161898114Y-51460927D02*
X161898114Y-51699022D01*
X161898114Y-51699022D02*
X161850495Y-51794260D01*
X161850495Y-51794260D02*
X161802876Y-51841880D01*
X161802876Y-51841880D02*
X161707638Y-51889499D01*
X161707638Y-51889499D02*
X161469543Y-51889499D01*
X161469543Y-51889499D02*
X161374305Y-51841880D01*
X161374305Y-51841880D02*
X161326686Y-51794260D01*
X108307142Y-70059060D02*
X108259523Y-70106680D01*
X108259523Y-70106680D02*
X108116666Y-70154299D01*
X108116666Y-70154299D02*
X108021428Y-70154299D01*
X108021428Y-70154299D02*
X107878571Y-70106680D01*
X107878571Y-70106680D02*
X107783333Y-70011441D01*
X107783333Y-70011441D02*
X107735714Y-69916203D01*
X107735714Y-69916203D02*
X107688095Y-69725727D01*
X107688095Y-69725727D02*
X107688095Y-69582870D01*
X107688095Y-69582870D02*
X107735714Y-69392394D01*
X107735714Y-69392394D02*
X107783333Y-69297156D01*
X107783333Y-69297156D02*
X107878571Y-69201918D01*
X107878571Y-69201918D02*
X108021428Y-69154299D01*
X108021428Y-69154299D02*
X108116666Y-69154299D01*
X108116666Y-69154299D02*
X108259523Y-69201918D01*
X108259523Y-69201918D02*
X108307142Y-69249537D01*
X108688095Y-69249537D02*
X108735714Y-69201918D01*
X108735714Y-69201918D02*
X108830952Y-69154299D01*
X108830952Y-69154299D02*
X109069047Y-69154299D01*
X109069047Y-69154299D02*
X109164285Y-69201918D01*
X109164285Y-69201918D02*
X109211904Y-69249537D01*
X109211904Y-69249537D02*
X109259523Y-69344775D01*
X109259523Y-69344775D02*
X109259523Y-69440013D01*
X109259523Y-69440013D02*
X109211904Y-69582870D01*
X109211904Y-69582870D02*
X108640476Y-70154299D01*
X108640476Y-70154299D02*
X109259523Y-70154299D01*
X110116666Y-69154299D02*
X109926190Y-69154299D01*
X109926190Y-69154299D02*
X109830952Y-69201918D01*
X109830952Y-69201918D02*
X109783333Y-69249537D01*
X109783333Y-69249537D02*
X109688095Y-69392394D01*
X109688095Y-69392394D02*
X109640476Y-69582870D01*
X109640476Y-69582870D02*
X109640476Y-69963822D01*
X109640476Y-69963822D02*
X109688095Y-70059060D01*
X109688095Y-70059060D02*
X109735714Y-70106680D01*
X109735714Y-70106680D02*
X109830952Y-70154299D01*
X109830952Y-70154299D02*
X110021428Y-70154299D01*
X110021428Y-70154299D02*
X110116666Y-70106680D01*
X110116666Y-70106680D02*
X110164285Y-70059060D01*
X110164285Y-70059060D02*
X110211904Y-69963822D01*
X110211904Y-69963822D02*
X110211904Y-69725727D01*
X110211904Y-69725727D02*
X110164285Y-69630489D01*
X110164285Y-69630489D02*
X110116666Y-69582870D01*
X110116666Y-69582870D02*
X110021428Y-69535251D01*
X110021428Y-69535251D02*
X109830952Y-69535251D01*
X109830952Y-69535251D02*
X109735714Y-69582870D01*
X109735714Y-69582870D02*
X109688095Y-69630489D01*
X109688095Y-69630489D02*
X109640476Y-69725727D01*
X157827942Y-66373860D02*
X157780323Y-66421480D01*
X157780323Y-66421480D02*
X157637466Y-66469099D01*
X157637466Y-66469099D02*
X157542228Y-66469099D01*
X157542228Y-66469099D02*
X157399371Y-66421480D01*
X157399371Y-66421480D02*
X157304133Y-66326241D01*
X157304133Y-66326241D02*
X157256514Y-66231003D01*
X157256514Y-66231003D02*
X157208895Y-66040527D01*
X157208895Y-66040527D02*
X157208895Y-65897670D01*
X157208895Y-65897670D02*
X157256514Y-65707194D01*
X157256514Y-65707194D02*
X157304133Y-65611956D01*
X157304133Y-65611956D02*
X157399371Y-65516718D01*
X157399371Y-65516718D02*
X157542228Y-65469099D01*
X157542228Y-65469099D02*
X157637466Y-65469099D01*
X157637466Y-65469099D02*
X157780323Y-65516718D01*
X157780323Y-65516718D02*
X157827942Y-65564337D01*
X158780323Y-66469099D02*
X158208895Y-66469099D01*
X158494609Y-66469099D02*
X158494609Y-65469099D01*
X158494609Y-65469099D02*
X158399371Y-65611956D01*
X158399371Y-65611956D02*
X158304133Y-65707194D01*
X158304133Y-65707194D02*
X158208895Y-65754813D01*
X159732704Y-66469099D02*
X159161276Y-66469099D01*
X159446990Y-66469099D02*
X159446990Y-65469099D01*
X159446990Y-65469099D02*
X159351752Y-65611956D01*
X159351752Y-65611956D02*
X159256514Y-65707194D01*
X159256514Y-65707194D02*
X159161276Y-65754813D01*
X157180732Y-73524208D02*
X157887839Y-72817101D01*
X157887839Y-72817101D02*
X158056197Y-72985460D01*
X158056197Y-72985460D02*
X158123541Y-73120147D01*
X158123541Y-73120147D02*
X158123541Y-73254834D01*
X158123541Y-73254834D02*
X158089869Y-73355849D01*
X158089869Y-73355849D02*
X157988854Y-73524208D01*
X157988854Y-73524208D02*
X157887839Y-73625223D01*
X157887839Y-73625223D02*
X157719480Y-73726238D01*
X157719480Y-73726238D02*
X157618465Y-73759910D01*
X157618465Y-73759910D02*
X157483778Y-73759910D01*
X157483778Y-73759910D02*
X157349091Y-73692566D01*
X157349091Y-73692566D02*
X157180732Y-73524208D01*
X158258228Y-74601704D02*
X157854167Y-74197643D01*
X158056197Y-74399673D02*
X158763304Y-73692566D01*
X158763304Y-73692566D02*
X158594945Y-73726238D01*
X158594945Y-73726238D02*
X158460258Y-73726238D01*
X158460258Y-73726238D02*
X158359243Y-73692566D01*
X159335724Y-74736391D02*
X158864319Y-75207795D01*
X159436739Y-74298658D02*
X158763304Y-74635376D01*
X158763304Y-74635376D02*
X159201037Y-75073108D01*
X159870132Y-72887608D02*
X160577239Y-72180501D01*
X160577239Y-72180501D02*
X160745597Y-72348860D01*
X160745597Y-72348860D02*
X160812941Y-72483547D01*
X160812941Y-72483547D02*
X160812941Y-72618234D01*
X160812941Y-72618234D02*
X160779269Y-72719249D01*
X160779269Y-72719249D02*
X160678254Y-72887608D01*
X160678254Y-72887608D02*
X160577239Y-72988623D01*
X160577239Y-72988623D02*
X160408880Y-73089638D01*
X160408880Y-73089638D02*
X160307865Y-73123310D01*
X160307865Y-73123310D02*
X160173178Y-73123310D01*
X160173178Y-73123310D02*
X160038491Y-73055966D01*
X160038491Y-73055966D02*
X159870132Y-72887608D01*
X160947628Y-73965104D02*
X160543567Y-73561043D01*
X160745597Y-73763073D02*
X161452704Y-73055966D01*
X161452704Y-73055966D02*
X161284345Y-73089638D01*
X161284345Y-73089638D02*
X161149658Y-73089638D01*
X161149658Y-73089638D02*
X161048643Y-73055966D01*
X161856765Y-73594715D02*
X161924109Y-73594715D01*
X161924109Y-73594715D02*
X162025124Y-73628386D01*
X162025124Y-73628386D02*
X162193483Y-73796745D01*
X162193483Y-73796745D02*
X162227155Y-73897760D01*
X162227155Y-73897760D02*
X162227155Y-73965104D01*
X162227155Y-73965104D02*
X162193483Y-74066119D01*
X162193483Y-74066119D02*
X162126139Y-74133463D01*
X162126139Y-74133463D02*
X161991452Y-74200806D01*
X161991452Y-74200806D02*
X161183330Y-74200806D01*
X161183330Y-74200806D02*
X161621063Y-74638539D01*
X137747136Y-63731325D02*
X137679793Y-63731325D01*
X137679793Y-63731325D02*
X137545106Y-63663982D01*
X137545106Y-63663982D02*
X137477762Y-63596638D01*
X137477762Y-63596638D02*
X137410419Y-63461951D01*
X137410419Y-63461951D02*
X137410419Y-63327264D01*
X137410419Y-63327264D02*
X137444091Y-63226249D01*
X137444091Y-63226249D02*
X137545106Y-63057890D01*
X137545106Y-63057890D02*
X137646121Y-62956875D01*
X137646121Y-62956875D02*
X137814480Y-62855860D01*
X137814480Y-62855860D02*
X137915495Y-62822188D01*
X137915495Y-62822188D02*
X138050182Y-62822188D01*
X138050182Y-62822188D02*
X138184869Y-62889531D01*
X138184869Y-62889531D02*
X138252213Y-62956875D01*
X138252213Y-62956875D02*
X138319556Y-63091562D01*
X138319556Y-63091562D02*
X138319556Y-63158905D01*
X138353228Y-64472104D02*
X137949167Y-64068043D01*
X138151197Y-64270073D02*
X138858304Y-63562966D01*
X138858304Y-63562966D02*
X138689945Y-63596638D01*
X138689945Y-63596638D02*
X138555258Y-63596638D01*
X138555258Y-63596638D02*
X138454243Y-63562966D01*
X138689945Y-64808821D02*
X138824632Y-64943508D01*
X138824632Y-64943508D02*
X138925648Y-64977180D01*
X138925648Y-64977180D02*
X138992991Y-64977180D01*
X138992991Y-64977180D02*
X139161350Y-64943508D01*
X139161350Y-64943508D02*
X139329709Y-64842493D01*
X139329709Y-64842493D02*
X139599083Y-64573119D01*
X139599083Y-64573119D02*
X139632755Y-64472104D01*
X139632755Y-64472104D02*
X139632755Y-64404760D01*
X139632755Y-64404760D02*
X139599083Y-64303745D01*
X139599083Y-64303745D02*
X139464396Y-64169058D01*
X139464396Y-64169058D02*
X139363380Y-64135386D01*
X139363380Y-64135386D02*
X139296037Y-64135386D01*
X139296037Y-64135386D02*
X139195022Y-64169058D01*
X139195022Y-64169058D02*
X139026663Y-64337417D01*
X139026663Y-64337417D02*
X138992991Y-64438432D01*
X138992991Y-64438432D02*
X138992991Y-64505776D01*
X138992991Y-64505776D02*
X139026663Y-64606791D01*
X139026663Y-64606791D02*
X139161350Y-64741478D01*
X139161350Y-64741478D02*
X139262365Y-64775150D01*
X139262365Y-64775150D02*
X139329709Y-64775150D01*
X139329709Y-64775150D02*
X139430724Y-64741478D01*
X121697142Y-64289060D02*
X121649523Y-64336680D01*
X121649523Y-64336680D02*
X121506666Y-64384299D01*
X121506666Y-64384299D02*
X121411428Y-64384299D01*
X121411428Y-64384299D02*
X121268571Y-64336680D01*
X121268571Y-64336680D02*
X121173333Y-64241441D01*
X121173333Y-64241441D02*
X121125714Y-64146203D01*
X121125714Y-64146203D02*
X121078095Y-63955727D01*
X121078095Y-63955727D02*
X121078095Y-63812870D01*
X121078095Y-63812870D02*
X121125714Y-63622394D01*
X121125714Y-63622394D02*
X121173333Y-63527156D01*
X121173333Y-63527156D02*
X121268571Y-63431918D01*
X121268571Y-63431918D02*
X121411428Y-63384299D01*
X121411428Y-63384299D02*
X121506666Y-63384299D01*
X121506666Y-63384299D02*
X121649523Y-63431918D01*
X121649523Y-63431918D02*
X121697142Y-63479537D01*
X122649523Y-64384299D02*
X122078095Y-64384299D01*
X122363809Y-64384299D02*
X122363809Y-63384299D01*
X122363809Y-63384299D02*
X122268571Y-63527156D01*
X122268571Y-63527156D02*
X122173333Y-63622394D01*
X122173333Y-63622394D02*
X122078095Y-63670013D01*
X123268571Y-63384299D02*
X123363809Y-63384299D01*
X123363809Y-63384299D02*
X123459047Y-63431918D01*
X123459047Y-63431918D02*
X123506666Y-63479537D01*
X123506666Y-63479537D02*
X123554285Y-63574775D01*
X123554285Y-63574775D02*
X123601904Y-63765251D01*
X123601904Y-63765251D02*
X123601904Y-64003346D01*
X123601904Y-64003346D02*
X123554285Y-64193822D01*
X123554285Y-64193822D02*
X123506666Y-64289060D01*
X123506666Y-64289060D02*
X123459047Y-64336680D01*
X123459047Y-64336680D02*
X123363809Y-64384299D01*
X123363809Y-64384299D02*
X123268571Y-64384299D01*
X123268571Y-64384299D02*
X123173333Y-64336680D01*
X123173333Y-64336680D02*
X123125714Y-64289060D01*
X123125714Y-64289060D02*
X123078095Y-64193822D01*
X123078095Y-64193822D02*
X123030476Y-64003346D01*
X123030476Y-64003346D02*
X123030476Y-63765251D01*
X123030476Y-63765251D02*
X123078095Y-63574775D01*
X123078095Y-63574775D02*
X123125714Y-63479537D01*
X123125714Y-63479537D02*
X123173333Y-63431918D01*
X123173333Y-63431918D02*
X123268571Y-63384299D01*
D12*
X136561733Y-57325619D02*
X136228400Y-56849428D01*
X135990305Y-57325619D02*
X135990305Y-56325619D01*
X135990305Y-56325619D02*
X136371257Y-56325619D01*
X136371257Y-56325619D02*
X136466495Y-56373238D01*
X136466495Y-56373238D02*
X136514114Y-56420857D01*
X136514114Y-56420857D02*
X136561733Y-56516095D01*
X136561733Y-56516095D02*
X136561733Y-56658952D01*
X136561733Y-56658952D02*
X136514114Y-56754190D01*
X136514114Y-56754190D02*
X136466495Y-56801809D01*
X136466495Y-56801809D02*
X136371257Y-56849428D01*
X136371257Y-56849428D02*
X135990305Y-56849428D01*
X137133162Y-56754190D02*
X137037924Y-56706571D01*
X137037924Y-56706571D02*
X136990305Y-56658952D01*
X136990305Y-56658952D02*
X136942686Y-56563714D01*
X136942686Y-56563714D02*
X136942686Y-56516095D01*
X136942686Y-56516095D02*
X136990305Y-56420857D01*
X136990305Y-56420857D02*
X137037924Y-56373238D01*
X137037924Y-56373238D02*
X137133162Y-56325619D01*
X137133162Y-56325619D02*
X137323638Y-56325619D01*
X137323638Y-56325619D02*
X137418876Y-56373238D01*
X137418876Y-56373238D02*
X137466495Y-56420857D01*
X137466495Y-56420857D02*
X137514114Y-56516095D01*
X137514114Y-56516095D02*
X137514114Y-56563714D01*
X137514114Y-56563714D02*
X137466495Y-56658952D01*
X137466495Y-56658952D02*
X137418876Y-56706571D01*
X137418876Y-56706571D02*
X137323638Y-56754190D01*
X137323638Y-56754190D02*
X137133162Y-56754190D01*
X137133162Y-56754190D02*
X137037924Y-56801809D01*
X137037924Y-56801809D02*
X136990305Y-56849428D01*
X136990305Y-56849428D02*
X136942686Y-56944666D01*
X136942686Y-56944666D02*
X136942686Y-57135142D01*
X136942686Y-57135142D02*
X136990305Y-57230380D01*
X136990305Y-57230380D02*
X137037924Y-57278000D01*
X137037924Y-57278000D02*
X137133162Y-57325619D01*
X137133162Y-57325619D02*
X137323638Y-57325619D01*
X137323638Y-57325619D02*
X137418876Y-57278000D01*
X137418876Y-57278000D02*
X137466495Y-57230380D01*
X137466495Y-57230380D02*
X137514114Y-57135142D01*
X137514114Y-57135142D02*
X137514114Y-56944666D01*
X137514114Y-56944666D02*
X137466495Y-56849428D01*
X137466495Y-56849428D02*
X137418876Y-56801809D01*
X137418876Y-56801809D02*
X137323638Y-56754190D01*
D11*
X140233333Y-54554299D02*
X139900000Y-54078108D01*
X139661905Y-54554299D02*
X139661905Y-53554299D01*
X139661905Y-53554299D02*
X140042857Y-53554299D01*
X140042857Y-53554299D02*
X140138095Y-53601918D01*
X140138095Y-53601918D02*
X140185714Y-53649537D01*
X140185714Y-53649537D02*
X140233333Y-53744775D01*
X140233333Y-53744775D02*
X140233333Y-53887632D01*
X140233333Y-53887632D02*
X140185714Y-53982870D01*
X140185714Y-53982870D02*
X140138095Y-54030489D01*
X140138095Y-54030489D02*
X140042857Y-54078108D01*
X140042857Y-54078108D02*
X139661905Y-54078108D01*
X141090476Y-53887632D02*
X141090476Y-54554299D01*
X140852381Y-53506680D02*
X140614286Y-54220965D01*
X140614286Y-54220965D02*
X141233333Y-54220965D01*
X133683333Y-52409060D02*
X133635714Y-52456680D01*
X133635714Y-52456680D02*
X133492857Y-52504299D01*
X133492857Y-52504299D02*
X133397619Y-52504299D01*
X133397619Y-52504299D02*
X133254762Y-52456680D01*
X133254762Y-52456680D02*
X133159524Y-52361441D01*
X133159524Y-52361441D02*
X133111905Y-52266203D01*
X133111905Y-52266203D02*
X133064286Y-52075727D01*
X133064286Y-52075727D02*
X133064286Y-51932870D01*
X133064286Y-51932870D02*
X133111905Y-51742394D01*
X133111905Y-51742394D02*
X133159524Y-51647156D01*
X133159524Y-51647156D02*
X133254762Y-51551918D01*
X133254762Y-51551918D02*
X133397619Y-51504299D01*
X133397619Y-51504299D02*
X133492857Y-51504299D01*
X133492857Y-51504299D02*
X133635714Y-51551918D01*
X133635714Y-51551918D02*
X133683333Y-51599537D01*
X134540476Y-51837632D02*
X134540476Y-52504299D01*
X134302381Y-51456680D02*
X134064286Y-52170965D01*
X134064286Y-52170965D02*
X134683333Y-52170965D01*
X131459060Y-66692857D02*
X131506680Y-66740476D01*
X131506680Y-66740476D02*
X131554299Y-66883333D01*
X131554299Y-66883333D02*
X131554299Y-66978571D01*
X131554299Y-66978571D02*
X131506680Y-67121428D01*
X131506680Y-67121428D02*
X131411441Y-67216666D01*
X131411441Y-67216666D02*
X131316203Y-67264285D01*
X131316203Y-67264285D02*
X131125727Y-67311904D01*
X131125727Y-67311904D02*
X130982870Y-67311904D01*
X130982870Y-67311904D02*
X130792394Y-67264285D01*
X130792394Y-67264285D02*
X130697156Y-67216666D01*
X130697156Y-67216666D02*
X130601918Y-67121428D01*
X130601918Y-67121428D02*
X130554299Y-66978571D01*
X130554299Y-66978571D02*
X130554299Y-66883333D01*
X130554299Y-66883333D02*
X130601918Y-66740476D01*
X130601918Y-66740476D02*
X130649537Y-66692857D01*
X131554299Y-65740476D02*
X131554299Y-66311904D01*
X131554299Y-66026190D02*
X130554299Y-66026190D01*
X130554299Y-66026190D02*
X130697156Y-66121428D01*
X130697156Y-66121428D02*
X130792394Y-66216666D01*
X130792394Y-66216666D02*
X130840013Y-66311904D01*
X130554299Y-65407142D02*
X130554299Y-64788095D01*
X130554299Y-64788095D02*
X130935251Y-65121428D01*
X130935251Y-65121428D02*
X130935251Y-64978571D01*
X130935251Y-64978571D02*
X130982870Y-64883333D01*
X130982870Y-64883333D02*
X131030489Y-64835714D01*
X131030489Y-64835714D02*
X131125727Y-64788095D01*
X131125727Y-64788095D02*
X131363822Y-64788095D01*
X131363822Y-64788095D02*
X131459060Y-64835714D01*
X131459060Y-64835714D02*
X131506680Y-64883333D01*
X131506680Y-64883333D02*
X131554299Y-64978571D01*
X131554299Y-64978571D02*
X131554299Y-65264285D01*
X131554299Y-65264285D02*
X131506680Y-65359523D01*
X131506680Y-65359523D02*
X131459060Y-65407142D01*
X150802736Y-67846125D02*
X150735393Y-67846125D01*
X150735393Y-67846125D02*
X150600706Y-67778782D01*
X150600706Y-67778782D02*
X150533362Y-67711438D01*
X150533362Y-67711438D02*
X150466019Y-67576751D01*
X150466019Y-67576751D02*
X150466019Y-67442064D01*
X150466019Y-67442064D02*
X150499691Y-67341049D01*
X150499691Y-67341049D02*
X150600706Y-67172690D01*
X150600706Y-67172690D02*
X150701721Y-67071675D01*
X150701721Y-67071675D02*
X150870080Y-66970660D01*
X150870080Y-66970660D02*
X150971095Y-66936988D01*
X150971095Y-66936988D02*
X151105782Y-66936988D01*
X151105782Y-66936988D02*
X151240469Y-67004331D01*
X151240469Y-67004331D02*
X151307813Y-67071675D01*
X151307813Y-67071675D02*
X151375156Y-67206362D01*
X151375156Y-67206362D02*
X151375156Y-67273705D01*
X151644530Y-67543079D02*
X151711874Y-67543079D01*
X151711874Y-67543079D02*
X151812889Y-67576751D01*
X151812889Y-67576751D02*
X151981248Y-67745110D01*
X151981248Y-67745110D02*
X152014919Y-67846125D01*
X152014919Y-67846125D02*
X152014919Y-67913469D01*
X152014919Y-67913469D02*
X151981248Y-68014484D01*
X151981248Y-68014484D02*
X151913904Y-68081828D01*
X151913904Y-68081828D02*
X151779217Y-68149171D01*
X151779217Y-68149171D02*
X150971095Y-68149171D01*
X150971095Y-68149171D02*
X151408828Y-68586904D01*
X152351637Y-68115499D02*
X152789370Y-68553232D01*
X152789370Y-68553232D02*
X152284293Y-68586904D01*
X152284293Y-68586904D02*
X152385309Y-68687919D01*
X152385309Y-68687919D02*
X152418980Y-68788934D01*
X152418980Y-68788934D02*
X152418980Y-68856278D01*
X152418980Y-68856278D02*
X152385309Y-68957293D01*
X152385309Y-68957293D02*
X152216950Y-69125652D01*
X152216950Y-69125652D02*
X152115935Y-69159324D01*
X152115935Y-69159324D02*
X152048591Y-69159324D01*
X152048591Y-69159324D02*
X151947576Y-69125652D01*
X151947576Y-69125652D02*
X151745545Y-68923621D01*
X151745545Y-68923621D02*
X151711874Y-68822606D01*
X151711874Y-68822606D02*
X151711874Y-68755263D01*
X148365060Y-66200457D02*
X148412680Y-66248076D01*
X148412680Y-66248076D02*
X148460299Y-66390933D01*
X148460299Y-66390933D02*
X148460299Y-66486171D01*
X148460299Y-66486171D02*
X148412680Y-66629028D01*
X148412680Y-66629028D02*
X148317441Y-66724266D01*
X148317441Y-66724266D02*
X148222203Y-66771885D01*
X148222203Y-66771885D02*
X148031727Y-66819504D01*
X148031727Y-66819504D02*
X147888870Y-66819504D01*
X147888870Y-66819504D02*
X147698394Y-66771885D01*
X147698394Y-66771885D02*
X147603156Y-66724266D01*
X147603156Y-66724266D02*
X147507918Y-66629028D01*
X147507918Y-66629028D02*
X147460299Y-66486171D01*
X147460299Y-66486171D02*
X147460299Y-66390933D01*
X147460299Y-66390933D02*
X147507918Y-66248076D01*
X147507918Y-66248076D02*
X147555537Y-66200457D01*
X147555537Y-65819504D02*
X147507918Y-65771885D01*
X147507918Y-65771885D02*
X147460299Y-65676647D01*
X147460299Y-65676647D02*
X147460299Y-65438552D01*
X147460299Y-65438552D02*
X147507918Y-65343314D01*
X147507918Y-65343314D02*
X147555537Y-65295695D01*
X147555537Y-65295695D02*
X147650775Y-65248076D01*
X147650775Y-65248076D02*
X147746013Y-65248076D01*
X147746013Y-65248076D02*
X147888870Y-65295695D01*
X147888870Y-65295695D02*
X148460299Y-65867123D01*
X148460299Y-65867123D02*
X148460299Y-65248076D01*
X148460299Y-64295695D02*
X148460299Y-64867123D01*
X148460299Y-64581409D02*
X147460299Y-64581409D01*
X147460299Y-64581409D02*
X147603156Y-64676647D01*
X147603156Y-64676647D02*
X147698394Y-64771885D01*
X147698394Y-64771885D02*
X147746013Y-64867123D01*
X146654850Y-69928926D02*
X147361957Y-69221819D01*
X147361957Y-69221819D02*
X147530315Y-69390178D01*
X147530315Y-69390178D02*
X147597659Y-69524865D01*
X147597659Y-69524865D02*
X147597659Y-69659552D01*
X147597659Y-69659552D02*
X147563987Y-69760567D01*
X147563987Y-69760567D02*
X147462972Y-69928926D01*
X147462972Y-69928926D02*
X147361957Y-70029941D01*
X147361957Y-70029941D02*
X147193598Y-70130956D01*
X147193598Y-70130956D02*
X147092583Y-70164628D01*
X147092583Y-70164628D02*
X146957896Y-70164628D01*
X146957896Y-70164628D02*
X146823209Y-70097284D01*
X146823209Y-70097284D02*
X146654850Y-69928926D01*
X148001720Y-69861582D02*
X148473124Y-70332987D01*
X148473124Y-70332987D02*
X147462972Y-70737048D01*
X121557142Y-66619060D02*
X121509523Y-66666680D01*
X121509523Y-66666680D02*
X121366666Y-66714299D01*
X121366666Y-66714299D02*
X121271428Y-66714299D01*
X121271428Y-66714299D02*
X121128571Y-66666680D01*
X121128571Y-66666680D02*
X121033333Y-66571441D01*
X121033333Y-66571441D02*
X120985714Y-66476203D01*
X120985714Y-66476203D02*
X120938095Y-66285727D01*
X120938095Y-66285727D02*
X120938095Y-66142870D01*
X120938095Y-66142870D02*
X120985714Y-65952394D01*
X120985714Y-65952394D02*
X121033333Y-65857156D01*
X121033333Y-65857156D02*
X121128571Y-65761918D01*
X121128571Y-65761918D02*
X121271428Y-65714299D01*
X121271428Y-65714299D02*
X121366666Y-65714299D01*
X121366666Y-65714299D02*
X121509523Y-65761918D01*
X121509523Y-65761918D02*
X121557142Y-65809537D01*
X121938095Y-65809537D02*
X121985714Y-65761918D01*
X121985714Y-65761918D02*
X122080952Y-65714299D01*
X122080952Y-65714299D02*
X122319047Y-65714299D01*
X122319047Y-65714299D02*
X122414285Y-65761918D01*
X122414285Y-65761918D02*
X122461904Y-65809537D01*
X122461904Y-65809537D02*
X122509523Y-65904775D01*
X122509523Y-65904775D02*
X122509523Y-66000013D01*
X122509523Y-66000013D02*
X122461904Y-66142870D01*
X122461904Y-66142870D02*
X121890476Y-66714299D01*
X121890476Y-66714299D02*
X122509523Y-66714299D01*
X123128571Y-65714299D02*
X123223809Y-65714299D01*
X123223809Y-65714299D02*
X123319047Y-65761918D01*
X123319047Y-65761918D02*
X123366666Y-65809537D01*
X123366666Y-65809537D02*
X123414285Y-65904775D01*
X123414285Y-65904775D02*
X123461904Y-66095251D01*
X123461904Y-66095251D02*
X123461904Y-66333346D01*
X123461904Y-66333346D02*
X123414285Y-66523822D01*
X123414285Y-66523822D02*
X123366666Y-66619060D01*
X123366666Y-66619060D02*
X123319047Y-66666680D01*
X123319047Y-66666680D02*
X123223809Y-66714299D01*
X123223809Y-66714299D02*
X123128571Y-66714299D01*
X123128571Y-66714299D02*
X123033333Y-66666680D01*
X123033333Y-66666680D02*
X122985714Y-66619060D01*
X122985714Y-66619060D02*
X122938095Y-66523822D01*
X122938095Y-66523822D02*
X122890476Y-66333346D01*
X122890476Y-66333346D02*
X122890476Y-66095251D01*
X122890476Y-66095251D02*
X122938095Y-65904775D01*
X122938095Y-65904775D02*
X122985714Y-65809537D01*
X122985714Y-65809537D02*
X123033333Y-65761918D01*
X123033333Y-65761918D02*
X123128571Y-65714299D01*
X145483333Y-51909060D02*
X145435714Y-51956680D01*
X145435714Y-51956680D02*
X145292857Y-52004299D01*
X145292857Y-52004299D02*
X145197619Y-52004299D01*
X145197619Y-52004299D02*
X145054762Y-51956680D01*
X145054762Y-51956680D02*
X144959524Y-51861441D01*
X144959524Y-51861441D02*
X144911905Y-51766203D01*
X144911905Y-51766203D02*
X144864286Y-51575727D01*
X144864286Y-51575727D02*
X144864286Y-51432870D01*
X144864286Y-51432870D02*
X144911905Y-51242394D01*
X144911905Y-51242394D02*
X144959524Y-51147156D01*
X144959524Y-51147156D02*
X145054762Y-51051918D01*
X145054762Y-51051918D02*
X145197619Y-51004299D01*
X145197619Y-51004299D02*
X145292857Y-51004299D01*
X145292857Y-51004299D02*
X145435714Y-51051918D01*
X145435714Y-51051918D02*
X145483333Y-51099537D01*
X145864286Y-51099537D02*
X145911905Y-51051918D01*
X145911905Y-51051918D02*
X146007143Y-51004299D01*
X146007143Y-51004299D02*
X146245238Y-51004299D01*
X146245238Y-51004299D02*
X146340476Y-51051918D01*
X146340476Y-51051918D02*
X146388095Y-51099537D01*
X146388095Y-51099537D02*
X146435714Y-51194775D01*
X146435714Y-51194775D02*
X146435714Y-51290013D01*
X146435714Y-51290013D02*
X146388095Y-51432870D01*
X146388095Y-51432870D02*
X145816667Y-52004299D01*
X145816667Y-52004299D02*
X146435714Y-52004299D01*
X106530489Y-56833333D02*
X106530489Y-57166666D01*
X107054299Y-57166666D02*
X106054299Y-57166666D01*
X106054299Y-57166666D02*
X106054299Y-56690476D01*
X107054299Y-55785714D02*
X107054299Y-56357142D01*
X107054299Y-56071428D02*
X106054299Y-56071428D01*
X106054299Y-56071428D02*
X106197156Y-56166666D01*
X106197156Y-56166666D02*
X106292394Y-56261904D01*
X106292394Y-56261904D02*
X106340013Y-56357142D01*
D12*
X161261219Y-62523866D02*
X160785028Y-62857199D01*
X161261219Y-63095294D02*
X160261219Y-63095294D01*
X160261219Y-63095294D02*
X160261219Y-62714342D01*
X160261219Y-62714342D02*
X160308838Y-62619104D01*
X160308838Y-62619104D02*
X160356457Y-62571485D01*
X160356457Y-62571485D02*
X160451695Y-62523866D01*
X160451695Y-62523866D02*
X160594552Y-62523866D01*
X160594552Y-62523866D02*
X160689790Y-62571485D01*
X160689790Y-62571485D02*
X160737409Y-62619104D01*
X160737409Y-62619104D02*
X160785028Y-62714342D01*
X160785028Y-62714342D02*
X160785028Y-63095294D01*
X160261219Y-62190532D02*
X160261219Y-61523866D01*
X160261219Y-61523866D02*
X161261219Y-61952437D01*
D11*
X150440000Y-86310000D02*
X150440000Y-87560000D01*
X150440000Y-87560000D02*
X151690000Y-87560000D01*
X150540000Y-85500000D02*
X150540000Y-85800000D01*
X150540000Y-85800000D02*
X150740000Y-85800000D01*
X150640000Y-85500000D02*
X150640000Y-85800000D01*
X150740000Y-77140000D02*
X150740000Y-87260000D01*
X150740000Y-84700000D02*
X151350000Y-84700000D01*
X150740000Y-85500000D02*
X150540000Y-85500000D01*
X150740000Y-87260000D02*
X155460000Y-87260000D01*
X151350000Y-77750000D02*
X151350000Y-79700000D01*
X151350000Y-79700000D02*
X150740000Y-79700000D01*
X151350000Y-84700000D02*
X151350000Y-86650000D01*
X151350000Y-86650000D02*
X154850000Y-86650000D01*
X152050000Y-77140000D02*
X152050000Y-77750000D01*
X152050000Y-87260000D02*
X152050000Y-86650000D01*
X153350000Y-77140000D02*
X153350000Y-77750000D01*
X153350000Y-87260000D02*
X153350000Y-86650000D01*
X154350000Y-80100000D02*
X154850000Y-80100000D01*
X154350000Y-80300000D02*
X154350000Y-80100000D01*
X154350000Y-82100000D02*
X154850000Y-82100000D01*
X154350000Y-82300000D02*
X154350000Y-82100000D01*
X154350000Y-84100000D02*
X154850000Y-84100000D01*
X154350000Y-84300000D02*
X154350000Y-84100000D01*
X154850000Y-77750000D02*
X151350000Y-77750000D01*
X154850000Y-80200000D02*
X154350000Y-80200000D01*
X154850000Y-80300000D02*
X154350000Y-80300000D01*
X154850000Y-82200000D02*
X154350000Y-82200000D01*
X154850000Y-82300000D02*
X154350000Y-82300000D01*
X154850000Y-84200000D02*
X154350000Y-84200000D01*
X154850000Y-84300000D02*
X154350000Y-84300000D01*
X154850000Y-86650000D02*
X154850000Y-77750000D01*
X155460000Y-77140000D02*
X150740000Y-77140000D01*
X155460000Y-87260000D02*
X155460000Y-77140000D01*
X131064400Y-75796800D02*
X131064400Y-80876800D01*
X137160400Y-80876800D02*
X137160400Y-75796800D01*
X143335949Y-66657198D02*
X143542802Y-66864051D01*
X144057198Y-65935949D02*
X144264051Y-66142802D01*
X130140000Y-70190000D02*
X130140000Y-74810000D01*
X130140000Y-70190000D02*
X140360000Y-70190000D01*
X130140000Y-74810000D02*
X140360000Y-74810000D01*
X140360000Y-70190000D02*
X140360000Y-74810000D01*
X102490000Y-77815000D02*
X119510000Y-77815000D01*
X119510000Y-89505000D01*
X102490000Y-89505000D01*
X102490000Y-77815000D01*
X118976248Y-55440000D02*
X120398752Y-55440000D01*
X118976248Y-57260000D02*
X120398752Y-57260000D01*
X99142500Y-67310000D02*
X107382500Y-67310000D01*
X107382500Y-62790000D02*
X99142500Y-62790000D01*
X107382500Y-67310000D02*
X107382500Y-62790000D01*
X122890000Y-52376248D02*
X122890000Y-53798752D01*
X124710000Y-52376248D02*
X124710000Y-53798752D01*
X144958748Y-54950000D02*
X146381252Y-54950000D01*
X144958748Y-56770000D02*
X146381252Y-56770000D01*
X153281857Y-72131856D02*
G75*
G02*
X153181855Y-72131856I-50001J0D01*
G01*
X153181855Y-72131856D02*
G75*
G02*
X153281857Y-72131856I50001J0D01*
G01*
X156250000Y-59515000D02*
X160310000Y-59515000D01*
X160310000Y-57245000D02*
X156250000Y-57245000D01*
X160310000Y-59515000D02*
X160310000Y-57245000D01*
X152001252Y-62180000D02*
X150578748Y-62180000D01*
X152001252Y-64000000D02*
X150578748Y-64000000D01*
X101015000Y-56327500D02*
X101015000Y-60387500D01*
X103285000Y-56327500D02*
X101015000Y-56327500D01*
X103285000Y-60387500D02*
X103285000Y-56327500D01*
X120700000Y-83800000D02*
X127300000Y-83800000D01*
X120700000Y-96500000D02*
X120700000Y-83800000D01*
X127300000Y-83800000D02*
X127300000Y-96500000D01*
X127300000Y-96500000D02*
X120700000Y-96500000D01*
X99242500Y-77160000D02*
X107482500Y-77160000D01*
X107482500Y-72640000D02*
X99242500Y-72640000D01*
X107482500Y-77160000D02*
X107482500Y-72640000D01*
X101190000Y-47622936D02*
X101190000Y-49077064D01*
X103010000Y-47622936D02*
X103010000Y-49077064D01*
X149985949Y-69457198D02*
X150192802Y-69664051D01*
X150707198Y-68735949D02*
X150914051Y-68942802D01*
X163177801Y-72127800D02*
G75*
G02*
X163077799Y-72127800I-50001J0D01*
G01*
X163077799Y-72127800D02*
G75*
G02*
X163177801Y-72127800I50001J0D01*
G01*
X157640000Y-77140000D02*
X157640000Y-87260000D01*
X157640000Y-87260000D02*
X162360000Y-87260000D01*
X158250000Y-77750000D02*
X158250000Y-86650000D01*
X158250000Y-80100000D02*
X158750000Y-80100000D01*
X158250000Y-80200000D02*
X158750000Y-80200000D01*
X158250000Y-82100000D02*
X158750000Y-82100000D01*
X158250000Y-82200000D02*
X158750000Y-82200000D01*
X158250000Y-84100000D02*
X158750000Y-84100000D01*
X158250000Y-84200000D02*
X158750000Y-84200000D01*
X158250000Y-86650000D02*
X161750000Y-86650000D01*
X158750000Y-80100000D02*
X158750000Y-80300000D01*
X158750000Y-80300000D02*
X158250000Y-80300000D01*
X158750000Y-82100000D02*
X158750000Y-82300000D01*
X158750000Y-82300000D02*
X158250000Y-82300000D01*
X158750000Y-84100000D02*
X158750000Y-84300000D01*
X158750000Y-84300000D02*
X158250000Y-84300000D01*
X159750000Y-77140000D02*
X159750000Y-77750000D01*
X159750000Y-87260000D02*
X159750000Y-86650000D01*
X161050000Y-77140000D02*
X161050000Y-77750000D01*
X161050000Y-87260000D02*
X161050000Y-86650000D01*
X161750000Y-77750000D02*
X158250000Y-77750000D01*
X161750000Y-79700000D02*
X161750000Y-77750000D01*
X161750000Y-84700000D02*
X162360000Y-84700000D01*
X161750000Y-86650000D02*
X161750000Y-84700000D01*
X162360000Y-77140000D02*
X157640000Y-77140000D01*
X162360000Y-78900000D02*
X162560000Y-78900000D01*
X162360000Y-79700000D02*
X161750000Y-79700000D01*
X162360000Y-87260000D02*
X162360000Y-77140000D01*
X162460000Y-78900000D02*
X162460000Y-78600000D01*
X162560000Y-78600000D02*
X162360000Y-78600000D01*
X162560000Y-78900000D02*
X162560000Y-78600000D01*
X162660000Y-76840000D02*
X161410000Y-76840000D01*
X162660000Y-78090000D02*
X162660000Y-76840000D01*
X136422936Y-95440000D02*
X137877064Y-95440000D01*
X136422936Y-97260000D02*
X137877064Y-97260000D01*
X123940000Y-56190000D02*
X124665000Y-56190000D01*
X123940000Y-56915000D02*
X123940000Y-56190000D01*
X123940000Y-60685000D02*
X123940000Y-61110000D01*
X124665000Y-61410000D02*
X124180000Y-61410000D01*
X129160000Y-56190000D02*
X128435000Y-56190000D01*
X129160000Y-56915000D02*
X129160000Y-56190000D01*
X129160000Y-60685000D02*
X129160000Y-61410000D01*
X129160000Y-61410000D02*
X128435000Y-61410000D01*
X123940000Y-61410000D02*
X123610000Y-61650000D01*
X123610000Y-61170000D01*
X123940000Y-61410000D01*
G36*
X123940000Y-61410000D02*
G01*
X123610000Y-61650000D01*
X123610000Y-61170000D01*
X123940000Y-61410000D01*
G37*
X137585949Y-66657198D02*
X137792802Y-66864051D01*
X138307198Y-65935949D02*
X138514051Y-66142802D01*
X148940000Y-61410000D02*
X148610000Y-61650000D01*
X148610000Y-61170000D01*
X148940000Y-61410000D01*
G36*
X148940000Y-61410000D02*
G01*
X148610000Y-61650000D01*
X148610000Y-61170000D01*
X148940000Y-61410000D01*
G37*
X109670000Y-97000000D02*
G75*
G02*
X109470000Y-97000000I-100000J0D01*
G01*
X109470000Y-97000000D02*
G75*
G02*
X109670000Y-97000000I100000J0D01*
G01*
X113550000Y-58050000D02*
X113550000Y-60350000D01*
X113550000Y-58050000D02*
X118750000Y-58050000D01*
X113550000Y-64850000D02*
X113550000Y-62550000D01*
X113550000Y-64850000D02*
X118750000Y-64850000D01*
X118750000Y-58050000D02*
X120350000Y-59650000D01*
X118750000Y-64850000D02*
X120350000Y-63250000D01*
X120350000Y-59650000D02*
X120350000Y-60350000D01*
X120350000Y-63250000D02*
X120350000Y-62550000D01*
X110674300Y-51491800D02*
X110674300Y-52136960D01*
X110674300Y-55063040D02*
X110674300Y-55708200D01*
X110674300Y-55708200D02*
X115525700Y-55708200D01*
X115525700Y-51491800D02*
X110674300Y-51491800D01*
X115525700Y-52136960D02*
X115525700Y-51491800D01*
X115525700Y-55708200D02*
X115525700Y-55063040D01*
X116884600Y-53600000D02*
X118154600Y-53600000D01*
X117138600Y-54235000D02*
X117138600Y-52965000D01*
X117900600Y-53600000D02*
X117138600Y-52965000D01*
X117900600Y-53600000D02*
X117138600Y-53092000D01*
X117900600Y-53600000D02*
X117138600Y-53219000D01*
X117900600Y-53600000D02*
X117138600Y-53346000D01*
X117900600Y-53600000D02*
X117138600Y-53473000D01*
X117900600Y-53600000D02*
X117138600Y-53727000D01*
X117900600Y-53600000D02*
X117138600Y-53854000D01*
X117900600Y-53600000D02*
X117138600Y-53981000D01*
X117900600Y-53600000D02*
X117138600Y-54108000D01*
X117900600Y-53600000D02*
X117138600Y-54235000D01*
X117900600Y-54235000D02*
X117900600Y-52965000D01*
X159626069Y-69347318D02*
X159832922Y-69554171D01*
X160347318Y-68626069D02*
X160554171Y-68832922D01*
X131300000Y-59485000D02*
X135360000Y-59485000D01*
X135360000Y-57215000D02*
X131300000Y-57215000D01*
X135360000Y-59485000D02*
X135360000Y-57215000D01*
X134026069Y-66647318D02*
X134232922Y-66854171D01*
X134747318Y-65926069D02*
X134954171Y-66132922D01*
X128127900Y-84183200D02*
X128127900Y-94927400D01*
X128127900Y-94927400D02*
X132417960Y-94927400D01*
X132417960Y-84183200D02*
X128127900Y-84183200D01*
X134582040Y-94927400D02*
X138872100Y-94927400D01*
X138872100Y-84183200D02*
X134582040Y-84183200D01*
X138872100Y-94927400D02*
X138872100Y-84183200D01*
X156267500Y-57075000D02*
X160327500Y-57075000D01*
X160327500Y-54805000D02*
X156267500Y-54805000D01*
X160327500Y-57075000D02*
X160327500Y-54805000D01*
X140300000Y-57650000D02*
X140300000Y-59950000D01*
X140300000Y-57650000D02*
X145500000Y-57650000D01*
X140300000Y-64450000D02*
X140300000Y-62150000D01*
X140300000Y-64450000D02*
X145500000Y-64450000D01*
X145500000Y-57650000D02*
X147100000Y-59250000D01*
X145500000Y-64450000D02*
X147100000Y-62850000D01*
X147100000Y-59250000D02*
X147100000Y-59950000D01*
X147100000Y-62850000D02*
X147100000Y-62150000D01*
X143843711Y-69393710D02*
G75*
G02*
X143743709Y-69393710I-50001J0D01*
G01*
X143743709Y-69393710D02*
G75*
G02*
X143843711Y-69393710I50001J0D01*
G01*
X132390000Y-61338748D02*
X132390000Y-62761252D01*
X134210000Y-61338748D02*
X134210000Y-62761252D01*
X118272936Y-50290000D02*
X119727064Y-50290000D01*
X118272936Y-52110000D02*
X119727064Y-52110000D01*
X155090000Y-62038748D02*
X155090000Y-63461252D01*
X156910000Y-62038748D02*
X156910000Y-63461252D01*
X128840000Y-81011252D02*
X128840000Y-79588748D01*
X130660000Y-81011252D02*
X130660000Y-79588748D01*
X128450000Y-97485000D02*
X132510000Y-97485000D01*
X132510000Y-95215000D02*
X128450000Y-95215000D01*
X132510000Y-97485000D02*
X132510000Y-95215000D01*
X141794111Y-70116110D02*
G75*
G02*
X141694109Y-70116110I-50001J0D01*
G01*
X141694109Y-70116110D02*
G75*
G02*
X141794111Y-70116110I50001J0D01*
G01*
X101200000Y-52700436D02*
X101200000Y-54154564D01*
X103020000Y-52700436D02*
X103020000Y-54154564D01*
X156376069Y-69447318D02*
X156582922Y-69654171D01*
X157097318Y-68726069D02*
X157304171Y-68932922D01*
X110085000Y-89985000D02*
X110085000Y-90265000D01*
X110085000Y-89985000D02*
X119415000Y-89985000D01*
X110085000Y-95015000D02*
X110085000Y-94735000D01*
X119415000Y-89985000D02*
X119415000Y-90265000D01*
X119415000Y-95015000D02*
X110085000Y-95015000D01*
X119415000Y-95015000D02*
X119415000Y-94735000D01*
X154471252Y-52260000D02*
X153048748Y-52260000D01*
X154471252Y-54080000D02*
X153048748Y-54080000D01*
X137631857Y-69431856D02*
G75*
G02*
X137531855Y-69431856I-50001J0D01*
G01*
X137531855Y-69431856D02*
G75*
G02*
X137631857Y-69431856I50001J0D01*
G01*
X161839464Y-52354000D02*
X160385336Y-52354000D01*
X161839464Y-54174000D02*
X160385336Y-54174000D01*
X99200000Y-72110000D02*
X107440000Y-72110000D01*
X107440000Y-67590000D02*
X99200000Y-67590000D01*
X107440000Y-72110000D02*
X107440000Y-67590000D01*
X157400000Y-62038748D02*
X157400000Y-63461252D01*
X159220000Y-62038748D02*
X159220000Y-63461252D01*
X157017457Y-72893456D02*
G75*
G02*
X156917455Y-72893456I-50001J0D01*
G01*
X156917455Y-72893456D02*
G75*
G02*
X157017457Y-72893456I50001J0D01*
G01*
X159781857Y-72131856D02*
G75*
G02*
X159681855Y-72131856I-50001J0D01*
G01*
X159681855Y-72131856D02*
G75*
G02*
X159781857Y-72131856I50001J0D01*
G01*
X140235949Y-66607198D02*
X140442802Y-66814051D01*
X140957198Y-65885949D02*
X141164051Y-66092802D01*
X127061252Y-62990000D02*
X125638748Y-62990000D01*
X127061252Y-64810000D02*
X125638748Y-64810000D01*
X131300000Y-57035000D02*
X135360000Y-57035000D01*
X135360000Y-54765000D02*
X131300000Y-54765000D01*
X135360000Y-57035000D02*
X135360000Y-54765000D01*
D13*
X136174000Y-60696664D02*
X136174000Y-59242536D01*
X137994000Y-60696664D02*
X137994000Y-59242536D01*
D11*
X141127064Y-54940000D02*
X139672936Y-54940000D01*
X141127064Y-56760000D02*
X139672936Y-56760000D01*
X131023752Y-51090000D02*
X129601248Y-51090000D01*
X131023752Y-52910000D02*
X129601248Y-52910000D01*
X130090000Y-61338748D02*
X130090000Y-62761252D01*
X131910000Y-61338748D02*
X131910000Y-62761252D01*
X153621549Y-70208918D02*
X153828402Y-70415771D01*
X154342798Y-69487669D02*
X154549651Y-69694522D01*
X152001252Y-64590000D02*
X150578748Y-64590000D01*
X152001252Y-66410000D02*
X150578748Y-66410000D01*
X146881857Y-69381856D02*
G75*
G02*
X146781855Y-69381856I-50001J0D01*
G01*
X146781855Y-69381856D02*
G75*
G02*
X146881857Y-69381856I50001J0D01*
G01*
X127061252Y-65390000D02*
X125638748Y-65390000D01*
X127061252Y-67210000D02*
X125638748Y-67210000D01*
X144938748Y-52490000D02*
X146361252Y-52490000D01*
X144938748Y-54310000D02*
X146361252Y-54310000D01*
X104085000Y-51835000D02*
X104365000Y-51835000D01*
X104085000Y-61165000D02*
X104085000Y-51835000D01*
X104085000Y-61165000D02*
X104365000Y-61165000D01*
X109115000Y-51835000D02*
X108835000Y-51835000D01*
X109115000Y-51835000D02*
X109115000Y-61165000D01*
X109115000Y-61165000D02*
X108835000Y-61165000D01*
D13*
X161726400Y-63084264D02*
X161726400Y-61630136D01*
X163546400Y-63084264D02*
X163546400Y-61630136D01*
M02*
