%TF.GenerationSoftware,KiCad,Pcbnew,9.0.2*%
%TF.CreationDate,2025-10-25T21:33:29-05:00*%
%TF.ProjectId,telescope_driver,74656c65-7363-46f7-9065-5f6472697665,rev?*%
%TF.SameCoordinates,Original*%
%TF.FileFunction,Drillmap*%
%TF.FilePolarity,Positive*%
%FSLAX45Y45*%
G04 Gerber Fmt 4.5, Leading zero omitted, Abs format (unit mm)*
G04 Created by KiCad (PCBNEW 9.0.2) date 2025-10-25 21:33:29*
%MOMM*%
%LPD*%
G01*
G04 APERTURE LIST*
%ADD10C,0.160000*%
%ADD11C,0.200000*%
%ADD12C,0.100000*%
%ADD13C,0.110000*%
%ADD14C,0.125000*%
%ADD15C,0.175000*%
%ADD16C,0.185000*%
G04 APERTURE END LIST*
D10*
X10100000Y-10000000D02*
G75*
G02*
X9800000Y-9700000I0J300000D01*
G01*
X9800000Y-4700000D02*
G75*
G02*
X10100000Y-4400000I300000J0D01*
G01*
X16199329Y-4400000D02*
G75*
G02*
X16500000Y-4694552I3541J-297120D01*
G01*
X16500000Y-9700000D02*
X16500000Y-4694552D01*
X10300000Y-4400000D02*
X10100000Y-4400000D01*
X14700000Y-8100000D02*
X14700000Y-9600000D01*
X14500000Y-9600000D02*
X14500000Y-8100000D01*
X10300000Y-10000000D02*
X16200000Y-10000000D01*
X10300000Y-10000000D02*
X10100000Y-10000000D01*
X14500000Y-8100000D02*
G75*
G02*
X14700000Y-8100000I100000J0D01*
G01*
X9800000Y-9700000D02*
X9800000Y-4700000D01*
X16500000Y-9700000D02*
G75*
G02*
X16200000Y-10000000I-300000J0D01*
G01*
X14700000Y-9600000D02*
G75*
G02*
X14500000Y-9600000I-100000J0D01*
G01*
X16199329Y-4400000D02*
X10300000Y-4400000D01*
D11*
D12*
X10410000Y-4830000D02*
X10430000Y-4850000D01*
X10430000Y-4830000D02*
X10410000Y-4850000D01*
X11110000Y-8370000D02*
X11130000Y-8390000D01*
X11130000Y-8370000D02*
X11110000Y-8390000D01*
X11170000Y-5870000D02*
X11190000Y-5890000D01*
X11190000Y-5870000D02*
X11170000Y-5890000D01*
X11405000Y-6630000D02*
X11425000Y-6650000D01*
X11425000Y-6630000D02*
X11405000Y-6650000D01*
X11405000Y-7010000D02*
X11425000Y-7030000D01*
X11425000Y-7010000D02*
X11405000Y-7030000D01*
X11850000Y-7310000D02*
X11870000Y-7330000D01*
X11870000Y-7310000D02*
X11850000Y-7330000D01*
X12250000Y-5810000D02*
X12270000Y-5830000D01*
X12270000Y-5810000D02*
X12250000Y-5830000D01*
X12250000Y-5925000D02*
X12270000Y-5945000D01*
X12270000Y-5925000D02*
X12250000Y-5945000D01*
X12469389Y-6165000D02*
X12489389Y-6185000D01*
X12489389Y-6165000D02*
X12469389Y-6185000D01*
X12490000Y-6830000D02*
X12510000Y-6850000D01*
X12510000Y-6830000D02*
X12490000Y-6850000D01*
X12525000Y-5495000D02*
X12545000Y-5515000D01*
X12545000Y-5495000D02*
X12525000Y-5515000D01*
X12750000Y-7610000D02*
X12770000Y-7630000D01*
X12770000Y-7610000D02*
X12750000Y-7630000D01*
X13130000Y-6830000D02*
X13150000Y-6850000D01*
X13150000Y-6830000D02*
X13130000Y-6850000D01*
X13566000Y-8301000D02*
X13586000Y-8321000D01*
X13586000Y-8301000D02*
X13566000Y-8321000D01*
X13577500Y-6767500D02*
X13597500Y-6787500D01*
X13597500Y-6767500D02*
X13577500Y-6787500D01*
X13790000Y-5250000D02*
X13810000Y-5270000D01*
X13810000Y-5250000D02*
X13790000Y-5270000D01*
X13930000Y-6770000D02*
X13950000Y-6790000D01*
X13950000Y-6770000D02*
X13930000Y-6790000D01*
X14210000Y-6770000D02*
X14230000Y-6790000D01*
X14230000Y-6770000D02*
X14210000Y-6790000D01*
X14330000Y-7870000D02*
X14350000Y-7890000D01*
X14350000Y-7870000D02*
X14330000Y-7890000D01*
X14515000Y-6770000D02*
X14535000Y-6790000D01*
X14535000Y-6770000D02*
X14515000Y-6790000D01*
X14763000Y-5821000D02*
X14783000Y-5841000D01*
X14783000Y-5821000D02*
X14763000Y-5841000D01*
X14776640Y-5934640D02*
X14796640Y-5954640D01*
X14796640Y-5934640D02*
X14776640Y-5954640D01*
X14920539Y-6106740D02*
X14940539Y-6126740D01*
X14940539Y-6106740D02*
X14920539Y-6126740D01*
X14930000Y-7030000D02*
X14950000Y-7050000D01*
X14950000Y-7030000D02*
X14930000Y-7050000D01*
X14995000Y-5500000D02*
X15015000Y-5520000D01*
X15015000Y-5500000D02*
X14995000Y-5520000D01*
X15160000Y-7050000D02*
X15180000Y-7070000D01*
X15180000Y-7050000D02*
X15160000Y-7070000D01*
X15190000Y-9070000D02*
X15210000Y-9090000D01*
X15210000Y-9070000D02*
X15190000Y-9090000D01*
X15190000Y-9630000D02*
X15210000Y-9650000D01*
X15210000Y-9630000D02*
X15190000Y-9650000D01*
X15390000Y-5515000D02*
X15410000Y-5535000D01*
X15410000Y-5515000D02*
X15390000Y-5535000D01*
X15490000Y-5970000D02*
X15510000Y-5990000D01*
X15510000Y-5970000D02*
X15490000Y-5990000D01*
X15533560Y-7126160D02*
X15553560Y-7146160D01*
X15553560Y-7126160D02*
X15533560Y-7146160D01*
X15800000Y-7045000D02*
X15820000Y-7065000D01*
X15820000Y-7045000D02*
X15800000Y-7065000D01*
X15950000Y-9070000D02*
X15970000Y-9090000D01*
X15970000Y-9070000D02*
X15950000Y-9090000D01*
X16144012Y-7045000D02*
X16164012Y-7065000D01*
X16164012Y-7045000D02*
X16144012Y-7065000D01*
X16250000Y-6670000D02*
X16270000Y-6690000D01*
X16270000Y-6670000D02*
X16250000Y-6690000D01*
X12515000Y-5730000D02*
G75*
G02*
X12495000Y-5730000I-10000J0D01*
G01*
X12495000Y-5730000D02*
G75*
G02*
X12515000Y-5730000I10000J0D01*
G01*
X12515000Y-5830000D02*
G75*
G02*
X12495000Y-5830000I-10000J0D01*
G01*
X12495000Y-5830000D02*
G75*
G02*
X12515000Y-5830000I10000J0D01*
G01*
X12515000Y-5930000D02*
G75*
G02*
X12495000Y-5930000I-10000J0D01*
G01*
X12495000Y-5930000D02*
G75*
G02*
X12515000Y-5930000I10000J0D01*
G01*
X12515000Y-6030000D02*
G75*
G02*
X12495000Y-6030000I-10000J0D01*
G01*
X12495000Y-6030000D02*
G75*
G02*
X12515000Y-6030000I10000J0D01*
G01*
X12615000Y-5730000D02*
G75*
G02*
X12595000Y-5730000I-10000J0D01*
G01*
X12595000Y-5730000D02*
G75*
G02*
X12615000Y-5730000I10000J0D01*
G01*
X12615000Y-5830000D02*
G75*
G02*
X12595000Y-5830000I-10000J0D01*
G01*
X12595000Y-5830000D02*
G75*
G02*
X12615000Y-5830000I10000J0D01*
G01*
X12615000Y-5930000D02*
G75*
G02*
X12595000Y-5930000I-10000J0D01*
G01*
X12595000Y-5930000D02*
G75*
G02*
X12615000Y-5930000I10000J0D01*
G01*
X12615000Y-6030000D02*
G75*
G02*
X12595000Y-6030000I-10000J0D01*
G01*
X12595000Y-6030000D02*
G75*
G02*
X12615000Y-6030000I10000J0D01*
G01*
X12715000Y-5730000D02*
G75*
G02*
X12695000Y-5730000I-10000J0D01*
G01*
X12695000Y-5730000D02*
G75*
G02*
X12715000Y-5730000I10000J0D01*
G01*
X12715000Y-5830000D02*
G75*
G02*
X12695000Y-5830000I-10000J0D01*
G01*
X12695000Y-5830000D02*
G75*
G02*
X12715000Y-5830000I10000J0D01*
G01*
X12715000Y-5930000D02*
G75*
G02*
X12695000Y-5930000I-10000J0D01*
G01*
X12695000Y-5930000D02*
G75*
G02*
X12715000Y-5930000I10000J0D01*
G01*
X12715000Y-6030000D02*
G75*
G02*
X12695000Y-6030000I-10000J0D01*
G01*
X12695000Y-6030000D02*
G75*
G02*
X12715000Y-6030000I10000J0D01*
G01*
X12815000Y-5730000D02*
G75*
G02*
X12795000Y-5730000I-10000J0D01*
G01*
X12795000Y-5730000D02*
G75*
G02*
X12815000Y-5730000I10000J0D01*
G01*
X12815000Y-5830000D02*
G75*
G02*
X12795000Y-5830000I-10000J0D01*
G01*
X12795000Y-5830000D02*
G75*
G02*
X12815000Y-5830000I10000J0D01*
G01*
X12815000Y-5930000D02*
G75*
G02*
X12795000Y-5930000I-10000J0D01*
G01*
X12795000Y-5930000D02*
G75*
G02*
X12815000Y-5930000I10000J0D01*
G01*
X12815000Y-6030000D02*
G75*
G02*
X12795000Y-6030000I-10000J0D01*
G01*
X12795000Y-6030000D02*
G75*
G02*
X12815000Y-6030000I10000J0D01*
G01*
X15015000Y-5730000D02*
G75*
G02*
X14995000Y-5730000I-10000J0D01*
G01*
X14995000Y-5730000D02*
G75*
G02*
X15015000Y-5730000I10000J0D01*
G01*
X15015000Y-5830000D02*
G75*
G02*
X14995000Y-5830000I-10000J0D01*
G01*
X14995000Y-5830000D02*
G75*
G02*
X15015000Y-5830000I10000J0D01*
G01*
X15015000Y-5930000D02*
G75*
G02*
X14995000Y-5930000I-10000J0D01*
G01*
X14995000Y-5930000D02*
G75*
G02*
X15015000Y-5930000I10000J0D01*
G01*
X15015000Y-6030000D02*
G75*
G02*
X14995000Y-6030000I-10000J0D01*
G01*
X14995000Y-6030000D02*
G75*
G02*
X15015000Y-6030000I10000J0D01*
G01*
X15115000Y-5730000D02*
G75*
G02*
X15095000Y-5730000I-10000J0D01*
G01*
X15095000Y-5730000D02*
G75*
G02*
X15115000Y-5730000I10000J0D01*
G01*
X15115000Y-5830000D02*
G75*
G02*
X15095000Y-5830000I-10000J0D01*
G01*
X15095000Y-5830000D02*
G75*
G02*
X15115000Y-5830000I10000J0D01*
G01*
X15115000Y-5930000D02*
G75*
G02*
X15095000Y-5930000I-10000J0D01*
G01*
X15095000Y-5930000D02*
G75*
G02*
X15115000Y-5930000I10000J0D01*
G01*
X15115000Y-6030000D02*
G75*
G02*
X15095000Y-6030000I-10000J0D01*
G01*
X15095000Y-6030000D02*
G75*
G02*
X15115000Y-6030000I10000J0D01*
G01*
X15215000Y-5730000D02*
G75*
G02*
X15195000Y-5730000I-10000J0D01*
G01*
X15195000Y-5730000D02*
G75*
G02*
X15215000Y-5730000I10000J0D01*
G01*
X15215000Y-5830000D02*
G75*
G02*
X15195000Y-5830000I-10000J0D01*
G01*
X15195000Y-5830000D02*
G75*
G02*
X15215000Y-5830000I10000J0D01*
G01*
X15215000Y-5930000D02*
G75*
G02*
X15195000Y-5930000I-10000J0D01*
G01*
X15195000Y-5930000D02*
G75*
G02*
X15215000Y-5930000I10000J0D01*
G01*
X15215000Y-6030000D02*
G75*
G02*
X15195000Y-6030000I-10000J0D01*
G01*
X15195000Y-6030000D02*
G75*
G02*
X15215000Y-6030000I10000J0D01*
G01*
X15315000Y-5730000D02*
G75*
G02*
X15295000Y-5730000I-10000J0D01*
G01*
X15295000Y-5730000D02*
G75*
G02*
X15315000Y-5730000I10000J0D01*
G01*
X15315000Y-5830000D02*
G75*
G02*
X15295000Y-5830000I-10000J0D01*
G01*
X15295000Y-5830000D02*
G75*
G02*
X15315000Y-5830000I10000J0D01*
G01*
X15315000Y-5930000D02*
G75*
G02*
X15295000Y-5930000I-10000J0D01*
G01*
X15295000Y-5930000D02*
G75*
G02*
X15315000Y-5930000I10000J0D01*
G01*
X15315000Y-6030000D02*
G75*
G02*
X15295000Y-6030000I-10000J0D01*
G01*
X15295000Y-6030000D02*
G75*
G02*
X15315000Y-6030000I10000J0D01*
G01*
X13870000Y-5830000D02*
X13870000Y-5860000D01*
X13855000Y-5845000D02*
X13885000Y-5845000D01*
X14335000Y-6365000D02*
X14335000Y-6395000D01*
X14320000Y-6380000D02*
X14350000Y-6380000D01*
X14475000Y-6490000D02*
X14475000Y-6520000D01*
X14460000Y-6505000D02*
X14490000Y-6505000D01*
X13771213Y-8036213D02*
X13771213Y-7993787D01*
X13728787Y-7993787D01*
X13728787Y-8036213D01*
X13771213Y-8036213D01*
X15255000Y-7957500D02*
X15292500Y-7920000D01*
X15255000Y-7882500D01*
X15217500Y-7920000D01*
X15255000Y-7957500D01*
X15255000Y-8157500D02*
X15292500Y-8120000D01*
X15255000Y-8082500D01*
X15217500Y-8120000D01*
X15255000Y-8157500D01*
X15255000Y-8357500D02*
X15292500Y-8320000D01*
X15255000Y-8282500D01*
X15217500Y-8320000D01*
X15255000Y-8357500D01*
X15255000Y-8557500D02*
X15292500Y-8520000D01*
X15255000Y-8482500D01*
X15217500Y-8520000D01*
X15255000Y-8557500D01*
X16055000Y-7957500D02*
X16092500Y-7920000D01*
X16055000Y-7882500D01*
X16017500Y-7920000D01*
X16055000Y-7957500D01*
X16055000Y-8157500D02*
X16092500Y-8120000D01*
X16055000Y-8082500D01*
X16017500Y-8120000D01*
X16055000Y-8157500D01*
X16055000Y-8357500D02*
X16092500Y-8320000D01*
X16055000Y-8282500D01*
X16017500Y-8320000D01*
X16055000Y-8357500D01*
X16055000Y-8557500D02*
X16092500Y-8520000D01*
X16055000Y-8482500D01*
X16017500Y-8520000D01*
X16055000Y-8557500D01*
X10787000Y-4573000D02*
X10887000Y-4673000D01*
X10887000Y-4573000D02*
X10787000Y-4673000D01*
X10887000Y-4623000D02*
G75*
G02*
X10787000Y-4623000I-50000J0D01*
G01*
X10787000Y-4623000D02*
G75*
G02*
X10887000Y-4623000I50000J0D01*
G01*
X10787000Y-4827000D02*
X10887000Y-4927000D01*
X10887000Y-4827000D02*
X10787000Y-4927000D01*
X10887000Y-4877000D02*
G75*
G02*
X10787000Y-4877000I-50000J0D01*
G01*
X10787000Y-4877000D02*
G75*
G02*
X10887000Y-4877000I50000J0D01*
G01*
X11041000Y-4573000D02*
X11141000Y-4673000D01*
X11141000Y-4573000D02*
X11041000Y-4673000D01*
X11141000Y-4623000D02*
G75*
G02*
X11041000Y-4623000I-50000J0D01*
G01*
X11041000Y-4623000D02*
G75*
G02*
X11141000Y-4623000I50000J0D01*
G01*
X11041000Y-4827000D02*
X11141000Y-4927000D01*
X11141000Y-4827000D02*
X11041000Y-4927000D01*
X11141000Y-4877000D02*
G75*
G02*
X11041000Y-4877000I-50000J0D01*
G01*
X11041000Y-4877000D02*
G75*
G02*
X11141000Y-4877000I50000J0D01*
G01*
X11295000Y-4573000D02*
X11395000Y-4673000D01*
X11395000Y-4573000D02*
X11295000Y-4673000D01*
X11395000Y-4623000D02*
G75*
G02*
X11295000Y-4623000I-50000J0D01*
G01*
X11295000Y-4623000D02*
G75*
G02*
X11395000Y-4623000I50000J0D01*
G01*
X11295000Y-4827000D02*
X11395000Y-4927000D01*
X11395000Y-4827000D02*
X11295000Y-4927000D01*
X11395000Y-4877000D02*
G75*
G02*
X11295000Y-4877000I-50000J0D01*
G01*
X11295000Y-4877000D02*
G75*
G02*
X11395000Y-4877000I50000J0D01*
G01*
X11549000Y-4573000D02*
X11649000Y-4673000D01*
X11649000Y-4573000D02*
X11549000Y-4673000D01*
X11649000Y-4623000D02*
G75*
G02*
X11549000Y-4623000I-50000J0D01*
G01*
X11549000Y-4623000D02*
G75*
G02*
X11649000Y-4623000I50000J0D01*
G01*
X11549000Y-4827000D02*
X11649000Y-4927000D01*
X11649000Y-4827000D02*
X11549000Y-4927000D01*
X11649000Y-4877000D02*
G75*
G02*
X11549000Y-4877000I-50000J0D01*
G01*
X11549000Y-4877000D02*
G75*
G02*
X11649000Y-4877000I50000J0D01*
G01*
X11803000Y-4573000D02*
X11903000Y-4673000D01*
X11903000Y-4573000D02*
X11803000Y-4673000D01*
X11903000Y-4623000D02*
G75*
G02*
X11803000Y-4623000I-50000J0D01*
G01*
X11803000Y-4623000D02*
G75*
G02*
X11903000Y-4623000I50000J0D01*
G01*
X11803000Y-4827000D02*
X11903000Y-4927000D01*
X11903000Y-4827000D02*
X11803000Y-4927000D01*
X11903000Y-4877000D02*
G75*
G02*
X11803000Y-4877000I-50000J0D01*
G01*
X11803000Y-4877000D02*
G75*
G02*
X11903000Y-4877000I50000J0D01*
G01*
X12057000Y-4573000D02*
X12157000Y-4673000D01*
X12157000Y-4573000D02*
X12057000Y-4673000D01*
X12157000Y-4623000D02*
G75*
G02*
X12057000Y-4623000I-50000J0D01*
G01*
X12057000Y-4623000D02*
G75*
G02*
X12157000Y-4623000I50000J0D01*
G01*
X12057000Y-4827000D02*
X12157000Y-4927000D01*
X12157000Y-4827000D02*
X12057000Y-4927000D01*
X12157000Y-4877000D02*
G75*
G02*
X12057000Y-4877000I-50000J0D01*
G01*
X12057000Y-4877000D02*
G75*
G02*
X12157000Y-4877000I50000J0D01*
G01*
X12311000Y-4573000D02*
X12411000Y-4673000D01*
X12411000Y-4573000D02*
X12311000Y-4673000D01*
X12411000Y-4623000D02*
G75*
G02*
X12311000Y-4623000I-50000J0D01*
G01*
X12311000Y-4623000D02*
G75*
G02*
X12411000Y-4623000I50000J0D01*
G01*
X12311000Y-4827000D02*
X12411000Y-4927000D01*
X12411000Y-4827000D02*
X12311000Y-4927000D01*
X12411000Y-4877000D02*
G75*
G02*
X12311000Y-4877000I-50000J0D01*
G01*
X12311000Y-4877000D02*
G75*
G02*
X12411000Y-4877000I50000J0D01*
G01*
X12565000Y-4573000D02*
X12665000Y-4673000D01*
X12665000Y-4573000D02*
X12565000Y-4673000D01*
X12665000Y-4623000D02*
G75*
G02*
X12565000Y-4623000I-50000J0D01*
G01*
X12565000Y-4623000D02*
G75*
G02*
X12665000Y-4623000I50000J0D01*
G01*
X12565000Y-4827000D02*
X12665000Y-4927000D01*
X12665000Y-4827000D02*
X12565000Y-4927000D01*
X12665000Y-4877000D02*
G75*
G02*
X12565000Y-4877000I-50000J0D01*
G01*
X12565000Y-4877000D02*
G75*
G02*
X12665000Y-4877000I50000J0D01*
G01*
X12819000Y-4573000D02*
X12919000Y-4673000D01*
X12919000Y-4573000D02*
X12819000Y-4673000D01*
X12919000Y-4623000D02*
G75*
G02*
X12819000Y-4623000I-50000J0D01*
G01*
X12819000Y-4623000D02*
G75*
G02*
X12919000Y-4623000I50000J0D01*
G01*
X12819000Y-4827000D02*
X12919000Y-4927000D01*
X12919000Y-4827000D02*
X12819000Y-4927000D01*
X12919000Y-4877000D02*
G75*
G02*
X12819000Y-4877000I-50000J0D01*
G01*
X12819000Y-4877000D02*
G75*
G02*
X12919000Y-4877000I50000J0D01*
G01*
X13073000Y-4573000D02*
X13173000Y-4673000D01*
X13173000Y-4573000D02*
X13073000Y-4673000D01*
X13173000Y-4623000D02*
G75*
G02*
X13073000Y-4623000I-50000J0D01*
G01*
X13073000Y-4623000D02*
G75*
G02*
X13173000Y-4623000I50000J0D01*
G01*
X13073000Y-4827000D02*
X13173000Y-4927000D01*
X13173000Y-4827000D02*
X13073000Y-4927000D01*
X13173000Y-4877000D02*
G75*
G02*
X13073000Y-4877000I-50000J0D01*
G01*
X13073000Y-4877000D02*
G75*
G02*
X13173000Y-4877000I50000J0D01*
G01*
X13327000Y-4573000D02*
X13427000Y-4673000D01*
X13427000Y-4573000D02*
X13327000Y-4673000D01*
X13427000Y-4623000D02*
G75*
G02*
X13327000Y-4623000I-50000J0D01*
G01*
X13327000Y-4623000D02*
G75*
G02*
X13427000Y-4623000I50000J0D01*
G01*
X13327000Y-4827000D02*
X13427000Y-4927000D01*
X13427000Y-4827000D02*
X13327000Y-4927000D01*
X13427000Y-4877000D02*
G75*
G02*
X13327000Y-4877000I-50000J0D01*
G01*
X13327000Y-4877000D02*
G75*
G02*
X13427000Y-4877000I50000J0D01*
G01*
X13581000Y-4573000D02*
X13681000Y-4673000D01*
X13681000Y-4573000D02*
X13581000Y-4673000D01*
X13681000Y-4623000D02*
G75*
G02*
X13581000Y-4623000I-50000J0D01*
G01*
X13581000Y-4623000D02*
G75*
G02*
X13681000Y-4623000I50000J0D01*
G01*
X13581000Y-4827000D02*
X13681000Y-4927000D01*
X13681000Y-4827000D02*
X13581000Y-4927000D01*
X13681000Y-4877000D02*
G75*
G02*
X13581000Y-4877000I-50000J0D01*
G01*
X13581000Y-4877000D02*
G75*
G02*
X13681000Y-4877000I50000J0D01*
G01*
X13835000Y-4573000D02*
X13935000Y-4673000D01*
X13935000Y-4573000D02*
X13835000Y-4673000D01*
X13935000Y-4623000D02*
G75*
G02*
X13835000Y-4623000I-50000J0D01*
G01*
X13835000Y-4623000D02*
G75*
G02*
X13935000Y-4623000I50000J0D01*
G01*
X13835000Y-4827000D02*
X13935000Y-4927000D01*
X13935000Y-4827000D02*
X13835000Y-4927000D01*
X13935000Y-4877000D02*
G75*
G02*
X13835000Y-4877000I-50000J0D01*
G01*
X13835000Y-4877000D02*
G75*
G02*
X13935000Y-4877000I50000J0D01*
G01*
X14089000Y-4573000D02*
X14189000Y-4673000D01*
X14189000Y-4573000D02*
X14089000Y-4673000D01*
X14189000Y-4623000D02*
G75*
G02*
X14089000Y-4623000I-50000J0D01*
G01*
X14089000Y-4623000D02*
G75*
G02*
X14189000Y-4623000I50000J0D01*
G01*
X14089000Y-4827000D02*
X14189000Y-4927000D01*
X14189000Y-4827000D02*
X14089000Y-4927000D01*
X14189000Y-4877000D02*
G75*
G02*
X14089000Y-4877000I-50000J0D01*
G01*
X14089000Y-4877000D02*
G75*
G02*
X14189000Y-4877000I50000J0D01*
G01*
X14343000Y-4573000D02*
X14443000Y-4673000D01*
X14443000Y-4573000D02*
X14343000Y-4673000D01*
X14443000Y-4623000D02*
G75*
G02*
X14343000Y-4623000I-50000J0D01*
G01*
X14343000Y-4623000D02*
G75*
G02*
X14443000Y-4623000I50000J0D01*
G01*
X14343000Y-4827000D02*
X14443000Y-4927000D01*
X14443000Y-4827000D02*
X14343000Y-4927000D01*
X14443000Y-4877000D02*
G75*
G02*
X14343000Y-4877000I-50000J0D01*
G01*
X14343000Y-4877000D02*
G75*
G02*
X14443000Y-4877000I50000J0D01*
G01*
X14597000Y-4573000D02*
X14697000Y-4673000D01*
X14697000Y-4573000D02*
X14597000Y-4673000D01*
X14697000Y-4623000D02*
G75*
G02*
X14597000Y-4623000I-50000J0D01*
G01*
X14597000Y-4623000D02*
G75*
G02*
X14697000Y-4623000I50000J0D01*
G01*
X14597000Y-4827000D02*
X14697000Y-4927000D01*
X14697000Y-4827000D02*
X14597000Y-4927000D01*
X14697000Y-4877000D02*
G75*
G02*
X14597000Y-4877000I-50000J0D01*
G01*
X14597000Y-4877000D02*
G75*
G02*
X14697000Y-4877000I50000J0D01*
G01*
X14851000Y-4573000D02*
X14951000Y-4673000D01*
X14951000Y-4573000D02*
X14851000Y-4673000D01*
X14951000Y-4623000D02*
G75*
G02*
X14851000Y-4623000I-50000J0D01*
G01*
X14851000Y-4623000D02*
G75*
G02*
X14951000Y-4623000I50000J0D01*
G01*
X14851000Y-4827000D02*
X14951000Y-4927000D01*
X14951000Y-4827000D02*
X14851000Y-4927000D01*
X14951000Y-4877000D02*
G75*
G02*
X14851000Y-4877000I-50000J0D01*
G01*
X14851000Y-4877000D02*
G75*
G02*
X14951000Y-4877000I50000J0D01*
G01*
X15105000Y-4573000D02*
X15205000Y-4673000D01*
X15205000Y-4573000D02*
X15105000Y-4673000D01*
X15205000Y-4623000D02*
G75*
G02*
X15105000Y-4623000I-50000J0D01*
G01*
X15105000Y-4623000D02*
G75*
G02*
X15205000Y-4623000I50000J0D01*
G01*
X15105000Y-4827000D02*
X15205000Y-4927000D01*
X15205000Y-4827000D02*
X15105000Y-4927000D01*
X15205000Y-4877000D02*
G75*
G02*
X15105000Y-4877000I-50000J0D01*
G01*
X15105000Y-4877000D02*
G75*
G02*
X15205000Y-4877000I50000J0D01*
G01*
X15359000Y-4573000D02*
X15459000Y-4673000D01*
X15459000Y-4573000D02*
X15359000Y-4673000D01*
X15459000Y-4623000D02*
G75*
G02*
X15359000Y-4623000I-50000J0D01*
G01*
X15359000Y-4623000D02*
G75*
G02*
X15459000Y-4623000I50000J0D01*
G01*
X15359000Y-4827000D02*
X15459000Y-4927000D01*
X15459000Y-4827000D02*
X15359000Y-4927000D01*
X15459000Y-4877000D02*
G75*
G02*
X15359000Y-4877000I-50000J0D01*
G01*
X15359000Y-4877000D02*
G75*
G02*
X15459000Y-4877000I50000J0D01*
G01*
X15613000Y-4573000D02*
X15713000Y-4673000D01*
X15713000Y-4573000D02*
X15613000Y-4673000D01*
X15713000Y-4623000D02*
G75*
G02*
X15613000Y-4623000I-50000J0D01*
G01*
X15613000Y-4623000D02*
G75*
G02*
X15713000Y-4623000I50000J0D01*
G01*
X15613000Y-4827000D02*
X15713000Y-4927000D01*
X15713000Y-4827000D02*
X15613000Y-4927000D01*
X15713000Y-4877000D02*
G75*
G02*
X15613000Y-4877000I-50000J0D01*
G01*
X15613000Y-4877000D02*
G75*
G02*
X15713000Y-4877000I50000J0D01*
G01*
D13*
X13216000Y-7290000D02*
X13326000Y-7400000D01*
X13326000Y-7290000D02*
X13216000Y-7400000D01*
X13271000Y-7290000D02*
X13271000Y-7400000D01*
X13216000Y-7345000D02*
X13326000Y-7345000D01*
X13724000Y-7290000D02*
X13834000Y-7400000D01*
X13834000Y-7290000D02*
X13724000Y-7400000D01*
X13779000Y-7290000D02*
X13779000Y-7400000D01*
X13724000Y-7345000D02*
X13834000Y-7345000D01*
D14*
X11037500Y-7922500D02*
X11162500Y-8047500D01*
X11162500Y-7922500D02*
X11037500Y-8047500D01*
X11144195Y-8029195D02*
X11144195Y-7940805D01*
X11055805Y-7940805D01*
X11055805Y-8029195D01*
X11144195Y-8029195D01*
X11037500Y-8684500D02*
X11162500Y-8809500D01*
X11162500Y-8684500D02*
X11037500Y-8809500D01*
X11144195Y-8791195D02*
X11144195Y-8702805D01*
X11055805Y-8702805D01*
X11055805Y-8791195D01*
X11144195Y-8791195D01*
D15*
X11139500Y-9612500D02*
X11314500Y-9787500D01*
X11314500Y-9612500D02*
X11139500Y-9787500D01*
X11227000Y-9787500D02*
X11314500Y-9700000D01*
X11227000Y-9612500D01*
X11139500Y-9700000D01*
X11227000Y-9787500D01*
X11535500Y-9612500D02*
X11710500Y-9787500D01*
X11710500Y-9612500D02*
X11535500Y-9787500D01*
X11623000Y-9787500D02*
X11710500Y-9700000D01*
X11623000Y-9612500D01*
X11535500Y-9700000D01*
X11623000Y-9787500D01*
D16*
X12400000Y-8452500D02*
X12400000Y-8637500D01*
X12307500Y-8545000D02*
X12492500Y-8545000D01*
X12492500Y-8545000D02*
G75*
G02*
X12307500Y-8545000I-92500J0D01*
G01*
X12307500Y-8545000D02*
G75*
G02*
X12492500Y-8545000I92500J0D01*
G01*
X12400000Y-8922500D02*
X12400000Y-9107500D01*
X12307500Y-9015000D02*
X12492500Y-9015000D01*
X12492500Y-9015000D02*
G75*
G02*
X12307500Y-9015000I-92500J0D01*
G01*
X12307500Y-9015000D02*
G75*
G02*
X12492500Y-9015000I92500J0D01*
G01*
X12400000Y-9392500D02*
X12400000Y-9577500D01*
X12307500Y-9485000D02*
X12492500Y-9485000D01*
X12492500Y-9485000D02*
G75*
G02*
X12307500Y-9485000I-92500J0D01*
G01*
X12307500Y-9485000D02*
G75*
G02*
X12492500Y-9485000I92500J0D01*
G01*
D11*
X10052777Y-10319484D02*
X10052777Y-10119484D01*
X10052777Y-10119484D02*
X10100396Y-10119484D01*
X10100396Y-10119484D02*
X10128967Y-10129008D01*
X10128967Y-10129008D02*
X10148015Y-10148055D01*
X10148015Y-10148055D02*
X10157539Y-10167103D01*
X10157539Y-10167103D02*
X10167063Y-10205198D01*
X10167063Y-10205198D02*
X10167063Y-10233770D01*
X10167063Y-10233770D02*
X10157539Y-10271865D01*
X10157539Y-10271865D02*
X10148015Y-10290912D01*
X10148015Y-10290912D02*
X10128967Y-10309960D01*
X10128967Y-10309960D02*
X10100396Y-10319484D01*
X10100396Y-10319484D02*
X10052777Y-10319484D01*
X10252777Y-10319484D02*
X10252777Y-10186150D01*
X10252777Y-10224246D02*
X10262301Y-10205198D01*
X10262301Y-10205198D02*
X10271824Y-10195674D01*
X10271824Y-10195674D02*
X10290872Y-10186150D01*
X10290872Y-10186150D02*
X10309920Y-10186150D01*
X10376586Y-10319484D02*
X10376586Y-10186150D01*
X10376586Y-10119484D02*
X10367063Y-10129008D01*
X10367063Y-10129008D02*
X10376586Y-10138531D01*
X10376586Y-10138531D02*
X10386110Y-10129008D01*
X10386110Y-10129008D02*
X10376586Y-10119484D01*
X10376586Y-10119484D02*
X10376586Y-10138531D01*
X10500396Y-10319484D02*
X10481348Y-10309960D01*
X10481348Y-10309960D02*
X10471824Y-10290912D01*
X10471824Y-10290912D02*
X10471824Y-10119484D01*
X10605158Y-10319484D02*
X10586110Y-10309960D01*
X10586110Y-10309960D02*
X10576586Y-10290912D01*
X10576586Y-10290912D02*
X10576586Y-10119484D01*
X10833729Y-10319484D02*
X10833729Y-10119484D01*
X10833729Y-10119484D02*
X10900396Y-10262341D01*
X10900396Y-10262341D02*
X10967063Y-10119484D01*
X10967063Y-10119484D02*
X10967063Y-10319484D01*
X11148015Y-10319484D02*
X11148015Y-10214722D01*
X11148015Y-10214722D02*
X11138491Y-10195674D01*
X11138491Y-10195674D02*
X11119444Y-10186150D01*
X11119444Y-10186150D02*
X11081348Y-10186150D01*
X11081348Y-10186150D02*
X11062301Y-10195674D01*
X11148015Y-10309960D02*
X11128967Y-10319484D01*
X11128967Y-10319484D02*
X11081348Y-10319484D01*
X11081348Y-10319484D02*
X11062301Y-10309960D01*
X11062301Y-10309960D02*
X11052777Y-10290912D01*
X11052777Y-10290912D02*
X11052777Y-10271865D01*
X11052777Y-10271865D02*
X11062301Y-10252817D01*
X11062301Y-10252817D02*
X11081348Y-10243293D01*
X11081348Y-10243293D02*
X11128967Y-10243293D01*
X11128967Y-10243293D02*
X11148015Y-10233770D01*
X11243253Y-10186150D02*
X11243253Y-10386150D01*
X11243253Y-10195674D02*
X11262301Y-10186150D01*
X11262301Y-10186150D02*
X11300396Y-10186150D01*
X11300396Y-10186150D02*
X11319443Y-10195674D01*
X11319443Y-10195674D02*
X11328967Y-10205198D01*
X11328967Y-10205198D02*
X11338491Y-10224246D01*
X11338491Y-10224246D02*
X11338491Y-10281389D01*
X11338491Y-10281389D02*
X11328967Y-10300436D01*
X11328967Y-10300436D02*
X11319443Y-10309960D01*
X11319443Y-10309960D02*
X11300396Y-10319484D01*
X11300396Y-10319484D02*
X11262301Y-10319484D01*
X11262301Y-10319484D02*
X11243253Y-10309960D01*
X11424205Y-10300436D02*
X11433729Y-10309960D01*
X11433729Y-10309960D02*
X11424205Y-10319484D01*
X11424205Y-10319484D02*
X11414682Y-10309960D01*
X11414682Y-10309960D02*
X11424205Y-10300436D01*
X11424205Y-10300436D02*
X11424205Y-10319484D01*
X11424205Y-10195674D02*
X11433729Y-10205198D01*
X11433729Y-10205198D02*
X11424205Y-10214722D01*
X11424205Y-10214722D02*
X11414682Y-10205198D01*
X11414682Y-10205198D02*
X11424205Y-10195674D01*
X11424205Y-10195674D02*
X11424205Y-10214722D01*
D12*
X9772000Y-10638000D02*
X9792000Y-10658000D01*
X9792000Y-10638000D02*
X9772000Y-10658000D01*
D11*
X10090872Y-10539484D02*
X10109920Y-10539484D01*
X10109920Y-10539484D02*
X10128967Y-10549008D01*
X10128967Y-10549008D02*
X10138491Y-10558531D01*
X10138491Y-10558531D02*
X10148015Y-10577579D01*
X10148015Y-10577579D02*
X10157539Y-10615674D01*
X10157539Y-10615674D02*
X10157539Y-10663293D01*
X10157539Y-10663293D02*
X10148015Y-10701389D01*
X10148015Y-10701389D02*
X10138491Y-10720436D01*
X10138491Y-10720436D02*
X10128967Y-10729960D01*
X10128967Y-10729960D02*
X10109920Y-10739484D01*
X10109920Y-10739484D02*
X10090872Y-10739484D01*
X10090872Y-10739484D02*
X10071824Y-10729960D01*
X10071824Y-10729960D02*
X10062301Y-10720436D01*
X10062301Y-10720436D02*
X10052777Y-10701389D01*
X10052777Y-10701389D02*
X10043253Y-10663293D01*
X10043253Y-10663293D02*
X10043253Y-10615674D01*
X10043253Y-10615674D02*
X10052777Y-10577579D01*
X10052777Y-10577579D02*
X10062301Y-10558531D01*
X10062301Y-10558531D02*
X10071824Y-10549008D01*
X10071824Y-10549008D02*
X10090872Y-10539484D01*
X10243253Y-10720436D02*
X10252777Y-10729960D01*
X10252777Y-10729960D02*
X10243253Y-10739484D01*
X10243253Y-10739484D02*
X10233729Y-10729960D01*
X10233729Y-10729960D02*
X10243253Y-10720436D01*
X10243253Y-10720436D02*
X10243253Y-10739484D01*
X10328967Y-10558531D02*
X10338491Y-10549008D01*
X10338491Y-10549008D02*
X10357539Y-10539484D01*
X10357539Y-10539484D02*
X10405158Y-10539484D01*
X10405158Y-10539484D02*
X10424205Y-10549008D01*
X10424205Y-10549008D02*
X10433729Y-10558531D01*
X10433729Y-10558531D02*
X10443253Y-10577579D01*
X10443253Y-10577579D02*
X10443253Y-10596627D01*
X10443253Y-10596627D02*
X10433729Y-10625198D01*
X10433729Y-10625198D02*
X10319444Y-10739484D01*
X10319444Y-10739484D02*
X10443253Y-10739484D01*
X10567063Y-10539484D02*
X10586110Y-10539484D01*
X10586110Y-10539484D02*
X10605158Y-10549008D01*
X10605158Y-10549008D02*
X10614682Y-10558531D01*
X10614682Y-10558531D02*
X10624205Y-10577579D01*
X10624205Y-10577579D02*
X10633729Y-10615674D01*
X10633729Y-10615674D02*
X10633729Y-10663293D01*
X10633729Y-10663293D02*
X10624205Y-10701389D01*
X10624205Y-10701389D02*
X10614682Y-10720436D01*
X10614682Y-10720436D02*
X10605158Y-10729960D01*
X10605158Y-10729960D02*
X10586110Y-10739484D01*
X10586110Y-10739484D02*
X10567063Y-10739484D01*
X10567063Y-10739484D02*
X10548015Y-10729960D01*
X10548015Y-10729960D02*
X10538491Y-10720436D01*
X10538491Y-10720436D02*
X10528967Y-10701389D01*
X10528967Y-10701389D02*
X10519444Y-10663293D01*
X10519444Y-10663293D02*
X10519444Y-10615674D01*
X10519444Y-10615674D02*
X10528967Y-10577579D01*
X10528967Y-10577579D02*
X10538491Y-10558531D01*
X10538491Y-10558531D02*
X10548015Y-10549008D01*
X10548015Y-10549008D02*
X10567063Y-10539484D01*
X10757539Y-10539484D02*
X10776586Y-10539484D01*
X10776586Y-10539484D02*
X10795634Y-10549008D01*
X10795634Y-10549008D02*
X10805158Y-10558531D01*
X10805158Y-10558531D02*
X10814682Y-10577579D01*
X10814682Y-10577579D02*
X10824205Y-10615674D01*
X10824205Y-10615674D02*
X10824205Y-10663293D01*
X10824205Y-10663293D02*
X10814682Y-10701389D01*
X10814682Y-10701389D02*
X10805158Y-10720436D01*
X10805158Y-10720436D02*
X10795634Y-10729960D01*
X10795634Y-10729960D02*
X10776586Y-10739484D01*
X10776586Y-10739484D02*
X10757539Y-10739484D01*
X10757539Y-10739484D02*
X10738491Y-10729960D01*
X10738491Y-10729960D02*
X10728967Y-10720436D01*
X10728967Y-10720436D02*
X10719444Y-10701389D01*
X10719444Y-10701389D02*
X10709920Y-10663293D01*
X10709920Y-10663293D02*
X10709920Y-10615674D01*
X10709920Y-10615674D02*
X10719444Y-10577579D01*
X10719444Y-10577579D02*
X10728967Y-10558531D01*
X10728967Y-10558531D02*
X10738491Y-10549008D01*
X10738491Y-10549008D02*
X10757539Y-10539484D01*
X10909920Y-10739484D02*
X10909920Y-10606150D01*
X10909920Y-10625198D02*
X10919444Y-10615674D01*
X10919444Y-10615674D02*
X10938491Y-10606150D01*
X10938491Y-10606150D02*
X10967063Y-10606150D01*
X10967063Y-10606150D02*
X10986110Y-10615674D01*
X10986110Y-10615674D02*
X10995634Y-10634722D01*
X10995634Y-10634722D02*
X10995634Y-10739484D01*
X10995634Y-10634722D02*
X11005158Y-10615674D01*
X11005158Y-10615674D02*
X11024205Y-10606150D01*
X11024205Y-10606150D02*
X11052777Y-10606150D01*
X11052777Y-10606150D02*
X11071825Y-10615674D01*
X11071825Y-10615674D02*
X11081348Y-10634722D01*
X11081348Y-10634722D02*
X11081348Y-10739484D01*
X11176586Y-10739484D02*
X11176586Y-10606150D01*
X11176586Y-10625198D02*
X11186110Y-10615674D01*
X11186110Y-10615674D02*
X11205158Y-10606150D01*
X11205158Y-10606150D02*
X11233729Y-10606150D01*
X11233729Y-10606150D02*
X11252777Y-10615674D01*
X11252777Y-10615674D02*
X11262301Y-10634722D01*
X11262301Y-10634722D02*
X11262301Y-10739484D01*
X11262301Y-10634722D02*
X11271824Y-10615674D01*
X11271824Y-10615674D02*
X11290872Y-10606150D01*
X11290872Y-10606150D02*
X11319443Y-10606150D01*
X11319443Y-10606150D02*
X11338491Y-10615674D01*
X11338491Y-10615674D02*
X11348015Y-10634722D01*
X11348015Y-10634722D02*
X11348015Y-10739484D01*
X11738491Y-10529960D02*
X11567063Y-10787103D01*
X11995634Y-10539484D02*
X12014682Y-10539484D01*
X12014682Y-10539484D02*
X12033729Y-10549008D01*
X12033729Y-10549008D02*
X12043253Y-10558531D01*
X12043253Y-10558531D02*
X12052777Y-10577579D01*
X12052777Y-10577579D02*
X12062301Y-10615674D01*
X12062301Y-10615674D02*
X12062301Y-10663293D01*
X12062301Y-10663293D02*
X12052777Y-10701389D01*
X12052777Y-10701389D02*
X12043253Y-10720436D01*
X12043253Y-10720436D02*
X12033729Y-10729960D01*
X12033729Y-10729960D02*
X12014682Y-10739484D01*
X12014682Y-10739484D02*
X11995634Y-10739484D01*
X11995634Y-10739484D02*
X11976586Y-10729960D01*
X11976586Y-10729960D02*
X11967063Y-10720436D01*
X11967063Y-10720436D02*
X11957539Y-10701389D01*
X11957539Y-10701389D02*
X11948015Y-10663293D01*
X11948015Y-10663293D02*
X11948015Y-10615674D01*
X11948015Y-10615674D02*
X11957539Y-10577579D01*
X11957539Y-10577579D02*
X11967063Y-10558531D01*
X11967063Y-10558531D02*
X11976586Y-10549008D01*
X11976586Y-10549008D02*
X11995634Y-10539484D01*
X12148015Y-10720436D02*
X12157539Y-10729960D01*
X12157539Y-10729960D02*
X12148015Y-10739484D01*
X12148015Y-10739484D02*
X12138491Y-10729960D01*
X12138491Y-10729960D02*
X12148015Y-10720436D01*
X12148015Y-10720436D02*
X12148015Y-10739484D01*
X12281348Y-10539484D02*
X12300396Y-10539484D01*
X12300396Y-10539484D02*
X12319444Y-10549008D01*
X12319444Y-10549008D02*
X12328967Y-10558531D01*
X12328967Y-10558531D02*
X12338491Y-10577579D01*
X12338491Y-10577579D02*
X12348015Y-10615674D01*
X12348015Y-10615674D02*
X12348015Y-10663293D01*
X12348015Y-10663293D02*
X12338491Y-10701389D01*
X12338491Y-10701389D02*
X12328967Y-10720436D01*
X12328967Y-10720436D02*
X12319444Y-10729960D01*
X12319444Y-10729960D02*
X12300396Y-10739484D01*
X12300396Y-10739484D02*
X12281348Y-10739484D01*
X12281348Y-10739484D02*
X12262301Y-10729960D01*
X12262301Y-10729960D02*
X12252777Y-10720436D01*
X12252777Y-10720436D02*
X12243253Y-10701389D01*
X12243253Y-10701389D02*
X12233729Y-10663293D01*
X12233729Y-10663293D02*
X12233729Y-10615674D01*
X12233729Y-10615674D02*
X12243253Y-10577579D01*
X12243253Y-10577579D02*
X12252777Y-10558531D01*
X12252777Y-10558531D02*
X12262301Y-10549008D01*
X12262301Y-10549008D02*
X12281348Y-10539484D01*
X12471825Y-10539484D02*
X12490872Y-10539484D01*
X12490872Y-10539484D02*
X12509920Y-10549008D01*
X12509920Y-10549008D02*
X12519444Y-10558531D01*
X12519444Y-10558531D02*
X12528967Y-10577579D01*
X12528967Y-10577579D02*
X12538491Y-10615674D01*
X12538491Y-10615674D02*
X12538491Y-10663293D01*
X12538491Y-10663293D02*
X12528967Y-10701389D01*
X12528967Y-10701389D02*
X12519444Y-10720436D01*
X12519444Y-10720436D02*
X12509920Y-10729960D01*
X12509920Y-10729960D02*
X12490872Y-10739484D01*
X12490872Y-10739484D02*
X12471825Y-10739484D01*
X12471825Y-10739484D02*
X12452777Y-10729960D01*
X12452777Y-10729960D02*
X12443253Y-10720436D01*
X12443253Y-10720436D02*
X12433729Y-10701389D01*
X12433729Y-10701389D02*
X12424206Y-10663293D01*
X12424206Y-10663293D02*
X12424206Y-10615674D01*
X12424206Y-10615674D02*
X12433729Y-10577579D01*
X12433729Y-10577579D02*
X12443253Y-10558531D01*
X12443253Y-10558531D02*
X12452777Y-10549008D01*
X12452777Y-10549008D02*
X12471825Y-10539484D01*
X12605158Y-10539484D02*
X12738491Y-10539484D01*
X12738491Y-10539484D02*
X12652777Y-10739484D01*
X12824206Y-10739484D02*
X12862301Y-10739484D01*
X12862301Y-10739484D02*
X12881348Y-10729960D01*
X12881348Y-10729960D02*
X12890872Y-10720436D01*
X12890872Y-10720436D02*
X12909920Y-10691865D01*
X12909920Y-10691865D02*
X12919444Y-10653770D01*
X12919444Y-10653770D02*
X12919444Y-10577579D01*
X12919444Y-10577579D02*
X12909920Y-10558531D01*
X12909920Y-10558531D02*
X12900396Y-10549008D01*
X12900396Y-10549008D02*
X12881348Y-10539484D01*
X12881348Y-10539484D02*
X12843253Y-10539484D01*
X12843253Y-10539484D02*
X12824206Y-10549008D01*
X12824206Y-10549008D02*
X12814682Y-10558531D01*
X12814682Y-10558531D02*
X12805158Y-10577579D01*
X12805158Y-10577579D02*
X12805158Y-10625198D01*
X12805158Y-10625198D02*
X12814682Y-10644246D01*
X12814682Y-10644246D02*
X12824206Y-10653770D01*
X12824206Y-10653770D02*
X12843253Y-10663293D01*
X12843253Y-10663293D02*
X12881348Y-10663293D01*
X12881348Y-10663293D02*
X12900396Y-10653770D01*
X12900396Y-10653770D02*
X12909920Y-10644246D01*
X12909920Y-10644246D02*
X12919444Y-10625198D01*
X12995634Y-10539484D02*
X12995634Y-10577579D01*
X13071825Y-10539484D02*
X13071825Y-10577579D01*
X13367063Y-10815674D02*
X13357539Y-10806150D01*
X13357539Y-10806150D02*
X13338491Y-10777579D01*
X13338491Y-10777579D02*
X13328968Y-10758531D01*
X13328968Y-10758531D02*
X13319444Y-10729960D01*
X13319444Y-10729960D02*
X13309920Y-10682341D01*
X13309920Y-10682341D02*
X13309920Y-10644246D01*
X13309920Y-10644246D02*
X13319444Y-10596627D01*
X13319444Y-10596627D02*
X13328968Y-10568055D01*
X13328968Y-10568055D02*
X13338491Y-10549008D01*
X13338491Y-10549008D02*
X13357539Y-10520436D01*
X13357539Y-10520436D02*
X13367063Y-10510912D01*
X13424206Y-10539484D02*
X13548015Y-10539484D01*
X13548015Y-10539484D02*
X13481348Y-10615674D01*
X13481348Y-10615674D02*
X13509920Y-10615674D01*
X13509920Y-10615674D02*
X13528968Y-10625198D01*
X13528968Y-10625198D02*
X13538491Y-10634722D01*
X13538491Y-10634722D02*
X13548015Y-10653770D01*
X13548015Y-10653770D02*
X13548015Y-10701389D01*
X13548015Y-10701389D02*
X13538491Y-10720436D01*
X13538491Y-10720436D02*
X13528968Y-10729960D01*
X13528968Y-10729960D02*
X13509920Y-10739484D01*
X13509920Y-10739484D02*
X13452777Y-10739484D01*
X13452777Y-10739484D02*
X13433729Y-10729960D01*
X13433729Y-10729960D02*
X13424206Y-10720436D01*
X13728968Y-10539484D02*
X13633729Y-10539484D01*
X13633729Y-10539484D02*
X13624206Y-10634722D01*
X13624206Y-10634722D02*
X13633729Y-10625198D01*
X13633729Y-10625198D02*
X13652777Y-10615674D01*
X13652777Y-10615674D02*
X13700396Y-10615674D01*
X13700396Y-10615674D02*
X13719444Y-10625198D01*
X13719444Y-10625198D02*
X13728968Y-10634722D01*
X13728968Y-10634722D02*
X13738491Y-10653770D01*
X13738491Y-10653770D02*
X13738491Y-10701389D01*
X13738491Y-10701389D02*
X13728968Y-10720436D01*
X13728968Y-10720436D02*
X13719444Y-10729960D01*
X13719444Y-10729960D02*
X13700396Y-10739484D01*
X13700396Y-10739484D02*
X13652777Y-10739484D01*
X13652777Y-10739484D02*
X13633729Y-10729960D01*
X13633729Y-10729960D02*
X13624206Y-10720436D01*
X13976587Y-10739484D02*
X13976587Y-10539484D01*
X14062301Y-10739484D02*
X14062301Y-10634722D01*
X14062301Y-10634722D02*
X14052777Y-10615674D01*
X14052777Y-10615674D02*
X14033730Y-10606150D01*
X14033730Y-10606150D02*
X14005158Y-10606150D01*
X14005158Y-10606150D02*
X13986110Y-10615674D01*
X13986110Y-10615674D02*
X13976587Y-10625198D01*
X14186110Y-10739484D02*
X14167063Y-10729960D01*
X14167063Y-10729960D02*
X14157539Y-10720436D01*
X14157539Y-10720436D02*
X14148015Y-10701389D01*
X14148015Y-10701389D02*
X14148015Y-10644246D01*
X14148015Y-10644246D02*
X14157539Y-10625198D01*
X14157539Y-10625198D02*
X14167063Y-10615674D01*
X14167063Y-10615674D02*
X14186110Y-10606150D01*
X14186110Y-10606150D02*
X14214682Y-10606150D01*
X14214682Y-10606150D02*
X14233730Y-10615674D01*
X14233730Y-10615674D02*
X14243253Y-10625198D01*
X14243253Y-10625198D02*
X14252777Y-10644246D01*
X14252777Y-10644246D02*
X14252777Y-10701389D01*
X14252777Y-10701389D02*
X14243253Y-10720436D01*
X14243253Y-10720436D02*
X14233730Y-10729960D01*
X14233730Y-10729960D02*
X14214682Y-10739484D01*
X14214682Y-10739484D02*
X14186110Y-10739484D01*
X14367063Y-10739484D02*
X14348015Y-10729960D01*
X14348015Y-10729960D02*
X14338491Y-10710912D01*
X14338491Y-10710912D02*
X14338491Y-10539484D01*
X14519444Y-10729960D02*
X14500396Y-10739484D01*
X14500396Y-10739484D02*
X14462301Y-10739484D01*
X14462301Y-10739484D02*
X14443253Y-10729960D01*
X14443253Y-10729960D02*
X14433730Y-10710912D01*
X14433730Y-10710912D02*
X14433730Y-10634722D01*
X14433730Y-10634722D02*
X14443253Y-10615674D01*
X14443253Y-10615674D02*
X14462301Y-10606150D01*
X14462301Y-10606150D02*
X14500396Y-10606150D01*
X14500396Y-10606150D02*
X14519444Y-10615674D01*
X14519444Y-10615674D02*
X14528968Y-10634722D01*
X14528968Y-10634722D02*
X14528968Y-10653770D01*
X14528968Y-10653770D02*
X14433730Y-10672817D01*
X14605158Y-10729960D02*
X14624206Y-10739484D01*
X14624206Y-10739484D02*
X14662301Y-10739484D01*
X14662301Y-10739484D02*
X14681349Y-10729960D01*
X14681349Y-10729960D02*
X14690872Y-10710912D01*
X14690872Y-10710912D02*
X14690872Y-10701389D01*
X14690872Y-10701389D02*
X14681349Y-10682341D01*
X14681349Y-10682341D02*
X14662301Y-10672817D01*
X14662301Y-10672817D02*
X14633730Y-10672817D01*
X14633730Y-10672817D02*
X14614682Y-10663293D01*
X14614682Y-10663293D02*
X14605158Y-10644246D01*
X14605158Y-10644246D02*
X14605158Y-10634722D01*
X14605158Y-10634722D02*
X14614682Y-10615674D01*
X14614682Y-10615674D02*
X14633730Y-10606150D01*
X14633730Y-10606150D02*
X14662301Y-10606150D01*
X14662301Y-10606150D02*
X14681349Y-10615674D01*
X14757539Y-10815674D02*
X14767063Y-10806150D01*
X14767063Y-10806150D02*
X14786111Y-10777579D01*
X14786111Y-10777579D02*
X14795634Y-10758531D01*
X14795634Y-10758531D02*
X14805158Y-10729960D01*
X14805158Y-10729960D02*
X14814682Y-10682341D01*
X14814682Y-10682341D02*
X14814682Y-10644246D01*
X14814682Y-10644246D02*
X14805158Y-10596627D01*
X14805158Y-10596627D02*
X14795634Y-10568055D01*
X14795634Y-10568055D02*
X14786111Y-10549008D01*
X14786111Y-10549008D02*
X14767063Y-10520436D01*
X14767063Y-10520436D02*
X14757539Y-10510912D01*
D12*
X9792000Y-10912000D02*
G75*
G02*
X9772000Y-10912000I-10000J0D01*
G01*
X9772000Y-10912000D02*
G75*
G02*
X9792000Y-10912000I10000J0D01*
G01*
D11*
X10090872Y-10803484D02*
X10109920Y-10803484D01*
X10109920Y-10803484D02*
X10128967Y-10813008D01*
X10128967Y-10813008D02*
X10138491Y-10822531D01*
X10138491Y-10822531D02*
X10148015Y-10841579D01*
X10148015Y-10841579D02*
X10157539Y-10879674D01*
X10157539Y-10879674D02*
X10157539Y-10927293D01*
X10157539Y-10927293D02*
X10148015Y-10965389D01*
X10148015Y-10965389D02*
X10138491Y-10984436D01*
X10138491Y-10984436D02*
X10128967Y-10993960D01*
X10128967Y-10993960D02*
X10109920Y-11003484D01*
X10109920Y-11003484D02*
X10090872Y-11003484D01*
X10090872Y-11003484D02*
X10071824Y-10993960D01*
X10071824Y-10993960D02*
X10062301Y-10984436D01*
X10062301Y-10984436D02*
X10052777Y-10965389D01*
X10052777Y-10965389D02*
X10043253Y-10927293D01*
X10043253Y-10927293D02*
X10043253Y-10879674D01*
X10043253Y-10879674D02*
X10052777Y-10841579D01*
X10052777Y-10841579D02*
X10062301Y-10822531D01*
X10062301Y-10822531D02*
X10071824Y-10813008D01*
X10071824Y-10813008D02*
X10090872Y-10803484D01*
X10243253Y-10984436D02*
X10252777Y-10993960D01*
X10252777Y-10993960D02*
X10243253Y-11003484D01*
X10243253Y-11003484D02*
X10233729Y-10993960D01*
X10233729Y-10993960D02*
X10243253Y-10984436D01*
X10243253Y-10984436D02*
X10243253Y-11003484D01*
X10328967Y-10822531D02*
X10338491Y-10813008D01*
X10338491Y-10813008D02*
X10357539Y-10803484D01*
X10357539Y-10803484D02*
X10405158Y-10803484D01*
X10405158Y-10803484D02*
X10424205Y-10813008D01*
X10424205Y-10813008D02*
X10433729Y-10822531D01*
X10433729Y-10822531D02*
X10443253Y-10841579D01*
X10443253Y-10841579D02*
X10443253Y-10860627D01*
X10443253Y-10860627D02*
X10433729Y-10889198D01*
X10433729Y-10889198D02*
X10319444Y-11003484D01*
X10319444Y-11003484D02*
X10443253Y-11003484D01*
X10567063Y-10803484D02*
X10586110Y-10803484D01*
X10586110Y-10803484D02*
X10605158Y-10813008D01*
X10605158Y-10813008D02*
X10614682Y-10822531D01*
X10614682Y-10822531D02*
X10624205Y-10841579D01*
X10624205Y-10841579D02*
X10633729Y-10879674D01*
X10633729Y-10879674D02*
X10633729Y-10927293D01*
X10633729Y-10927293D02*
X10624205Y-10965389D01*
X10624205Y-10965389D02*
X10614682Y-10984436D01*
X10614682Y-10984436D02*
X10605158Y-10993960D01*
X10605158Y-10993960D02*
X10586110Y-11003484D01*
X10586110Y-11003484D02*
X10567063Y-11003484D01*
X10567063Y-11003484D02*
X10548015Y-10993960D01*
X10548015Y-10993960D02*
X10538491Y-10984436D01*
X10538491Y-10984436D02*
X10528967Y-10965389D01*
X10528967Y-10965389D02*
X10519444Y-10927293D01*
X10519444Y-10927293D02*
X10519444Y-10879674D01*
X10519444Y-10879674D02*
X10528967Y-10841579D01*
X10528967Y-10841579D02*
X10538491Y-10822531D01*
X10538491Y-10822531D02*
X10548015Y-10813008D01*
X10548015Y-10813008D02*
X10567063Y-10803484D01*
X10757539Y-10803484D02*
X10776586Y-10803484D01*
X10776586Y-10803484D02*
X10795634Y-10813008D01*
X10795634Y-10813008D02*
X10805158Y-10822531D01*
X10805158Y-10822531D02*
X10814682Y-10841579D01*
X10814682Y-10841579D02*
X10824205Y-10879674D01*
X10824205Y-10879674D02*
X10824205Y-10927293D01*
X10824205Y-10927293D02*
X10814682Y-10965389D01*
X10814682Y-10965389D02*
X10805158Y-10984436D01*
X10805158Y-10984436D02*
X10795634Y-10993960D01*
X10795634Y-10993960D02*
X10776586Y-11003484D01*
X10776586Y-11003484D02*
X10757539Y-11003484D01*
X10757539Y-11003484D02*
X10738491Y-10993960D01*
X10738491Y-10993960D02*
X10728967Y-10984436D01*
X10728967Y-10984436D02*
X10719444Y-10965389D01*
X10719444Y-10965389D02*
X10709920Y-10927293D01*
X10709920Y-10927293D02*
X10709920Y-10879674D01*
X10709920Y-10879674D02*
X10719444Y-10841579D01*
X10719444Y-10841579D02*
X10728967Y-10822531D01*
X10728967Y-10822531D02*
X10738491Y-10813008D01*
X10738491Y-10813008D02*
X10757539Y-10803484D01*
X10909920Y-11003484D02*
X10909920Y-10870150D01*
X10909920Y-10889198D02*
X10919444Y-10879674D01*
X10919444Y-10879674D02*
X10938491Y-10870150D01*
X10938491Y-10870150D02*
X10967063Y-10870150D01*
X10967063Y-10870150D02*
X10986110Y-10879674D01*
X10986110Y-10879674D02*
X10995634Y-10898722D01*
X10995634Y-10898722D02*
X10995634Y-11003484D01*
X10995634Y-10898722D02*
X11005158Y-10879674D01*
X11005158Y-10879674D02*
X11024205Y-10870150D01*
X11024205Y-10870150D02*
X11052777Y-10870150D01*
X11052777Y-10870150D02*
X11071825Y-10879674D01*
X11071825Y-10879674D02*
X11081348Y-10898722D01*
X11081348Y-10898722D02*
X11081348Y-11003484D01*
X11176586Y-11003484D02*
X11176586Y-10870150D01*
X11176586Y-10889198D02*
X11186110Y-10879674D01*
X11186110Y-10879674D02*
X11205158Y-10870150D01*
X11205158Y-10870150D02*
X11233729Y-10870150D01*
X11233729Y-10870150D02*
X11252777Y-10879674D01*
X11252777Y-10879674D02*
X11262301Y-10898722D01*
X11262301Y-10898722D02*
X11262301Y-11003484D01*
X11262301Y-10898722D02*
X11271824Y-10879674D01*
X11271824Y-10879674D02*
X11290872Y-10870150D01*
X11290872Y-10870150D02*
X11319443Y-10870150D01*
X11319443Y-10870150D02*
X11338491Y-10879674D01*
X11338491Y-10879674D02*
X11348015Y-10898722D01*
X11348015Y-10898722D02*
X11348015Y-11003484D01*
X11738491Y-10793960D02*
X11567063Y-11051103D01*
X11995634Y-10803484D02*
X12014682Y-10803484D01*
X12014682Y-10803484D02*
X12033729Y-10813008D01*
X12033729Y-10813008D02*
X12043253Y-10822531D01*
X12043253Y-10822531D02*
X12052777Y-10841579D01*
X12052777Y-10841579D02*
X12062301Y-10879674D01*
X12062301Y-10879674D02*
X12062301Y-10927293D01*
X12062301Y-10927293D02*
X12052777Y-10965389D01*
X12052777Y-10965389D02*
X12043253Y-10984436D01*
X12043253Y-10984436D02*
X12033729Y-10993960D01*
X12033729Y-10993960D02*
X12014682Y-11003484D01*
X12014682Y-11003484D02*
X11995634Y-11003484D01*
X11995634Y-11003484D02*
X11976586Y-10993960D01*
X11976586Y-10993960D02*
X11967063Y-10984436D01*
X11967063Y-10984436D02*
X11957539Y-10965389D01*
X11957539Y-10965389D02*
X11948015Y-10927293D01*
X11948015Y-10927293D02*
X11948015Y-10879674D01*
X11948015Y-10879674D02*
X11957539Y-10841579D01*
X11957539Y-10841579D02*
X11967063Y-10822531D01*
X11967063Y-10822531D02*
X11976586Y-10813008D01*
X11976586Y-10813008D02*
X11995634Y-10803484D01*
X12148015Y-10984436D02*
X12157539Y-10993960D01*
X12157539Y-10993960D02*
X12148015Y-11003484D01*
X12148015Y-11003484D02*
X12138491Y-10993960D01*
X12138491Y-10993960D02*
X12148015Y-10984436D01*
X12148015Y-10984436D02*
X12148015Y-11003484D01*
X12281348Y-10803484D02*
X12300396Y-10803484D01*
X12300396Y-10803484D02*
X12319444Y-10813008D01*
X12319444Y-10813008D02*
X12328967Y-10822531D01*
X12328967Y-10822531D02*
X12338491Y-10841579D01*
X12338491Y-10841579D02*
X12348015Y-10879674D01*
X12348015Y-10879674D02*
X12348015Y-10927293D01*
X12348015Y-10927293D02*
X12338491Y-10965389D01*
X12338491Y-10965389D02*
X12328967Y-10984436D01*
X12328967Y-10984436D02*
X12319444Y-10993960D01*
X12319444Y-10993960D02*
X12300396Y-11003484D01*
X12300396Y-11003484D02*
X12281348Y-11003484D01*
X12281348Y-11003484D02*
X12262301Y-10993960D01*
X12262301Y-10993960D02*
X12252777Y-10984436D01*
X12252777Y-10984436D02*
X12243253Y-10965389D01*
X12243253Y-10965389D02*
X12233729Y-10927293D01*
X12233729Y-10927293D02*
X12233729Y-10879674D01*
X12233729Y-10879674D02*
X12243253Y-10841579D01*
X12243253Y-10841579D02*
X12252777Y-10822531D01*
X12252777Y-10822531D02*
X12262301Y-10813008D01*
X12262301Y-10813008D02*
X12281348Y-10803484D01*
X12471825Y-10803484D02*
X12490872Y-10803484D01*
X12490872Y-10803484D02*
X12509920Y-10813008D01*
X12509920Y-10813008D02*
X12519444Y-10822531D01*
X12519444Y-10822531D02*
X12528967Y-10841579D01*
X12528967Y-10841579D02*
X12538491Y-10879674D01*
X12538491Y-10879674D02*
X12538491Y-10927293D01*
X12538491Y-10927293D02*
X12528967Y-10965389D01*
X12528967Y-10965389D02*
X12519444Y-10984436D01*
X12519444Y-10984436D02*
X12509920Y-10993960D01*
X12509920Y-10993960D02*
X12490872Y-11003484D01*
X12490872Y-11003484D02*
X12471825Y-11003484D01*
X12471825Y-11003484D02*
X12452777Y-10993960D01*
X12452777Y-10993960D02*
X12443253Y-10984436D01*
X12443253Y-10984436D02*
X12433729Y-10965389D01*
X12433729Y-10965389D02*
X12424206Y-10927293D01*
X12424206Y-10927293D02*
X12424206Y-10879674D01*
X12424206Y-10879674D02*
X12433729Y-10841579D01*
X12433729Y-10841579D02*
X12443253Y-10822531D01*
X12443253Y-10822531D02*
X12452777Y-10813008D01*
X12452777Y-10813008D02*
X12471825Y-10803484D01*
X12605158Y-10803484D02*
X12738491Y-10803484D01*
X12738491Y-10803484D02*
X12652777Y-11003484D01*
X12824206Y-11003484D02*
X12862301Y-11003484D01*
X12862301Y-11003484D02*
X12881348Y-10993960D01*
X12881348Y-10993960D02*
X12890872Y-10984436D01*
X12890872Y-10984436D02*
X12909920Y-10955865D01*
X12909920Y-10955865D02*
X12919444Y-10917770D01*
X12919444Y-10917770D02*
X12919444Y-10841579D01*
X12919444Y-10841579D02*
X12909920Y-10822531D01*
X12909920Y-10822531D02*
X12900396Y-10813008D01*
X12900396Y-10813008D02*
X12881348Y-10803484D01*
X12881348Y-10803484D02*
X12843253Y-10803484D01*
X12843253Y-10803484D02*
X12824206Y-10813008D01*
X12824206Y-10813008D02*
X12814682Y-10822531D01*
X12814682Y-10822531D02*
X12805158Y-10841579D01*
X12805158Y-10841579D02*
X12805158Y-10889198D01*
X12805158Y-10889198D02*
X12814682Y-10908246D01*
X12814682Y-10908246D02*
X12824206Y-10917770D01*
X12824206Y-10917770D02*
X12843253Y-10927293D01*
X12843253Y-10927293D02*
X12881348Y-10927293D01*
X12881348Y-10927293D02*
X12900396Y-10917770D01*
X12900396Y-10917770D02*
X12909920Y-10908246D01*
X12909920Y-10908246D02*
X12919444Y-10889198D01*
X12995634Y-10803484D02*
X12995634Y-10841579D01*
X13071825Y-10803484D02*
X13071825Y-10841579D01*
X13367063Y-11079674D02*
X13357539Y-11070150D01*
X13357539Y-11070150D02*
X13338491Y-11041579D01*
X13338491Y-11041579D02*
X13328968Y-11022531D01*
X13328968Y-11022531D02*
X13319444Y-10993960D01*
X13319444Y-10993960D02*
X13309920Y-10946341D01*
X13309920Y-10946341D02*
X13309920Y-10908246D01*
X13309920Y-10908246D02*
X13319444Y-10860627D01*
X13319444Y-10860627D02*
X13328968Y-10832055D01*
X13328968Y-10832055D02*
X13338491Y-10813008D01*
X13338491Y-10813008D02*
X13357539Y-10784436D01*
X13357539Y-10784436D02*
X13367063Y-10774912D01*
X13424206Y-10803484D02*
X13548015Y-10803484D01*
X13548015Y-10803484D02*
X13481348Y-10879674D01*
X13481348Y-10879674D02*
X13509920Y-10879674D01*
X13509920Y-10879674D02*
X13528968Y-10889198D01*
X13528968Y-10889198D02*
X13538491Y-10898722D01*
X13538491Y-10898722D02*
X13548015Y-10917770D01*
X13548015Y-10917770D02*
X13548015Y-10965389D01*
X13548015Y-10965389D02*
X13538491Y-10984436D01*
X13538491Y-10984436D02*
X13528968Y-10993960D01*
X13528968Y-10993960D02*
X13509920Y-11003484D01*
X13509920Y-11003484D02*
X13452777Y-11003484D01*
X13452777Y-11003484D02*
X13433729Y-10993960D01*
X13433729Y-10993960D02*
X13424206Y-10984436D01*
X13624206Y-10822531D02*
X13633729Y-10813008D01*
X13633729Y-10813008D02*
X13652777Y-10803484D01*
X13652777Y-10803484D02*
X13700396Y-10803484D01*
X13700396Y-10803484D02*
X13719444Y-10813008D01*
X13719444Y-10813008D02*
X13728968Y-10822531D01*
X13728968Y-10822531D02*
X13738491Y-10841579D01*
X13738491Y-10841579D02*
X13738491Y-10860627D01*
X13738491Y-10860627D02*
X13728968Y-10889198D01*
X13728968Y-10889198D02*
X13614682Y-11003484D01*
X13614682Y-11003484D02*
X13738491Y-11003484D01*
X13976587Y-11003484D02*
X13976587Y-10803484D01*
X14062301Y-11003484D02*
X14062301Y-10898722D01*
X14062301Y-10898722D02*
X14052777Y-10879674D01*
X14052777Y-10879674D02*
X14033730Y-10870150D01*
X14033730Y-10870150D02*
X14005158Y-10870150D01*
X14005158Y-10870150D02*
X13986110Y-10879674D01*
X13986110Y-10879674D02*
X13976587Y-10889198D01*
X14186110Y-11003484D02*
X14167063Y-10993960D01*
X14167063Y-10993960D02*
X14157539Y-10984436D01*
X14157539Y-10984436D02*
X14148015Y-10965389D01*
X14148015Y-10965389D02*
X14148015Y-10908246D01*
X14148015Y-10908246D02*
X14157539Y-10889198D01*
X14157539Y-10889198D02*
X14167063Y-10879674D01*
X14167063Y-10879674D02*
X14186110Y-10870150D01*
X14186110Y-10870150D02*
X14214682Y-10870150D01*
X14214682Y-10870150D02*
X14233730Y-10879674D01*
X14233730Y-10879674D02*
X14243253Y-10889198D01*
X14243253Y-10889198D02*
X14252777Y-10908246D01*
X14252777Y-10908246D02*
X14252777Y-10965389D01*
X14252777Y-10965389D02*
X14243253Y-10984436D01*
X14243253Y-10984436D02*
X14233730Y-10993960D01*
X14233730Y-10993960D02*
X14214682Y-11003484D01*
X14214682Y-11003484D02*
X14186110Y-11003484D01*
X14367063Y-11003484D02*
X14348015Y-10993960D01*
X14348015Y-10993960D02*
X14338491Y-10974912D01*
X14338491Y-10974912D02*
X14338491Y-10803484D01*
X14519444Y-10993960D02*
X14500396Y-11003484D01*
X14500396Y-11003484D02*
X14462301Y-11003484D01*
X14462301Y-11003484D02*
X14443253Y-10993960D01*
X14443253Y-10993960D02*
X14433730Y-10974912D01*
X14433730Y-10974912D02*
X14433730Y-10898722D01*
X14433730Y-10898722D02*
X14443253Y-10879674D01*
X14443253Y-10879674D02*
X14462301Y-10870150D01*
X14462301Y-10870150D02*
X14500396Y-10870150D01*
X14500396Y-10870150D02*
X14519444Y-10879674D01*
X14519444Y-10879674D02*
X14528968Y-10898722D01*
X14528968Y-10898722D02*
X14528968Y-10917770D01*
X14528968Y-10917770D02*
X14433730Y-10936817D01*
X14605158Y-10993960D02*
X14624206Y-11003484D01*
X14624206Y-11003484D02*
X14662301Y-11003484D01*
X14662301Y-11003484D02*
X14681349Y-10993960D01*
X14681349Y-10993960D02*
X14690872Y-10974912D01*
X14690872Y-10974912D02*
X14690872Y-10965389D01*
X14690872Y-10965389D02*
X14681349Y-10946341D01*
X14681349Y-10946341D02*
X14662301Y-10936817D01*
X14662301Y-10936817D02*
X14633730Y-10936817D01*
X14633730Y-10936817D02*
X14614682Y-10927293D01*
X14614682Y-10927293D02*
X14605158Y-10908246D01*
X14605158Y-10908246D02*
X14605158Y-10898722D01*
X14605158Y-10898722D02*
X14614682Y-10879674D01*
X14614682Y-10879674D02*
X14633730Y-10870150D01*
X14633730Y-10870150D02*
X14662301Y-10870150D01*
X14662301Y-10870150D02*
X14681349Y-10879674D01*
X14757539Y-11079674D02*
X14767063Y-11070150D01*
X14767063Y-11070150D02*
X14786111Y-11041579D01*
X14786111Y-11041579D02*
X14795634Y-11022531D01*
X14795634Y-11022531D02*
X14805158Y-10993960D01*
X14805158Y-10993960D02*
X14814682Y-10946341D01*
X14814682Y-10946341D02*
X14814682Y-10908246D01*
X14814682Y-10908246D02*
X14805158Y-10860627D01*
X14805158Y-10860627D02*
X14795634Y-10832055D01*
X14795634Y-10832055D02*
X14786111Y-10813008D01*
X14786111Y-10813008D02*
X14767063Y-10784436D01*
X14767063Y-10784436D02*
X14757539Y-10774912D01*
D12*
X9777000Y-11161000D02*
X9777000Y-11191000D01*
X9762000Y-11176000D02*
X9792000Y-11176000D01*
D11*
X10090872Y-11067484D02*
X10109920Y-11067484D01*
X10109920Y-11067484D02*
X10128967Y-11077008D01*
X10128967Y-11077008D02*
X10138491Y-11086531D01*
X10138491Y-11086531D02*
X10148015Y-11105579D01*
X10148015Y-11105579D02*
X10157539Y-11143674D01*
X10157539Y-11143674D02*
X10157539Y-11191293D01*
X10157539Y-11191293D02*
X10148015Y-11229388D01*
X10148015Y-11229388D02*
X10138491Y-11248436D01*
X10138491Y-11248436D02*
X10128967Y-11257960D01*
X10128967Y-11257960D02*
X10109920Y-11267484D01*
X10109920Y-11267484D02*
X10090872Y-11267484D01*
X10090872Y-11267484D02*
X10071824Y-11257960D01*
X10071824Y-11257960D02*
X10062301Y-11248436D01*
X10062301Y-11248436D02*
X10052777Y-11229388D01*
X10052777Y-11229388D02*
X10043253Y-11191293D01*
X10043253Y-11191293D02*
X10043253Y-11143674D01*
X10043253Y-11143674D02*
X10052777Y-11105579D01*
X10052777Y-11105579D02*
X10062301Y-11086531D01*
X10062301Y-11086531D02*
X10071824Y-11077008D01*
X10071824Y-11077008D02*
X10090872Y-11067484D01*
X10243253Y-11248436D02*
X10252777Y-11257960D01*
X10252777Y-11257960D02*
X10243253Y-11267484D01*
X10243253Y-11267484D02*
X10233729Y-11257960D01*
X10233729Y-11257960D02*
X10243253Y-11248436D01*
X10243253Y-11248436D02*
X10243253Y-11267484D01*
X10319444Y-11067484D02*
X10443253Y-11067484D01*
X10443253Y-11067484D02*
X10376586Y-11143674D01*
X10376586Y-11143674D02*
X10405158Y-11143674D01*
X10405158Y-11143674D02*
X10424205Y-11153198D01*
X10424205Y-11153198D02*
X10433729Y-11162722D01*
X10433729Y-11162722D02*
X10443253Y-11181770D01*
X10443253Y-11181770D02*
X10443253Y-11229388D01*
X10443253Y-11229388D02*
X10433729Y-11248436D01*
X10433729Y-11248436D02*
X10424205Y-11257960D01*
X10424205Y-11257960D02*
X10405158Y-11267484D01*
X10405158Y-11267484D02*
X10348015Y-11267484D01*
X10348015Y-11267484D02*
X10328967Y-11257960D01*
X10328967Y-11257960D02*
X10319444Y-11248436D01*
X10567063Y-11067484D02*
X10586110Y-11067484D01*
X10586110Y-11067484D02*
X10605158Y-11077008D01*
X10605158Y-11077008D02*
X10614682Y-11086531D01*
X10614682Y-11086531D02*
X10624205Y-11105579D01*
X10624205Y-11105579D02*
X10633729Y-11143674D01*
X10633729Y-11143674D02*
X10633729Y-11191293D01*
X10633729Y-11191293D02*
X10624205Y-11229388D01*
X10624205Y-11229388D02*
X10614682Y-11248436D01*
X10614682Y-11248436D02*
X10605158Y-11257960D01*
X10605158Y-11257960D02*
X10586110Y-11267484D01*
X10586110Y-11267484D02*
X10567063Y-11267484D01*
X10567063Y-11267484D02*
X10548015Y-11257960D01*
X10548015Y-11257960D02*
X10538491Y-11248436D01*
X10538491Y-11248436D02*
X10528967Y-11229388D01*
X10528967Y-11229388D02*
X10519444Y-11191293D01*
X10519444Y-11191293D02*
X10519444Y-11143674D01*
X10519444Y-11143674D02*
X10528967Y-11105579D01*
X10528967Y-11105579D02*
X10538491Y-11086531D01*
X10538491Y-11086531D02*
X10548015Y-11077008D01*
X10548015Y-11077008D02*
X10567063Y-11067484D01*
X10757539Y-11067484D02*
X10776586Y-11067484D01*
X10776586Y-11067484D02*
X10795634Y-11077008D01*
X10795634Y-11077008D02*
X10805158Y-11086531D01*
X10805158Y-11086531D02*
X10814682Y-11105579D01*
X10814682Y-11105579D02*
X10824205Y-11143674D01*
X10824205Y-11143674D02*
X10824205Y-11191293D01*
X10824205Y-11191293D02*
X10814682Y-11229388D01*
X10814682Y-11229388D02*
X10805158Y-11248436D01*
X10805158Y-11248436D02*
X10795634Y-11257960D01*
X10795634Y-11257960D02*
X10776586Y-11267484D01*
X10776586Y-11267484D02*
X10757539Y-11267484D01*
X10757539Y-11267484D02*
X10738491Y-11257960D01*
X10738491Y-11257960D02*
X10728967Y-11248436D01*
X10728967Y-11248436D02*
X10719444Y-11229388D01*
X10719444Y-11229388D02*
X10709920Y-11191293D01*
X10709920Y-11191293D02*
X10709920Y-11143674D01*
X10709920Y-11143674D02*
X10719444Y-11105579D01*
X10719444Y-11105579D02*
X10728967Y-11086531D01*
X10728967Y-11086531D02*
X10738491Y-11077008D01*
X10738491Y-11077008D02*
X10757539Y-11067484D01*
X10909920Y-11267484D02*
X10909920Y-11134150D01*
X10909920Y-11153198D02*
X10919444Y-11143674D01*
X10919444Y-11143674D02*
X10938491Y-11134150D01*
X10938491Y-11134150D02*
X10967063Y-11134150D01*
X10967063Y-11134150D02*
X10986110Y-11143674D01*
X10986110Y-11143674D02*
X10995634Y-11162722D01*
X10995634Y-11162722D02*
X10995634Y-11267484D01*
X10995634Y-11162722D02*
X11005158Y-11143674D01*
X11005158Y-11143674D02*
X11024205Y-11134150D01*
X11024205Y-11134150D02*
X11052777Y-11134150D01*
X11052777Y-11134150D02*
X11071825Y-11143674D01*
X11071825Y-11143674D02*
X11081348Y-11162722D01*
X11081348Y-11162722D02*
X11081348Y-11267484D01*
X11176586Y-11267484D02*
X11176586Y-11134150D01*
X11176586Y-11153198D02*
X11186110Y-11143674D01*
X11186110Y-11143674D02*
X11205158Y-11134150D01*
X11205158Y-11134150D02*
X11233729Y-11134150D01*
X11233729Y-11134150D02*
X11252777Y-11143674D01*
X11252777Y-11143674D02*
X11262301Y-11162722D01*
X11262301Y-11162722D02*
X11262301Y-11267484D01*
X11262301Y-11162722D02*
X11271824Y-11143674D01*
X11271824Y-11143674D02*
X11290872Y-11134150D01*
X11290872Y-11134150D02*
X11319443Y-11134150D01*
X11319443Y-11134150D02*
X11338491Y-11143674D01*
X11338491Y-11143674D02*
X11348015Y-11162722D01*
X11348015Y-11162722D02*
X11348015Y-11267484D01*
X11738491Y-11057960D02*
X11567063Y-11315103D01*
X11995634Y-11067484D02*
X12014682Y-11067484D01*
X12014682Y-11067484D02*
X12033729Y-11077008D01*
X12033729Y-11077008D02*
X12043253Y-11086531D01*
X12043253Y-11086531D02*
X12052777Y-11105579D01*
X12052777Y-11105579D02*
X12062301Y-11143674D01*
X12062301Y-11143674D02*
X12062301Y-11191293D01*
X12062301Y-11191293D02*
X12052777Y-11229388D01*
X12052777Y-11229388D02*
X12043253Y-11248436D01*
X12043253Y-11248436D02*
X12033729Y-11257960D01*
X12033729Y-11257960D02*
X12014682Y-11267484D01*
X12014682Y-11267484D02*
X11995634Y-11267484D01*
X11995634Y-11267484D02*
X11976586Y-11257960D01*
X11976586Y-11257960D02*
X11967063Y-11248436D01*
X11967063Y-11248436D02*
X11957539Y-11229388D01*
X11957539Y-11229388D02*
X11948015Y-11191293D01*
X11948015Y-11191293D02*
X11948015Y-11143674D01*
X11948015Y-11143674D02*
X11957539Y-11105579D01*
X11957539Y-11105579D02*
X11967063Y-11086531D01*
X11967063Y-11086531D02*
X11976586Y-11077008D01*
X11976586Y-11077008D02*
X11995634Y-11067484D01*
X12148015Y-11248436D02*
X12157539Y-11257960D01*
X12157539Y-11257960D02*
X12148015Y-11267484D01*
X12148015Y-11267484D02*
X12138491Y-11257960D01*
X12138491Y-11257960D02*
X12148015Y-11248436D01*
X12148015Y-11248436D02*
X12148015Y-11267484D01*
X12281348Y-11067484D02*
X12300396Y-11067484D01*
X12300396Y-11067484D02*
X12319444Y-11077008D01*
X12319444Y-11077008D02*
X12328967Y-11086531D01*
X12328967Y-11086531D02*
X12338491Y-11105579D01*
X12338491Y-11105579D02*
X12348015Y-11143674D01*
X12348015Y-11143674D02*
X12348015Y-11191293D01*
X12348015Y-11191293D02*
X12338491Y-11229388D01*
X12338491Y-11229388D02*
X12328967Y-11248436D01*
X12328967Y-11248436D02*
X12319444Y-11257960D01*
X12319444Y-11257960D02*
X12300396Y-11267484D01*
X12300396Y-11267484D02*
X12281348Y-11267484D01*
X12281348Y-11267484D02*
X12262301Y-11257960D01*
X12262301Y-11257960D02*
X12252777Y-11248436D01*
X12252777Y-11248436D02*
X12243253Y-11229388D01*
X12243253Y-11229388D02*
X12233729Y-11191293D01*
X12233729Y-11191293D02*
X12233729Y-11143674D01*
X12233729Y-11143674D02*
X12243253Y-11105579D01*
X12243253Y-11105579D02*
X12252777Y-11086531D01*
X12252777Y-11086531D02*
X12262301Y-11077008D01*
X12262301Y-11077008D02*
X12281348Y-11067484D01*
X12538491Y-11267484D02*
X12424206Y-11267484D01*
X12481348Y-11267484D02*
X12481348Y-11067484D01*
X12481348Y-11067484D02*
X12462301Y-11096055D01*
X12462301Y-11096055D02*
X12443253Y-11115103D01*
X12443253Y-11115103D02*
X12424206Y-11124627D01*
X12728967Y-11267484D02*
X12614682Y-11267484D01*
X12671825Y-11267484D02*
X12671825Y-11067484D01*
X12671825Y-11067484D02*
X12652777Y-11096055D01*
X12652777Y-11096055D02*
X12633729Y-11115103D01*
X12633729Y-11115103D02*
X12614682Y-11124627D01*
X12843253Y-11153198D02*
X12824206Y-11143674D01*
X12824206Y-11143674D02*
X12814682Y-11134150D01*
X12814682Y-11134150D02*
X12805158Y-11115103D01*
X12805158Y-11115103D02*
X12805158Y-11105579D01*
X12805158Y-11105579D02*
X12814682Y-11086531D01*
X12814682Y-11086531D02*
X12824206Y-11077008D01*
X12824206Y-11077008D02*
X12843253Y-11067484D01*
X12843253Y-11067484D02*
X12881348Y-11067484D01*
X12881348Y-11067484D02*
X12900396Y-11077008D01*
X12900396Y-11077008D02*
X12909920Y-11086531D01*
X12909920Y-11086531D02*
X12919444Y-11105579D01*
X12919444Y-11105579D02*
X12919444Y-11115103D01*
X12919444Y-11115103D02*
X12909920Y-11134150D01*
X12909920Y-11134150D02*
X12900396Y-11143674D01*
X12900396Y-11143674D02*
X12881348Y-11153198D01*
X12881348Y-11153198D02*
X12843253Y-11153198D01*
X12843253Y-11153198D02*
X12824206Y-11162722D01*
X12824206Y-11162722D02*
X12814682Y-11172246D01*
X12814682Y-11172246D02*
X12805158Y-11191293D01*
X12805158Y-11191293D02*
X12805158Y-11229388D01*
X12805158Y-11229388D02*
X12814682Y-11248436D01*
X12814682Y-11248436D02*
X12824206Y-11257960D01*
X12824206Y-11257960D02*
X12843253Y-11267484D01*
X12843253Y-11267484D02*
X12881348Y-11267484D01*
X12881348Y-11267484D02*
X12900396Y-11257960D01*
X12900396Y-11257960D02*
X12909920Y-11248436D01*
X12909920Y-11248436D02*
X12919444Y-11229388D01*
X12919444Y-11229388D02*
X12919444Y-11191293D01*
X12919444Y-11191293D02*
X12909920Y-11172246D01*
X12909920Y-11172246D02*
X12900396Y-11162722D01*
X12900396Y-11162722D02*
X12881348Y-11153198D01*
X12995634Y-11067484D02*
X12995634Y-11105579D01*
X13071825Y-11067484D02*
X13071825Y-11105579D01*
X13367063Y-11343674D02*
X13357539Y-11334150D01*
X13357539Y-11334150D02*
X13338491Y-11305579D01*
X13338491Y-11305579D02*
X13328968Y-11286531D01*
X13328968Y-11286531D02*
X13319444Y-11257960D01*
X13319444Y-11257960D02*
X13309920Y-11210341D01*
X13309920Y-11210341D02*
X13309920Y-11172246D01*
X13309920Y-11172246D02*
X13319444Y-11124627D01*
X13319444Y-11124627D02*
X13328968Y-11096055D01*
X13328968Y-11096055D02*
X13338491Y-11077008D01*
X13338491Y-11077008D02*
X13357539Y-11048436D01*
X13357539Y-11048436D02*
X13367063Y-11038912D01*
X13424206Y-11067484D02*
X13548015Y-11067484D01*
X13548015Y-11067484D02*
X13481348Y-11143674D01*
X13481348Y-11143674D02*
X13509920Y-11143674D01*
X13509920Y-11143674D02*
X13528968Y-11153198D01*
X13528968Y-11153198D02*
X13538491Y-11162722D01*
X13538491Y-11162722D02*
X13548015Y-11181770D01*
X13548015Y-11181770D02*
X13548015Y-11229388D01*
X13548015Y-11229388D02*
X13538491Y-11248436D01*
X13538491Y-11248436D02*
X13528968Y-11257960D01*
X13528968Y-11257960D02*
X13509920Y-11267484D01*
X13509920Y-11267484D02*
X13452777Y-11267484D01*
X13452777Y-11267484D02*
X13433729Y-11257960D01*
X13433729Y-11257960D02*
X13424206Y-11248436D01*
X13786110Y-11267484D02*
X13786110Y-11067484D01*
X13871825Y-11267484D02*
X13871825Y-11162722D01*
X13871825Y-11162722D02*
X13862301Y-11143674D01*
X13862301Y-11143674D02*
X13843253Y-11134150D01*
X13843253Y-11134150D02*
X13814682Y-11134150D01*
X13814682Y-11134150D02*
X13795634Y-11143674D01*
X13795634Y-11143674D02*
X13786110Y-11153198D01*
X13995634Y-11267484D02*
X13976587Y-11257960D01*
X13976587Y-11257960D02*
X13967063Y-11248436D01*
X13967063Y-11248436D02*
X13957539Y-11229388D01*
X13957539Y-11229388D02*
X13957539Y-11172246D01*
X13957539Y-11172246D02*
X13967063Y-11153198D01*
X13967063Y-11153198D02*
X13976587Y-11143674D01*
X13976587Y-11143674D02*
X13995634Y-11134150D01*
X13995634Y-11134150D02*
X14024206Y-11134150D01*
X14024206Y-11134150D02*
X14043253Y-11143674D01*
X14043253Y-11143674D02*
X14052777Y-11153198D01*
X14052777Y-11153198D02*
X14062301Y-11172246D01*
X14062301Y-11172246D02*
X14062301Y-11229388D01*
X14062301Y-11229388D02*
X14052777Y-11248436D01*
X14052777Y-11248436D02*
X14043253Y-11257960D01*
X14043253Y-11257960D02*
X14024206Y-11267484D01*
X14024206Y-11267484D02*
X13995634Y-11267484D01*
X14176587Y-11267484D02*
X14157539Y-11257960D01*
X14157539Y-11257960D02*
X14148015Y-11238912D01*
X14148015Y-11238912D02*
X14148015Y-11067484D01*
X14328968Y-11257960D02*
X14309920Y-11267484D01*
X14309920Y-11267484D02*
X14271825Y-11267484D01*
X14271825Y-11267484D02*
X14252777Y-11257960D01*
X14252777Y-11257960D02*
X14243253Y-11238912D01*
X14243253Y-11238912D02*
X14243253Y-11162722D01*
X14243253Y-11162722D02*
X14252777Y-11143674D01*
X14252777Y-11143674D02*
X14271825Y-11134150D01*
X14271825Y-11134150D02*
X14309920Y-11134150D01*
X14309920Y-11134150D02*
X14328968Y-11143674D01*
X14328968Y-11143674D02*
X14338491Y-11162722D01*
X14338491Y-11162722D02*
X14338491Y-11181770D01*
X14338491Y-11181770D02*
X14243253Y-11200817D01*
X14414682Y-11257960D02*
X14433730Y-11267484D01*
X14433730Y-11267484D02*
X14471825Y-11267484D01*
X14471825Y-11267484D02*
X14490872Y-11257960D01*
X14490872Y-11257960D02*
X14500396Y-11238912D01*
X14500396Y-11238912D02*
X14500396Y-11229388D01*
X14500396Y-11229388D02*
X14490872Y-11210341D01*
X14490872Y-11210341D02*
X14471825Y-11200817D01*
X14471825Y-11200817D02*
X14443253Y-11200817D01*
X14443253Y-11200817D02*
X14424206Y-11191293D01*
X14424206Y-11191293D02*
X14414682Y-11172246D01*
X14414682Y-11172246D02*
X14414682Y-11162722D01*
X14414682Y-11162722D02*
X14424206Y-11143674D01*
X14424206Y-11143674D02*
X14443253Y-11134150D01*
X14443253Y-11134150D02*
X14471825Y-11134150D01*
X14471825Y-11134150D02*
X14490872Y-11143674D01*
X14567063Y-11343674D02*
X14576587Y-11334150D01*
X14576587Y-11334150D02*
X14595634Y-11305579D01*
X14595634Y-11305579D02*
X14605158Y-11286531D01*
X14605158Y-11286531D02*
X14614682Y-11257960D01*
X14614682Y-11257960D02*
X14624206Y-11210341D01*
X14624206Y-11210341D02*
X14624206Y-11172246D01*
X14624206Y-11172246D02*
X14614682Y-11124627D01*
X14614682Y-11124627D02*
X14605158Y-11096055D01*
X14605158Y-11096055D02*
X14595634Y-11077008D01*
X14595634Y-11077008D02*
X14576587Y-11048436D01*
X14576587Y-11048436D02*
X14567063Y-11038912D01*
D12*
X9783213Y-11461213D02*
X9783213Y-11418787D01*
X9740787Y-11418787D01*
X9740787Y-11461213D01*
X9783213Y-11461213D01*
D11*
X10090872Y-11331484D02*
X10109920Y-11331484D01*
X10109920Y-11331484D02*
X10128967Y-11341008D01*
X10128967Y-11341008D02*
X10138491Y-11350531D01*
X10138491Y-11350531D02*
X10148015Y-11369579D01*
X10148015Y-11369579D02*
X10157539Y-11407674D01*
X10157539Y-11407674D02*
X10157539Y-11455293D01*
X10157539Y-11455293D02*
X10148015Y-11493388D01*
X10148015Y-11493388D02*
X10138491Y-11512436D01*
X10138491Y-11512436D02*
X10128967Y-11521960D01*
X10128967Y-11521960D02*
X10109920Y-11531484D01*
X10109920Y-11531484D02*
X10090872Y-11531484D01*
X10090872Y-11531484D02*
X10071824Y-11521960D01*
X10071824Y-11521960D02*
X10062301Y-11512436D01*
X10062301Y-11512436D02*
X10052777Y-11493388D01*
X10052777Y-11493388D02*
X10043253Y-11455293D01*
X10043253Y-11455293D02*
X10043253Y-11407674D01*
X10043253Y-11407674D02*
X10052777Y-11369579D01*
X10052777Y-11369579D02*
X10062301Y-11350531D01*
X10062301Y-11350531D02*
X10071824Y-11341008D01*
X10071824Y-11341008D02*
X10090872Y-11331484D01*
X10243253Y-11512436D02*
X10252777Y-11521960D01*
X10252777Y-11521960D02*
X10243253Y-11531484D01*
X10243253Y-11531484D02*
X10233729Y-11521960D01*
X10233729Y-11521960D02*
X10243253Y-11512436D01*
X10243253Y-11512436D02*
X10243253Y-11531484D01*
X10424205Y-11331484D02*
X10386110Y-11331484D01*
X10386110Y-11331484D02*
X10367063Y-11341008D01*
X10367063Y-11341008D02*
X10357539Y-11350531D01*
X10357539Y-11350531D02*
X10338491Y-11379103D01*
X10338491Y-11379103D02*
X10328967Y-11417198D01*
X10328967Y-11417198D02*
X10328967Y-11493388D01*
X10328967Y-11493388D02*
X10338491Y-11512436D01*
X10338491Y-11512436D02*
X10348015Y-11521960D01*
X10348015Y-11521960D02*
X10367063Y-11531484D01*
X10367063Y-11531484D02*
X10405158Y-11531484D01*
X10405158Y-11531484D02*
X10424205Y-11521960D01*
X10424205Y-11521960D02*
X10433729Y-11512436D01*
X10433729Y-11512436D02*
X10443253Y-11493388D01*
X10443253Y-11493388D02*
X10443253Y-11445769D01*
X10443253Y-11445769D02*
X10433729Y-11426722D01*
X10433729Y-11426722D02*
X10424205Y-11417198D01*
X10424205Y-11417198D02*
X10405158Y-11407674D01*
X10405158Y-11407674D02*
X10367063Y-11407674D01*
X10367063Y-11407674D02*
X10348015Y-11417198D01*
X10348015Y-11417198D02*
X10338491Y-11426722D01*
X10338491Y-11426722D02*
X10328967Y-11445769D01*
X10567063Y-11331484D02*
X10586110Y-11331484D01*
X10586110Y-11331484D02*
X10605158Y-11341008D01*
X10605158Y-11341008D02*
X10614682Y-11350531D01*
X10614682Y-11350531D02*
X10624205Y-11369579D01*
X10624205Y-11369579D02*
X10633729Y-11407674D01*
X10633729Y-11407674D02*
X10633729Y-11455293D01*
X10633729Y-11455293D02*
X10624205Y-11493388D01*
X10624205Y-11493388D02*
X10614682Y-11512436D01*
X10614682Y-11512436D02*
X10605158Y-11521960D01*
X10605158Y-11521960D02*
X10586110Y-11531484D01*
X10586110Y-11531484D02*
X10567063Y-11531484D01*
X10567063Y-11531484D02*
X10548015Y-11521960D01*
X10548015Y-11521960D02*
X10538491Y-11512436D01*
X10538491Y-11512436D02*
X10528967Y-11493388D01*
X10528967Y-11493388D02*
X10519444Y-11455293D01*
X10519444Y-11455293D02*
X10519444Y-11407674D01*
X10519444Y-11407674D02*
X10528967Y-11369579D01*
X10528967Y-11369579D02*
X10538491Y-11350531D01*
X10538491Y-11350531D02*
X10548015Y-11341008D01*
X10548015Y-11341008D02*
X10567063Y-11331484D01*
X10757539Y-11331484D02*
X10776586Y-11331484D01*
X10776586Y-11331484D02*
X10795634Y-11341008D01*
X10795634Y-11341008D02*
X10805158Y-11350531D01*
X10805158Y-11350531D02*
X10814682Y-11369579D01*
X10814682Y-11369579D02*
X10824205Y-11407674D01*
X10824205Y-11407674D02*
X10824205Y-11455293D01*
X10824205Y-11455293D02*
X10814682Y-11493388D01*
X10814682Y-11493388D02*
X10805158Y-11512436D01*
X10805158Y-11512436D02*
X10795634Y-11521960D01*
X10795634Y-11521960D02*
X10776586Y-11531484D01*
X10776586Y-11531484D02*
X10757539Y-11531484D01*
X10757539Y-11531484D02*
X10738491Y-11521960D01*
X10738491Y-11521960D02*
X10728967Y-11512436D01*
X10728967Y-11512436D02*
X10719444Y-11493388D01*
X10719444Y-11493388D02*
X10709920Y-11455293D01*
X10709920Y-11455293D02*
X10709920Y-11407674D01*
X10709920Y-11407674D02*
X10719444Y-11369579D01*
X10719444Y-11369579D02*
X10728967Y-11350531D01*
X10728967Y-11350531D02*
X10738491Y-11341008D01*
X10738491Y-11341008D02*
X10757539Y-11331484D01*
X10909920Y-11531484D02*
X10909920Y-11398150D01*
X10909920Y-11417198D02*
X10919444Y-11407674D01*
X10919444Y-11407674D02*
X10938491Y-11398150D01*
X10938491Y-11398150D02*
X10967063Y-11398150D01*
X10967063Y-11398150D02*
X10986110Y-11407674D01*
X10986110Y-11407674D02*
X10995634Y-11426722D01*
X10995634Y-11426722D02*
X10995634Y-11531484D01*
X10995634Y-11426722D02*
X11005158Y-11407674D01*
X11005158Y-11407674D02*
X11024205Y-11398150D01*
X11024205Y-11398150D02*
X11052777Y-11398150D01*
X11052777Y-11398150D02*
X11071825Y-11407674D01*
X11071825Y-11407674D02*
X11081348Y-11426722D01*
X11081348Y-11426722D02*
X11081348Y-11531484D01*
X11176586Y-11531484D02*
X11176586Y-11398150D01*
X11176586Y-11417198D02*
X11186110Y-11407674D01*
X11186110Y-11407674D02*
X11205158Y-11398150D01*
X11205158Y-11398150D02*
X11233729Y-11398150D01*
X11233729Y-11398150D02*
X11252777Y-11407674D01*
X11252777Y-11407674D02*
X11262301Y-11426722D01*
X11262301Y-11426722D02*
X11262301Y-11531484D01*
X11262301Y-11426722D02*
X11271824Y-11407674D01*
X11271824Y-11407674D02*
X11290872Y-11398150D01*
X11290872Y-11398150D02*
X11319443Y-11398150D01*
X11319443Y-11398150D02*
X11338491Y-11407674D01*
X11338491Y-11407674D02*
X11348015Y-11426722D01*
X11348015Y-11426722D02*
X11348015Y-11531484D01*
X11738491Y-11321960D02*
X11567063Y-11579103D01*
X11995634Y-11331484D02*
X12014682Y-11331484D01*
X12014682Y-11331484D02*
X12033729Y-11341008D01*
X12033729Y-11341008D02*
X12043253Y-11350531D01*
X12043253Y-11350531D02*
X12052777Y-11369579D01*
X12052777Y-11369579D02*
X12062301Y-11407674D01*
X12062301Y-11407674D02*
X12062301Y-11455293D01*
X12062301Y-11455293D02*
X12052777Y-11493388D01*
X12052777Y-11493388D02*
X12043253Y-11512436D01*
X12043253Y-11512436D02*
X12033729Y-11521960D01*
X12033729Y-11521960D02*
X12014682Y-11531484D01*
X12014682Y-11531484D02*
X11995634Y-11531484D01*
X11995634Y-11531484D02*
X11976586Y-11521960D01*
X11976586Y-11521960D02*
X11967063Y-11512436D01*
X11967063Y-11512436D02*
X11957539Y-11493388D01*
X11957539Y-11493388D02*
X11948015Y-11455293D01*
X11948015Y-11455293D02*
X11948015Y-11407674D01*
X11948015Y-11407674D02*
X11957539Y-11369579D01*
X11957539Y-11369579D02*
X11967063Y-11350531D01*
X11967063Y-11350531D02*
X11976586Y-11341008D01*
X11976586Y-11341008D02*
X11995634Y-11331484D01*
X12148015Y-11512436D02*
X12157539Y-11521960D01*
X12157539Y-11521960D02*
X12148015Y-11531484D01*
X12148015Y-11531484D02*
X12138491Y-11521960D01*
X12138491Y-11521960D02*
X12148015Y-11512436D01*
X12148015Y-11512436D02*
X12148015Y-11531484D01*
X12281348Y-11331484D02*
X12300396Y-11331484D01*
X12300396Y-11331484D02*
X12319444Y-11341008D01*
X12319444Y-11341008D02*
X12328967Y-11350531D01*
X12328967Y-11350531D02*
X12338491Y-11369579D01*
X12338491Y-11369579D02*
X12348015Y-11407674D01*
X12348015Y-11407674D02*
X12348015Y-11455293D01*
X12348015Y-11455293D02*
X12338491Y-11493388D01*
X12338491Y-11493388D02*
X12328967Y-11512436D01*
X12328967Y-11512436D02*
X12319444Y-11521960D01*
X12319444Y-11521960D02*
X12300396Y-11531484D01*
X12300396Y-11531484D02*
X12281348Y-11531484D01*
X12281348Y-11531484D02*
X12262301Y-11521960D01*
X12262301Y-11521960D02*
X12252777Y-11512436D01*
X12252777Y-11512436D02*
X12243253Y-11493388D01*
X12243253Y-11493388D02*
X12233729Y-11455293D01*
X12233729Y-11455293D02*
X12233729Y-11407674D01*
X12233729Y-11407674D02*
X12243253Y-11369579D01*
X12243253Y-11369579D02*
X12252777Y-11350531D01*
X12252777Y-11350531D02*
X12262301Y-11341008D01*
X12262301Y-11341008D02*
X12281348Y-11331484D01*
X12424206Y-11350531D02*
X12433729Y-11341008D01*
X12433729Y-11341008D02*
X12452777Y-11331484D01*
X12452777Y-11331484D02*
X12500396Y-11331484D01*
X12500396Y-11331484D02*
X12519444Y-11341008D01*
X12519444Y-11341008D02*
X12528967Y-11350531D01*
X12528967Y-11350531D02*
X12538491Y-11369579D01*
X12538491Y-11369579D02*
X12538491Y-11388627D01*
X12538491Y-11388627D02*
X12528967Y-11417198D01*
X12528967Y-11417198D02*
X12414682Y-11531484D01*
X12414682Y-11531484D02*
X12538491Y-11531484D01*
X12605158Y-11331484D02*
X12728967Y-11331484D01*
X12728967Y-11331484D02*
X12662301Y-11407674D01*
X12662301Y-11407674D02*
X12690872Y-11407674D01*
X12690872Y-11407674D02*
X12709920Y-11417198D01*
X12709920Y-11417198D02*
X12719444Y-11426722D01*
X12719444Y-11426722D02*
X12728967Y-11445769D01*
X12728967Y-11445769D02*
X12728967Y-11493388D01*
X12728967Y-11493388D02*
X12719444Y-11512436D01*
X12719444Y-11512436D02*
X12709920Y-11521960D01*
X12709920Y-11521960D02*
X12690872Y-11531484D01*
X12690872Y-11531484D02*
X12633729Y-11531484D01*
X12633729Y-11531484D02*
X12614682Y-11521960D01*
X12614682Y-11521960D02*
X12605158Y-11512436D01*
X12900396Y-11331484D02*
X12862301Y-11331484D01*
X12862301Y-11331484D02*
X12843253Y-11341008D01*
X12843253Y-11341008D02*
X12833729Y-11350531D01*
X12833729Y-11350531D02*
X12814682Y-11379103D01*
X12814682Y-11379103D02*
X12805158Y-11417198D01*
X12805158Y-11417198D02*
X12805158Y-11493388D01*
X12805158Y-11493388D02*
X12814682Y-11512436D01*
X12814682Y-11512436D02*
X12824206Y-11521960D01*
X12824206Y-11521960D02*
X12843253Y-11531484D01*
X12843253Y-11531484D02*
X12881348Y-11531484D01*
X12881348Y-11531484D02*
X12900396Y-11521960D01*
X12900396Y-11521960D02*
X12909920Y-11512436D01*
X12909920Y-11512436D02*
X12919444Y-11493388D01*
X12919444Y-11493388D02*
X12919444Y-11445769D01*
X12919444Y-11445769D02*
X12909920Y-11426722D01*
X12909920Y-11426722D02*
X12900396Y-11417198D01*
X12900396Y-11417198D02*
X12881348Y-11407674D01*
X12881348Y-11407674D02*
X12843253Y-11407674D01*
X12843253Y-11407674D02*
X12824206Y-11417198D01*
X12824206Y-11417198D02*
X12814682Y-11426722D01*
X12814682Y-11426722D02*
X12805158Y-11445769D01*
X12995634Y-11331484D02*
X12995634Y-11369579D01*
X13071825Y-11331484D02*
X13071825Y-11369579D01*
X13367063Y-11607674D02*
X13357539Y-11598150D01*
X13357539Y-11598150D02*
X13338491Y-11569579D01*
X13338491Y-11569579D02*
X13328968Y-11550531D01*
X13328968Y-11550531D02*
X13319444Y-11521960D01*
X13319444Y-11521960D02*
X13309920Y-11474341D01*
X13309920Y-11474341D02*
X13309920Y-11436246D01*
X13309920Y-11436246D02*
X13319444Y-11388627D01*
X13319444Y-11388627D02*
X13328968Y-11360055D01*
X13328968Y-11360055D02*
X13338491Y-11341008D01*
X13338491Y-11341008D02*
X13357539Y-11312436D01*
X13357539Y-11312436D02*
X13367063Y-11302912D01*
X13548015Y-11531484D02*
X13433729Y-11531484D01*
X13490872Y-11531484D02*
X13490872Y-11331484D01*
X13490872Y-11331484D02*
X13471825Y-11360055D01*
X13471825Y-11360055D02*
X13452777Y-11379103D01*
X13452777Y-11379103D02*
X13433729Y-11388627D01*
X13786110Y-11531484D02*
X13786110Y-11331484D01*
X13871825Y-11531484D02*
X13871825Y-11426722D01*
X13871825Y-11426722D02*
X13862301Y-11407674D01*
X13862301Y-11407674D02*
X13843253Y-11398150D01*
X13843253Y-11398150D02*
X13814682Y-11398150D01*
X13814682Y-11398150D02*
X13795634Y-11407674D01*
X13795634Y-11407674D02*
X13786110Y-11417198D01*
X13995634Y-11531484D02*
X13976587Y-11521960D01*
X13976587Y-11521960D02*
X13967063Y-11512436D01*
X13967063Y-11512436D02*
X13957539Y-11493388D01*
X13957539Y-11493388D02*
X13957539Y-11436246D01*
X13957539Y-11436246D02*
X13967063Y-11417198D01*
X13967063Y-11417198D02*
X13976587Y-11407674D01*
X13976587Y-11407674D02*
X13995634Y-11398150D01*
X13995634Y-11398150D02*
X14024206Y-11398150D01*
X14024206Y-11398150D02*
X14043253Y-11407674D01*
X14043253Y-11407674D02*
X14052777Y-11417198D01*
X14052777Y-11417198D02*
X14062301Y-11436246D01*
X14062301Y-11436246D02*
X14062301Y-11493388D01*
X14062301Y-11493388D02*
X14052777Y-11512436D01*
X14052777Y-11512436D02*
X14043253Y-11521960D01*
X14043253Y-11521960D02*
X14024206Y-11531484D01*
X14024206Y-11531484D02*
X13995634Y-11531484D01*
X14176587Y-11531484D02*
X14157539Y-11521960D01*
X14157539Y-11521960D02*
X14148015Y-11502912D01*
X14148015Y-11502912D02*
X14148015Y-11331484D01*
X14328968Y-11521960D02*
X14309920Y-11531484D01*
X14309920Y-11531484D02*
X14271825Y-11531484D01*
X14271825Y-11531484D02*
X14252777Y-11521960D01*
X14252777Y-11521960D02*
X14243253Y-11502912D01*
X14243253Y-11502912D02*
X14243253Y-11426722D01*
X14243253Y-11426722D02*
X14252777Y-11407674D01*
X14252777Y-11407674D02*
X14271825Y-11398150D01*
X14271825Y-11398150D02*
X14309920Y-11398150D01*
X14309920Y-11398150D02*
X14328968Y-11407674D01*
X14328968Y-11407674D02*
X14338491Y-11426722D01*
X14338491Y-11426722D02*
X14338491Y-11445769D01*
X14338491Y-11445769D02*
X14243253Y-11464817D01*
X14405158Y-11607674D02*
X14414682Y-11598150D01*
X14414682Y-11598150D02*
X14433730Y-11569579D01*
X14433730Y-11569579D02*
X14443253Y-11550531D01*
X14443253Y-11550531D02*
X14452777Y-11521960D01*
X14452777Y-11521960D02*
X14462301Y-11474341D01*
X14462301Y-11474341D02*
X14462301Y-11436246D01*
X14462301Y-11436246D02*
X14452777Y-11388627D01*
X14452777Y-11388627D02*
X14443253Y-11360055D01*
X14443253Y-11360055D02*
X14433730Y-11341008D01*
X14433730Y-11341008D02*
X14414682Y-11312436D01*
X14414682Y-11312436D02*
X14405158Y-11302912D01*
D12*
X9754500Y-11741500D02*
X9792000Y-11704000D01*
X9754500Y-11666500D01*
X9717000Y-11704000D01*
X9754500Y-11741500D01*
D11*
X10090872Y-11595484D02*
X10109920Y-11595484D01*
X10109920Y-11595484D02*
X10128967Y-11605008D01*
X10128967Y-11605008D02*
X10138491Y-11614531D01*
X10138491Y-11614531D02*
X10148015Y-11633579D01*
X10148015Y-11633579D02*
X10157539Y-11671674D01*
X10157539Y-11671674D02*
X10157539Y-11719293D01*
X10157539Y-11719293D02*
X10148015Y-11757388D01*
X10148015Y-11757388D02*
X10138491Y-11776436D01*
X10138491Y-11776436D02*
X10128967Y-11785960D01*
X10128967Y-11785960D02*
X10109920Y-11795484D01*
X10109920Y-11795484D02*
X10090872Y-11795484D01*
X10090872Y-11795484D02*
X10071824Y-11785960D01*
X10071824Y-11785960D02*
X10062301Y-11776436D01*
X10062301Y-11776436D02*
X10052777Y-11757388D01*
X10052777Y-11757388D02*
X10043253Y-11719293D01*
X10043253Y-11719293D02*
X10043253Y-11671674D01*
X10043253Y-11671674D02*
X10052777Y-11633579D01*
X10052777Y-11633579D02*
X10062301Y-11614531D01*
X10062301Y-11614531D02*
X10071824Y-11605008D01*
X10071824Y-11605008D02*
X10090872Y-11595484D01*
X10243253Y-11776436D02*
X10252777Y-11785960D01*
X10252777Y-11785960D02*
X10243253Y-11795484D01*
X10243253Y-11795484D02*
X10233729Y-11785960D01*
X10233729Y-11785960D02*
X10243253Y-11776436D01*
X10243253Y-11776436D02*
X10243253Y-11795484D01*
X10319444Y-11595484D02*
X10452777Y-11595484D01*
X10452777Y-11595484D02*
X10367063Y-11795484D01*
X10624205Y-11595484D02*
X10528967Y-11595484D01*
X10528967Y-11595484D02*
X10519444Y-11690722D01*
X10519444Y-11690722D02*
X10528967Y-11681198D01*
X10528967Y-11681198D02*
X10548015Y-11671674D01*
X10548015Y-11671674D02*
X10595634Y-11671674D01*
X10595634Y-11671674D02*
X10614682Y-11681198D01*
X10614682Y-11681198D02*
X10624205Y-11690722D01*
X10624205Y-11690722D02*
X10633729Y-11709769D01*
X10633729Y-11709769D02*
X10633729Y-11757388D01*
X10633729Y-11757388D02*
X10624205Y-11776436D01*
X10624205Y-11776436D02*
X10614682Y-11785960D01*
X10614682Y-11785960D02*
X10595634Y-11795484D01*
X10595634Y-11795484D02*
X10548015Y-11795484D01*
X10548015Y-11795484D02*
X10528967Y-11785960D01*
X10528967Y-11785960D02*
X10519444Y-11776436D01*
X10757539Y-11595484D02*
X10776586Y-11595484D01*
X10776586Y-11595484D02*
X10795634Y-11605008D01*
X10795634Y-11605008D02*
X10805158Y-11614531D01*
X10805158Y-11614531D02*
X10814682Y-11633579D01*
X10814682Y-11633579D02*
X10824205Y-11671674D01*
X10824205Y-11671674D02*
X10824205Y-11719293D01*
X10824205Y-11719293D02*
X10814682Y-11757388D01*
X10814682Y-11757388D02*
X10805158Y-11776436D01*
X10805158Y-11776436D02*
X10795634Y-11785960D01*
X10795634Y-11785960D02*
X10776586Y-11795484D01*
X10776586Y-11795484D02*
X10757539Y-11795484D01*
X10757539Y-11795484D02*
X10738491Y-11785960D01*
X10738491Y-11785960D02*
X10728967Y-11776436D01*
X10728967Y-11776436D02*
X10719444Y-11757388D01*
X10719444Y-11757388D02*
X10709920Y-11719293D01*
X10709920Y-11719293D02*
X10709920Y-11671674D01*
X10709920Y-11671674D02*
X10719444Y-11633579D01*
X10719444Y-11633579D02*
X10728967Y-11614531D01*
X10728967Y-11614531D02*
X10738491Y-11605008D01*
X10738491Y-11605008D02*
X10757539Y-11595484D01*
X10909920Y-11795484D02*
X10909920Y-11662150D01*
X10909920Y-11681198D02*
X10919444Y-11671674D01*
X10919444Y-11671674D02*
X10938491Y-11662150D01*
X10938491Y-11662150D02*
X10967063Y-11662150D01*
X10967063Y-11662150D02*
X10986110Y-11671674D01*
X10986110Y-11671674D02*
X10995634Y-11690722D01*
X10995634Y-11690722D02*
X10995634Y-11795484D01*
X10995634Y-11690722D02*
X11005158Y-11671674D01*
X11005158Y-11671674D02*
X11024205Y-11662150D01*
X11024205Y-11662150D02*
X11052777Y-11662150D01*
X11052777Y-11662150D02*
X11071825Y-11671674D01*
X11071825Y-11671674D02*
X11081348Y-11690722D01*
X11081348Y-11690722D02*
X11081348Y-11795484D01*
X11176586Y-11795484D02*
X11176586Y-11662150D01*
X11176586Y-11681198D02*
X11186110Y-11671674D01*
X11186110Y-11671674D02*
X11205158Y-11662150D01*
X11205158Y-11662150D02*
X11233729Y-11662150D01*
X11233729Y-11662150D02*
X11252777Y-11671674D01*
X11252777Y-11671674D02*
X11262301Y-11690722D01*
X11262301Y-11690722D02*
X11262301Y-11795484D01*
X11262301Y-11690722D02*
X11271824Y-11671674D01*
X11271824Y-11671674D02*
X11290872Y-11662150D01*
X11290872Y-11662150D02*
X11319443Y-11662150D01*
X11319443Y-11662150D02*
X11338491Y-11671674D01*
X11338491Y-11671674D02*
X11348015Y-11690722D01*
X11348015Y-11690722D02*
X11348015Y-11795484D01*
X11738491Y-11585960D02*
X11567063Y-11843103D01*
X11995634Y-11595484D02*
X12014682Y-11595484D01*
X12014682Y-11595484D02*
X12033729Y-11605008D01*
X12033729Y-11605008D02*
X12043253Y-11614531D01*
X12043253Y-11614531D02*
X12052777Y-11633579D01*
X12052777Y-11633579D02*
X12062301Y-11671674D01*
X12062301Y-11671674D02*
X12062301Y-11719293D01*
X12062301Y-11719293D02*
X12052777Y-11757388D01*
X12052777Y-11757388D02*
X12043253Y-11776436D01*
X12043253Y-11776436D02*
X12033729Y-11785960D01*
X12033729Y-11785960D02*
X12014682Y-11795484D01*
X12014682Y-11795484D02*
X11995634Y-11795484D01*
X11995634Y-11795484D02*
X11976586Y-11785960D01*
X11976586Y-11785960D02*
X11967063Y-11776436D01*
X11967063Y-11776436D02*
X11957539Y-11757388D01*
X11957539Y-11757388D02*
X11948015Y-11719293D01*
X11948015Y-11719293D02*
X11948015Y-11671674D01*
X11948015Y-11671674D02*
X11957539Y-11633579D01*
X11957539Y-11633579D02*
X11967063Y-11614531D01*
X11967063Y-11614531D02*
X11976586Y-11605008D01*
X11976586Y-11605008D02*
X11995634Y-11595484D01*
X12148015Y-11776436D02*
X12157539Y-11785960D01*
X12157539Y-11785960D02*
X12148015Y-11795484D01*
X12148015Y-11795484D02*
X12138491Y-11785960D01*
X12138491Y-11785960D02*
X12148015Y-11776436D01*
X12148015Y-11776436D02*
X12148015Y-11795484D01*
X12281348Y-11595484D02*
X12300396Y-11595484D01*
X12300396Y-11595484D02*
X12319444Y-11605008D01*
X12319444Y-11605008D02*
X12328967Y-11614531D01*
X12328967Y-11614531D02*
X12338491Y-11633579D01*
X12338491Y-11633579D02*
X12348015Y-11671674D01*
X12348015Y-11671674D02*
X12348015Y-11719293D01*
X12348015Y-11719293D02*
X12338491Y-11757388D01*
X12338491Y-11757388D02*
X12328967Y-11776436D01*
X12328967Y-11776436D02*
X12319444Y-11785960D01*
X12319444Y-11785960D02*
X12300396Y-11795484D01*
X12300396Y-11795484D02*
X12281348Y-11795484D01*
X12281348Y-11795484D02*
X12262301Y-11785960D01*
X12262301Y-11785960D02*
X12252777Y-11776436D01*
X12252777Y-11776436D02*
X12243253Y-11757388D01*
X12243253Y-11757388D02*
X12233729Y-11719293D01*
X12233729Y-11719293D02*
X12233729Y-11671674D01*
X12233729Y-11671674D02*
X12243253Y-11633579D01*
X12243253Y-11633579D02*
X12252777Y-11614531D01*
X12252777Y-11614531D02*
X12262301Y-11605008D01*
X12262301Y-11605008D02*
X12281348Y-11595484D01*
X12424206Y-11614531D02*
X12433729Y-11605008D01*
X12433729Y-11605008D02*
X12452777Y-11595484D01*
X12452777Y-11595484D02*
X12500396Y-11595484D01*
X12500396Y-11595484D02*
X12519444Y-11605008D01*
X12519444Y-11605008D02*
X12528967Y-11614531D01*
X12528967Y-11614531D02*
X12538491Y-11633579D01*
X12538491Y-11633579D02*
X12538491Y-11652627D01*
X12538491Y-11652627D02*
X12528967Y-11681198D01*
X12528967Y-11681198D02*
X12414682Y-11795484D01*
X12414682Y-11795484D02*
X12538491Y-11795484D01*
X12633729Y-11795484D02*
X12671825Y-11795484D01*
X12671825Y-11795484D02*
X12690872Y-11785960D01*
X12690872Y-11785960D02*
X12700396Y-11776436D01*
X12700396Y-11776436D02*
X12719444Y-11747865D01*
X12719444Y-11747865D02*
X12728967Y-11709769D01*
X12728967Y-11709769D02*
X12728967Y-11633579D01*
X12728967Y-11633579D02*
X12719444Y-11614531D01*
X12719444Y-11614531D02*
X12709920Y-11605008D01*
X12709920Y-11605008D02*
X12690872Y-11595484D01*
X12690872Y-11595484D02*
X12652777Y-11595484D01*
X12652777Y-11595484D02*
X12633729Y-11605008D01*
X12633729Y-11605008D02*
X12624206Y-11614531D01*
X12624206Y-11614531D02*
X12614682Y-11633579D01*
X12614682Y-11633579D02*
X12614682Y-11681198D01*
X12614682Y-11681198D02*
X12624206Y-11700246D01*
X12624206Y-11700246D02*
X12633729Y-11709769D01*
X12633729Y-11709769D02*
X12652777Y-11719293D01*
X12652777Y-11719293D02*
X12690872Y-11719293D01*
X12690872Y-11719293D02*
X12709920Y-11709769D01*
X12709920Y-11709769D02*
X12719444Y-11700246D01*
X12719444Y-11700246D02*
X12728967Y-11681198D01*
X12909920Y-11595484D02*
X12814682Y-11595484D01*
X12814682Y-11595484D02*
X12805158Y-11690722D01*
X12805158Y-11690722D02*
X12814682Y-11681198D01*
X12814682Y-11681198D02*
X12833729Y-11671674D01*
X12833729Y-11671674D02*
X12881348Y-11671674D01*
X12881348Y-11671674D02*
X12900396Y-11681198D01*
X12900396Y-11681198D02*
X12909920Y-11690722D01*
X12909920Y-11690722D02*
X12919444Y-11709769D01*
X12919444Y-11709769D02*
X12919444Y-11757388D01*
X12919444Y-11757388D02*
X12909920Y-11776436D01*
X12909920Y-11776436D02*
X12900396Y-11785960D01*
X12900396Y-11785960D02*
X12881348Y-11795484D01*
X12881348Y-11795484D02*
X12833729Y-11795484D01*
X12833729Y-11795484D02*
X12814682Y-11785960D01*
X12814682Y-11785960D02*
X12805158Y-11776436D01*
X12995634Y-11595484D02*
X12995634Y-11633579D01*
X13071825Y-11595484D02*
X13071825Y-11633579D01*
X13367063Y-11871674D02*
X13357539Y-11862150D01*
X13357539Y-11862150D02*
X13338491Y-11833579D01*
X13338491Y-11833579D02*
X13328968Y-11814531D01*
X13328968Y-11814531D02*
X13319444Y-11785960D01*
X13319444Y-11785960D02*
X13309920Y-11738341D01*
X13309920Y-11738341D02*
X13309920Y-11700246D01*
X13309920Y-11700246D02*
X13319444Y-11652627D01*
X13319444Y-11652627D02*
X13328968Y-11624055D01*
X13328968Y-11624055D02*
X13338491Y-11605008D01*
X13338491Y-11605008D02*
X13357539Y-11576436D01*
X13357539Y-11576436D02*
X13367063Y-11566912D01*
X13471825Y-11681198D02*
X13452777Y-11671674D01*
X13452777Y-11671674D02*
X13443253Y-11662150D01*
X13443253Y-11662150D02*
X13433729Y-11643103D01*
X13433729Y-11643103D02*
X13433729Y-11633579D01*
X13433729Y-11633579D02*
X13443253Y-11614531D01*
X13443253Y-11614531D02*
X13452777Y-11605008D01*
X13452777Y-11605008D02*
X13471825Y-11595484D01*
X13471825Y-11595484D02*
X13509920Y-11595484D01*
X13509920Y-11595484D02*
X13528968Y-11605008D01*
X13528968Y-11605008D02*
X13538491Y-11614531D01*
X13538491Y-11614531D02*
X13548015Y-11633579D01*
X13548015Y-11633579D02*
X13548015Y-11643103D01*
X13548015Y-11643103D02*
X13538491Y-11662150D01*
X13538491Y-11662150D02*
X13528968Y-11671674D01*
X13528968Y-11671674D02*
X13509920Y-11681198D01*
X13509920Y-11681198D02*
X13471825Y-11681198D01*
X13471825Y-11681198D02*
X13452777Y-11690722D01*
X13452777Y-11690722D02*
X13443253Y-11700246D01*
X13443253Y-11700246D02*
X13433729Y-11719293D01*
X13433729Y-11719293D02*
X13433729Y-11757388D01*
X13433729Y-11757388D02*
X13443253Y-11776436D01*
X13443253Y-11776436D02*
X13452777Y-11785960D01*
X13452777Y-11785960D02*
X13471825Y-11795484D01*
X13471825Y-11795484D02*
X13509920Y-11795484D01*
X13509920Y-11795484D02*
X13528968Y-11785960D01*
X13528968Y-11785960D02*
X13538491Y-11776436D01*
X13538491Y-11776436D02*
X13548015Y-11757388D01*
X13548015Y-11757388D02*
X13548015Y-11719293D01*
X13548015Y-11719293D02*
X13538491Y-11700246D01*
X13538491Y-11700246D02*
X13528968Y-11690722D01*
X13528968Y-11690722D02*
X13509920Y-11681198D01*
X13786110Y-11795484D02*
X13786110Y-11595484D01*
X13871825Y-11795484D02*
X13871825Y-11690722D01*
X13871825Y-11690722D02*
X13862301Y-11671674D01*
X13862301Y-11671674D02*
X13843253Y-11662150D01*
X13843253Y-11662150D02*
X13814682Y-11662150D01*
X13814682Y-11662150D02*
X13795634Y-11671674D01*
X13795634Y-11671674D02*
X13786110Y-11681198D01*
X13995634Y-11795484D02*
X13976587Y-11785960D01*
X13976587Y-11785960D02*
X13967063Y-11776436D01*
X13967063Y-11776436D02*
X13957539Y-11757388D01*
X13957539Y-11757388D02*
X13957539Y-11700246D01*
X13957539Y-11700246D02*
X13967063Y-11681198D01*
X13967063Y-11681198D02*
X13976587Y-11671674D01*
X13976587Y-11671674D02*
X13995634Y-11662150D01*
X13995634Y-11662150D02*
X14024206Y-11662150D01*
X14024206Y-11662150D02*
X14043253Y-11671674D01*
X14043253Y-11671674D02*
X14052777Y-11681198D01*
X14052777Y-11681198D02*
X14062301Y-11700246D01*
X14062301Y-11700246D02*
X14062301Y-11757388D01*
X14062301Y-11757388D02*
X14052777Y-11776436D01*
X14052777Y-11776436D02*
X14043253Y-11785960D01*
X14043253Y-11785960D02*
X14024206Y-11795484D01*
X14024206Y-11795484D02*
X13995634Y-11795484D01*
X14176587Y-11795484D02*
X14157539Y-11785960D01*
X14157539Y-11785960D02*
X14148015Y-11766912D01*
X14148015Y-11766912D02*
X14148015Y-11595484D01*
X14328968Y-11785960D02*
X14309920Y-11795484D01*
X14309920Y-11795484D02*
X14271825Y-11795484D01*
X14271825Y-11795484D02*
X14252777Y-11785960D01*
X14252777Y-11785960D02*
X14243253Y-11766912D01*
X14243253Y-11766912D02*
X14243253Y-11690722D01*
X14243253Y-11690722D02*
X14252777Y-11671674D01*
X14252777Y-11671674D02*
X14271825Y-11662150D01*
X14271825Y-11662150D02*
X14309920Y-11662150D01*
X14309920Y-11662150D02*
X14328968Y-11671674D01*
X14328968Y-11671674D02*
X14338491Y-11690722D01*
X14338491Y-11690722D02*
X14338491Y-11709769D01*
X14338491Y-11709769D02*
X14243253Y-11728817D01*
X14414682Y-11785960D02*
X14433730Y-11795484D01*
X14433730Y-11795484D02*
X14471825Y-11795484D01*
X14471825Y-11795484D02*
X14490872Y-11785960D01*
X14490872Y-11785960D02*
X14500396Y-11766912D01*
X14500396Y-11766912D02*
X14500396Y-11757388D01*
X14500396Y-11757388D02*
X14490872Y-11738341D01*
X14490872Y-11738341D02*
X14471825Y-11728817D01*
X14471825Y-11728817D02*
X14443253Y-11728817D01*
X14443253Y-11728817D02*
X14424206Y-11719293D01*
X14424206Y-11719293D02*
X14414682Y-11700246D01*
X14414682Y-11700246D02*
X14414682Y-11690722D01*
X14414682Y-11690722D02*
X14424206Y-11671674D01*
X14424206Y-11671674D02*
X14443253Y-11662150D01*
X14443253Y-11662150D02*
X14471825Y-11662150D01*
X14471825Y-11662150D02*
X14490872Y-11671674D01*
X14567063Y-11871674D02*
X14576587Y-11862150D01*
X14576587Y-11862150D02*
X14595634Y-11833579D01*
X14595634Y-11833579D02*
X14605158Y-11814531D01*
X14605158Y-11814531D02*
X14614682Y-11785960D01*
X14614682Y-11785960D02*
X14624206Y-11738341D01*
X14624206Y-11738341D02*
X14624206Y-11700246D01*
X14624206Y-11700246D02*
X14614682Y-11652627D01*
X14614682Y-11652627D02*
X14605158Y-11624055D01*
X14605158Y-11624055D02*
X14595634Y-11605008D01*
X14595634Y-11605008D02*
X14576587Y-11576436D01*
X14576587Y-11576436D02*
X14567063Y-11566912D01*
D12*
X9692000Y-11918000D02*
X9792000Y-12018000D01*
X9792000Y-11918000D02*
X9692000Y-12018000D01*
X9792000Y-11968000D02*
G75*
G02*
X9692000Y-11968000I-50000J0D01*
G01*
X9692000Y-11968000D02*
G75*
G02*
X9792000Y-11968000I50000J0D01*
G01*
D11*
X10157539Y-12059484D02*
X10043253Y-12059484D01*
X10100396Y-12059484D02*
X10100396Y-11859484D01*
X10100396Y-11859484D02*
X10081348Y-11888055D01*
X10081348Y-11888055D02*
X10062301Y-11907103D01*
X10062301Y-11907103D02*
X10043253Y-11916627D01*
X10243253Y-12040436D02*
X10252777Y-12049960D01*
X10252777Y-12049960D02*
X10243253Y-12059484D01*
X10243253Y-12059484D02*
X10233729Y-12049960D01*
X10233729Y-12049960D02*
X10243253Y-12040436D01*
X10243253Y-12040436D02*
X10243253Y-12059484D01*
X10376586Y-11859484D02*
X10395634Y-11859484D01*
X10395634Y-11859484D02*
X10414682Y-11869008D01*
X10414682Y-11869008D02*
X10424205Y-11878531D01*
X10424205Y-11878531D02*
X10433729Y-11897579D01*
X10433729Y-11897579D02*
X10443253Y-11935674D01*
X10443253Y-11935674D02*
X10443253Y-11983293D01*
X10443253Y-11983293D02*
X10433729Y-12021388D01*
X10433729Y-12021388D02*
X10424205Y-12040436D01*
X10424205Y-12040436D02*
X10414682Y-12049960D01*
X10414682Y-12049960D02*
X10395634Y-12059484D01*
X10395634Y-12059484D02*
X10376586Y-12059484D01*
X10376586Y-12059484D02*
X10357539Y-12049960D01*
X10357539Y-12049960D02*
X10348015Y-12040436D01*
X10348015Y-12040436D02*
X10338491Y-12021388D01*
X10338491Y-12021388D02*
X10328967Y-11983293D01*
X10328967Y-11983293D02*
X10328967Y-11935674D01*
X10328967Y-11935674D02*
X10338491Y-11897579D01*
X10338491Y-11897579D02*
X10348015Y-11878531D01*
X10348015Y-11878531D02*
X10357539Y-11869008D01*
X10357539Y-11869008D02*
X10376586Y-11859484D01*
X10567063Y-11859484D02*
X10586110Y-11859484D01*
X10586110Y-11859484D02*
X10605158Y-11869008D01*
X10605158Y-11869008D02*
X10614682Y-11878531D01*
X10614682Y-11878531D02*
X10624205Y-11897579D01*
X10624205Y-11897579D02*
X10633729Y-11935674D01*
X10633729Y-11935674D02*
X10633729Y-11983293D01*
X10633729Y-11983293D02*
X10624205Y-12021388D01*
X10624205Y-12021388D02*
X10614682Y-12040436D01*
X10614682Y-12040436D02*
X10605158Y-12049960D01*
X10605158Y-12049960D02*
X10586110Y-12059484D01*
X10586110Y-12059484D02*
X10567063Y-12059484D01*
X10567063Y-12059484D02*
X10548015Y-12049960D01*
X10548015Y-12049960D02*
X10538491Y-12040436D01*
X10538491Y-12040436D02*
X10528967Y-12021388D01*
X10528967Y-12021388D02*
X10519444Y-11983293D01*
X10519444Y-11983293D02*
X10519444Y-11935674D01*
X10519444Y-11935674D02*
X10528967Y-11897579D01*
X10528967Y-11897579D02*
X10538491Y-11878531D01*
X10538491Y-11878531D02*
X10548015Y-11869008D01*
X10548015Y-11869008D02*
X10567063Y-11859484D01*
X10757539Y-11859484D02*
X10776586Y-11859484D01*
X10776586Y-11859484D02*
X10795634Y-11869008D01*
X10795634Y-11869008D02*
X10805158Y-11878531D01*
X10805158Y-11878531D02*
X10814682Y-11897579D01*
X10814682Y-11897579D02*
X10824205Y-11935674D01*
X10824205Y-11935674D02*
X10824205Y-11983293D01*
X10824205Y-11983293D02*
X10814682Y-12021388D01*
X10814682Y-12021388D02*
X10805158Y-12040436D01*
X10805158Y-12040436D02*
X10795634Y-12049960D01*
X10795634Y-12049960D02*
X10776586Y-12059484D01*
X10776586Y-12059484D02*
X10757539Y-12059484D01*
X10757539Y-12059484D02*
X10738491Y-12049960D01*
X10738491Y-12049960D02*
X10728967Y-12040436D01*
X10728967Y-12040436D02*
X10719444Y-12021388D01*
X10719444Y-12021388D02*
X10709920Y-11983293D01*
X10709920Y-11983293D02*
X10709920Y-11935674D01*
X10709920Y-11935674D02*
X10719444Y-11897579D01*
X10719444Y-11897579D02*
X10728967Y-11878531D01*
X10728967Y-11878531D02*
X10738491Y-11869008D01*
X10738491Y-11869008D02*
X10757539Y-11859484D01*
X10909920Y-12059484D02*
X10909920Y-11926150D01*
X10909920Y-11945198D02*
X10919444Y-11935674D01*
X10919444Y-11935674D02*
X10938491Y-11926150D01*
X10938491Y-11926150D02*
X10967063Y-11926150D01*
X10967063Y-11926150D02*
X10986110Y-11935674D01*
X10986110Y-11935674D02*
X10995634Y-11954722D01*
X10995634Y-11954722D02*
X10995634Y-12059484D01*
X10995634Y-11954722D02*
X11005158Y-11935674D01*
X11005158Y-11935674D02*
X11024205Y-11926150D01*
X11024205Y-11926150D02*
X11052777Y-11926150D01*
X11052777Y-11926150D02*
X11071825Y-11935674D01*
X11071825Y-11935674D02*
X11081348Y-11954722D01*
X11081348Y-11954722D02*
X11081348Y-12059484D01*
X11176586Y-12059484D02*
X11176586Y-11926150D01*
X11176586Y-11945198D02*
X11186110Y-11935674D01*
X11186110Y-11935674D02*
X11205158Y-11926150D01*
X11205158Y-11926150D02*
X11233729Y-11926150D01*
X11233729Y-11926150D02*
X11252777Y-11935674D01*
X11252777Y-11935674D02*
X11262301Y-11954722D01*
X11262301Y-11954722D02*
X11262301Y-12059484D01*
X11262301Y-11954722D02*
X11271824Y-11935674D01*
X11271824Y-11935674D02*
X11290872Y-11926150D01*
X11290872Y-11926150D02*
X11319443Y-11926150D01*
X11319443Y-11926150D02*
X11338491Y-11935674D01*
X11338491Y-11935674D02*
X11348015Y-11954722D01*
X11348015Y-11954722D02*
X11348015Y-12059484D01*
X11738491Y-11849960D02*
X11567063Y-12107103D01*
X11995634Y-11859484D02*
X12014682Y-11859484D01*
X12014682Y-11859484D02*
X12033729Y-11869008D01*
X12033729Y-11869008D02*
X12043253Y-11878531D01*
X12043253Y-11878531D02*
X12052777Y-11897579D01*
X12052777Y-11897579D02*
X12062301Y-11935674D01*
X12062301Y-11935674D02*
X12062301Y-11983293D01*
X12062301Y-11983293D02*
X12052777Y-12021388D01*
X12052777Y-12021388D02*
X12043253Y-12040436D01*
X12043253Y-12040436D02*
X12033729Y-12049960D01*
X12033729Y-12049960D02*
X12014682Y-12059484D01*
X12014682Y-12059484D02*
X11995634Y-12059484D01*
X11995634Y-12059484D02*
X11976586Y-12049960D01*
X11976586Y-12049960D02*
X11967063Y-12040436D01*
X11967063Y-12040436D02*
X11957539Y-12021388D01*
X11957539Y-12021388D02*
X11948015Y-11983293D01*
X11948015Y-11983293D02*
X11948015Y-11935674D01*
X11948015Y-11935674D02*
X11957539Y-11897579D01*
X11957539Y-11897579D02*
X11967063Y-11878531D01*
X11967063Y-11878531D02*
X11976586Y-11869008D01*
X11976586Y-11869008D02*
X11995634Y-11859484D01*
X12148015Y-12040436D02*
X12157539Y-12049960D01*
X12157539Y-12049960D02*
X12148015Y-12059484D01*
X12148015Y-12059484D02*
X12138491Y-12049960D01*
X12138491Y-12049960D02*
X12148015Y-12040436D01*
X12148015Y-12040436D02*
X12148015Y-12059484D01*
X12281348Y-11859484D02*
X12300396Y-11859484D01*
X12300396Y-11859484D02*
X12319444Y-11869008D01*
X12319444Y-11869008D02*
X12328967Y-11878531D01*
X12328967Y-11878531D02*
X12338491Y-11897579D01*
X12338491Y-11897579D02*
X12348015Y-11935674D01*
X12348015Y-11935674D02*
X12348015Y-11983293D01*
X12348015Y-11983293D02*
X12338491Y-12021388D01*
X12338491Y-12021388D02*
X12328967Y-12040436D01*
X12328967Y-12040436D02*
X12319444Y-12049960D01*
X12319444Y-12049960D02*
X12300396Y-12059484D01*
X12300396Y-12059484D02*
X12281348Y-12059484D01*
X12281348Y-12059484D02*
X12262301Y-12049960D01*
X12262301Y-12049960D02*
X12252777Y-12040436D01*
X12252777Y-12040436D02*
X12243253Y-12021388D01*
X12243253Y-12021388D02*
X12233729Y-11983293D01*
X12233729Y-11983293D02*
X12233729Y-11935674D01*
X12233729Y-11935674D02*
X12243253Y-11897579D01*
X12243253Y-11897579D02*
X12252777Y-11878531D01*
X12252777Y-11878531D02*
X12262301Y-11869008D01*
X12262301Y-11869008D02*
X12281348Y-11859484D01*
X12414682Y-11859484D02*
X12538491Y-11859484D01*
X12538491Y-11859484D02*
X12471825Y-11935674D01*
X12471825Y-11935674D02*
X12500396Y-11935674D01*
X12500396Y-11935674D02*
X12519444Y-11945198D01*
X12519444Y-11945198D02*
X12528967Y-11954722D01*
X12528967Y-11954722D02*
X12538491Y-11973769D01*
X12538491Y-11973769D02*
X12538491Y-12021388D01*
X12538491Y-12021388D02*
X12528967Y-12040436D01*
X12528967Y-12040436D02*
X12519444Y-12049960D01*
X12519444Y-12049960D02*
X12500396Y-12059484D01*
X12500396Y-12059484D02*
X12443253Y-12059484D01*
X12443253Y-12059484D02*
X12424206Y-12049960D01*
X12424206Y-12049960D02*
X12414682Y-12040436D01*
X12633729Y-12059484D02*
X12671825Y-12059484D01*
X12671825Y-12059484D02*
X12690872Y-12049960D01*
X12690872Y-12049960D02*
X12700396Y-12040436D01*
X12700396Y-12040436D02*
X12719444Y-12011865D01*
X12719444Y-12011865D02*
X12728967Y-11973769D01*
X12728967Y-11973769D02*
X12728967Y-11897579D01*
X12728967Y-11897579D02*
X12719444Y-11878531D01*
X12719444Y-11878531D02*
X12709920Y-11869008D01*
X12709920Y-11869008D02*
X12690872Y-11859484D01*
X12690872Y-11859484D02*
X12652777Y-11859484D01*
X12652777Y-11859484D02*
X12633729Y-11869008D01*
X12633729Y-11869008D02*
X12624206Y-11878531D01*
X12624206Y-11878531D02*
X12614682Y-11897579D01*
X12614682Y-11897579D02*
X12614682Y-11945198D01*
X12614682Y-11945198D02*
X12624206Y-11964246D01*
X12624206Y-11964246D02*
X12633729Y-11973769D01*
X12633729Y-11973769D02*
X12652777Y-11983293D01*
X12652777Y-11983293D02*
X12690872Y-11983293D01*
X12690872Y-11983293D02*
X12709920Y-11973769D01*
X12709920Y-11973769D02*
X12719444Y-11964246D01*
X12719444Y-11964246D02*
X12728967Y-11945198D01*
X12900396Y-11926150D02*
X12900396Y-12059484D01*
X12852777Y-11849960D02*
X12805158Y-11992817D01*
X12805158Y-11992817D02*
X12928967Y-11992817D01*
X12995634Y-11859484D02*
X12995634Y-11897579D01*
X13071825Y-11859484D02*
X13071825Y-11897579D01*
X13367063Y-12135674D02*
X13357539Y-12126150D01*
X13357539Y-12126150D02*
X13338491Y-12097579D01*
X13338491Y-12097579D02*
X13328968Y-12078531D01*
X13328968Y-12078531D02*
X13319444Y-12049960D01*
X13319444Y-12049960D02*
X13309920Y-12002341D01*
X13309920Y-12002341D02*
X13309920Y-11964246D01*
X13309920Y-11964246D02*
X13319444Y-11916627D01*
X13319444Y-11916627D02*
X13328968Y-11888055D01*
X13328968Y-11888055D02*
X13338491Y-11869008D01*
X13338491Y-11869008D02*
X13357539Y-11840436D01*
X13357539Y-11840436D02*
X13367063Y-11830912D01*
X13528968Y-11926150D02*
X13528968Y-12059484D01*
X13481348Y-11849960D02*
X13433729Y-11992817D01*
X13433729Y-11992817D02*
X13557539Y-11992817D01*
X13671825Y-11859484D02*
X13690872Y-11859484D01*
X13690872Y-11859484D02*
X13709920Y-11869008D01*
X13709920Y-11869008D02*
X13719444Y-11878531D01*
X13719444Y-11878531D02*
X13728968Y-11897579D01*
X13728968Y-11897579D02*
X13738491Y-11935674D01*
X13738491Y-11935674D02*
X13738491Y-11983293D01*
X13738491Y-11983293D02*
X13728968Y-12021388D01*
X13728968Y-12021388D02*
X13719444Y-12040436D01*
X13719444Y-12040436D02*
X13709920Y-12049960D01*
X13709920Y-12049960D02*
X13690872Y-12059484D01*
X13690872Y-12059484D02*
X13671825Y-12059484D01*
X13671825Y-12059484D02*
X13652777Y-12049960D01*
X13652777Y-12049960D02*
X13643253Y-12040436D01*
X13643253Y-12040436D02*
X13633729Y-12021388D01*
X13633729Y-12021388D02*
X13624206Y-11983293D01*
X13624206Y-11983293D02*
X13624206Y-11935674D01*
X13624206Y-11935674D02*
X13633729Y-11897579D01*
X13633729Y-11897579D02*
X13643253Y-11878531D01*
X13643253Y-11878531D02*
X13652777Y-11869008D01*
X13652777Y-11869008D02*
X13671825Y-11859484D01*
X13976587Y-12059484D02*
X13976587Y-11859484D01*
X14062301Y-12059484D02*
X14062301Y-11954722D01*
X14062301Y-11954722D02*
X14052777Y-11935674D01*
X14052777Y-11935674D02*
X14033730Y-11926150D01*
X14033730Y-11926150D02*
X14005158Y-11926150D01*
X14005158Y-11926150D02*
X13986110Y-11935674D01*
X13986110Y-11935674D02*
X13976587Y-11945198D01*
X14186110Y-12059484D02*
X14167063Y-12049960D01*
X14167063Y-12049960D02*
X14157539Y-12040436D01*
X14157539Y-12040436D02*
X14148015Y-12021388D01*
X14148015Y-12021388D02*
X14148015Y-11964246D01*
X14148015Y-11964246D02*
X14157539Y-11945198D01*
X14157539Y-11945198D02*
X14167063Y-11935674D01*
X14167063Y-11935674D02*
X14186110Y-11926150D01*
X14186110Y-11926150D02*
X14214682Y-11926150D01*
X14214682Y-11926150D02*
X14233730Y-11935674D01*
X14233730Y-11935674D02*
X14243253Y-11945198D01*
X14243253Y-11945198D02*
X14252777Y-11964246D01*
X14252777Y-11964246D02*
X14252777Y-12021388D01*
X14252777Y-12021388D02*
X14243253Y-12040436D01*
X14243253Y-12040436D02*
X14233730Y-12049960D01*
X14233730Y-12049960D02*
X14214682Y-12059484D01*
X14214682Y-12059484D02*
X14186110Y-12059484D01*
X14367063Y-12059484D02*
X14348015Y-12049960D01*
X14348015Y-12049960D02*
X14338491Y-12030912D01*
X14338491Y-12030912D02*
X14338491Y-11859484D01*
X14519444Y-12049960D02*
X14500396Y-12059484D01*
X14500396Y-12059484D02*
X14462301Y-12059484D01*
X14462301Y-12059484D02*
X14443253Y-12049960D01*
X14443253Y-12049960D02*
X14433730Y-12030912D01*
X14433730Y-12030912D02*
X14433730Y-11954722D01*
X14433730Y-11954722D02*
X14443253Y-11935674D01*
X14443253Y-11935674D02*
X14462301Y-11926150D01*
X14462301Y-11926150D02*
X14500396Y-11926150D01*
X14500396Y-11926150D02*
X14519444Y-11935674D01*
X14519444Y-11935674D02*
X14528968Y-11954722D01*
X14528968Y-11954722D02*
X14528968Y-11973769D01*
X14528968Y-11973769D02*
X14433730Y-11992817D01*
X14605158Y-12049960D02*
X14624206Y-12059484D01*
X14624206Y-12059484D02*
X14662301Y-12059484D01*
X14662301Y-12059484D02*
X14681349Y-12049960D01*
X14681349Y-12049960D02*
X14690872Y-12030912D01*
X14690872Y-12030912D02*
X14690872Y-12021388D01*
X14690872Y-12021388D02*
X14681349Y-12002341D01*
X14681349Y-12002341D02*
X14662301Y-11992817D01*
X14662301Y-11992817D02*
X14633730Y-11992817D01*
X14633730Y-11992817D02*
X14614682Y-11983293D01*
X14614682Y-11983293D02*
X14605158Y-11964246D01*
X14605158Y-11964246D02*
X14605158Y-11954722D01*
X14605158Y-11954722D02*
X14614682Y-11935674D01*
X14614682Y-11935674D02*
X14633730Y-11926150D01*
X14633730Y-11926150D02*
X14662301Y-11926150D01*
X14662301Y-11926150D02*
X14681349Y-11935674D01*
X14757539Y-12135674D02*
X14767063Y-12126150D01*
X14767063Y-12126150D02*
X14786111Y-12097579D01*
X14786111Y-12097579D02*
X14795634Y-12078531D01*
X14795634Y-12078531D02*
X14805158Y-12049960D01*
X14805158Y-12049960D02*
X14814682Y-12002341D01*
X14814682Y-12002341D02*
X14814682Y-11964246D01*
X14814682Y-11964246D02*
X14805158Y-11916627D01*
X14805158Y-11916627D02*
X14795634Y-11888055D01*
X14795634Y-11888055D02*
X14786111Y-11869008D01*
X14786111Y-11869008D02*
X14767063Y-11840436D01*
X14767063Y-11840436D02*
X14757539Y-11830912D01*
D13*
X9682000Y-12177000D02*
X9792000Y-12287000D01*
X9792000Y-12177000D02*
X9682000Y-12287000D01*
X9737000Y-12177000D02*
X9737000Y-12287000D01*
X9682000Y-12232000D02*
X9792000Y-12232000D01*
D11*
X10157539Y-12323484D02*
X10043253Y-12323484D01*
X10100396Y-12323484D02*
X10100396Y-12123484D01*
X10100396Y-12123484D02*
X10081348Y-12152055D01*
X10081348Y-12152055D02*
X10062301Y-12171103D01*
X10062301Y-12171103D02*
X10043253Y-12180627D01*
X10243253Y-12304436D02*
X10252777Y-12313960D01*
X10252777Y-12313960D02*
X10243253Y-12323484D01*
X10243253Y-12323484D02*
X10233729Y-12313960D01*
X10233729Y-12313960D02*
X10243253Y-12304436D01*
X10243253Y-12304436D02*
X10243253Y-12323484D01*
X10443253Y-12323484D02*
X10328967Y-12323484D01*
X10386110Y-12323484D02*
X10386110Y-12123484D01*
X10386110Y-12123484D02*
X10367063Y-12152055D01*
X10367063Y-12152055D02*
X10348015Y-12171103D01*
X10348015Y-12171103D02*
X10328967Y-12180627D01*
X10567063Y-12123484D02*
X10586110Y-12123484D01*
X10586110Y-12123484D02*
X10605158Y-12133008D01*
X10605158Y-12133008D02*
X10614682Y-12142531D01*
X10614682Y-12142531D02*
X10624205Y-12161579D01*
X10624205Y-12161579D02*
X10633729Y-12199674D01*
X10633729Y-12199674D02*
X10633729Y-12247293D01*
X10633729Y-12247293D02*
X10624205Y-12285388D01*
X10624205Y-12285388D02*
X10614682Y-12304436D01*
X10614682Y-12304436D02*
X10605158Y-12313960D01*
X10605158Y-12313960D02*
X10586110Y-12323484D01*
X10586110Y-12323484D02*
X10567063Y-12323484D01*
X10567063Y-12323484D02*
X10548015Y-12313960D01*
X10548015Y-12313960D02*
X10538491Y-12304436D01*
X10538491Y-12304436D02*
X10528967Y-12285388D01*
X10528967Y-12285388D02*
X10519444Y-12247293D01*
X10519444Y-12247293D02*
X10519444Y-12199674D01*
X10519444Y-12199674D02*
X10528967Y-12161579D01*
X10528967Y-12161579D02*
X10538491Y-12142531D01*
X10538491Y-12142531D02*
X10548015Y-12133008D01*
X10548015Y-12133008D02*
X10567063Y-12123484D01*
X10757539Y-12123484D02*
X10776586Y-12123484D01*
X10776586Y-12123484D02*
X10795634Y-12133008D01*
X10795634Y-12133008D02*
X10805158Y-12142531D01*
X10805158Y-12142531D02*
X10814682Y-12161579D01*
X10814682Y-12161579D02*
X10824205Y-12199674D01*
X10824205Y-12199674D02*
X10824205Y-12247293D01*
X10824205Y-12247293D02*
X10814682Y-12285388D01*
X10814682Y-12285388D02*
X10805158Y-12304436D01*
X10805158Y-12304436D02*
X10795634Y-12313960D01*
X10795634Y-12313960D02*
X10776586Y-12323484D01*
X10776586Y-12323484D02*
X10757539Y-12323484D01*
X10757539Y-12323484D02*
X10738491Y-12313960D01*
X10738491Y-12313960D02*
X10728967Y-12304436D01*
X10728967Y-12304436D02*
X10719444Y-12285388D01*
X10719444Y-12285388D02*
X10709920Y-12247293D01*
X10709920Y-12247293D02*
X10709920Y-12199674D01*
X10709920Y-12199674D02*
X10719444Y-12161579D01*
X10719444Y-12161579D02*
X10728967Y-12142531D01*
X10728967Y-12142531D02*
X10738491Y-12133008D01*
X10738491Y-12133008D02*
X10757539Y-12123484D01*
X10909920Y-12323484D02*
X10909920Y-12190150D01*
X10909920Y-12209198D02*
X10919444Y-12199674D01*
X10919444Y-12199674D02*
X10938491Y-12190150D01*
X10938491Y-12190150D02*
X10967063Y-12190150D01*
X10967063Y-12190150D02*
X10986110Y-12199674D01*
X10986110Y-12199674D02*
X10995634Y-12218722D01*
X10995634Y-12218722D02*
X10995634Y-12323484D01*
X10995634Y-12218722D02*
X11005158Y-12199674D01*
X11005158Y-12199674D02*
X11024205Y-12190150D01*
X11024205Y-12190150D02*
X11052777Y-12190150D01*
X11052777Y-12190150D02*
X11071825Y-12199674D01*
X11071825Y-12199674D02*
X11081348Y-12218722D01*
X11081348Y-12218722D02*
X11081348Y-12323484D01*
X11176586Y-12323484D02*
X11176586Y-12190150D01*
X11176586Y-12209198D02*
X11186110Y-12199674D01*
X11186110Y-12199674D02*
X11205158Y-12190150D01*
X11205158Y-12190150D02*
X11233729Y-12190150D01*
X11233729Y-12190150D02*
X11252777Y-12199674D01*
X11252777Y-12199674D02*
X11262301Y-12218722D01*
X11262301Y-12218722D02*
X11262301Y-12323484D01*
X11262301Y-12218722D02*
X11271824Y-12199674D01*
X11271824Y-12199674D02*
X11290872Y-12190150D01*
X11290872Y-12190150D02*
X11319443Y-12190150D01*
X11319443Y-12190150D02*
X11338491Y-12199674D01*
X11338491Y-12199674D02*
X11348015Y-12218722D01*
X11348015Y-12218722D02*
X11348015Y-12323484D01*
X11738491Y-12113960D02*
X11567063Y-12371103D01*
X11995634Y-12123484D02*
X12014682Y-12123484D01*
X12014682Y-12123484D02*
X12033729Y-12133008D01*
X12033729Y-12133008D02*
X12043253Y-12142531D01*
X12043253Y-12142531D02*
X12052777Y-12161579D01*
X12052777Y-12161579D02*
X12062301Y-12199674D01*
X12062301Y-12199674D02*
X12062301Y-12247293D01*
X12062301Y-12247293D02*
X12052777Y-12285388D01*
X12052777Y-12285388D02*
X12043253Y-12304436D01*
X12043253Y-12304436D02*
X12033729Y-12313960D01*
X12033729Y-12313960D02*
X12014682Y-12323484D01*
X12014682Y-12323484D02*
X11995634Y-12323484D01*
X11995634Y-12323484D02*
X11976586Y-12313960D01*
X11976586Y-12313960D02*
X11967063Y-12304436D01*
X11967063Y-12304436D02*
X11957539Y-12285388D01*
X11957539Y-12285388D02*
X11948015Y-12247293D01*
X11948015Y-12247293D02*
X11948015Y-12199674D01*
X11948015Y-12199674D02*
X11957539Y-12161579D01*
X11957539Y-12161579D02*
X11967063Y-12142531D01*
X11967063Y-12142531D02*
X11976586Y-12133008D01*
X11976586Y-12133008D02*
X11995634Y-12123484D01*
X12148015Y-12304436D02*
X12157539Y-12313960D01*
X12157539Y-12313960D02*
X12148015Y-12323484D01*
X12148015Y-12323484D02*
X12138491Y-12313960D01*
X12138491Y-12313960D02*
X12148015Y-12304436D01*
X12148015Y-12304436D02*
X12148015Y-12323484D01*
X12281348Y-12123484D02*
X12300396Y-12123484D01*
X12300396Y-12123484D02*
X12319444Y-12133008D01*
X12319444Y-12133008D02*
X12328967Y-12142531D01*
X12328967Y-12142531D02*
X12338491Y-12161579D01*
X12338491Y-12161579D02*
X12348015Y-12199674D01*
X12348015Y-12199674D02*
X12348015Y-12247293D01*
X12348015Y-12247293D02*
X12338491Y-12285388D01*
X12338491Y-12285388D02*
X12328967Y-12304436D01*
X12328967Y-12304436D02*
X12319444Y-12313960D01*
X12319444Y-12313960D02*
X12300396Y-12323484D01*
X12300396Y-12323484D02*
X12281348Y-12323484D01*
X12281348Y-12323484D02*
X12262301Y-12313960D01*
X12262301Y-12313960D02*
X12252777Y-12304436D01*
X12252777Y-12304436D02*
X12243253Y-12285388D01*
X12243253Y-12285388D02*
X12233729Y-12247293D01*
X12233729Y-12247293D02*
X12233729Y-12199674D01*
X12233729Y-12199674D02*
X12243253Y-12161579D01*
X12243253Y-12161579D02*
X12252777Y-12142531D01*
X12252777Y-12142531D02*
X12262301Y-12133008D01*
X12262301Y-12133008D02*
X12281348Y-12123484D01*
X12519444Y-12190150D02*
X12519444Y-12323484D01*
X12471825Y-12113960D02*
X12424206Y-12256817D01*
X12424206Y-12256817D02*
X12548015Y-12256817D01*
X12605158Y-12123484D02*
X12728967Y-12123484D01*
X12728967Y-12123484D02*
X12662301Y-12199674D01*
X12662301Y-12199674D02*
X12690872Y-12199674D01*
X12690872Y-12199674D02*
X12709920Y-12209198D01*
X12709920Y-12209198D02*
X12719444Y-12218722D01*
X12719444Y-12218722D02*
X12728967Y-12237769D01*
X12728967Y-12237769D02*
X12728967Y-12285388D01*
X12728967Y-12285388D02*
X12719444Y-12304436D01*
X12719444Y-12304436D02*
X12709920Y-12313960D01*
X12709920Y-12313960D02*
X12690872Y-12323484D01*
X12690872Y-12323484D02*
X12633729Y-12323484D01*
X12633729Y-12323484D02*
X12614682Y-12313960D01*
X12614682Y-12313960D02*
X12605158Y-12304436D01*
X12795634Y-12123484D02*
X12919444Y-12123484D01*
X12919444Y-12123484D02*
X12852777Y-12199674D01*
X12852777Y-12199674D02*
X12881348Y-12199674D01*
X12881348Y-12199674D02*
X12900396Y-12209198D01*
X12900396Y-12209198D02*
X12909920Y-12218722D01*
X12909920Y-12218722D02*
X12919444Y-12237769D01*
X12919444Y-12237769D02*
X12919444Y-12285388D01*
X12919444Y-12285388D02*
X12909920Y-12304436D01*
X12909920Y-12304436D02*
X12900396Y-12313960D01*
X12900396Y-12313960D02*
X12881348Y-12323484D01*
X12881348Y-12323484D02*
X12824206Y-12323484D01*
X12824206Y-12323484D02*
X12805158Y-12313960D01*
X12805158Y-12313960D02*
X12795634Y-12304436D01*
X12995634Y-12123484D02*
X12995634Y-12161579D01*
X13071825Y-12123484D02*
X13071825Y-12161579D01*
X13367063Y-12399674D02*
X13357539Y-12390150D01*
X13357539Y-12390150D02*
X13338491Y-12361579D01*
X13338491Y-12361579D02*
X13328968Y-12342531D01*
X13328968Y-12342531D02*
X13319444Y-12313960D01*
X13319444Y-12313960D02*
X13309920Y-12266341D01*
X13309920Y-12266341D02*
X13309920Y-12228246D01*
X13309920Y-12228246D02*
X13319444Y-12180627D01*
X13319444Y-12180627D02*
X13328968Y-12152055D01*
X13328968Y-12152055D02*
X13338491Y-12133008D01*
X13338491Y-12133008D02*
X13357539Y-12104436D01*
X13357539Y-12104436D02*
X13367063Y-12094912D01*
X13433729Y-12142531D02*
X13443253Y-12133008D01*
X13443253Y-12133008D02*
X13462301Y-12123484D01*
X13462301Y-12123484D02*
X13509920Y-12123484D01*
X13509920Y-12123484D02*
X13528968Y-12133008D01*
X13528968Y-12133008D02*
X13538491Y-12142531D01*
X13538491Y-12142531D02*
X13548015Y-12161579D01*
X13548015Y-12161579D02*
X13548015Y-12180627D01*
X13548015Y-12180627D02*
X13538491Y-12209198D01*
X13538491Y-12209198D02*
X13424206Y-12323484D01*
X13424206Y-12323484D02*
X13548015Y-12323484D01*
X13786110Y-12323484D02*
X13786110Y-12123484D01*
X13871825Y-12323484D02*
X13871825Y-12218722D01*
X13871825Y-12218722D02*
X13862301Y-12199674D01*
X13862301Y-12199674D02*
X13843253Y-12190150D01*
X13843253Y-12190150D02*
X13814682Y-12190150D01*
X13814682Y-12190150D02*
X13795634Y-12199674D01*
X13795634Y-12199674D02*
X13786110Y-12209198D01*
X13995634Y-12323484D02*
X13976587Y-12313960D01*
X13976587Y-12313960D02*
X13967063Y-12304436D01*
X13967063Y-12304436D02*
X13957539Y-12285388D01*
X13957539Y-12285388D02*
X13957539Y-12228246D01*
X13957539Y-12228246D02*
X13967063Y-12209198D01*
X13967063Y-12209198D02*
X13976587Y-12199674D01*
X13976587Y-12199674D02*
X13995634Y-12190150D01*
X13995634Y-12190150D02*
X14024206Y-12190150D01*
X14024206Y-12190150D02*
X14043253Y-12199674D01*
X14043253Y-12199674D02*
X14052777Y-12209198D01*
X14052777Y-12209198D02*
X14062301Y-12228246D01*
X14062301Y-12228246D02*
X14062301Y-12285388D01*
X14062301Y-12285388D02*
X14052777Y-12304436D01*
X14052777Y-12304436D02*
X14043253Y-12313960D01*
X14043253Y-12313960D02*
X14024206Y-12323484D01*
X14024206Y-12323484D02*
X13995634Y-12323484D01*
X14176587Y-12323484D02*
X14157539Y-12313960D01*
X14157539Y-12313960D02*
X14148015Y-12294912D01*
X14148015Y-12294912D02*
X14148015Y-12123484D01*
X14328968Y-12313960D02*
X14309920Y-12323484D01*
X14309920Y-12323484D02*
X14271825Y-12323484D01*
X14271825Y-12323484D02*
X14252777Y-12313960D01*
X14252777Y-12313960D02*
X14243253Y-12294912D01*
X14243253Y-12294912D02*
X14243253Y-12218722D01*
X14243253Y-12218722D02*
X14252777Y-12199674D01*
X14252777Y-12199674D02*
X14271825Y-12190150D01*
X14271825Y-12190150D02*
X14309920Y-12190150D01*
X14309920Y-12190150D02*
X14328968Y-12199674D01*
X14328968Y-12199674D02*
X14338491Y-12218722D01*
X14338491Y-12218722D02*
X14338491Y-12237769D01*
X14338491Y-12237769D02*
X14243253Y-12256817D01*
X14414682Y-12313960D02*
X14433730Y-12323484D01*
X14433730Y-12323484D02*
X14471825Y-12323484D01*
X14471825Y-12323484D02*
X14490872Y-12313960D01*
X14490872Y-12313960D02*
X14500396Y-12294912D01*
X14500396Y-12294912D02*
X14500396Y-12285388D01*
X14500396Y-12285388D02*
X14490872Y-12266341D01*
X14490872Y-12266341D02*
X14471825Y-12256817D01*
X14471825Y-12256817D02*
X14443253Y-12256817D01*
X14443253Y-12256817D02*
X14424206Y-12247293D01*
X14424206Y-12247293D02*
X14414682Y-12228246D01*
X14414682Y-12228246D02*
X14414682Y-12218722D01*
X14414682Y-12218722D02*
X14424206Y-12199674D01*
X14424206Y-12199674D02*
X14443253Y-12190150D01*
X14443253Y-12190150D02*
X14471825Y-12190150D01*
X14471825Y-12190150D02*
X14490872Y-12199674D01*
X14567063Y-12399674D02*
X14576587Y-12390150D01*
X14576587Y-12390150D02*
X14595634Y-12361579D01*
X14595634Y-12361579D02*
X14605158Y-12342531D01*
X14605158Y-12342531D02*
X14614682Y-12313960D01*
X14614682Y-12313960D02*
X14624206Y-12266341D01*
X14624206Y-12266341D02*
X14624206Y-12228246D01*
X14624206Y-12228246D02*
X14614682Y-12180627D01*
X14614682Y-12180627D02*
X14605158Y-12152055D01*
X14605158Y-12152055D02*
X14595634Y-12133008D01*
X14595634Y-12133008D02*
X14576587Y-12104436D01*
X14576587Y-12104436D02*
X14567063Y-12094912D01*
D14*
X9667000Y-12433500D02*
X9792000Y-12558500D01*
X9792000Y-12433500D02*
X9667000Y-12558500D01*
X9773695Y-12540195D02*
X9773695Y-12451805D01*
X9685305Y-12451805D01*
X9685305Y-12540195D01*
X9773695Y-12540195D01*
D11*
X10157539Y-12587484D02*
X10043253Y-12587484D01*
X10100396Y-12587484D02*
X10100396Y-12387484D01*
X10100396Y-12387484D02*
X10081348Y-12416055D01*
X10081348Y-12416055D02*
X10062301Y-12435103D01*
X10062301Y-12435103D02*
X10043253Y-12444627D01*
X10243253Y-12568436D02*
X10252777Y-12577960D01*
X10252777Y-12577960D02*
X10243253Y-12587484D01*
X10243253Y-12587484D02*
X10233729Y-12577960D01*
X10233729Y-12577960D02*
X10243253Y-12568436D01*
X10243253Y-12568436D02*
X10243253Y-12587484D01*
X10328967Y-12406531D02*
X10338491Y-12397008D01*
X10338491Y-12397008D02*
X10357539Y-12387484D01*
X10357539Y-12387484D02*
X10405158Y-12387484D01*
X10405158Y-12387484D02*
X10424205Y-12397008D01*
X10424205Y-12397008D02*
X10433729Y-12406531D01*
X10433729Y-12406531D02*
X10443253Y-12425579D01*
X10443253Y-12425579D02*
X10443253Y-12444627D01*
X10443253Y-12444627D02*
X10433729Y-12473198D01*
X10433729Y-12473198D02*
X10319444Y-12587484D01*
X10319444Y-12587484D02*
X10443253Y-12587484D01*
X10624205Y-12387484D02*
X10528967Y-12387484D01*
X10528967Y-12387484D02*
X10519444Y-12482722D01*
X10519444Y-12482722D02*
X10528967Y-12473198D01*
X10528967Y-12473198D02*
X10548015Y-12463674D01*
X10548015Y-12463674D02*
X10595634Y-12463674D01*
X10595634Y-12463674D02*
X10614682Y-12473198D01*
X10614682Y-12473198D02*
X10624205Y-12482722D01*
X10624205Y-12482722D02*
X10633729Y-12501769D01*
X10633729Y-12501769D02*
X10633729Y-12549388D01*
X10633729Y-12549388D02*
X10624205Y-12568436D01*
X10624205Y-12568436D02*
X10614682Y-12577960D01*
X10614682Y-12577960D02*
X10595634Y-12587484D01*
X10595634Y-12587484D02*
X10548015Y-12587484D01*
X10548015Y-12587484D02*
X10528967Y-12577960D01*
X10528967Y-12577960D02*
X10519444Y-12568436D01*
X10757539Y-12387484D02*
X10776586Y-12387484D01*
X10776586Y-12387484D02*
X10795634Y-12397008D01*
X10795634Y-12397008D02*
X10805158Y-12406531D01*
X10805158Y-12406531D02*
X10814682Y-12425579D01*
X10814682Y-12425579D02*
X10824205Y-12463674D01*
X10824205Y-12463674D02*
X10824205Y-12511293D01*
X10824205Y-12511293D02*
X10814682Y-12549388D01*
X10814682Y-12549388D02*
X10805158Y-12568436D01*
X10805158Y-12568436D02*
X10795634Y-12577960D01*
X10795634Y-12577960D02*
X10776586Y-12587484D01*
X10776586Y-12587484D02*
X10757539Y-12587484D01*
X10757539Y-12587484D02*
X10738491Y-12577960D01*
X10738491Y-12577960D02*
X10728967Y-12568436D01*
X10728967Y-12568436D02*
X10719444Y-12549388D01*
X10719444Y-12549388D02*
X10709920Y-12511293D01*
X10709920Y-12511293D02*
X10709920Y-12463674D01*
X10709920Y-12463674D02*
X10719444Y-12425579D01*
X10719444Y-12425579D02*
X10728967Y-12406531D01*
X10728967Y-12406531D02*
X10738491Y-12397008D01*
X10738491Y-12397008D02*
X10757539Y-12387484D01*
X10909920Y-12587484D02*
X10909920Y-12454150D01*
X10909920Y-12473198D02*
X10919444Y-12463674D01*
X10919444Y-12463674D02*
X10938491Y-12454150D01*
X10938491Y-12454150D02*
X10967063Y-12454150D01*
X10967063Y-12454150D02*
X10986110Y-12463674D01*
X10986110Y-12463674D02*
X10995634Y-12482722D01*
X10995634Y-12482722D02*
X10995634Y-12587484D01*
X10995634Y-12482722D02*
X11005158Y-12463674D01*
X11005158Y-12463674D02*
X11024205Y-12454150D01*
X11024205Y-12454150D02*
X11052777Y-12454150D01*
X11052777Y-12454150D02*
X11071825Y-12463674D01*
X11071825Y-12463674D02*
X11081348Y-12482722D01*
X11081348Y-12482722D02*
X11081348Y-12587484D01*
X11176586Y-12587484D02*
X11176586Y-12454150D01*
X11176586Y-12473198D02*
X11186110Y-12463674D01*
X11186110Y-12463674D02*
X11205158Y-12454150D01*
X11205158Y-12454150D02*
X11233729Y-12454150D01*
X11233729Y-12454150D02*
X11252777Y-12463674D01*
X11252777Y-12463674D02*
X11262301Y-12482722D01*
X11262301Y-12482722D02*
X11262301Y-12587484D01*
X11262301Y-12482722D02*
X11271824Y-12463674D01*
X11271824Y-12463674D02*
X11290872Y-12454150D01*
X11290872Y-12454150D02*
X11319443Y-12454150D01*
X11319443Y-12454150D02*
X11338491Y-12463674D01*
X11338491Y-12463674D02*
X11348015Y-12482722D01*
X11348015Y-12482722D02*
X11348015Y-12587484D01*
X11738491Y-12377960D02*
X11567063Y-12635103D01*
X11995634Y-12387484D02*
X12014682Y-12387484D01*
X12014682Y-12387484D02*
X12033729Y-12397008D01*
X12033729Y-12397008D02*
X12043253Y-12406531D01*
X12043253Y-12406531D02*
X12052777Y-12425579D01*
X12052777Y-12425579D02*
X12062301Y-12463674D01*
X12062301Y-12463674D02*
X12062301Y-12511293D01*
X12062301Y-12511293D02*
X12052777Y-12549388D01*
X12052777Y-12549388D02*
X12043253Y-12568436D01*
X12043253Y-12568436D02*
X12033729Y-12577960D01*
X12033729Y-12577960D02*
X12014682Y-12587484D01*
X12014682Y-12587484D02*
X11995634Y-12587484D01*
X11995634Y-12587484D02*
X11976586Y-12577960D01*
X11976586Y-12577960D02*
X11967063Y-12568436D01*
X11967063Y-12568436D02*
X11957539Y-12549388D01*
X11957539Y-12549388D02*
X11948015Y-12511293D01*
X11948015Y-12511293D02*
X11948015Y-12463674D01*
X11948015Y-12463674D02*
X11957539Y-12425579D01*
X11957539Y-12425579D02*
X11967063Y-12406531D01*
X11967063Y-12406531D02*
X11976586Y-12397008D01*
X11976586Y-12397008D02*
X11995634Y-12387484D01*
X12148015Y-12568436D02*
X12157539Y-12577960D01*
X12157539Y-12577960D02*
X12148015Y-12587484D01*
X12148015Y-12587484D02*
X12138491Y-12577960D01*
X12138491Y-12577960D02*
X12148015Y-12568436D01*
X12148015Y-12568436D02*
X12148015Y-12587484D01*
X12281348Y-12387484D02*
X12300396Y-12387484D01*
X12300396Y-12387484D02*
X12319444Y-12397008D01*
X12319444Y-12397008D02*
X12328967Y-12406531D01*
X12328967Y-12406531D02*
X12338491Y-12425579D01*
X12338491Y-12425579D02*
X12348015Y-12463674D01*
X12348015Y-12463674D02*
X12348015Y-12511293D01*
X12348015Y-12511293D02*
X12338491Y-12549388D01*
X12338491Y-12549388D02*
X12328967Y-12568436D01*
X12328967Y-12568436D02*
X12319444Y-12577960D01*
X12319444Y-12577960D02*
X12300396Y-12587484D01*
X12300396Y-12587484D02*
X12281348Y-12587484D01*
X12281348Y-12587484D02*
X12262301Y-12577960D01*
X12262301Y-12577960D02*
X12252777Y-12568436D01*
X12252777Y-12568436D02*
X12243253Y-12549388D01*
X12243253Y-12549388D02*
X12233729Y-12511293D01*
X12233729Y-12511293D02*
X12233729Y-12463674D01*
X12233729Y-12463674D02*
X12243253Y-12425579D01*
X12243253Y-12425579D02*
X12252777Y-12406531D01*
X12252777Y-12406531D02*
X12262301Y-12397008D01*
X12262301Y-12397008D02*
X12281348Y-12387484D01*
X12519444Y-12454150D02*
X12519444Y-12587484D01*
X12471825Y-12377960D02*
X12424206Y-12520817D01*
X12424206Y-12520817D02*
X12548015Y-12520817D01*
X12633729Y-12587484D02*
X12671825Y-12587484D01*
X12671825Y-12587484D02*
X12690872Y-12577960D01*
X12690872Y-12577960D02*
X12700396Y-12568436D01*
X12700396Y-12568436D02*
X12719444Y-12539865D01*
X12719444Y-12539865D02*
X12728967Y-12501769D01*
X12728967Y-12501769D02*
X12728967Y-12425579D01*
X12728967Y-12425579D02*
X12719444Y-12406531D01*
X12719444Y-12406531D02*
X12709920Y-12397008D01*
X12709920Y-12397008D02*
X12690872Y-12387484D01*
X12690872Y-12387484D02*
X12652777Y-12387484D01*
X12652777Y-12387484D02*
X12633729Y-12397008D01*
X12633729Y-12397008D02*
X12624206Y-12406531D01*
X12624206Y-12406531D02*
X12614682Y-12425579D01*
X12614682Y-12425579D02*
X12614682Y-12473198D01*
X12614682Y-12473198D02*
X12624206Y-12492246D01*
X12624206Y-12492246D02*
X12633729Y-12501769D01*
X12633729Y-12501769D02*
X12652777Y-12511293D01*
X12652777Y-12511293D02*
X12690872Y-12511293D01*
X12690872Y-12511293D02*
X12709920Y-12501769D01*
X12709920Y-12501769D02*
X12719444Y-12492246D01*
X12719444Y-12492246D02*
X12728967Y-12473198D01*
X12805158Y-12406531D02*
X12814682Y-12397008D01*
X12814682Y-12397008D02*
X12833729Y-12387484D01*
X12833729Y-12387484D02*
X12881348Y-12387484D01*
X12881348Y-12387484D02*
X12900396Y-12397008D01*
X12900396Y-12397008D02*
X12909920Y-12406531D01*
X12909920Y-12406531D02*
X12919444Y-12425579D01*
X12919444Y-12425579D02*
X12919444Y-12444627D01*
X12919444Y-12444627D02*
X12909920Y-12473198D01*
X12909920Y-12473198D02*
X12795634Y-12587484D01*
X12795634Y-12587484D02*
X12919444Y-12587484D01*
X12995634Y-12387484D02*
X12995634Y-12425579D01*
X13071825Y-12387484D02*
X13071825Y-12425579D01*
X13367063Y-12663674D02*
X13357539Y-12654150D01*
X13357539Y-12654150D02*
X13338491Y-12625579D01*
X13338491Y-12625579D02*
X13328968Y-12606531D01*
X13328968Y-12606531D02*
X13319444Y-12577960D01*
X13319444Y-12577960D02*
X13309920Y-12530341D01*
X13309920Y-12530341D02*
X13309920Y-12492246D01*
X13309920Y-12492246D02*
X13319444Y-12444627D01*
X13319444Y-12444627D02*
X13328968Y-12416055D01*
X13328968Y-12416055D02*
X13338491Y-12397008D01*
X13338491Y-12397008D02*
X13357539Y-12368436D01*
X13357539Y-12368436D02*
X13367063Y-12358912D01*
X13433729Y-12406531D02*
X13443253Y-12397008D01*
X13443253Y-12397008D02*
X13462301Y-12387484D01*
X13462301Y-12387484D02*
X13509920Y-12387484D01*
X13509920Y-12387484D02*
X13528968Y-12397008D01*
X13528968Y-12397008D02*
X13538491Y-12406531D01*
X13538491Y-12406531D02*
X13548015Y-12425579D01*
X13548015Y-12425579D02*
X13548015Y-12444627D01*
X13548015Y-12444627D02*
X13538491Y-12473198D01*
X13538491Y-12473198D02*
X13424206Y-12587484D01*
X13424206Y-12587484D02*
X13548015Y-12587484D01*
X13786110Y-12587484D02*
X13786110Y-12387484D01*
X13871825Y-12587484D02*
X13871825Y-12482722D01*
X13871825Y-12482722D02*
X13862301Y-12463674D01*
X13862301Y-12463674D02*
X13843253Y-12454150D01*
X13843253Y-12454150D02*
X13814682Y-12454150D01*
X13814682Y-12454150D02*
X13795634Y-12463674D01*
X13795634Y-12463674D02*
X13786110Y-12473198D01*
X13995634Y-12587484D02*
X13976587Y-12577960D01*
X13976587Y-12577960D02*
X13967063Y-12568436D01*
X13967063Y-12568436D02*
X13957539Y-12549388D01*
X13957539Y-12549388D02*
X13957539Y-12492246D01*
X13957539Y-12492246D02*
X13967063Y-12473198D01*
X13967063Y-12473198D02*
X13976587Y-12463674D01*
X13976587Y-12463674D02*
X13995634Y-12454150D01*
X13995634Y-12454150D02*
X14024206Y-12454150D01*
X14024206Y-12454150D02*
X14043253Y-12463674D01*
X14043253Y-12463674D02*
X14052777Y-12473198D01*
X14052777Y-12473198D02*
X14062301Y-12492246D01*
X14062301Y-12492246D02*
X14062301Y-12549388D01*
X14062301Y-12549388D02*
X14052777Y-12568436D01*
X14052777Y-12568436D02*
X14043253Y-12577960D01*
X14043253Y-12577960D02*
X14024206Y-12587484D01*
X14024206Y-12587484D02*
X13995634Y-12587484D01*
X14176587Y-12587484D02*
X14157539Y-12577960D01*
X14157539Y-12577960D02*
X14148015Y-12558912D01*
X14148015Y-12558912D02*
X14148015Y-12387484D01*
X14328968Y-12577960D02*
X14309920Y-12587484D01*
X14309920Y-12587484D02*
X14271825Y-12587484D01*
X14271825Y-12587484D02*
X14252777Y-12577960D01*
X14252777Y-12577960D02*
X14243253Y-12558912D01*
X14243253Y-12558912D02*
X14243253Y-12482722D01*
X14243253Y-12482722D02*
X14252777Y-12463674D01*
X14252777Y-12463674D02*
X14271825Y-12454150D01*
X14271825Y-12454150D02*
X14309920Y-12454150D01*
X14309920Y-12454150D02*
X14328968Y-12463674D01*
X14328968Y-12463674D02*
X14338491Y-12482722D01*
X14338491Y-12482722D02*
X14338491Y-12501769D01*
X14338491Y-12501769D02*
X14243253Y-12520817D01*
X14414682Y-12577960D02*
X14433730Y-12587484D01*
X14433730Y-12587484D02*
X14471825Y-12587484D01*
X14471825Y-12587484D02*
X14490872Y-12577960D01*
X14490872Y-12577960D02*
X14500396Y-12558912D01*
X14500396Y-12558912D02*
X14500396Y-12549388D01*
X14500396Y-12549388D02*
X14490872Y-12530341D01*
X14490872Y-12530341D02*
X14471825Y-12520817D01*
X14471825Y-12520817D02*
X14443253Y-12520817D01*
X14443253Y-12520817D02*
X14424206Y-12511293D01*
X14424206Y-12511293D02*
X14414682Y-12492246D01*
X14414682Y-12492246D02*
X14414682Y-12482722D01*
X14414682Y-12482722D02*
X14424206Y-12463674D01*
X14424206Y-12463674D02*
X14443253Y-12454150D01*
X14443253Y-12454150D02*
X14471825Y-12454150D01*
X14471825Y-12454150D02*
X14490872Y-12463674D01*
X14567063Y-12663674D02*
X14576587Y-12654150D01*
X14576587Y-12654150D02*
X14595634Y-12625579D01*
X14595634Y-12625579D02*
X14605158Y-12606531D01*
X14605158Y-12606531D02*
X14614682Y-12577960D01*
X14614682Y-12577960D02*
X14624206Y-12530341D01*
X14624206Y-12530341D02*
X14624206Y-12492246D01*
X14624206Y-12492246D02*
X14614682Y-12444627D01*
X14614682Y-12444627D02*
X14605158Y-12416055D01*
X14605158Y-12416055D02*
X14595634Y-12397008D01*
X14595634Y-12397008D02*
X14576587Y-12368436D01*
X14576587Y-12368436D02*
X14567063Y-12358912D01*
D15*
X9617000Y-12672500D02*
X9792000Y-12847500D01*
X9792000Y-12672500D02*
X9617000Y-12847500D01*
X9704500Y-12847500D02*
X9792000Y-12760000D01*
X9704500Y-12672500D01*
X9617000Y-12760000D01*
X9704500Y-12847500D01*
D11*
X10157539Y-12851484D02*
X10043253Y-12851484D01*
X10100396Y-12851484D02*
X10100396Y-12651484D01*
X10100396Y-12651484D02*
X10081348Y-12680055D01*
X10081348Y-12680055D02*
X10062301Y-12699103D01*
X10062301Y-12699103D02*
X10043253Y-12708627D01*
X10243253Y-12832436D02*
X10252777Y-12841960D01*
X10252777Y-12841960D02*
X10243253Y-12851484D01*
X10243253Y-12851484D02*
X10233729Y-12841960D01*
X10233729Y-12841960D02*
X10243253Y-12832436D01*
X10243253Y-12832436D02*
X10243253Y-12851484D01*
X10319444Y-12651484D02*
X10452777Y-12651484D01*
X10452777Y-12651484D02*
X10367063Y-12851484D01*
X10624205Y-12651484D02*
X10528967Y-12651484D01*
X10528967Y-12651484D02*
X10519444Y-12746722D01*
X10519444Y-12746722D02*
X10528967Y-12737198D01*
X10528967Y-12737198D02*
X10548015Y-12727674D01*
X10548015Y-12727674D02*
X10595634Y-12727674D01*
X10595634Y-12727674D02*
X10614682Y-12737198D01*
X10614682Y-12737198D02*
X10624205Y-12746722D01*
X10624205Y-12746722D02*
X10633729Y-12765769D01*
X10633729Y-12765769D02*
X10633729Y-12813388D01*
X10633729Y-12813388D02*
X10624205Y-12832436D01*
X10624205Y-12832436D02*
X10614682Y-12841960D01*
X10614682Y-12841960D02*
X10595634Y-12851484D01*
X10595634Y-12851484D02*
X10548015Y-12851484D01*
X10548015Y-12851484D02*
X10528967Y-12841960D01*
X10528967Y-12841960D02*
X10519444Y-12832436D01*
X10757539Y-12651484D02*
X10776586Y-12651484D01*
X10776586Y-12651484D02*
X10795634Y-12661008D01*
X10795634Y-12661008D02*
X10805158Y-12670531D01*
X10805158Y-12670531D02*
X10814682Y-12689579D01*
X10814682Y-12689579D02*
X10824205Y-12727674D01*
X10824205Y-12727674D02*
X10824205Y-12775293D01*
X10824205Y-12775293D02*
X10814682Y-12813388D01*
X10814682Y-12813388D02*
X10805158Y-12832436D01*
X10805158Y-12832436D02*
X10795634Y-12841960D01*
X10795634Y-12841960D02*
X10776586Y-12851484D01*
X10776586Y-12851484D02*
X10757539Y-12851484D01*
X10757539Y-12851484D02*
X10738491Y-12841960D01*
X10738491Y-12841960D02*
X10728967Y-12832436D01*
X10728967Y-12832436D02*
X10719444Y-12813388D01*
X10719444Y-12813388D02*
X10709920Y-12775293D01*
X10709920Y-12775293D02*
X10709920Y-12727674D01*
X10709920Y-12727674D02*
X10719444Y-12689579D01*
X10719444Y-12689579D02*
X10728967Y-12670531D01*
X10728967Y-12670531D02*
X10738491Y-12661008D01*
X10738491Y-12661008D02*
X10757539Y-12651484D01*
X10909920Y-12851484D02*
X10909920Y-12718150D01*
X10909920Y-12737198D02*
X10919444Y-12727674D01*
X10919444Y-12727674D02*
X10938491Y-12718150D01*
X10938491Y-12718150D02*
X10967063Y-12718150D01*
X10967063Y-12718150D02*
X10986110Y-12727674D01*
X10986110Y-12727674D02*
X10995634Y-12746722D01*
X10995634Y-12746722D02*
X10995634Y-12851484D01*
X10995634Y-12746722D02*
X11005158Y-12727674D01*
X11005158Y-12727674D02*
X11024205Y-12718150D01*
X11024205Y-12718150D02*
X11052777Y-12718150D01*
X11052777Y-12718150D02*
X11071825Y-12727674D01*
X11071825Y-12727674D02*
X11081348Y-12746722D01*
X11081348Y-12746722D02*
X11081348Y-12851484D01*
X11176586Y-12851484D02*
X11176586Y-12718150D01*
X11176586Y-12737198D02*
X11186110Y-12727674D01*
X11186110Y-12727674D02*
X11205158Y-12718150D01*
X11205158Y-12718150D02*
X11233729Y-12718150D01*
X11233729Y-12718150D02*
X11252777Y-12727674D01*
X11252777Y-12727674D02*
X11262301Y-12746722D01*
X11262301Y-12746722D02*
X11262301Y-12851484D01*
X11262301Y-12746722D02*
X11271824Y-12727674D01*
X11271824Y-12727674D02*
X11290872Y-12718150D01*
X11290872Y-12718150D02*
X11319443Y-12718150D01*
X11319443Y-12718150D02*
X11338491Y-12727674D01*
X11338491Y-12727674D02*
X11348015Y-12746722D01*
X11348015Y-12746722D02*
X11348015Y-12851484D01*
X11738491Y-12641960D02*
X11567063Y-12899103D01*
X11995634Y-12651484D02*
X12014682Y-12651484D01*
X12014682Y-12651484D02*
X12033729Y-12661008D01*
X12033729Y-12661008D02*
X12043253Y-12670531D01*
X12043253Y-12670531D02*
X12052777Y-12689579D01*
X12052777Y-12689579D02*
X12062301Y-12727674D01*
X12062301Y-12727674D02*
X12062301Y-12775293D01*
X12062301Y-12775293D02*
X12052777Y-12813388D01*
X12052777Y-12813388D02*
X12043253Y-12832436D01*
X12043253Y-12832436D02*
X12033729Y-12841960D01*
X12033729Y-12841960D02*
X12014682Y-12851484D01*
X12014682Y-12851484D02*
X11995634Y-12851484D01*
X11995634Y-12851484D02*
X11976586Y-12841960D01*
X11976586Y-12841960D02*
X11967063Y-12832436D01*
X11967063Y-12832436D02*
X11957539Y-12813388D01*
X11957539Y-12813388D02*
X11948015Y-12775293D01*
X11948015Y-12775293D02*
X11948015Y-12727674D01*
X11948015Y-12727674D02*
X11957539Y-12689579D01*
X11957539Y-12689579D02*
X11967063Y-12670531D01*
X11967063Y-12670531D02*
X11976586Y-12661008D01*
X11976586Y-12661008D02*
X11995634Y-12651484D01*
X12148015Y-12832436D02*
X12157539Y-12841960D01*
X12157539Y-12841960D02*
X12148015Y-12851484D01*
X12148015Y-12851484D02*
X12138491Y-12841960D01*
X12138491Y-12841960D02*
X12148015Y-12832436D01*
X12148015Y-12832436D02*
X12148015Y-12851484D01*
X12281348Y-12651484D02*
X12300396Y-12651484D01*
X12300396Y-12651484D02*
X12319444Y-12661008D01*
X12319444Y-12661008D02*
X12328967Y-12670531D01*
X12328967Y-12670531D02*
X12338491Y-12689579D01*
X12338491Y-12689579D02*
X12348015Y-12727674D01*
X12348015Y-12727674D02*
X12348015Y-12775293D01*
X12348015Y-12775293D02*
X12338491Y-12813388D01*
X12338491Y-12813388D02*
X12328967Y-12832436D01*
X12328967Y-12832436D02*
X12319444Y-12841960D01*
X12319444Y-12841960D02*
X12300396Y-12851484D01*
X12300396Y-12851484D02*
X12281348Y-12851484D01*
X12281348Y-12851484D02*
X12262301Y-12841960D01*
X12262301Y-12841960D02*
X12252777Y-12832436D01*
X12252777Y-12832436D02*
X12243253Y-12813388D01*
X12243253Y-12813388D02*
X12233729Y-12775293D01*
X12233729Y-12775293D02*
X12233729Y-12727674D01*
X12233729Y-12727674D02*
X12243253Y-12689579D01*
X12243253Y-12689579D02*
X12252777Y-12670531D01*
X12252777Y-12670531D02*
X12262301Y-12661008D01*
X12262301Y-12661008D02*
X12281348Y-12651484D01*
X12519444Y-12651484D02*
X12481348Y-12651484D01*
X12481348Y-12651484D02*
X12462301Y-12661008D01*
X12462301Y-12661008D02*
X12452777Y-12670531D01*
X12452777Y-12670531D02*
X12433729Y-12699103D01*
X12433729Y-12699103D02*
X12424206Y-12737198D01*
X12424206Y-12737198D02*
X12424206Y-12813388D01*
X12424206Y-12813388D02*
X12433729Y-12832436D01*
X12433729Y-12832436D02*
X12443253Y-12841960D01*
X12443253Y-12841960D02*
X12462301Y-12851484D01*
X12462301Y-12851484D02*
X12500396Y-12851484D01*
X12500396Y-12851484D02*
X12519444Y-12841960D01*
X12519444Y-12841960D02*
X12528967Y-12832436D01*
X12528967Y-12832436D02*
X12538491Y-12813388D01*
X12538491Y-12813388D02*
X12538491Y-12765769D01*
X12538491Y-12765769D02*
X12528967Y-12746722D01*
X12528967Y-12746722D02*
X12519444Y-12737198D01*
X12519444Y-12737198D02*
X12500396Y-12727674D01*
X12500396Y-12727674D02*
X12462301Y-12727674D01*
X12462301Y-12727674D02*
X12443253Y-12737198D01*
X12443253Y-12737198D02*
X12433729Y-12746722D01*
X12433729Y-12746722D02*
X12424206Y-12765769D01*
X12652777Y-12737198D02*
X12633729Y-12727674D01*
X12633729Y-12727674D02*
X12624206Y-12718150D01*
X12624206Y-12718150D02*
X12614682Y-12699103D01*
X12614682Y-12699103D02*
X12614682Y-12689579D01*
X12614682Y-12689579D02*
X12624206Y-12670531D01*
X12624206Y-12670531D02*
X12633729Y-12661008D01*
X12633729Y-12661008D02*
X12652777Y-12651484D01*
X12652777Y-12651484D02*
X12690872Y-12651484D01*
X12690872Y-12651484D02*
X12709920Y-12661008D01*
X12709920Y-12661008D02*
X12719444Y-12670531D01*
X12719444Y-12670531D02*
X12728967Y-12689579D01*
X12728967Y-12689579D02*
X12728967Y-12699103D01*
X12728967Y-12699103D02*
X12719444Y-12718150D01*
X12719444Y-12718150D02*
X12709920Y-12727674D01*
X12709920Y-12727674D02*
X12690872Y-12737198D01*
X12690872Y-12737198D02*
X12652777Y-12737198D01*
X12652777Y-12737198D02*
X12633729Y-12746722D01*
X12633729Y-12746722D02*
X12624206Y-12756246D01*
X12624206Y-12756246D02*
X12614682Y-12775293D01*
X12614682Y-12775293D02*
X12614682Y-12813388D01*
X12614682Y-12813388D02*
X12624206Y-12832436D01*
X12624206Y-12832436D02*
X12633729Y-12841960D01*
X12633729Y-12841960D02*
X12652777Y-12851484D01*
X12652777Y-12851484D02*
X12690872Y-12851484D01*
X12690872Y-12851484D02*
X12709920Y-12841960D01*
X12709920Y-12841960D02*
X12719444Y-12832436D01*
X12719444Y-12832436D02*
X12728967Y-12813388D01*
X12728967Y-12813388D02*
X12728967Y-12775293D01*
X12728967Y-12775293D02*
X12719444Y-12756246D01*
X12719444Y-12756246D02*
X12709920Y-12746722D01*
X12709920Y-12746722D02*
X12690872Y-12737198D01*
X12824206Y-12851484D02*
X12862301Y-12851484D01*
X12862301Y-12851484D02*
X12881348Y-12841960D01*
X12881348Y-12841960D02*
X12890872Y-12832436D01*
X12890872Y-12832436D02*
X12909920Y-12803865D01*
X12909920Y-12803865D02*
X12919444Y-12765769D01*
X12919444Y-12765769D02*
X12919444Y-12689579D01*
X12919444Y-12689579D02*
X12909920Y-12670531D01*
X12909920Y-12670531D02*
X12900396Y-12661008D01*
X12900396Y-12661008D02*
X12881348Y-12651484D01*
X12881348Y-12651484D02*
X12843253Y-12651484D01*
X12843253Y-12651484D02*
X12824206Y-12661008D01*
X12824206Y-12661008D02*
X12814682Y-12670531D01*
X12814682Y-12670531D02*
X12805158Y-12689579D01*
X12805158Y-12689579D02*
X12805158Y-12737198D01*
X12805158Y-12737198D02*
X12814682Y-12756246D01*
X12814682Y-12756246D02*
X12824206Y-12765769D01*
X12824206Y-12765769D02*
X12843253Y-12775293D01*
X12843253Y-12775293D02*
X12881348Y-12775293D01*
X12881348Y-12775293D02*
X12900396Y-12765769D01*
X12900396Y-12765769D02*
X12909920Y-12756246D01*
X12909920Y-12756246D02*
X12919444Y-12737198D01*
X12995634Y-12651484D02*
X12995634Y-12689579D01*
X13071825Y-12651484D02*
X13071825Y-12689579D01*
X13367063Y-12927674D02*
X13357539Y-12918150D01*
X13357539Y-12918150D02*
X13338491Y-12889579D01*
X13338491Y-12889579D02*
X13328968Y-12870531D01*
X13328968Y-12870531D02*
X13319444Y-12841960D01*
X13319444Y-12841960D02*
X13309920Y-12794341D01*
X13309920Y-12794341D02*
X13309920Y-12756246D01*
X13309920Y-12756246D02*
X13319444Y-12708627D01*
X13319444Y-12708627D02*
X13328968Y-12680055D01*
X13328968Y-12680055D02*
X13338491Y-12661008D01*
X13338491Y-12661008D02*
X13357539Y-12632436D01*
X13357539Y-12632436D02*
X13367063Y-12622912D01*
X13433729Y-12670531D02*
X13443253Y-12661008D01*
X13443253Y-12661008D02*
X13462301Y-12651484D01*
X13462301Y-12651484D02*
X13509920Y-12651484D01*
X13509920Y-12651484D02*
X13528968Y-12661008D01*
X13528968Y-12661008D02*
X13538491Y-12670531D01*
X13538491Y-12670531D02*
X13548015Y-12689579D01*
X13548015Y-12689579D02*
X13548015Y-12708627D01*
X13548015Y-12708627D02*
X13538491Y-12737198D01*
X13538491Y-12737198D02*
X13424206Y-12851484D01*
X13424206Y-12851484D02*
X13548015Y-12851484D01*
X13786110Y-12851484D02*
X13786110Y-12651484D01*
X13871825Y-12851484D02*
X13871825Y-12746722D01*
X13871825Y-12746722D02*
X13862301Y-12727674D01*
X13862301Y-12727674D02*
X13843253Y-12718150D01*
X13843253Y-12718150D02*
X13814682Y-12718150D01*
X13814682Y-12718150D02*
X13795634Y-12727674D01*
X13795634Y-12727674D02*
X13786110Y-12737198D01*
X13995634Y-12851484D02*
X13976587Y-12841960D01*
X13976587Y-12841960D02*
X13967063Y-12832436D01*
X13967063Y-12832436D02*
X13957539Y-12813388D01*
X13957539Y-12813388D02*
X13957539Y-12756246D01*
X13957539Y-12756246D02*
X13967063Y-12737198D01*
X13967063Y-12737198D02*
X13976587Y-12727674D01*
X13976587Y-12727674D02*
X13995634Y-12718150D01*
X13995634Y-12718150D02*
X14024206Y-12718150D01*
X14024206Y-12718150D02*
X14043253Y-12727674D01*
X14043253Y-12727674D02*
X14052777Y-12737198D01*
X14052777Y-12737198D02*
X14062301Y-12756246D01*
X14062301Y-12756246D02*
X14062301Y-12813388D01*
X14062301Y-12813388D02*
X14052777Y-12832436D01*
X14052777Y-12832436D02*
X14043253Y-12841960D01*
X14043253Y-12841960D02*
X14024206Y-12851484D01*
X14024206Y-12851484D02*
X13995634Y-12851484D01*
X14176587Y-12851484D02*
X14157539Y-12841960D01*
X14157539Y-12841960D02*
X14148015Y-12822912D01*
X14148015Y-12822912D02*
X14148015Y-12651484D01*
X14328968Y-12841960D02*
X14309920Y-12851484D01*
X14309920Y-12851484D02*
X14271825Y-12851484D01*
X14271825Y-12851484D02*
X14252777Y-12841960D01*
X14252777Y-12841960D02*
X14243253Y-12822912D01*
X14243253Y-12822912D02*
X14243253Y-12746722D01*
X14243253Y-12746722D02*
X14252777Y-12727674D01*
X14252777Y-12727674D02*
X14271825Y-12718150D01*
X14271825Y-12718150D02*
X14309920Y-12718150D01*
X14309920Y-12718150D02*
X14328968Y-12727674D01*
X14328968Y-12727674D02*
X14338491Y-12746722D01*
X14338491Y-12746722D02*
X14338491Y-12765769D01*
X14338491Y-12765769D02*
X14243253Y-12784817D01*
X14414682Y-12841960D02*
X14433730Y-12851484D01*
X14433730Y-12851484D02*
X14471825Y-12851484D01*
X14471825Y-12851484D02*
X14490872Y-12841960D01*
X14490872Y-12841960D02*
X14500396Y-12822912D01*
X14500396Y-12822912D02*
X14500396Y-12813388D01*
X14500396Y-12813388D02*
X14490872Y-12794341D01*
X14490872Y-12794341D02*
X14471825Y-12784817D01*
X14471825Y-12784817D02*
X14443253Y-12784817D01*
X14443253Y-12784817D02*
X14424206Y-12775293D01*
X14424206Y-12775293D02*
X14414682Y-12756246D01*
X14414682Y-12756246D02*
X14414682Y-12746722D01*
X14414682Y-12746722D02*
X14424206Y-12727674D01*
X14424206Y-12727674D02*
X14443253Y-12718150D01*
X14443253Y-12718150D02*
X14471825Y-12718150D01*
X14471825Y-12718150D02*
X14490872Y-12727674D01*
X14567063Y-12927674D02*
X14576587Y-12918150D01*
X14576587Y-12918150D02*
X14595634Y-12889579D01*
X14595634Y-12889579D02*
X14605158Y-12870531D01*
X14605158Y-12870531D02*
X14614682Y-12841960D01*
X14614682Y-12841960D02*
X14624206Y-12794341D01*
X14624206Y-12794341D02*
X14624206Y-12756246D01*
X14624206Y-12756246D02*
X14614682Y-12708627D01*
X14614682Y-12708627D02*
X14605158Y-12680055D01*
X14605158Y-12680055D02*
X14595634Y-12661008D01*
X14595634Y-12661008D02*
X14576587Y-12632436D01*
X14576587Y-12632436D02*
X14567063Y-12622912D01*
D16*
X9699500Y-12962500D02*
X9699500Y-13147500D01*
X9607000Y-13055000D02*
X9792000Y-13055000D01*
X9792000Y-13055000D02*
G75*
G02*
X9607000Y-13055000I-92500J0D01*
G01*
X9607000Y-13055000D02*
G75*
G02*
X9792000Y-13055000I92500J0D01*
G01*
D11*
X10157539Y-13146484D02*
X10043253Y-13146484D01*
X10100396Y-13146484D02*
X10100396Y-12946484D01*
X10100396Y-12946484D02*
X10081348Y-12975055D01*
X10081348Y-12975055D02*
X10062301Y-12994103D01*
X10062301Y-12994103D02*
X10043253Y-13003627D01*
X10243253Y-13127436D02*
X10252777Y-13136960D01*
X10252777Y-13136960D02*
X10243253Y-13146484D01*
X10243253Y-13146484D02*
X10233729Y-13136960D01*
X10233729Y-13136960D02*
X10243253Y-13127436D01*
X10243253Y-13127436D02*
X10243253Y-13146484D01*
X10367063Y-13032198D02*
X10348015Y-13022674D01*
X10348015Y-13022674D02*
X10338491Y-13013150D01*
X10338491Y-13013150D02*
X10328967Y-12994103D01*
X10328967Y-12994103D02*
X10328967Y-12984579D01*
X10328967Y-12984579D02*
X10338491Y-12965531D01*
X10338491Y-12965531D02*
X10348015Y-12956008D01*
X10348015Y-12956008D02*
X10367063Y-12946484D01*
X10367063Y-12946484D02*
X10405158Y-12946484D01*
X10405158Y-12946484D02*
X10424205Y-12956008D01*
X10424205Y-12956008D02*
X10433729Y-12965531D01*
X10433729Y-12965531D02*
X10443253Y-12984579D01*
X10443253Y-12984579D02*
X10443253Y-12994103D01*
X10443253Y-12994103D02*
X10433729Y-13013150D01*
X10433729Y-13013150D02*
X10424205Y-13022674D01*
X10424205Y-13022674D02*
X10405158Y-13032198D01*
X10405158Y-13032198D02*
X10367063Y-13032198D01*
X10367063Y-13032198D02*
X10348015Y-13041722D01*
X10348015Y-13041722D02*
X10338491Y-13051246D01*
X10338491Y-13051246D02*
X10328967Y-13070293D01*
X10328967Y-13070293D02*
X10328967Y-13108388D01*
X10328967Y-13108388D02*
X10338491Y-13127436D01*
X10338491Y-13127436D02*
X10348015Y-13136960D01*
X10348015Y-13136960D02*
X10367063Y-13146484D01*
X10367063Y-13146484D02*
X10405158Y-13146484D01*
X10405158Y-13146484D02*
X10424205Y-13136960D01*
X10424205Y-13136960D02*
X10433729Y-13127436D01*
X10433729Y-13127436D02*
X10443253Y-13108388D01*
X10443253Y-13108388D02*
X10443253Y-13070293D01*
X10443253Y-13070293D02*
X10433729Y-13051246D01*
X10433729Y-13051246D02*
X10424205Y-13041722D01*
X10424205Y-13041722D02*
X10405158Y-13032198D01*
X10624205Y-12946484D02*
X10528967Y-12946484D01*
X10528967Y-12946484D02*
X10519444Y-13041722D01*
X10519444Y-13041722D02*
X10528967Y-13032198D01*
X10528967Y-13032198D02*
X10548015Y-13022674D01*
X10548015Y-13022674D02*
X10595634Y-13022674D01*
X10595634Y-13022674D02*
X10614682Y-13032198D01*
X10614682Y-13032198D02*
X10624205Y-13041722D01*
X10624205Y-13041722D02*
X10633729Y-13060769D01*
X10633729Y-13060769D02*
X10633729Y-13108388D01*
X10633729Y-13108388D02*
X10624205Y-13127436D01*
X10624205Y-13127436D02*
X10614682Y-13136960D01*
X10614682Y-13136960D02*
X10595634Y-13146484D01*
X10595634Y-13146484D02*
X10548015Y-13146484D01*
X10548015Y-13146484D02*
X10528967Y-13136960D01*
X10528967Y-13136960D02*
X10519444Y-13127436D01*
X10757539Y-12946484D02*
X10776586Y-12946484D01*
X10776586Y-12946484D02*
X10795634Y-12956008D01*
X10795634Y-12956008D02*
X10805158Y-12965531D01*
X10805158Y-12965531D02*
X10814682Y-12984579D01*
X10814682Y-12984579D02*
X10824205Y-13022674D01*
X10824205Y-13022674D02*
X10824205Y-13070293D01*
X10824205Y-13070293D02*
X10814682Y-13108388D01*
X10814682Y-13108388D02*
X10805158Y-13127436D01*
X10805158Y-13127436D02*
X10795634Y-13136960D01*
X10795634Y-13136960D02*
X10776586Y-13146484D01*
X10776586Y-13146484D02*
X10757539Y-13146484D01*
X10757539Y-13146484D02*
X10738491Y-13136960D01*
X10738491Y-13136960D02*
X10728967Y-13127436D01*
X10728967Y-13127436D02*
X10719444Y-13108388D01*
X10719444Y-13108388D02*
X10709920Y-13070293D01*
X10709920Y-13070293D02*
X10709920Y-13022674D01*
X10709920Y-13022674D02*
X10719444Y-12984579D01*
X10719444Y-12984579D02*
X10728967Y-12965531D01*
X10728967Y-12965531D02*
X10738491Y-12956008D01*
X10738491Y-12956008D02*
X10757539Y-12946484D01*
X10909920Y-13146484D02*
X10909920Y-13013150D01*
X10909920Y-13032198D02*
X10919444Y-13022674D01*
X10919444Y-13022674D02*
X10938491Y-13013150D01*
X10938491Y-13013150D02*
X10967063Y-13013150D01*
X10967063Y-13013150D02*
X10986110Y-13022674D01*
X10986110Y-13022674D02*
X10995634Y-13041722D01*
X10995634Y-13041722D02*
X10995634Y-13146484D01*
X10995634Y-13041722D02*
X11005158Y-13022674D01*
X11005158Y-13022674D02*
X11024205Y-13013150D01*
X11024205Y-13013150D02*
X11052777Y-13013150D01*
X11052777Y-13013150D02*
X11071825Y-13022674D01*
X11071825Y-13022674D02*
X11081348Y-13041722D01*
X11081348Y-13041722D02*
X11081348Y-13146484D01*
X11176586Y-13146484D02*
X11176586Y-13013150D01*
X11176586Y-13032198D02*
X11186110Y-13022674D01*
X11186110Y-13022674D02*
X11205158Y-13013150D01*
X11205158Y-13013150D02*
X11233729Y-13013150D01*
X11233729Y-13013150D02*
X11252777Y-13022674D01*
X11252777Y-13022674D02*
X11262301Y-13041722D01*
X11262301Y-13041722D02*
X11262301Y-13146484D01*
X11262301Y-13041722D02*
X11271824Y-13022674D01*
X11271824Y-13022674D02*
X11290872Y-13013150D01*
X11290872Y-13013150D02*
X11319443Y-13013150D01*
X11319443Y-13013150D02*
X11338491Y-13022674D01*
X11338491Y-13022674D02*
X11348015Y-13041722D01*
X11348015Y-13041722D02*
X11348015Y-13146484D01*
X11738491Y-12936960D02*
X11567063Y-13194103D01*
X11995634Y-12946484D02*
X12014682Y-12946484D01*
X12014682Y-12946484D02*
X12033729Y-12956008D01*
X12033729Y-12956008D02*
X12043253Y-12965531D01*
X12043253Y-12965531D02*
X12052777Y-12984579D01*
X12052777Y-12984579D02*
X12062301Y-13022674D01*
X12062301Y-13022674D02*
X12062301Y-13070293D01*
X12062301Y-13070293D02*
X12052777Y-13108388D01*
X12052777Y-13108388D02*
X12043253Y-13127436D01*
X12043253Y-13127436D02*
X12033729Y-13136960D01*
X12033729Y-13136960D02*
X12014682Y-13146484D01*
X12014682Y-13146484D02*
X11995634Y-13146484D01*
X11995634Y-13146484D02*
X11976586Y-13136960D01*
X11976586Y-13136960D02*
X11967063Y-13127436D01*
X11967063Y-13127436D02*
X11957539Y-13108388D01*
X11957539Y-13108388D02*
X11948015Y-13070293D01*
X11948015Y-13070293D02*
X11948015Y-13022674D01*
X11948015Y-13022674D02*
X11957539Y-12984579D01*
X11957539Y-12984579D02*
X11967063Y-12965531D01*
X11967063Y-12965531D02*
X11976586Y-12956008D01*
X11976586Y-12956008D02*
X11995634Y-12946484D01*
X12148015Y-13127436D02*
X12157539Y-13136960D01*
X12157539Y-13136960D02*
X12148015Y-13146484D01*
X12148015Y-13146484D02*
X12138491Y-13136960D01*
X12138491Y-13136960D02*
X12148015Y-13127436D01*
X12148015Y-13127436D02*
X12148015Y-13146484D01*
X12281348Y-12946484D02*
X12300396Y-12946484D01*
X12300396Y-12946484D02*
X12319444Y-12956008D01*
X12319444Y-12956008D02*
X12328967Y-12965531D01*
X12328967Y-12965531D02*
X12338491Y-12984579D01*
X12338491Y-12984579D02*
X12348015Y-13022674D01*
X12348015Y-13022674D02*
X12348015Y-13070293D01*
X12348015Y-13070293D02*
X12338491Y-13108388D01*
X12338491Y-13108388D02*
X12328967Y-13127436D01*
X12328967Y-13127436D02*
X12319444Y-13136960D01*
X12319444Y-13136960D02*
X12300396Y-13146484D01*
X12300396Y-13146484D02*
X12281348Y-13146484D01*
X12281348Y-13146484D02*
X12262301Y-13136960D01*
X12262301Y-13136960D02*
X12252777Y-13127436D01*
X12252777Y-13127436D02*
X12243253Y-13108388D01*
X12243253Y-13108388D02*
X12233729Y-13070293D01*
X12233729Y-13070293D02*
X12233729Y-13022674D01*
X12233729Y-13022674D02*
X12243253Y-12984579D01*
X12243253Y-12984579D02*
X12252777Y-12965531D01*
X12252777Y-12965531D02*
X12262301Y-12956008D01*
X12262301Y-12956008D02*
X12281348Y-12946484D01*
X12414682Y-12946484D02*
X12548015Y-12946484D01*
X12548015Y-12946484D02*
X12462301Y-13146484D01*
X12614682Y-12965531D02*
X12624206Y-12956008D01*
X12624206Y-12956008D02*
X12643253Y-12946484D01*
X12643253Y-12946484D02*
X12690872Y-12946484D01*
X12690872Y-12946484D02*
X12709920Y-12956008D01*
X12709920Y-12956008D02*
X12719444Y-12965531D01*
X12719444Y-12965531D02*
X12728967Y-12984579D01*
X12728967Y-12984579D02*
X12728967Y-13003627D01*
X12728967Y-13003627D02*
X12719444Y-13032198D01*
X12719444Y-13032198D02*
X12605158Y-13146484D01*
X12605158Y-13146484D02*
X12728967Y-13146484D01*
X12843253Y-13032198D02*
X12824206Y-13022674D01*
X12824206Y-13022674D02*
X12814682Y-13013150D01*
X12814682Y-13013150D02*
X12805158Y-12994103D01*
X12805158Y-12994103D02*
X12805158Y-12984579D01*
X12805158Y-12984579D02*
X12814682Y-12965531D01*
X12814682Y-12965531D02*
X12824206Y-12956008D01*
X12824206Y-12956008D02*
X12843253Y-12946484D01*
X12843253Y-12946484D02*
X12881348Y-12946484D01*
X12881348Y-12946484D02*
X12900396Y-12956008D01*
X12900396Y-12956008D02*
X12909920Y-12965531D01*
X12909920Y-12965531D02*
X12919444Y-12984579D01*
X12919444Y-12984579D02*
X12919444Y-12994103D01*
X12919444Y-12994103D02*
X12909920Y-13013150D01*
X12909920Y-13013150D02*
X12900396Y-13022674D01*
X12900396Y-13022674D02*
X12881348Y-13032198D01*
X12881348Y-13032198D02*
X12843253Y-13032198D01*
X12843253Y-13032198D02*
X12824206Y-13041722D01*
X12824206Y-13041722D02*
X12814682Y-13051246D01*
X12814682Y-13051246D02*
X12805158Y-13070293D01*
X12805158Y-13070293D02*
X12805158Y-13108388D01*
X12805158Y-13108388D02*
X12814682Y-13127436D01*
X12814682Y-13127436D02*
X12824206Y-13136960D01*
X12824206Y-13136960D02*
X12843253Y-13146484D01*
X12843253Y-13146484D02*
X12881348Y-13146484D01*
X12881348Y-13146484D02*
X12900396Y-13136960D01*
X12900396Y-13136960D02*
X12909920Y-13127436D01*
X12909920Y-13127436D02*
X12919444Y-13108388D01*
X12919444Y-13108388D02*
X12919444Y-13070293D01*
X12919444Y-13070293D02*
X12909920Y-13051246D01*
X12909920Y-13051246D02*
X12900396Y-13041722D01*
X12900396Y-13041722D02*
X12881348Y-13032198D01*
X12995634Y-12946484D02*
X12995634Y-12984579D01*
X13071825Y-12946484D02*
X13071825Y-12984579D01*
X13367063Y-13222674D02*
X13357539Y-13213150D01*
X13357539Y-13213150D02*
X13338491Y-13184579D01*
X13338491Y-13184579D02*
X13328968Y-13165531D01*
X13328968Y-13165531D02*
X13319444Y-13136960D01*
X13319444Y-13136960D02*
X13309920Y-13089341D01*
X13309920Y-13089341D02*
X13309920Y-13051246D01*
X13309920Y-13051246D02*
X13319444Y-13003627D01*
X13319444Y-13003627D02*
X13328968Y-12975055D01*
X13328968Y-12975055D02*
X13338491Y-12956008D01*
X13338491Y-12956008D02*
X13357539Y-12927436D01*
X13357539Y-12927436D02*
X13367063Y-12917912D01*
X13424206Y-12946484D02*
X13548015Y-12946484D01*
X13548015Y-12946484D02*
X13481348Y-13022674D01*
X13481348Y-13022674D02*
X13509920Y-13022674D01*
X13509920Y-13022674D02*
X13528968Y-13032198D01*
X13528968Y-13032198D02*
X13538491Y-13041722D01*
X13538491Y-13041722D02*
X13548015Y-13060769D01*
X13548015Y-13060769D02*
X13548015Y-13108388D01*
X13548015Y-13108388D02*
X13538491Y-13127436D01*
X13538491Y-13127436D02*
X13528968Y-13136960D01*
X13528968Y-13136960D02*
X13509920Y-13146484D01*
X13509920Y-13146484D02*
X13452777Y-13146484D01*
X13452777Y-13146484D02*
X13433729Y-13136960D01*
X13433729Y-13136960D02*
X13424206Y-13127436D01*
X13786110Y-13146484D02*
X13786110Y-12946484D01*
X13871825Y-13146484D02*
X13871825Y-13041722D01*
X13871825Y-13041722D02*
X13862301Y-13022674D01*
X13862301Y-13022674D02*
X13843253Y-13013150D01*
X13843253Y-13013150D02*
X13814682Y-13013150D01*
X13814682Y-13013150D02*
X13795634Y-13022674D01*
X13795634Y-13022674D02*
X13786110Y-13032198D01*
X13995634Y-13146484D02*
X13976587Y-13136960D01*
X13976587Y-13136960D02*
X13967063Y-13127436D01*
X13967063Y-13127436D02*
X13957539Y-13108388D01*
X13957539Y-13108388D02*
X13957539Y-13051246D01*
X13957539Y-13051246D02*
X13967063Y-13032198D01*
X13967063Y-13032198D02*
X13976587Y-13022674D01*
X13976587Y-13022674D02*
X13995634Y-13013150D01*
X13995634Y-13013150D02*
X14024206Y-13013150D01*
X14024206Y-13013150D02*
X14043253Y-13022674D01*
X14043253Y-13022674D02*
X14052777Y-13032198D01*
X14052777Y-13032198D02*
X14062301Y-13051246D01*
X14062301Y-13051246D02*
X14062301Y-13108388D01*
X14062301Y-13108388D02*
X14052777Y-13127436D01*
X14052777Y-13127436D02*
X14043253Y-13136960D01*
X14043253Y-13136960D02*
X14024206Y-13146484D01*
X14024206Y-13146484D02*
X13995634Y-13146484D01*
X14176587Y-13146484D02*
X14157539Y-13136960D01*
X14157539Y-13136960D02*
X14148015Y-13117912D01*
X14148015Y-13117912D02*
X14148015Y-12946484D01*
X14328968Y-13136960D02*
X14309920Y-13146484D01*
X14309920Y-13146484D02*
X14271825Y-13146484D01*
X14271825Y-13146484D02*
X14252777Y-13136960D01*
X14252777Y-13136960D02*
X14243253Y-13117912D01*
X14243253Y-13117912D02*
X14243253Y-13041722D01*
X14243253Y-13041722D02*
X14252777Y-13022674D01*
X14252777Y-13022674D02*
X14271825Y-13013150D01*
X14271825Y-13013150D02*
X14309920Y-13013150D01*
X14309920Y-13013150D02*
X14328968Y-13022674D01*
X14328968Y-13022674D02*
X14338491Y-13041722D01*
X14338491Y-13041722D02*
X14338491Y-13060769D01*
X14338491Y-13060769D02*
X14243253Y-13079817D01*
X14414682Y-13136960D02*
X14433730Y-13146484D01*
X14433730Y-13146484D02*
X14471825Y-13146484D01*
X14471825Y-13146484D02*
X14490872Y-13136960D01*
X14490872Y-13136960D02*
X14500396Y-13117912D01*
X14500396Y-13117912D02*
X14500396Y-13108388D01*
X14500396Y-13108388D02*
X14490872Y-13089341D01*
X14490872Y-13089341D02*
X14471825Y-13079817D01*
X14471825Y-13079817D02*
X14443253Y-13079817D01*
X14443253Y-13079817D02*
X14424206Y-13070293D01*
X14424206Y-13070293D02*
X14414682Y-13051246D01*
X14414682Y-13051246D02*
X14414682Y-13041722D01*
X14414682Y-13041722D02*
X14424206Y-13022674D01*
X14424206Y-13022674D02*
X14443253Y-13013150D01*
X14443253Y-13013150D02*
X14471825Y-13013150D01*
X14471825Y-13013150D02*
X14490872Y-13022674D01*
X14567063Y-13222674D02*
X14576587Y-13213150D01*
X14576587Y-13213150D02*
X14595634Y-13184579D01*
X14595634Y-13184579D02*
X14605158Y-13165531D01*
X14605158Y-13165531D02*
X14614682Y-13136960D01*
X14614682Y-13136960D02*
X14624206Y-13089341D01*
X14624206Y-13089341D02*
X14624206Y-13051246D01*
X14624206Y-13051246D02*
X14614682Y-13003627D01*
X14614682Y-13003627D02*
X14605158Y-12975055D01*
X14605158Y-12975055D02*
X14595634Y-12956008D01*
X14595634Y-12956008D02*
X14576587Y-12927436D01*
X14576587Y-12927436D02*
X14567063Y-12917912D01*
M02*
