M48
; DRILL file {KiCad 9.0.2} date 2025-10-25T21:33:29-0500
; FORMAT={-:-/ absolute / metric / decimal}
; #@! TF.CreationDate,2025-10-25T21:33:29-05:00
; #@! TF.GenerationSoftware,Kicad,Pcbnew,9.0.2
; #@! TF.FileFunction,Plated,1,2,PTH
FMAT,2
METRIC
; #@! TA.AperFunction,Plated,PTH,ViaDrill
T1C0.200
; #@! TA.AperFunction,Plated,PTH,ComponentDrill
T2C0.200
; #@! TA.AperFunction,Plated,PTH,ViaDrill
T3C0.300
; #@! TA.AperFunction,Plated,PTH,ViaDrill
T4C0.600
; #@! TA.AperFunction,Plated,PTH,ComponentDrill
T5C0.750
; #@! TA.AperFunction,Plated,PTH,ComponentDrill
T6C1.000
; #@! TA.AperFunction,Plated,PTH,ComponentDrill
T7C1.100
; #@! TA.AperFunction,Plated,PTH,ComponentDrill
T8C1.250
; #@! TA.AperFunction,Plated,PTH,ComponentDrill
T9C1.750
; #@! TA.AperFunction,Plated,PTH,ComponentDrill
T10C1.850
%
G90
G05
T1
X104.2Y-48.4
X111.2Y-83.8
X111.8Y-58.8
X114.15Y-66.4
X114.15Y-70.2
X118.6Y-73.2
X122.6Y-58.2
X122.6Y-59.35
X124.794Y-61.75
X125.0Y-68.4
X125.35Y-55.05
X127.6Y-76.2
X131.4Y-68.4
X135.76Y-83.11
X135.875Y-67.775
X138.0Y-52.6
X139.4Y-67.8
X142.2Y-67.8
X143.4Y-78.8
X145.25Y-67.8
X147.73Y-58.31
X147.866Y-59.446
X149.305Y-61.167
X149.4Y-70.4
X150.05Y-55.1
X151.7Y-70.6
X152.0Y-90.8
X152.0Y-96.4
X154.0Y-55.25
X155.0Y-59.8
X155.436Y-71.362
X158.1Y-70.55
X159.6Y-90.8
X161.54Y-70.55
X162.6Y-66.8
T2
X125.05Y-57.3
X125.05Y-58.3
X125.05Y-59.3
X125.05Y-60.3
X126.05Y-57.3
X126.05Y-58.3
X126.05Y-59.3
X126.05Y-60.3
X127.05Y-57.3
X127.05Y-58.3
X127.05Y-59.3
X127.05Y-60.3
X128.05Y-57.3
X128.05Y-58.3
X128.05Y-59.3
X128.05Y-60.3
X150.05Y-57.3
X150.05Y-58.3
X150.05Y-59.3
X150.05Y-60.3
X151.05Y-57.3
X151.05Y-58.3
X151.05Y-59.3
X151.05Y-60.3
X152.05Y-57.3
X152.05Y-58.3
X152.05Y-59.3
X152.05Y-60.3
X153.05Y-57.3
X153.05Y-58.3
X153.05Y-59.3
X153.05Y-60.3
T3
X138.7Y-58.45
X143.35Y-63.8
X144.75Y-65.05
T4
X137.5Y-80.15
T5
X152.55Y-79.2
X152.55Y-81.2
X152.55Y-83.2
X152.55Y-85.2
X160.55Y-79.2
X160.55Y-81.2
X160.55Y-83.2
X160.55Y-85.2
T6
X108.37Y-46.23
X108.37Y-48.77
X110.91Y-46.23
X110.91Y-48.77
X113.45Y-46.23
X113.45Y-48.77
X115.99Y-46.23
X115.99Y-48.77
X118.53Y-46.23
X118.53Y-48.77
X121.07Y-46.23
X121.07Y-48.77
X123.61Y-46.23
X123.61Y-48.77
X126.15Y-46.23
X126.15Y-48.77
X128.69Y-46.23
X128.69Y-48.77
X131.23Y-46.23
X131.23Y-48.77
X133.77Y-46.23
X133.77Y-48.77
X136.31Y-46.23
X136.31Y-48.77
X138.85Y-46.23
X138.85Y-48.77
X141.39Y-46.23
X141.39Y-48.77
X143.93Y-46.23
X143.93Y-48.77
X146.47Y-46.23
X146.47Y-48.77
X149.01Y-46.23
X149.01Y-48.77
X151.55Y-46.23
X151.55Y-48.77
X154.09Y-46.23
X154.09Y-48.77
X156.63Y-46.23
X156.63Y-48.77
T7
X132.71Y-73.45
X137.79Y-73.45
T8
X111.0Y-79.85
X111.0Y-87.47
T9
X112.27Y-97.0
X116.23Y-97.0
T10
X124.0Y-85.45
X124.0Y-90.15
X124.0Y-94.85
M30
